<svg width="290" height="222" viewBox="0 0 290 222" fill="none" xmlns="http://www.w3.org/2000/svg">
<g filter="url(#filter0_dd_303_13376)">
<rect x="41.5115" y="21.5" width="207" height="139" rx="5" fill="white"/>
<rect x="41.0115" y="21" width="208" height="140" rx="5.5" stroke="#D6DCE5"/>
<path d="M108.464 72.7929C109.845 70.9924 110.782 68.5749 110.535 66.1045C108.514 66.2093 106.047 67.4947 104.618 69.2966C103.336 70.8396 102.201 73.3583 102.497 75.7251C104.766 75.9303 107.033 74.5428 108.464 72.7929Z" fill="#000008"/>
<path d="M110.509 76.1873C107.214 75.9827 104.412 78.1369 102.838 78.1369C101.263 78.1369 98.853 76.2904 96.2463 76.3402C92.8535 76.3921 89.7054 78.3916 87.9837 81.5718C84.4425 87.9336 87.0492 97.3705 90.4929 102.552C92.1652 105.115 94.1806 107.938 96.8363 107.836C99.3454 107.734 100.329 106.143 103.379 106.143C106.427 106.143 107.312 107.836 109.969 107.785C112.723 107.734 114.445 105.22 116.117 102.655C118.036 99.7324 118.821 96.9108 118.87 96.7559C118.821 96.7046 113.559 94.6006 113.51 88.2916C113.461 83.009 117.642 80.4963 117.838 80.3405C115.477 76.7008 111.788 76.2904 110.509 76.1873Z" fill="#000008"/>
<path d="M139.206 69.0382C146.369 69.0382 151.357 74.1847 151.357 81.6777C151.357 89.1975 146.266 94.3708 139.026 94.3708H131.095V107.517H125.365V69.0381L139.206 69.0382ZM131.095 89.3575H137.67C142.659 89.3575 145.498 86.5579 145.498 81.7045C145.498 76.8516 142.659 74.0782 137.696 74.0782H131.095V89.3575Z" fill="#000008"/>
<path d="M152.854 99.5441C152.854 94.6372 156.461 91.6241 162.857 91.2507L170.224 90.7976V88.6378C170.224 85.5178 168.203 83.6512 164.827 83.6512C161.628 83.6512 159.633 85.2509 159.147 87.7578H153.928C154.235 82.6909 158.379 78.9578 165.031 78.9578C171.555 78.9578 175.725 82.5577 175.725 88.1842V107.517H170.429V102.904H170.301C168.741 106.024 165.338 107.997 161.808 107.997C156.538 107.997 152.854 104.584 152.854 99.5441ZM170.224 97.0109V94.7977L163.598 95.2241C160.298 95.4643 158.431 96.9842 158.431 99.3841C158.431 101.837 160.375 103.437 163.343 103.437C167.205 103.437 170.224 100.664 170.224 97.0109Z" fill="#000008"/>
<path d="M180.724 117.837V113.17C181.133 113.277 182.054 113.277 182.515 113.277C185.073 113.277 186.454 112.157 187.298 109.277C187.298 109.224 187.785 107.57 187.785 107.544L178.064 79.4644H184.049L190.855 102.291H190.957L197.763 79.4644H203.595L193.515 108.983C191.213 115.784 188.553 117.97 182.976 117.97C182.515 117.97 181.133 117.917 180.724 117.837Z" fill="#000008"/>
</g>
<defs>
<filter id="filter0_dd_303_13376" x="0.511475" y="0.5" width="289" height="221" filterUnits="userSpaceOnUse" color-interpolation-filters="sRGB">
<feFlood flood-opacity="0" result="BackgroundImageFix"/>
<feColorMatrix in="SourceAlpha" type="matrix" values="0 0 0 0 0 0 0 0 0 0 0 0 0 0 0 0 0 0 127 0" result="hardAlpha"/>
<feOffset dy="2"/>
<feGaussianBlur stdDeviation="10"/>
<feColorMatrix type="matrix" values="0 0 0 0 0.717647 0 0 0 0 0.717647 0 0 0 0 0.717647 0 0 0 0.08 0"/>
<feBlend mode="normal" in2="BackgroundImageFix" result="effect1_dropShadow_303_13376"/>
<feColorMatrix in="SourceAlpha" type="matrix" values="0 0 0 0 0 0 0 0 0 0 0 0 0 0 0 0 0 0 127 0" result="hardAlpha"/>
<feOffset dy="20"/>
<feGaussianBlur stdDeviation="20"/>
<feColorMatrix type="matrix" values="0 0 0 0 0.717647 0 0 0 0 0.717647 0 0 0 0 0.717647 0 0 0 0.08 0"/>
<feBlend mode="normal" in2="effect1_dropShadow_303_13376" result="effect2_dropShadow_303_13376"/>
<feBlend mode="normal" in="SourceGraphic" in2="effect2_dropShadow_303_13376" result="shape"/>
</filter>
</defs>
</svg>
