<svg width="75" height="76" viewBox="0 0 75 76" fill="none" xmlns="http://www.w3.org/2000/svg">
<rect x="8.91577" y="37.6609" width="47.1516" height="32.7961" fill="#DFC55D"/>
<path d="M62.5158 18.966C64.2225 18.966 65.8257 19.2704 67.3255 19.879C68.8253 20.4876 70.1312 21.3275 71.2431 22.3987C72.355 23.4699 73.2472 24.7115 73.9195 26.1235C74.5918 27.5355 74.928 29.0449 74.928 30.6517V49.3487C74.928 50.9554 74.6047 52.4648 73.9583 53.8768C73.3118 55.2889 72.4197 56.5304 71.2819 57.6016C70.1441 58.6728 68.8253 59.5127 67.3255 60.1213C65.8257 60.73 64.2225 61.0343 62.5158 61.0343H60.0333V68.0457C60.0333 69.0195 59.8394 69.9324 59.4515 70.7845C59.0636 71.6366 58.5335 72.3791 57.8612 73.012C57.1889 73.645 56.4002 74.1441 55.4951 74.5093C54.5901 74.8744 53.6204 75.057 52.586 75.057H12.867C11.8327 75.057 10.863 74.8744 9.95792 74.5093C9.05286 74.1441 8.26417 73.645 7.59184 73.012C6.91952 72.3791 6.38941 71.6366 6.00153 70.7845C5.61365 69.9324 5.41971 69.0195 5.41971 68.0457V17.6879C3.89405 16.8602 2.69161 15.7281 1.81242 14.2918C0.93322 12.8554 0.480693 11.2973 0.454834 9.61754C0.454834 8.3516 0.713421 7.14652 1.2306 6.0023C1.74777 4.85808 2.44596 3.87211 3.32515 3.04438C4.20435 2.21665 5.25163 1.54716 6.46699 1.03591C7.68235 0.524666 8.96236 0.269043 10.307 0.269043H55.0685C56.439 0.269043 57.719 0.512493 58.9085 0.999394C60.098 1.4863 61.1582 2.15578 62.0891 3.00786C63.02 3.85994 63.7311 4.84591 64.2225 5.96578C64.7138 7.08566 64.9724 8.30291 64.9982 9.61754C64.9982 10.4696 64.8819 11.3095 64.6491 12.1373C64.4164 12.965 64.0802 13.744 63.6406 14.4744C63.201 15.2047 62.6709 15.8864 62.0503 16.5194C61.4297 17.1523 60.7574 17.6758 60.0333 18.0896V18.966H62.5158ZM10.3458 4.94329C9.67347 4.94329 9.03993 5.06502 8.44518 5.30847C7.85043 5.55192 7.32033 5.88058 6.85487 6.29444C6.38941 6.70831 6.04032 7.20738 5.80759 7.79166C5.57486 8.37594 5.44557 8.98457 5.41971 9.61754C5.41971 10.5913 5.71709 11.4799 6.31184 12.2833C6.90659 13.0867 7.70821 13.6588 8.7167 13.9997L10.3846 14.5474V35.3259C10.3846 35.9589 10.6302 36.5066 11.1216 36.9692C11.6129 37.4318 12.1947 37.663 12.867 37.663C13.5394 37.663 14.1212 37.4318 14.6125 36.9692C15.1038 36.5066 15.3495 35.9589 15.3495 35.3259V21.3032C15.3495 20.3294 15.5434 19.4164 15.9313 18.5643C16.3192 17.7123 16.8493 16.9697 17.5216 16.3368C18.1939 15.7038 18.9826 15.2047 19.8877 14.8396C20.7927 14.4744 21.7624 14.2918 22.7968 14.2918C23.8311 14.2918 24.8008 14.4744 25.7059 14.8396C26.6109 15.2047 27.3996 15.7038 28.072 16.3368C28.7443 16.9697 29.2744 17.7123 29.6623 18.5643C30.0501 19.4164 30.2441 20.3294 30.2441 21.3032V30.6517C30.2441 31.2846 30.4897 31.8324 30.9811 32.295C31.4724 32.7575 32.0542 32.9888 32.7265 32.9888C33.3989 32.9888 33.9807 32.7575 34.472 32.295C34.9633 31.8324 35.209 31.2846 35.209 30.6517V21.3032C35.209 20.3294 35.4029 19.4164 35.7908 18.5643C36.1787 17.7123 36.7088 16.9697 37.3811 16.3368C38.0534 15.7038 38.8421 15.2047 39.7472 14.8396C40.6522 14.4744 41.6219 14.2918 42.6563 14.2918H57.0467C57.9 13.9023 58.6111 13.2693 59.18 12.3929C59.7489 11.5165 60.0333 10.5913 60.0333 9.61754C60.0333 8.96023 59.9041 8.3516 59.6455 7.79166C59.3869 7.23173 59.0378 6.74483 58.5982 6.33096C58.1586 5.91709 57.6285 5.57626 57.0079 5.30847C56.3873 5.04067 55.7408 4.91895 55.0685 4.94329H10.3458ZM55.0685 68.0457V65.2703C54.6806 65.392 54.2798 65.4894 53.866 65.5625C53.4523 65.6355 53.0256 65.6842 52.586 65.7085H12.867C12.4274 65.7085 12.0008 65.672 11.587 65.599C11.1733 65.5259 10.7725 65.4164 10.3846 65.2703V68.0457C10.3846 68.6786 10.6302 69.2264 11.1216 69.6889C11.6129 70.1515 12.1947 70.3828 12.867 70.3828H52.586C53.2584 70.3828 53.8402 70.1515 54.3315 69.6889C54.8228 69.2264 55.0685 68.6786 55.0685 68.0457ZM52.586 61.0343C53.2584 61.0343 53.8402 60.803 54.3315 60.3404C54.8228 59.8779 55.0685 59.3301 55.0685 58.6972V18.966H42.6563C41.984 18.966 41.4021 19.1973 40.9108 19.6599C40.4195 20.1224 40.1738 20.6702 40.1738 21.3032V30.6517C40.1738 31.6255 39.9799 32.5384 39.592 33.3905C39.2041 34.2426 38.674 34.9851 38.0017 35.6181C37.3294 36.251 36.5407 36.7501 35.6356 37.1153C34.7306 37.4804 33.7609 37.663 32.7265 37.663C31.6922 37.663 30.7225 37.4804 29.8174 37.1153C28.9124 36.7501 28.1237 36.251 27.4513 35.6181C26.779 34.9851 26.2489 34.2426 25.861 33.3905C25.4732 32.5384 25.2792 31.6255 25.2792 30.6517V21.3032C25.2792 20.6702 25.0336 20.1224 24.5422 19.6599C24.0509 19.1973 23.4691 18.966 22.7968 18.966C22.1244 18.966 21.5426 19.1973 21.0513 19.6599C20.56 20.1224 20.3143 20.6702 20.3143 21.3032V35.3259C20.3143 36.2997 20.1204 37.2127 19.7325 38.0647C19.3446 38.9168 18.8145 39.6593 18.1422 40.2923C17.4699 40.9253 16.6812 41.4243 15.7761 41.7895C14.8711 42.1547 13.9014 42.3373 12.867 42.3373C12.0137 42.3373 11.1862 42.2034 10.3846 41.9356V58.6972C10.3846 59.3301 10.6302 59.8779 11.1216 60.3404C11.6129 60.803 12.1947 61.0343 12.867 61.0343H20.3143V44.6744C20.3143 44.0171 20.56 43.4693 21.0513 43.0311C21.5426 42.5929 22.1244 42.3616 22.7968 42.3373C23.4691 42.3373 24.0509 42.5564 24.5422 42.9946C25.0336 43.4328 25.2792 43.9928 25.2792 44.6744V61.0343H40.1738V40.0002C40.1738 39.3428 40.4195 38.7951 40.9108 38.3569C41.4021 37.9187 41.984 37.6874 42.6563 37.663C43.3286 37.663 43.9104 37.8821 44.4017 38.3204C44.8931 38.7586 45.1387 39.3185 45.1387 40.0002V61.0343H52.586ZM69.9631 49.3487V30.6517C69.9631 29.6779 69.7692 28.7649 69.3813 27.9128C68.9934 27.0608 68.4633 26.3182 67.791 25.6853C67.1186 25.0523 66.3299 24.5532 65.4249 24.1881C64.5198 23.8229 63.5501 23.6403 62.5158 23.6403H60.0333V56.36H62.5158C63.5501 56.36 64.5198 56.1774 65.4249 55.8123C66.3299 55.4471 67.1186 54.948 67.791 54.315C68.4633 53.6821 68.9934 52.9396 69.3813 52.0875C69.7692 51.2354 69.9631 50.3225 69.9631 49.3487Z" fill="#C27801"/>
</svg>
