<svg width="80" height="78" viewBox="0 0 80 78" fill="none" xmlns="http://www.w3.org/2000/svg">
<path d="M66.6352 19.4666C68.4458 19.4666 70.1466 19.7828 71.7377 20.4153C73.3288 21.0477 74.7142 21.9205 75.8938 23.0336C77.0734 24.1467 78.0198 25.4368 78.733 26.9041C79.4463 28.3714 79.8029 29.9398 79.8029 31.6094V51.038C79.8029 52.7076 79.46 54.2761 78.7742 55.7433C78.0884 57.2106 77.1419 58.5008 75.9349 59.6138C74.7279 60.7269 73.3288 61.5997 71.7377 62.2321C70.1466 62.8646 68.4458 63.1808 66.6352 63.1808H64.0017V70.4665C64.0017 71.4784 63.796 72.4271 63.3845 73.3125C62.973 74.1979 62.4106 74.9695 61.6974 75.6272C60.9841 76.2849 60.1474 76.8035 59.1873 77.183C58.2271 77.5625 57.1984 77.7522 56.1011 77.7522H13.9645C12.8672 77.7522 11.8385 77.5625 10.8784 77.183C9.91823 76.8035 9.08154 76.2849 8.36829 75.6272C7.65504 74.9695 7.09267 74.1979 6.68118 73.3125C6.26969 72.4271 6.06394 71.4784 6.06394 70.4665V18.1385C4.44542 17.2784 3.1698 16.102 2.23709 14.6095C1.30438 13.1169 0.824308 11.4979 0.796875 9.75235C0.796875 8.43688 1.0712 7.18465 1.61985 5.99566C2.16851 4.80668 2.90919 3.78213 3.8419 2.92201C4.77461 2.06189 5.88563 1.36621 7.17497 0.834959C8.4643 0.30371 9.82222 0.0380859 11.2487 0.0380859H58.7346C60.1886 0.0380859 61.5465 0.291062 62.8084 0.797013C64.0703 1.30296 65.195 1.99865 66.1826 2.88406C67.1702 3.76948 67.9246 4.79403 68.4458 5.95772C68.967 7.1214 69.2413 8.38628 69.2688 9.75235C69.2688 10.6378 69.1453 11.5105 68.8984 12.3706C68.6515 13.2308 68.2949 14.0403 67.8286 14.7992C67.3622 15.5581 66.7998 16.2665 66.1414 16.9242C65.4831 17.5819 64.7698 18.1258 64.0017 18.5559V19.4666H66.6352ZM11.2899 4.89522C10.5766 4.89522 9.90451 5.02171 9.27356 5.27468C8.64261 5.52766 8.08024 5.86917 7.58646 6.29923C7.09267 6.72929 6.72233 7.24789 6.47543 7.85503C6.22854 8.46217 6.09138 9.09461 6.06394 9.75235C6.06394 10.7643 6.37942 11.6876 7.01037 12.5224C7.64132 13.3573 8.49173 13.9517 9.56161 14.3059L11.331 14.8751V36.4666C11.331 37.1243 11.5916 37.6935 12.1128 38.1742C12.6341 38.6548 13.2513 38.8951 13.9645 38.8951C14.6778 38.8951 15.295 38.6548 15.8163 38.1742C16.3375 37.6935 16.5981 37.1243 16.5981 36.4666V21.8952C16.5981 20.8833 16.8038 19.9346 17.2153 19.0492C17.6268 18.1638 18.1892 17.3922 18.9024 16.7345C19.6157 16.0767 20.4524 15.5581 21.4125 15.1787C22.3727 14.7992 23.4014 14.6095 24.4987 14.6095C25.596 14.6095 26.6247 14.7992 27.5849 15.1787C28.545 15.5581 29.3817 16.0767 30.0949 16.7345C30.8082 17.3922 31.3706 18.1638 31.7821 19.0492C32.1935 19.9346 32.3993 20.8833 32.3993 21.8952V31.6094C32.3993 32.2672 32.6599 32.8364 33.1811 33.317C33.7023 33.7977 34.3196 34.038 35.0328 34.038C35.7461 34.038 36.3633 33.7977 36.8845 33.317C37.4057 32.8364 37.6664 32.2672 37.6664 31.6094V21.8952C37.6664 20.8833 37.8721 19.9346 38.2836 19.0492C38.6951 18.1638 39.2575 17.3922 39.9707 16.7345C40.6839 16.0767 41.5206 15.5581 42.4808 15.1787C43.4409 14.7992 44.4697 14.6095 45.567 14.6095H60.8332C61.7385 14.2047 62.4929 13.547 63.0964 12.6363C63.6999 11.7256 64.0017 10.7643 64.0017 9.75235C64.0017 9.06932 63.8645 8.43688 63.5902 7.85503C63.3159 7.27319 62.9455 6.76724 62.4792 6.33718C62.0128 5.90712 61.4505 5.55295 60.7921 5.27468C60.1337 4.99641 59.4479 4.86992 58.7346 4.89522H11.2899ZM58.7346 70.4665V67.5826C58.3231 67.7091 57.8979 67.8103 57.459 67.8861C57.0201 67.962 56.5675 68.0126 56.1011 68.0379H13.9645C13.4982 68.0379 13.0456 68 12.6066 67.9241C12.1677 67.8482 11.7425 67.7344 11.331 67.5826V70.4665C11.331 71.1242 11.5916 71.6934 12.1128 72.1741C12.6341 72.6547 13.2513 72.8951 13.9645 72.8951H56.1011C56.8143 72.8951 57.4316 72.6547 57.9528 72.1741C58.474 71.6934 58.7346 71.1242 58.7346 70.4665ZM56.1011 63.1808C56.8143 63.1808 57.4316 62.9405 57.9528 62.4598C58.474 61.9792 58.7346 61.41 58.7346 60.7522V19.4666H45.567C44.8537 19.4666 44.2365 19.7069 43.7153 20.1876C43.194 20.6682 42.9334 21.2374 42.9334 21.8952V31.6094C42.9334 32.6213 42.7277 33.57 42.3162 34.4554C41.9047 35.3408 41.3423 36.1124 40.6291 36.7701C39.9158 37.4279 39.0791 37.9465 38.119 38.3259C37.1589 38.7054 36.1301 38.8951 35.0328 38.8951C33.9355 38.8951 32.9068 38.7054 31.9466 38.3259C30.9865 37.9465 30.1498 37.4279 29.4366 36.7701C28.7233 36.1124 28.1609 35.3408 27.7495 34.4554C27.338 33.57 27.1322 32.6213 27.1322 31.6094V21.8952C27.1322 21.2374 26.8716 20.6682 26.3504 20.1876C25.8292 19.7069 25.2119 19.4666 24.4987 19.4666C23.7854 19.4666 23.1682 19.7069 22.647 20.1876C22.1258 20.6682 21.8652 21.2374 21.8652 21.8952V36.4666C21.8652 37.4785 21.6594 38.4271 21.2479 39.3126C20.8364 40.198 20.2741 40.9695 19.5608 41.6273C18.8476 42.285 18.0109 42.8036 17.0507 43.1831C16.0906 43.5625 15.0619 43.7523 13.9645 43.7523C13.0593 43.7523 12.1814 43.6131 11.331 43.3349V60.7522C11.331 61.41 11.5916 61.9792 12.1128 62.4598C12.6341 62.9405 13.2513 63.1808 13.9645 63.1808H21.8652V46.1808C21.8652 45.4978 22.1258 44.9286 22.647 44.4733C23.1682 44.0179 23.7854 43.7776 24.4987 43.7523C25.2119 43.7523 25.8292 43.98 26.3504 44.4353C26.8716 44.8907 27.1322 45.4725 27.1322 46.1808V63.1808H42.9334V41.3237C42.9334 40.6407 43.194 40.0715 43.7153 39.6161C44.2365 39.1608 44.8537 38.9204 45.567 38.8951C46.2802 38.8951 46.8974 39.1228 47.4187 39.5782C47.9399 40.0335 48.2005 40.6154 48.2005 41.3237V63.1808H56.1011ZM74.5358 51.038V31.6094C74.5358 30.5975 74.3301 29.6489 73.9186 28.7635C73.5071 27.8781 72.9447 27.1065 72.2315 26.4487C71.5182 25.791 70.6816 25.2724 69.7214 24.8929C68.7613 24.5135 67.7325 24.3237 66.6352 24.3237H64.0017V58.3237H66.6352C67.7325 58.3237 68.7613 58.1339 69.7214 57.7545C70.6816 57.375 71.5182 56.8564 72.2315 56.1987C72.9447 55.5409 73.5071 54.7694 73.9186 53.8839C74.3301 52.9985 74.5358 52.0499 74.5358 51.038Z" fill="#16312B"/>
</svg>
