<svg width="95" height="86" viewBox="0 0 95 86" fill="none" xmlns="http://www.w3.org/2000/svg">
<path d="M35.5447 10.7496C36.6845 10.7495 37.8106 10.9769 38.8444 11.4161C39.8783 11.8552 40.7949 12.4955 41.5303 13.2922C42.2657 14.0889 42.8023 15.0228 43.1025 16.0288C43.4027 17.0348 43.4593 18.0886 43.2684 19.1167L50.9959 20.2992C51.294 18.6845 51.2873 17.035 50.9764 15.4223C52.4585 14.5731 54.2087 14.2021 55.948 14.3684C57.6874 14.5347 59.3159 15.2287 60.5741 16.3399C61.8324 17.4511 62.648 18.9156 62.8911 20.5C63.1342 22.0845 62.7908 23.6978 61.9156 25.083H19.878C19.2701 25.0824 18.6707 24.9523 18.1272 24.7031C17.5837 24.4538 17.1111 24.0923 16.7468 23.647C16.3825 23.2018 16.1365 22.6851 16.0282 22.1378C15.92 21.5905 15.9524 21.0276 16.1231 20.4938C16.2937 19.96 16.5979 19.4698 17.0114 19.0621C17.4249 18.6545 17.9365 18.3404 18.5056 18.1449C19.0748 17.9495 19.6858 17.8779 20.2904 17.9358C20.8951 17.9938 21.4766 18.1797 21.9891 18.4789C22.5167 18.788 23.1176 18.9769 23.7414 19.0296C24.3653 19.0823 24.9939 18.9973 25.5744 18.7818C26.1549 18.5662 26.6704 18.2264 27.0777 17.7909C27.485 17.3554 27.7721 16.8368 27.915 16.2787C28.3188 14.7049 29.2922 13.3022 30.6773 12.2985C32.0624 11.2947 33.7777 10.7489 35.5447 10.7496ZM41.4824 4.64722C37.9428 3.32043 33.995 3.22421 30.3832 4.37671C26.7715 5.52921 23.7454 7.85079 21.8755 10.9037C19.361 10.5062 16.7735 10.8684 14.5039 11.9355C12.2343 13.0026 10.4062 14.7167 9.29571 16.8186C8.18525 18.9205 7.85288 21.296 8.34883 23.5861C8.84479 25.8761 10.1421 27.9562 12.0447 29.512V71.6663C12.0447 73.567 12.87 75.3899 14.339 76.7339C15.8081 78.0779 17.8005 78.833 19.878 78.833H59.0447C61.1222 78.833 63.1147 78.0779 64.5837 76.7339C66.0527 75.3899 66.878 73.567 66.878 71.6663H74.7114C76.7889 71.6663 78.7813 70.9112 80.2504 69.5672C81.7194 68.2232 82.5447 66.4004 82.5447 64.4996V39.4163C82.5447 37.5156 81.7194 35.6927 80.2504 34.3487C78.7813 33.0047 76.7889 32.2496 74.7114 32.2496H66.878V30.9811C69.3128 28.459 70.7001 25.2335 70.7968 21.8697C70.8936 18.5058 69.6936 15.2181 67.4072 12.5823C65.1207 9.9465 61.8935 8.13073 58.2908 7.45303C54.6881 6.77533 50.9397 7.27891 47.702 8.87555C46.0485 7.01187 43.9099 5.55795 41.4824 4.64722ZM66.878 39.4163H74.7114V64.4996H66.878V39.4163ZM59.0447 32.2496V71.6663H19.878V32.2496H59.0447ZM27.7114 39.4163V64.4996H35.5447V39.4163H27.7114ZM51.2114 39.4163V64.4996H43.378V39.4163H51.2114Z" fill="#FFF7EA"/>
</svg>
