<svg width="75" height="75" viewBox="0 0 75 75" fill="none" xmlns="http://www.w3.org/2000/svg">
<rect x="8.91577" y="49.1436" width="47.1516" height="21.2183" fill="#DFC55D"/>
<path d="M62.5158 18.8708C64.2225 18.8708 65.8257 19.1751 67.3255 19.7838C68.8253 20.3924 70.1312 21.2323 71.2431 22.3035C72.355 23.3747 73.2472 24.6163 73.9195 26.0283C74.5918 27.4403 74.928 28.9497 74.928 30.5564V49.2534C74.928 50.8602 74.6047 52.3696 73.9583 53.7816C73.3118 55.1936 72.4197 56.4352 71.2819 57.5064C70.1441 58.5776 68.8253 59.4175 67.3255 60.0261C65.8257 60.6348 64.2225 60.9391 62.5158 60.9391H60.0333V67.9504C60.0333 68.9242 59.8394 69.8372 59.4515 70.6893C59.0636 71.5413 58.5335 72.2839 57.8612 72.9168C57.1889 73.5498 56.4002 74.0489 55.4951 74.4141C54.5901 74.7792 53.6204 74.9618 52.586 74.9618H12.867C11.8327 74.9618 10.863 74.7792 9.95792 74.4141C9.05286 74.0489 8.26417 73.5498 7.59184 72.9168C6.91952 72.2839 6.38941 71.5413 6.00153 70.6893C5.61365 69.8372 5.41971 68.9242 5.41971 67.9504V17.5927C3.89405 16.765 2.69161 15.6329 1.81242 14.1966C0.933221 12.7602 0.480693 11.2021 0.454834 9.52233C0.454834 8.25638 0.713421 7.0513 1.2306 5.90709C1.74777 4.76287 2.44596 3.7769 3.32515 2.94916C4.20435 2.12143 5.25163 1.45194 6.46699 0.940697C7.68235 0.429451 8.96236 0.173828 10.307 0.173828H55.0685C56.439 0.173828 57.719 0.417279 58.9085 0.90418C60.098 1.39108 61.1582 2.06057 62.0891 2.91265C63.02 3.76472 63.7311 4.7507 64.2225 5.87057C64.7138 6.99044 64.9724 8.20769 64.9982 9.52233C64.9982 10.3744 64.8819 11.2143 64.6491 12.042C64.4164 12.8698 64.0802 13.6488 63.6406 14.3792C63.201 15.1095 62.6709 15.7912 62.0503 16.4241C61.4297 17.0571 60.7574 17.5805 60.0333 17.9944V18.8708H62.5158ZM10.3458 4.84808C9.67347 4.84808 9.03993 4.9698 8.44518 5.21325C7.85043 5.4567 7.32033 5.78536 6.85487 6.19923C6.38941 6.61309 6.04032 7.11217 5.80759 7.69645C5.57486 8.28073 5.44557 8.88936 5.41971 9.52233C5.41971 10.4961 5.71709 11.3847 6.31184 12.1881C6.90659 12.9915 7.70821 13.5636 8.7167 13.9044L10.3846 14.4522V35.2307C10.3846 35.8637 10.6302 36.4114 11.1216 36.874C11.6129 37.3365 12.1947 37.5678 12.867 37.5678C13.5394 37.5678 14.1212 37.3365 14.6125 36.874C15.1038 36.4114 15.3495 35.8637 15.3495 35.2307V21.2079C15.3495 20.2341 15.5434 19.3212 15.9313 18.4691C16.3192 17.6171 16.8493 16.8745 17.5216 16.2416C18.1939 15.6086 18.9826 15.1095 19.8877 14.7443C20.7927 14.3792 21.7624 14.1966 22.7968 14.1966C23.8311 14.1966 24.8008 14.3792 25.7059 14.7443C26.6109 15.1095 27.3996 15.6086 28.072 16.2416C28.7443 16.8745 29.2744 17.6171 29.6623 18.4691C30.0501 19.3212 30.2441 20.2341 30.2441 21.2079V30.5564C30.2441 31.1894 30.4897 31.7372 30.9811 32.1997C31.4724 32.6623 32.0542 32.8936 32.7265 32.8936C33.3989 32.8936 33.9807 32.6623 34.472 32.1997C34.9633 31.7372 35.209 31.1894 35.209 30.5564V21.2079C35.209 20.2341 35.4029 19.3212 35.7908 18.4691C36.1787 17.6171 36.7088 16.8745 37.3811 16.2416C38.0534 15.6086 38.8421 15.1095 39.7472 14.7443C40.6522 14.3792 41.6219 14.1966 42.6563 14.1966H57.0467C57.9 13.8071 58.6111 13.1741 59.18 12.2977C59.7489 11.4212 60.0333 10.4961 60.0333 9.52233C60.0333 8.86501 59.9041 8.25638 59.6455 7.69645C59.3869 7.13651 59.0378 6.64961 58.5982 6.23574C58.1586 5.82188 57.6285 5.48105 57.0079 5.21325C56.3873 4.94546 55.7408 4.82373 55.0685 4.84808H10.3458ZM55.0685 67.9504V65.1751C54.6806 65.2968 54.2798 65.3942 53.866 65.4672C53.4523 65.5403 53.0256 65.589 52.586 65.6133H12.867C12.4274 65.6133 12.0008 65.5768 11.587 65.5038C11.1733 65.4307 10.7725 65.3212 10.3846 65.1751V67.9504C10.3846 68.5834 10.6302 69.1312 11.1216 69.5937C11.6129 70.0563 12.1947 70.2876 12.867 70.2876H52.586C53.2584 70.2876 53.8402 70.0563 54.3315 69.5937C54.8228 69.1312 55.0685 68.5834 55.0685 67.9504ZM52.586 60.9391C53.2584 60.9391 53.8402 60.7078 54.3315 60.2452C54.8228 59.7827 55.0685 59.2349 55.0685 58.6019V18.8708H42.6563C41.984 18.8708 41.4021 19.1021 40.9108 19.5647C40.4195 20.0272 40.1738 20.575 40.1738 21.2079V30.5564C40.1738 31.5303 39.9799 32.4432 39.592 33.2953C39.2041 34.1473 38.674 34.8899 38.0017 35.5228C37.3294 36.1558 36.5407 36.6549 35.6356 37.0201C34.7306 37.3852 33.7609 37.5678 32.7265 37.5678C31.6922 37.5678 30.7225 37.3852 29.8174 37.0201C28.9124 36.6549 28.1237 36.1558 27.4513 35.5228C26.779 34.8899 26.2489 34.1473 25.861 33.2953C25.4732 32.4432 25.2792 31.5303 25.2792 30.5564V21.2079C25.2792 20.575 25.0336 20.0272 24.5422 19.5647C24.0509 19.1021 23.4691 18.8708 22.7968 18.8708C22.1245 18.8708 21.5426 19.1021 21.0513 19.5647C20.56 20.0272 20.3143 20.575 20.3143 21.2079V35.2307C20.3143 36.2045 20.1204 37.1174 19.7325 37.9695C19.3446 38.8216 18.8145 39.5641 18.1422 40.1971C17.4699 40.8301 16.6812 41.3291 15.7761 41.6943C14.8711 42.0595 13.9014 42.2421 12.867 42.2421C12.0137 42.2421 11.1862 42.1082 10.3846 41.8404V58.6019C10.3846 59.2349 10.6302 59.7827 11.1216 60.2452C11.6129 60.7078 12.1947 60.9391 12.867 60.9391H20.3143V44.5792C20.3143 43.9219 20.56 43.3741 21.0513 42.9359C21.5426 42.4977 22.1245 42.2664 22.7968 42.2421C23.4691 42.2421 24.0509 42.4612 24.5422 42.8994C25.0336 43.3376 25.2792 43.8975 25.2792 44.5792V60.9391H40.1738V39.9049C40.1738 39.2476 40.4195 38.6999 40.9108 38.2617C41.4021 37.8234 41.984 37.5922 42.6563 37.5678C43.3286 37.5678 43.9104 37.7869 44.4017 38.2251C44.8931 38.6633 45.1387 39.2233 45.1387 39.9049V60.9391H52.586ZM69.9631 49.2534V30.5564C69.9631 29.5826 69.7692 28.6697 69.3813 27.8176C68.9934 26.9656 68.4633 26.223 67.791 25.5901C67.1186 24.9571 66.3299 24.458 65.4249 24.0928C64.5198 23.7277 63.5501 23.5451 62.5158 23.5451H60.0333V56.2648H62.5158C63.5501 56.2648 64.5198 56.0822 65.4249 55.7171C66.3299 55.3519 67.1186 54.8528 67.791 54.2198C68.4633 53.5869 68.9934 52.8443 69.3813 51.9923C69.7692 51.1402 69.9631 50.2272 69.9631 49.2534Z" fill="#C27801"/>
</svg>
