<svg width="75" height="77" viewBox="0 0 75 77" fill="none" xmlns="http://www.w3.org/2000/svg">
<rect x="8.91577" y="19.886" width="47.1516" height="52.3083" fill="#DFC55D"/>
<path d="M62.5158 20.7033C64.2225 20.7033 65.8257 21.0077 67.3255 21.6163C68.8253 22.2249 70.1312 23.0648 71.2431 24.136C72.355 25.2072 73.2472 26.4488 73.9195 27.8608C74.5918 29.2728 74.928 30.7822 74.928 32.389V51.086C74.928 52.6927 74.6047 54.2021 73.9583 55.6141C73.3118 57.0262 72.4197 58.2678 71.2819 59.3389C70.1441 60.4101 68.8253 61.25 67.3255 61.8586C65.8257 62.4673 64.2225 62.7716 62.5158 62.7716H60.0333V69.783C60.0333 70.7568 59.8394 71.6697 59.4515 72.5218C59.0636 73.3739 58.5335 74.1164 57.8612 74.7494C57.1889 75.3823 56.4002 75.8814 55.4951 76.2466C54.5901 76.6118 53.6204 76.7943 52.586 76.7943H12.867C11.8327 76.7943 10.863 76.6118 9.95792 76.2466C9.05286 75.8814 8.26417 75.3823 7.59184 74.7494C6.91952 74.1164 6.38941 73.3739 6.00153 72.5218C5.61365 71.6697 5.41971 70.7568 5.41971 69.783V19.4252C3.89405 18.5975 2.69161 17.4655 1.81242 16.0291C0.93322 14.5927 0.480693 13.0347 0.454834 11.3548C0.454834 10.0889 0.713421 8.88382 1.2306 7.73961C1.74777 6.59539 2.44596 5.60941 3.32515 4.78168C4.20435 3.95395 5.25163 3.28446 6.46699 2.77322C7.68235 2.26197 8.96236 2.00635 10.307 2.00635H55.0685C56.439 2.00635 57.719 2.2498 58.9085 2.7367C60.098 3.2236 61.1582 3.89309 62.0891 4.74517C63.02 5.59724 63.7311 6.58322 64.2225 7.70309C64.7138 8.82296 64.9724 10.0402 64.9982 11.3548C64.9982 12.2069 64.8819 13.0468 64.6491 13.8746C64.4164 14.7023 64.0802 15.4813 63.6406 16.2117C63.201 16.942 62.6709 17.6237 62.0503 18.2567C61.4297 18.8896 60.7574 19.4131 60.0333 19.8269V20.7033H62.5158ZM10.3458 6.6806C9.67347 6.6806 9.03993 6.80232 8.44518 7.04577C7.85043 7.28922 7.32033 7.61788 6.85487 8.03175C6.38941 8.44561 6.04032 8.94469 5.80759 9.52897C5.57486 10.1132 5.44557 10.7219 5.41971 11.3548C5.41971 12.3286 5.71709 13.2172 6.31184 14.0206C6.90659 14.824 7.70821 15.3961 8.7167 15.737L10.3846 16.2847V37.0632C10.3846 37.6962 10.6302 38.244 11.1216 38.7065C11.6129 39.1691 12.1947 39.4003 12.867 39.4003C13.5394 39.4003 14.1212 39.1691 14.6125 38.7065C15.1038 38.244 15.3495 37.6962 15.3495 37.0632V23.0405C15.3495 22.0667 15.5434 21.1537 15.9313 20.3017C16.3192 19.4496 16.8493 18.7071 17.5216 18.0741C18.1939 17.4411 18.9826 16.942 19.8877 16.5769C20.7927 16.2117 21.7624 16.0291 22.7968 16.0291C23.8311 16.0291 24.8008 16.2117 25.7059 16.5769C26.6109 16.942 27.3996 17.4411 28.072 18.0741C28.7443 18.7071 29.2744 19.4496 29.6623 20.3017C30.0502 21.1537 30.2441 22.0667 30.2441 23.0405V32.389C30.2441 33.0219 30.4897 33.5697 30.9811 34.0323C31.4724 34.4948 32.0542 34.7261 32.7265 34.7261C33.3989 34.7261 33.9807 34.4948 34.472 34.0323C34.9633 33.5697 35.209 33.0219 35.209 32.389V23.0405C35.209 22.0667 35.4029 21.1537 35.7908 20.3017C36.1787 19.4496 36.7088 18.7071 37.3811 18.0741C38.0534 17.4411 38.8421 16.942 39.7472 16.5769C40.6522 16.2117 41.6219 16.0291 42.6563 16.0291H57.0467C57.9 15.6396 58.6111 15.0066 59.18 14.1302C59.7489 13.2538 60.0333 12.3286 60.0333 11.3548C60.0333 10.6975 59.9041 10.0889 59.6455 9.52897C59.3869 8.96903 59.0378 8.48213 58.5982 8.06826C58.1586 7.6544 57.6285 7.31357 57.0079 7.04577C56.3873 6.77798 55.7408 6.65625 55.0685 6.6806H10.3458ZM55.0685 69.783V67.0076C54.6806 67.1293 54.2798 67.2267 53.866 67.2998C53.4523 67.3728 53.0256 67.4215 52.586 67.4458H12.867C12.4274 67.4458 12.0008 67.4093 11.587 67.3363C11.1733 67.2632 10.7725 67.1537 10.3846 67.0076V69.783C10.3846 70.4159 10.6302 70.9637 11.1216 71.4263C11.6129 71.8888 12.1947 72.1201 12.867 72.1201H52.586C53.2584 72.1201 53.8402 71.8888 54.3315 71.4263C54.8228 70.9637 55.0685 70.4159 55.0685 69.783ZM52.586 62.7716C53.2584 62.7716 53.8402 62.5403 54.3315 62.0778C54.8228 61.6152 55.0685 61.0674 55.0685 60.4345V20.7033H42.6563C41.984 20.7033 41.4021 20.9346 40.9108 21.3972C40.4195 21.8597 40.1738 22.4075 40.1738 23.0405V32.389C40.1738 33.3628 39.9799 34.2757 39.592 35.1278C39.2041 35.9799 38.674 36.7224 38.0017 37.3554C37.3294 37.9883 36.5407 38.4874 35.6356 38.8526C34.7306 39.2178 33.7609 39.4003 32.7265 39.4003C31.6922 39.4003 30.7225 39.2178 29.8174 38.8526C28.9124 38.4874 28.1237 37.9883 27.4513 37.3554C26.779 36.7224 26.2489 35.9799 25.861 35.1278C25.4732 34.2757 25.2792 33.3628 25.2792 32.389V23.0405C25.2792 22.4075 25.0336 21.8597 24.5422 21.3972C24.0509 20.9346 23.4691 20.7033 22.7968 20.7033C22.1244 20.7033 21.5426 20.9346 21.0513 21.3972C20.56 21.8597 20.3143 22.4075 20.3143 23.0405V37.0632C20.3143 38.037 20.1204 38.95 19.7325 39.802C19.3446 40.6541 18.8145 41.3966 18.1422 42.0296C17.4699 42.6626 16.6812 43.1616 15.7761 43.5268C14.8711 43.892 13.9014 44.0746 12.867 44.0746C12.0137 44.0746 11.1862 43.9407 10.3846 43.6729V60.4345C10.3846 61.0674 10.6302 61.6152 11.1216 62.0778C11.6129 62.5403 12.1947 62.7716 12.867 62.7716H20.3143V46.4117C20.3143 45.7544 20.56 45.2066 21.0513 44.7684C21.5426 44.3302 22.1244 44.0989 22.7968 44.0746C23.4691 44.0746 24.0509 44.2937 24.5422 44.7319C25.0336 45.1701 25.2792 45.7301 25.2792 46.4117V62.7716H40.1738V41.7375C40.1738 41.0801 40.4195 40.5324 40.9108 40.0942C41.4021 39.656 41.984 39.4247 42.6563 39.4003C43.3286 39.4003 43.9104 39.6194 44.4017 40.0577C44.8931 40.4959 45.1387 41.0558 45.1387 41.7375V62.7716H52.586ZM69.9631 51.086V32.389C69.9631 31.4152 69.7692 30.5022 69.3813 29.6502C68.9934 28.7981 68.4633 28.0555 67.791 27.4226C67.1186 26.7896 66.33 26.2905 65.4249 25.9254C64.5198 25.5602 63.5501 25.3776 62.5158 25.3776H60.0333V58.0973H62.5158C63.5501 58.0973 64.5198 57.9148 65.4249 57.5496C66.33 57.1844 67.1186 56.6853 67.791 56.0524C68.4633 55.4194 68.9934 54.6769 69.3813 53.8248C69.7692 52.9727 69.9631 52.0598 69.9631 51.086Z" fill="#C27801"/>
<path d="M56.3753 2.00635H9.78614C5.98629 2.00635 2.58085 4.9307 2.10947 8.98058C1.6381 13.0305 4.12003 16.7286 7.58319 17.7235C7.60243 17.7235 7.62167 17.7436 7.62167 17.7737C7.62167 18.5174 7.62167 30.0842 7.62167 36.8574C7.62167 39.5205 9.65146 41.7012 12.1334 41.7012H12.9896C15.4715 41.7012 17.5013 39.5205 17.5013 36.8574V23.13C17.5013 20.3062 19.6369 18.0149 22.2631 18.0149H23.3213C25.9091 18.0149 28.0062 20.266 28.0062 23.0496V32.7573C28.0062 35.4203 30.036 37.601 32.5179 37.601H33.3741C35.856 37.601 37.8858 35.4203 37.8858 32.7573V24.0345C37.8858 20.7081 40.3966 18.0149 43.4846 18.0149H56.1251C59.848 18.0149 63.1958 15.2011 63.7537 11.2417C64.4463 6.30746 60.8677 2.02645 56.3945 2.02645L56.3753 2.00635Z" fill="white" stroke="#C27801" stroke-width="3" stroke-miterlimit="10"/>
</svg>
