<svg width="75" height="75" viewBox="0 0 75 75" fill="none" xmlns="http://www.w3.org/2000/svg">
<rect x="8.91577" y="59.3374" width="47.1516" height="11.002" fill="#DFC55D"/>
<path d="M62.5158 18.8484C64.2225 18.8484 65.8257 19.1527 67.3255 19.7613C68.8253 20.3699 70.1312 21.2098 71.2431 22.281C72.355 23.3522 73.2472 24.5938 73.9195 26.0058C74.5918 27.4178 74.928 28.9272 74.928 30.534V49.231C74.928 50.8378 74.6047 52.3471 73.9583 53.7592C73.3118 55.1712 72.4197 56.4128 71.2819 57.484C70.1441 58.5551 68.8253 59.395 67.3255 60.0037C65.8257 60.6123 64.2225 60.9166 62.5158 60.9166H60.0333V67.928C60.0333 68.9018 59.8394 69.8147 59.4515 70.6668C59.0636 71.5189 58.5335 72.2614 57.8612 72.8944C57.1889 73.5273 56.4002 74.0264 55.4951 74.3916C54.5901 74.7568 53.6204 74.9394 52.586 74.9394H12.867C11.8327 74.9394 10.863 74.7568 9.95792 74.3916C9.05286 74.0264 8.26417 73.5273 7.59184 72.8944C6.91952 72.2614 6.38941 71.5189 6.00153 70.6668C5.61365 69.8147 5.41971 68.9018 5.41971 67.928V17.5702C3.89405 16.7425 2.69161 15.6105 1.81242 14.1741C0.933221 12.7378 0.480693 11.1797 0.454834 9.49987C0.454834 8.23392 0.713421 7.02884 1.2306 5.88463C1.74777 4.74041 2.44596 3.75443 3.32515 2.9267C4.20435 2.09897 5.25163 1.42948 6.46699 0.918236C7.68235 0.40699 8.96236 0.151367 10.307 0.151367H55.0685C56.439 0.151367 57.719 0.394818 58.9085 0.881719C60.098 1.36862 61.1582 2.03811 62.0891 2.89019C63.02 3.74226 63.7311 4.72824 64.2225 5.84811C64.7138 6.96798 64.9724 8.18523 64.9982 9.49987C64.9982 10.3519 64.8819 11.1918 64.6491 12.0196C64.4164 12.8473 64.0802 13.6264 63.6406 14.3567C63.201 15.0871 62.6709 15.7687 62.0503 16.4017C61.4297 17.0347 60.7574 17.5581 60.0333 17.9719V18.8484H62.5158ZM10.3458 4.82562C9.67347 4.82562 9.03993 4.94734 8.44518 5.19079C7.85043 5.43424 7.32033 5.7629 6.85487 6.17677C6.38941 6.59063 6.04032 7.08971 5.80759 7.67399C5.57486 8.25827 5.44557 8.86689 5.41971 9.49987C5.41971 10.4737 5.71709 11.3623 6.31184 12.1656C6.90659 12.969 7.70821 13.5411 8.7167 13.882L10.3846 14.4297V35.2082C10.3846 35.8412 10.6302 36.389 11.1216 36.8515C11.6129 37.3141 12.1947 37.5454 12.867 37.5454C13.5394 37.5454 14.1212 37.3141 14.6125 36.8515C15.1038 36.389 15.3495 35.8412 15.3495 35.2082V21.1855C15.3495 20.2117 15.5434 19.2987 15.9313 18.4467C16.3192 17.5946 16.8493 16.8521 17.5216 16.2191C18.1939 15.5861 18.9826 15.0871 19.8877 14.7219C20.7927 14.3567 21.7624 14.1741 22.7968 14.1741C23.8311 14.1741 24.8008 14.3567 25.7059 14.7219C26.6109 15.0871 27.3996 15.5861 28.072 16.2191C28.7443 16.8521 29.2744 17.5946 29.6623 18.4467C30.0501 19.2987 30.2441 20.2117 30.2441 21.1855V30.534C30.2441 31.167 30.4897 31.7147 30.9811 32.1773C31.4724 32.6398 32.0542 32.8711 32.7265 32.8711C33.3989 32.8711 33.9807 32.6398 34.472 32.1773C34.9633 31.7147 35.209 31.167 35.209 30.534V21.1855C35.209 20.2117 35.4029 19.2987 35.7908 18.4467C36.1787 17.5946 36.7088 16.8521 37.3811 16.2191C38.0534 15.5861 38.8421 15.0871 39.7472 14.7219C40.6522 14.3567 41.6219 14.1741 42.6563 14.1741H57.0467C57.9 13.7846 58.6111 13.1516 59.18 12.2752C59.7489 11.3988 60.0333 10.4737 60.0333 9.49987C60.0333 8.84255 59.9041 8.23392 59.6455 7.67399C59.3869 7.11405 59.0378 6.62715 58.5982 6.21328C58.1586 5.79942 57.6285 5.45859 57.0079 5.19079C56.3873 4.923 55.7408 4.80127 55.0685 4.82562H10.3458ZM55.0685 67.928V65.1526C54.6806 65.2744 54.2798 65.3717 53.866 65.4448C53.4523 65.5178 53.0256 65.5665 52.586 65.5909H12.867C12.4274 65.5909 12.0008 65.5543 11.587 65.4813C11.1733 65.4083 10.7725 65.2987 10.3846 65.1526V67.928C10.3846 68.561 10.6302 69.1087 11.1216 69.5713C11.6129 70.0338 12.1947 70.2651 12.867 70.2651H52.586C53.2584 70.2651 53.8402 70.0338 54.3315 69.5713C54.8228 69.1087 55.0685 68.561 55.0685 67.928ZM52.586 60.9166C53.2584 60.9166 53.8402 60.6853 54.3315 60.2228C54.8228 59.7602 55.0685 59.2125 55.0685 58.5795V18.8484H42.6563C41.984 18.8484 41.4021 19.0796 40.9108 19.5422C40.4195 20.0048 40.1738 20.5525 40.1738 21.1855V30.534C40.1738 31.5078 39.9799 32.4207 39.592 33.2728C39.2041 34.1249 38.674 34.8674 38.0017 35.5004C37.3294 36.1333 36.5407 36.6324 35.6356 36.9976C34.7306 37.3628 33.7609 37.5454 32.7265 37.5454C31.6922 37.5454 30.7225 37.3628 29.8174 36.9976C28.9124 36.6324 28.1237 36.1333 27.4513 35.5004C26.779 34.8674 26.2489 34.1249 25.861 33.2728C25.4732 32.4207 25.2792 31.5078 25.2792 30.534V21.1855C25.2792 20.5525 25.0336 20.0048 24.5422 19.5422C24.0509 19.0796 23.4691 18.8484 22.7968 18.8484C22.1245 18.8484 21.5426 19.0796 21.0513 19.5422C20.56 20.0048 20.3143 20.5525 20.3143 21.1855V35.2082C20.3143 36.182 20.1204 37.095 19.7325 37.9471C19.3446 38.7991 18.8145 39.5417 18.1422 40.1746C17.4699 40.8076 16.6812 41.3067 15.7761 41.6718C14.8711 42.037 13.9014 42.2196 12.867 42.2196C12.0137 42.2196 11.1862 42.0857 10.3846 41.8179V58.5795C10.3846 59.2125 10.6302 59.7602 11.1216 60.2228C11.6129 60.6853 12.1947 60.9166 12.867 60.9166H20.3143V44.5567C20.3143 43.8994 20.56 43.3517 21.0513 42.9134C21.5426 42.4752 22.1245 42.244 22.7968 42.2196C23.4691 42.2196 24.0509 42.4387 24.5422 42.8769C25.0336 43.3151 25.2792 43.8751 25.2792 44.5567V60.9166H40.1738V39.8825C40.1738 39.2252 40.4195 38.6774 40.9108 38.2392C41.4021 37.801 41.984 37.5697 42.6563 37.5454C43.3286 37.5454 43.9104 37.7645 44.4017 38.2027C44.8931 38.6409 45.1387 39.2008 45.1387 39.8825V60.9166H52.586ZM69.9631 49.231V30.534C69.9631 29.5602 69.7692 28.6472 69.3813 27.7952C68.9934 26.9431 68.4633 26.2006 67.791 25.5676C67.1186 24.9346 66.3299 24.4356 65.4249 24.0704C64.5198 23.7052 63.5501 23.5226 62.5158 23.5226H60.0333V56.2424H62.5158C63.5501 56.2424 64.5198 56.0598 65.4249 55.6946C66.3299 55.3294 67.1186 54.8303 67.791 54.1974C68.4633 53.5644 68.9934 52.8219 69.3813 51.9698C69.7692 51.1177 69.9631 50.2048 69.9631 49.231Z" fill="#C27801"/>
</svg>
