<svg width="20" height="22" viewBox="0 0 20 22" fill="none" xmlns="http://www.w3.org/2000/svg">
<path d="M7.45982 2.10941C7.75084 2.10938 8.03835 2.17285 8.30231 2.2954C8.56626 2.41795 8.80029 2.59663 8.98806 2.81897C9.17583 3.0413 9.31282 3.30194 9.38947 3.58268C9.46611 3.86342 9.48056 4.15751 9.43182 4.44441L11.4048 4.77441C11.4809 4.32379 11.4792 3.86346 11.3998 3.41341C11.7782 3.17643 12.2251 3.0729 12.6692 3.11931C13.1133 3.16572 13.5291 3.3594 13.8503 3.6695C14.1716 3.9796 14.3798 4.38828 14.4419 4.83045C14.504 5.27262 14.4163 5.72285 14.1928 6.10941H3.45982C3.3046 6.10924 3.15156 6.07295 3.0128 6.00339C2.87404 5.93384 2.75338 5.83294 2.66036 5.70869C2.56735 5.58443 2.50453 5.44023 2.47689 5.28749C2.44925 5.13476 2.45754 4.97769 2.50111 4.82871C2.54468 4.67974 2.62233 4.54295 2.72791 4.42918C2.83349 4.31541 2.96411 4.22778 3.10942 4.17322C3.25473 4.11866 3.41075 4.09868 3.56512 4.11486C3.71949 4.13103 3.86797 4.18292 3.99882 4.26641C4.13352 4.35269 4.28694 4.40539 4.44622 4.4201C4.6055 4.43481 4.76599 4.41109 4.91421 4.35094C5.06243 4.29079 5.19405 4.19597 5.29804 4.07442C5.40202 3.95287 5.47534 3.80816 5.51182 3.65241C5.6149 3.21321 5.86345 2.82176 6.21709 2.54165C6.57073 2.26153 7.00868 2.10921 7.45982 2.10941ZM8.97582 0.406413C8.0721 0.0361457 7.06415 0.00929464 6.142 0.330922C5.21986 0.65255 4.44724 1.30043 3.96982 2.15241C3.32783 2.04148 2.66717 2.14255 2.0877 2.44035C1.50824 2.73815 1.04147 3.21649 0.757951 3.80307C0.47443 4.38966 0.389569 5.05259 0.516196 5.69168C0.642822 6.33076 0.974052 6.91125 1.45982 7.34541V19.1094C1.45982 19.6398 1.67053 20.1486 2.04561 20.5236C2.42068 20.8987 2.92939 21.1094 3.45982 21.1094H13.4598C13.9903 21.1094 14.499 20.8987 14.874 20.5236C15.2491 20.1486 15.4598 19.6398 15.4598 19.1094H17.4598C17.9903 19.1094 18.499 18.8987 18.874 18.5236C19.2491 18.1486 19.4598 17.6398 19.4598 17.1094V10.1094C19.4598 9.57898 19.2491 9.07027 18.874 8.6952C18.499 8.32013 17.9903 8.10941 17.4598 8.10941H15.4598V7.75541C16.0815 7.05156 16.4357 6.15143 16.4604 5.21268C16.4851 4.27393 16.1787 3.35642 15.5949 2.62085C15.0111 1.88528 14.1872 1.37856 13.2673 1.18943C12.3475 1.00031 11.3905 1.14084 10.5638 1.58641C10.1416 1.06631 9.59561 0.66057 8.97582 0.406413ZM15.4598 17.1094V10.1094H17.4598V17.1094H15.4598ZM5.45982 10.1094H7.45982V17.1094H5.45982V10.1094ZM9.45982 10.1094H11.4598V17.1094H9.45982V10.1094Z" fill="#16312B"/>
</svg>
