<svg width="76" height="77" viewBox="0 0 76 77" fill="none" xmlns="http://www.w3.org/2000/svg">
<rect x="9.91577" y="16.7866" width="47.1516" height="55.5652" fill="#DFC55D"/>
<path d="M63.5158 20.8608C65.2225 20.8608 66.8257 21.1651 68.3255 21.7738C69.8253 22.3824 71.1312 23.2223 72.2431 24.2935C73.355 25.3646 74.2472 26.6062 74.9195 28.0183C75.5918 29.4303 75.928 30.9397 75.928 32.5464V51.2434C75.928 52.8502 75.6047 54.3596 74.9583 55.7716C74.3118 57.1836 73.4197 58.4252 72.2819 59.4964C71.1441 60.5676 69.8253 61.4075 68.3255 62.0161C66.8257 62.6247 65.2225 62.9291 63.5158 62.9291H61.0333V69.9404C61.0333 70.9142 60.8394 71.8272 60.4515 72.6793C60.0636 73.5313 59.5335 74.2739 58.8612 74.9068C58.1889 75.5398 57.4002 76.0389 56.4951 76.404C55.5901 76.7692 54.6204 76.9518 53.586 76.9518H13.867C12.8327 76.9518 11.863 76.7692 10.9579 76.404C10.0529 76.0389 9.26417 75.5398 8.59184 74.9068C7.91952 74.2739 7.38941 73.5313 7.00153 72.6793C6.61365 71.8272 6.41971 70.9142 6.41971 69.9404V19.5827C4.89405 18.755 3.69161 17.6229 2.81242 16.1866C1.93322 14.7502 1.48069 13.1921 1.45483 11.5123C1.45483 10.2464 1.71342 9.04129 2.2306 7.89708C2.74777 6.75286 3.44596 5.76689 4.32515 4.93915C5.20435 4.11142 6.25163 3.44193 7.46699 2.93069C8.68235 2.41944 9.96236 2.16382 11.307 2.16382H56.0685C57.439 2.16382 58.719 2.40727 59.9085 2.89417C61.098 3.38107 62.1582 4.05056 63.0891 4.90264C64.02 5.75471 64.7311 6.74069 65.2225 7.86056C65.7138 8.98043 65.9724 10.1977 65.9982 11.5123C65.9982 12.3644 65.8819 13.2043 65.6491 14.032C65.4164 14.8598 65.0802 15.6388 64.6406 16.3692C64.201 17.0995 63.6709 17.7812 63.0503 18.4141C62.4297 19.0471 61.7574 19.5705 61.0333 19.9844V20.8608H63.5158ZM11.3458 6.83807C10.6735 6.83807 10.0399 6.95979 9.44518 7.20324C8.85043 7.44669 8.32033 7.77535 7.85487 8.18922C7.38941 8.60308 7.04032 9.10216 6.80759 9.68644C6.57486 10.2707 6.44557 10.8793 6.41971 11.5123C6.41971 12.4861 6.71709 13.3747 7.31184 14.1781C7.90659 14.9815 8.70821 15.5536 9.7167 15.8944L11.3846 16.4422V37.2207C11.3846 37.8537 11.6302 38.4014 12.1216 38.864C12.6129 39.3265 13.1947 39.5578 13.867 39.5578C14.5394 39.5578 15.1212 39.3265 15.6125 38.864C16.1038 38.4014 16.3495 37.8537 16.3495 37.2207V23.1979C16.3495 22.2241 16.5434 21.3112 16.9313 20.4591C17.3192 19.607 17.8493 18.8645 18.5216 18.2316C19.1939 17.5986 19.9826 17.0995 20.8877 16.7343C21.7927 16.3692 22.7624 16.1866 23.7968 16.1866C24.8311 16.1866 25.8008 16.3692 26.7059 16.7343C27.6109 17.0995 28.3996 17.5986 29.072 18.2316C29.7443 18.8645 30.2744 19.607 30.6623 20.4591C31.0502 21.3112 31.2441 22.2241 31.2441 23.1979V32.5464C31.2441 33.1794 31.4897 33.7272 31.9811 34.1897C32.4724 34.6523 33.0542 34.8836 33.7265 34.8836C34.3989 34.8836 34.9807 34.6523 35.472 34.1897C35.9633 33.7272 36.209 33.1794 36.209 32.5464V23.1979C36.209 22.2241 36.4029 21.3112 36.7908 20.4591C37.1787 19.607 37.7088 18.8645 38.3811 18.2316C39.0534 17.5986 39.8421 17.0995 40.7472 16.7343C41.6522 16.3692 42.6219 16.1866 43.6563 16.1866H58.0467C58.9 15.797 59.6111 15.1641 60.18 14.2877C60.7489 13.4112 61.0333 12.4861 61.0333 11.5123C61.0333 10.855 60.9041 10.2464 60.6455 9.68644C60.3869 9.1265 60.0378 8.6396 59.5982 8.22574C59.1586 7.81187 58.6285 7.47104 58.0079 7.20324C57.3873 6.93545 56.7408 6.81372 56.0685 6.83807H11.3458ZM56.0685 69.9404V67.1651C55.6806 67.2868 55.2798 67.3842 54.866 67.4572C54.4523 67.5303 54.0256 67.579 53.586 67.6033H13.867C13.4274 67.6033 13.0008 67.5668 12.587 67.4938C12.1733 67.4207 11.7725 67.3112 11.3846 67.1651V69.9404C11.3846 70.5734 11.6302 71.1212 12.1216 71.5837C12.6129 72.0463 13.1947 72.2776 13.867 72.2776H53.586C54.2584 72.2776 54.8402 72.0463 55.3315 71.5837C55.8228 71.1212 56.0685 70.5734 56.0685 69.9404ZM53.586 62.9291C54.2584 62.9291 54.8402 62.6978 55.3315 62.2352C55.8228 61.7727 56.0685 61.2249 56.0685 60.5919V20.8608H43.6563C42.984 20.8608 42.4021 21.0921 41.9108 21.5546C41.4195 22.0172 41.1738 22.565 41.1738 23.1979V32.5464C41.1738 33.5202 40.9799 34.4332 40.592 35.2853C40.2041 36.1373 39.674 36.8799 39.0017 37.5128C38.3294 38.1458 37.5407 38.6449 36.6356 39.01C35.7306 39.3752 34.7609 39.5578 33.7265 39.5578C32.6922 39.5578 31.7225 39.3752 30.8174 39.01C29.9124 38.6449 29.1237 38.1458 28.4513 37.5128C27.779 36.8799 27.2489 36.1373 26.861 35.2853C26.4732 34.4332 26.2792 33.5202 26.2792 32.5464V23.1979C26.2792 22.565 26.0336 22.0172 25.5422 21.5546C25.0509 21.0921 24.4691 20.8608 23.7968 20.8608C23.1244 20.8608 22.5426 21.0921 22.0513 21.5546C21.56 22.0172 21.3143 22.565 21.3143 23.1979V37.2207C21.3143 38.1945 21.1204 39.1074 20.7325 39.9595C20.3446 40.8116 19.8145 41.5541 19.1422 42.1871C18.4699 42.82 17.6812 43.3191 16.7761 43.6843C15.8711 44.0495 14.9014 44.2321 13.867 44.2321C13.0137 44.2321 12.1862 44.0982 11.3846 43.8304V60.5919C11.3846 61.2249 11.6302 61.7727 12.1216 62.2352C12.6129 62.6978 13.1947 62.9291 13.867 62.9291H21.3143V46.5692C21.3143 45.9119 21.56 45.3641 22.0513 44.9259C22.5426 44.4877 23.1244 44.2564 23.7968 44.2321C24.4691 44.2321 25.0509 44.4512 25.5422 44.8894C26.0336 45.3276 26.2792 45.8875 26.2792 46.5692V62.9291H41.1738V41.8949C41.1738 41.2376 41.4195 40.6899 41.9108 40.2516C42.4021 39.8134 42.984 39.5822 43.6563 39.5578C44.3286 39.5578 44.9104 39.7769 45.4017 40.2151C45.8931 40.6533 46.1387 41.2133 46.1387 41.8949V62.9291H53.586ZM70.9631 51.2434V32.5464C70.9631 31.5726 70.7692 30.6597 70.3813 29.8076C69.9934 28.9555 69.4633 28.213 68.791 27.58C68.1186 26.9471 67.33 26.448 66.4249 26.0828C65.5198 25.7177 64.5501 25.5351 63.5158 25.5351H61.0333V58.2548H63.5158C64.5501 58.2548 65.5198 58.0722 66.4249 57.707C67.33 57.3419 68.1186 56.8428 68.791 56.2098C69.4633 55.5769 69.9934 54.8343 70.3813 53.9823C70.7692 53.1302 70.9631 52.2172 70.9631 51.2434Z" fill="#C27801"/>
<path d="M56.8348 2.16382H10.1303C6.32099 2.16382 2.90711 5.07382 2.43457 9.10382C1.96202 13.1338 4.4501 16.8138 7.92184 17.8038C7.94113 17.8038 7.96042 17.8238 7.96042 17.8538C7.96042 18.5938 7.96042 30.1038 7.96042 36.8438C7.96042 39.4938 9.99524 41.6638 12.4833 41.6638H13.3416C15.8297 41.6638 17.8645 39.4938 17.8645 36.8438V23.1838C17.8645 20.3738 20.0054 18.0938 22.6382 18.0938H23.699C26.2931 18.0938 28.3955 20.3338 28.3955 23.1038V32.7638C28.3955 35.4138 30.4303 37.5838 32.9184 37.5838H33.7767C36.2647 37.5838 38.2996 35.4138 38.2996 32.7638V24.0838C38.2996 20.7738 40.8166 18.0938 43.9122 18.0938H56.5841C60.3162 18.0938 63.6722 15.2938 64.2315 11.3538C64.9259 6.44382 61.3384 2.18382 56.8541 2.18382L56.8348 2.16382Z" fill="white" stroke="#C27801" stroke-width="3" stroke-miterlimit="10"/>
</svg>
