<svg width="75" height="75" viewBox="0 0 75 75" fill="none" xmlns="http://www.w3.org/2000/svg">
<path d="M62.3158 18.7534C64.0225 18.7534 65.6258 19.0577 67.1256 19.6663C68.6254 20.275 69.9312 21.1149 71.0432 22.186C72.1551 23.2572 73.0472 24.4988 73.7195 25.9108C74.3919 27.3229 74.728 28.8322 74.728 30.439V49.136C74.728 50.7428 74.4048 52.2522 73.7583 53.6642C73.1119 55.0762 72.2197 56.3178 71.0819 57.389C69.9442 58.4602 68.6254 59.3001 67.1256 59.9087C65.6258 60.5173 64.0225 60.8216 62.3158 60.8216H59.8334V67.833C59.8334 68.8068 59.6395 69.7198 59.2516 70.5718C58.8637 71.4239 58.3336 72.1664 57.6613 72.7994C56.9889 73.4324 56.2002 73.9314 55.2952 74.2966C54.3901 74.6618 53.4204 74.8444 52.3861 74.8444H12.6671C11.6327 74.8444 10.663 74.6618 9.75797 74.2966C8.85291 73.9314 8.06422 73.4324 7.39189 72.7994C6.71957 72.1664 6.18946 71.4239 5.80158 70.5718C5.4137 69.7198 5.21976 68.8068 5.21976 67.833V17.4753C3.69409 16.6475 2.49166 15.5155 1.61247 14.0791C0.733269 12.6428 0.280742 11.0847 0.254883 9.40489C0.254883 8.13895 0.51347 6.93387 1.03064 5.78966C1.54782 4.64544 2.24601 3.65946 3.1252 2.83173C4.0044 2.004 5.05168 1.33451 6.26704 0.823265C7.4824 0.312019 8.7624 0.0563965 10.1071 0.0563965H54.8685C56.239 0.0563965 57.519 0.299847 58.7085 0.786748C59.898 1.27365 60.9583 1.94314 61.8892 2.79521C62.8201 3.64729 63.5312 4.63327 64.0225 5.75314C64.5138 6.87301 64.7724 8.09026 64.7983 9.40489C64.7983 10.257 64.6819 11.0969 64.4492 11.9246C64.2165 12.7523 63.8803 13.5314 63.4407 14.2617C63.0011 14.9921 62.471 15.6737 61.8504 16.3067C61.2298 16.9397 60.5574 17.4631 59.8334 17.877V18.7534H62.3158ZM10.1458 4.73065C9.47352 4.73065 8.83998 4.85237 8.24523 5.09582C7.65048 5.33927 7.12038 5.66793 6.65492 6.0818C6.18946 6.49566 5.84037 6.99474 5.60764 7.57902C5.37491 8.1633 5.24562 8.77192 5.21976 9.40489C5.21976 10.3787 5.51713 11.2673 6.11189 12.0707C6.70664 12.8741 7.50826 13.4462 8.51675 13.787L10.1846 14.3348V35.1133C10.1846 35.7462 10.4303 36.294 10.9216 36.7566C11.4129 37.2191 11.9947 37.4504 12.6671 37.4504C13.3394 37.4504 13.9212 37.2191 14.4125 36.7566C14.9039 36.294 15.1495 35.7462 15.1495 35.1133V21.0905C15.1495 20.1167 15.3435 19.2038 15.7313 18.3517C16.1192 17.4996 16.6493 16.7571 17.3216 16.1241C17.994 15.4912 18.7827 14.9921 19.6877 14.6269C20.5928 14.2617 21.5625 14.0791 22.5968 14.0791C23.6312 14.0791 24.6009 14.2617 25.5059 14.6269C26.411 14.9921 27.1997 15.4912 27.872 16.1241C28.5443 16.7571 29.0744 17.4996 29.4623 18.3517C29.8502 19.2038 30.0441 20.1167 30.0441 21.0905V30.439C30.0441 31.072 30.2898 31.6198 30.7811 32.0823C31.2724 32.5449 31.8543 32.7761 32.5266 32.7761C33.1989 32.7761 33.7807 32.5449 34.272 32.0823C34.7634 31.6198 35.009 31.072 35.009 30.439V21.0905C35.009 20.1167 35.203 19.2038 35.5908 18.3517C35.9787 17.4996 36.5088 16.7571 37.1811 16.1241C37.8535 15.4912 38.6422 14.9921 39.5472 14.6269C40.4523 14.2617 41.422 14.0791 42.4563 14.0791H56.8467C57.7001 13.6896 58.4112 13.0567 58.9801 12.1802C59.549 11.3038 59.8334 10.3787 59.8334 9.40489C59.8334 8.74758 59.7041 8.13895 59.4455 7.57902C59.1869 7.01908 58.8378 6.53218 58.3982 6.11831C57.9586 5.70445 57.4285 5.36362 56.8079 5.09582C56.1873 4.82803 55.5408 4.7063 54.8685 4.73065H10.1458ZM54.8685 67.833V65.0577C54.4806 65.1794 54.0798 65.2768 53.6661 65.3498C53.2524 65.4228 52.8257 65.4715 52.3861 65.4959H12.6671C12.2275 65.4959 11.8008 65.4594 11.3871 65.3863C10.9733 65.3133 10.5725 65.2037 10.1846 65.0577V67.833C10.1846 68.466 10.4303 69.0137 10.9216 69.4763C11.4129 69.9389 11.9947 70.1701 12.6671 70.1701H52.3861C53.0584 70.1701 53.6402 69.9389 54.1315 69.4763C54.6229 69.0137 54.8685 68.466 54.8685 67.833ZM52.3861 60.8216C53.0584 60.8216 53.6402 60.5904 54.1315 60.1278C54.6229 59.6652 54.8685 59.1175 54.8685 58.4845V18.7534H42.4563C41.784 18.7534 41.2022 18.9847 40.7109 19.4472C40.2196 19.9098 39.9739 20.4575 39.9739 21.0905V30.439C39.9739 31.4128 39.78 32.3258 39.3921 33.1778C39.0042 34.0299 38.4741 34.7724 37.8018 35.4054C37.1294 36.0384 36.3407 36.5375 35.4357 36.9026C34.5306 37.2678 33.5609 37.4504 32.5266 37.4504C31.4922 37.4504 30.5225 37.2678 29.6175 36.9026C28.7124 36.5375 27.9237 36.0384 27.2514 35.4054C26.5791 34.7724 26.049 34.0299 25.6611 33.1778C25.2732 32.3258 25.0793 31.4128 25.0793 30.439V21.0905C25.0793 20.4575 24.8336 19.9098 24.3423 19.4472C23.851 18.9847 23.2692 18.7534 22.5968 18.7534C21.9245 18.7534 21.3427 18.9847 20.8514 19.4472C20.36 19.9098 20.1144 20.4575 20.1144 21.0905V35.1133C20.1144 36.0871 19.9204 37 19.5326 37.8521C19.1447 38.7042 18.6146 39.4467 17.9423 40.0797C17.2699 40.7126 16.4812 41.2117 15.5762 41.5769C14.6711 41.9421 13.7014 42.1246 12.6671 42.1246C11.8137 42.1246 10.9863 41.9907 10.1846 41.7229V58.4845C10.1846 59.1175 10.4303 59.6652 10.9216 60.1278C11.4129 60.5904 11.9947 60.8216 12.6671 60.8216H20.1144V44.4618C20.1144 43.8044 20.36 43.2567 20.8514 42.8185C21.3427 42.3803 21.9245 42.149 22.5968 42.1246C23.2692 42.1246 23.851 42.3437 24.3423 42.782C24.8336 43.2202 25.0793 43.7801 25.0793 44.4618V60.8216H39.9739V39.7875C39.9739 39.1302 40.2196 38.5824 40.7109 38.1442C41.2022 37.706 41.784 37.4747 42.4563 37.4504C43.1287 37.4504 43.7105 37.6695 44.2018 38.1077C44.6931 38.5459 44.9388 39.1059 44.9388 39.7875V60.8216H52.3861ZM69.7631 49.136V30.439C69.7631 29.4652 69.5692 28.5523 69.1813 27.7002C68.7934 26.8481 68.2633 26.1056 67.591 25.4726C66.9187 24.8397 66.13 24.3406 65.2249 23.9754C64.3199 23.6102 63.3502 23.4276 62.3158 23.4276H59.8334V56.1474H62.3158C63.3502 56.1474 64.3199 55.9648 65.2249 55.5996C66.13 55.2344 66.9187 54.7354 67.591 54.1024C68.2633 53.4694 68.7934 52.7269 69.1813 51.8748C69.5692 51.0228 69.7631 50.1098 69.7631 49.136Z" fill="#16312B" fill-opacity="0.7"/>
</svg>
