<svg width="75" height="77" viewBox="0 0 75 77" fill="none" xmlns="http://www.w3.org/2000/svg">
<rect x="8.91577" y="16.7866" width="47.1516" height="55.5652" fill="#DFC55D"/>
<path d="M62.5158 20.8608C64.2225 20.8608 65.8257 21.1651 67.3255 21.7738C68.8253 22.3824 70.1312 23.2223 71.2431 24.2935C72.355 25.3646 73.2472 26.6062 73.9195 28.0183C74.5918 29.4303 74.928 30.9397 74.928 32.5464V51.2434C74.928 52.8502 74.6047 54.3596 73.9583 55.7716C73.3118 57.1836 72.4197 58.4252 71.2819 59.4964C70.1441 60.5676 68.8253 61.4075 67.3255 62.0161C65.8257 62.6247 64.2225 62.9291 62.5158 62.9291H60.0333V69.9404C60.0333 70.9142 59.8394 71.8272 59.4515 72.6793C59.0636 73.5313 58.5335 74.2738 57.8612 74.9068C57.1889 75.5398 56.4002 76.0389 55.4951 76.404C54.5901 76.7692 53.6204 76.9518 52.586 76.9518H12.867C11.8327 76.9518 10.863 76.7692 9.95792 76.404C9.05286 76.0389 8.26417 75.5398 7.59184 74.9068C6.91952 74.2738 6.38941 73.5313 6.00153 72.6793C5.61365 71.8272 5.41971 70.9142 5.41971 69.9404V19.5827C3.89405 18.755 2.69161 17.6229 1.81242 16.1866C0.93322 14.7502 0.480693 13.1921 0.454834 11.5123C0.454834 10.2464 0.713421 9.04129 1.2306 7.89708C1.74777 6.75286 2.44596 5.76689 3.32515 4.93915C4.20435 4.11142 5.25163 3.44193 6.46699 2.93069C7.68235 2.41944 8.96236 2.16382 10.307 2.16382H55.0685C56.439 2.16382 57.719 2.40727 58.9085 2.89417C60.098 3.38107 61.1582 4.05056 62.0891 4.90264C63.02 5.75471 63.7311 6.74069 64.2225 7.86056C64.7138 8.98043 64.9724 10.1977 64.9982 11.5123C64.9982 12.3644 64.8819 13.2043 64.6491 14.032C64.4164 14.8598 64.0802 15.6388 63.6406 16.3692C63.201 17.0995 62.6709 17.7812 62.0503 18.4141C61.4297 19.0471 60.7574 19.5705 60.0333 19.9844V20.8608H62.5158ZM10.3458 6.83807C9.67347 6.83807 9.03993 6.95979 8.44518 7.20324C7.85043 7.44669 7.32033 7.77535 6.85487 8.18922C6.38941 8.60308 6.04032 9.10216 5.80759 9.68644C5.57486 10.2707 5.44557 10.8793 5.41971 11.5123C5.41971 12.4861 5.71709 13.3747 6.31184 14.1781C6.90659 14.9815 7.70821 15.5536 8.7167 15.8944L10.3846 16.4422V37.2207C10.3846 37.8537 10.6302 38.4014 11.1216 38.864C11.6129 39.3265 12.1947 39.5578 12.867 39.5578C13.5394 39.5578 14.1212 39.3265 14.6125 38.864C15.1038 38.4014 15.3495 37.8537 15.3495 37.2207V23.1979C15.3495 22.2241 15.5434 21.3112 15.9313 20.4591C16.3192 19.607 16.8493 18.8645 17.5216 18.2316C18.1939 17.5986 18.9826 17.0995 19.8877 16.7343C20.7927 16.3692 21.7624 16.1866 22.7968 16.1866C23.8311 16.1866 24.8008 16.3692 25.7059 16.7343C26.6109 17.0995 27.3996 17.5986 28.072 18.2316C28.7443 18.8645 29.2744 19.607 29.6623 20.4591C30.0501 21.3112 30.2441 22.2241 30.2441 23.1979V32.5464C30.2441 33.1794 30.4897 33.7272 30.9811 34.1897C31.4724 34.6523 32.0542 34.8836 32.7265 34.8836C33.3989 34.8836 33.9807 34.6523 34.472 34.1897C34.9633 33.7272 35.209 33.1794 35.209 32.5464V23.1979C35.209 22.2241 35.4029 21.3112 35.7908 20.4591C36.1787 19.607 36.7088 18.8645 37.3811 18.2316C38.0534 17.5986 38.8421 17.0995 39.7472 16.7343C40.6522 16.3692 41.6219 16.1866 42.6563 16.1866H57.0467C57.9 15.797 58.6111 15.1641 59.18 14.2877C59.7489 13.4112 60.0333 12.4861 60.0333 11.5123C60.0333 10.855 59.9041 10.2464 59.6455 9.68644C59.3869 9.1265 59.0378 8.6396 58.5982 8.22574C58.1586 7.81187 57.6285 7.47104 57.0079 7.20324C56.3873 6.93545 55.7408 6.81372 55.0685 6.83807H10.3458ZM55.0685 69.9404V67.1651C54.6806 67.2868 54.2798 67.3842 53.866 67.4572C53.4523 67.5303 53.0256 67.579 52.586 67.6033H12.867C12.4274 67.6033 12.0008 67.5668 11.587 67.4938C11.1733 67.4207 10.7725 67.3112 10.3846 67.1651V69.9404C10.3846 70.5734 10.6302 71.1212 11.1216 71.5837C11.6129 72.0463 12.1947 72.2776 12.867 72.2776H52.586C53.2584 72.2776 53.8402 72.0463 54.3315 71.5837C54.8228 71.1212 55.0685 70.5734 55.0685 69.9404ZM52.586 62.9291C53.2584 62.9291 53.8402 62.6978 54.3315 62.2352C54.8228 61.7727 55.0685 61.2249 55.0685 60.5919V20.8608H42.6563C41.984 20.8608 41.4021 21.0921 40.9108 21.5546C40.4195 22.0172 40.1738 22.565 40.1738 23.1979V32.5464C40.1738 33.5202 39.9799 34.4332 39.592 35.2853C39.2041 36.1373 38.674 36.8799 38.0017 37.5128C37.3294 38.1458 36.5407 38.6449 35.6356 39.01C34.7306 39.3752 33.7609 39.5578 32.7265 39.5578C31.6922 39.5578 30.7225 39.3752 29.8174 39.01C28.9124 38.6449 28.1237 38.1458 27.4513 37.5128C26.779 36.8799 26.2489 36.1373 25.861 35.2853C25.4732 34.4332 25.2792 33.5202 25.2792 32.5464V23.1979C25.2792 22.565 25.0336 22.0172 24.5422 21.5546C24.0509 21.0921 23.4691 20.8608 22.7968 20.8608C22.1244 20.8608 21.5426 21.0921 21.0513 21.5546C20.56 22.0172 20.3143 22.565 20.3143 23.1979V37.2207C20.3143 38.1945 20.1204 39.1074 19.7325 39.9595C19.3446 40.8116 18.8145 41.5541 18.1422 42.1871C17.4699 42.82 16.6812 43.3191 15.7761 43.6843C14.8711 44.0495 13.9014 44.2321 12.867 44.2321C12.0137 44.2321 11.1862 44.0982 10.3846 43.8304V60.5919C10.3846 61.2249 10.6302 61.7727 11.1216 62.2352C11.6129 62.6978 12.1947 62.9291 12.867 62.9291H20.3143V46.5692C20.3143 45.9119 20.56 45.3641 21.0513 44.9259C21.5426 44.4877 22.1244 44.2564 22.7968 44.2321C23.4691 44.2321 24.0509 44.4512 24.5422 44.8894C25.0336 45.3276 25.2792 45.8875 25.2792 46.5692V62.9291H40.1738V41.8949C40.1738 41.2376 40.4195 40.6899 40.9108 40.2516C41.4021 39.8134 41.984 39.5822 42.6563 39.5578C43.3286 39.5578 43.9104 39.7769 44.4017 40.2151C44.8931 40.6533 45.1387 41.2133 45.1387 41.8949V62.9291H52.586ZM69.9631 51.2434V32.5464C69.9631 31.5726 69.7692 30.6597 69.3813 29.8076C68.9934 28.9555 68.4633 28.213 67.791 27.58C67.1186 26.9471 66.3299 26.448 65.4249 26.0828C64.5198 25.7177 63.5501 25.5351 62.5158 25.5351H60.0333V58.2548H62.5158C63.5501 58.2548 64.5198 58.0722 65.4249 57.707C66.3299 57.3419 67.1186 56.8428 67.791 56.2098C68.4633 55.5769 68.9934 54.8343 69.3813 53.9823C69.7692 53.1302 69.9631 52.2172 69.9631 51.2434Z" fill="#C27801"/>
<path d="M56.3753 2.16382H9.78614C5.98629 2.16382 2.58085 5.08817 2.10947 9.13805C1.6381 13.1879 4.12003 16.8861 7.58319 17.881C7.60243 17.881 7.62167 17.9011 7.62167 17.9312C7.62167 18.6749 7.62167 30.2416 7.62167 37.0149C7.62167 39.6779 9.65146 41.8586 12.1334 41.8586H12.9896C15.4715 41.8586 17.5013 39.6779 17.5013 37.0149V23.2875C17.5013 20.4636 19.6369 18.1724 22.2631 18.1724H23.3213C25.9091 18.1724 28.0062 20.4234 28.0062 23.2071V32.9147C28.0062 35.5778 30.036 37.7585 32.5179 37.7585H33.3741C35.856 37.7585 37.8858 35.5778 37.8858 32.9147V24.1919C37.8858 20.8656 40.3966 18.1724 43.4846 18.1724H56.1251C59.848 18.1724 63.1958 15.3586 63.7537 11.3991C64.4463 6.46493 60.8677 2.18392 56.3945 2.18392L56.3753 2.16382Z" fill="white" stroke="#C27801" stroke-width="3" stroke-miterlimit="10"/>
</svg>
