<svg width="180" height="147" viewBox="0 0 180 147" fill="none" xmlns="http://www.w3.org/2000/svg">
<g clip-path="url(#clip0_259_13299)">
<path d="M39.4575 99.921L55.4429 110.847C55.4429 110.847 59.5146 110.416 61.9275 102.653C64.3404 94.8892 72.7855 95.1767 72.7855 95.1767H78.1871C78.1871 95.1767 85.4532 95.4642 82.7387 91.4388C80.0242 87.4134 67.6581 89.1385 67.6581 89.1385L64.9436 90.0011C64.9436 90.0011 63.134 91.1513 62.8324 90.2887C62.5308 89.4261 62.5308 89.1385 64.9436 88.276C67.3565 87.4134 68.2614 87.1258 68.2614 87.1258C68.2614 87.1258 68.563 86.5508 75.5 87.4134C75.5 87.4134 81.2306 90.0011 82.4371 87.9884C83.6435 85.9757 80.929 83.963 80.929 83.963L78.2145 81.6627C78.2145 81.6627 77.9129 80.8001 68.563 79.3625C68.563 79.3625 63.7372 78.7874 60.1179 81.9502C60.1179 81.9502 58.3082 83.1004 57.705 82.2378C57.1018 81.3752 59.5146 80.5126 59.5146 80.5126L63.7372 78.4999C63.7372 78.4999 65.2453 77.6373 70.9759 78.2123L75.1984 79.0749C75.1984 79.0749 79.421 81.9502 80.929 80.2251C82.4371 78.4999 81.2306 76.7747 78.2145 74.762L75.1984 72.7492C75.1984 72.7492 71.8807 71.5991 67.6581 71.5991C63.4356 71.5991 63.7372 71.024 60.1179 72.4617C56.4985 73.8994 56.4985 74.762 56.4985 74.762C56.4985 74.762 55.2921 76.4871 54.3873 75.6245C53.4824 74.762 55.2921 73.8994 57.1018 72.4617C58.9114 71.024 62.2292 69.2988 66.4517 68.4362C70.6743 67.5737 74.2936 66.136 73.3888 63.2607C72.4839 60.3854 63.134 62.3981 63.134 62.3981L55.8953 65.2734C55.8953 65.2734 53.1808 65.8485 50.7679 69.0113C48.355 72.1742 44.7357 77.6373 44.7357 77.6373C44.7357 77.6373 43.5293 79.3625 42.926 88.276C42.3228 97.1894 39.4575 99.921 39.4575 99.921Z" fill="#FFF7EA"/>
<path d="M38.1002 101.502L55.5937 113.291L51.0695 120.192L49.5615 122.205C49.5615 122.205 49.5615 124.792 49.2598 125.655C48.9582 126.518 45.6405 133.131 45.6405 133.131L39.0051 146.645L0.686768 146.357L22.1011 118.454C22.1011 118.454 26.0084 112.782 30.8342 111.017L38.0865 101.489L38.1002 101.502Z" fill="#FFF7EA"/>
<path d="M61.3243 108.403L62.5308 114.154C62.5308 114.154 77.6113 115.304 85.7685 108.116L82.7524 95.7518C82.7524 95.7518 81.546 97.1895 76.4186 96.9019C71.2912 96.6144 65.259 97.7645 63.4493 105.24C63.4493 105.24 63.1477 107.541 61.3381 108.403H61.3243Z" fill="#FFF7EA"/>
<path d="M49.8631 66.9855C49.8631 66.9855 54.9905 59.5097 72.7993 59.7972C72.7993 59.7972 71.2912 54.0466 65.5606 49.4461C65.5606 49.4461 63.9017 48.2829 61.4203 41.9572C58.9252 35.6446 55.909 28.7307 55.909 28.7307L56.8139 28.4432L55.3058 26.718L47.1623 28.7307L46.8607 30.7435H48.0672L50.48 49.7206C50.48 49.7206 50.48 52.0208 49.2736 56.6213C48.0672 61.2218 49.8768 66.9725 49.8768 66.9725L49.8631 66.9855Z" fill="#FFF7EA"/>
<path d="M69.4814 69.2858C69.4814 69.2858 73.0871 68.9983 74.458 66.9855L75.5137 70.4359C75.5137 70.4359 72.4976 70.1484 69.4814 69.2858Z" fill="#FFF7EA"/>
<path d="M54.0118 23.4532L46.5634 24.8695C45.9917 24.9782 45.6206 25.5082 45.7347 26.0533C45.8487 26.5983 46.4047 26.9521 46.9764 26.8433L54.4248 25.4271C54.9966 25.3183 55.3676 24.7883 55.2536 24.2433C55.1395 23.6982 54.5836 23.3445 54.0118 23.4532Z" fill="#FFF7EA"/>
<path d="M46.8469 25.9861V30.7435L56.8001 28.4432L54.0856 24.4178L46.8469 25.9861Z" fill="#FFF7EA"/>
<path d="M129.24 24.8407L121.602 22.8283C121.121 22.7014 120.622 22.9707 120.489 23.4299C120.356 23.8891 120.638 24.3642 121.12 24.4911L128.758 26.5036C129.24 26.6305 129.738 26.3611 129.871 25.9019C130.004 25.4427 129.722 24.9676 129.24 24.8407Z" fill="#FFF7EA"/>
<path d="M121.372 23.8427L118.959 27.5806L119.864 27.8681L113.832 42.5323C113.352 43.7085 112.982 44.8848 112.379 46.0218C110.953 48.7011 108.869 50.5831 106.758 52.7396C105.154 54.3864 104.085 56.569 103.276 58.6471C103.276 58.6471 106.292 58.072 108.705 60.3723C110.076 61.6793 111.597 62.8555 113.037 64.1102C113.969 64.9205 114.915 65.7308 115.779 66.6065C116.642 67.4822 117.259 68.5408 117.959 69.5864C118.534 70.4621 119.261 71.194 120.015 71.9259C120.248 72.148 123.36 74.9711 123.484 74.762C123.484 74.762 125.896 71.024 126.801 59.8103C126.801 59.8103 127.103 56.3599 125.595 51.7594C124.087 47.1589 127.706 30.4821 127.706 30.4821L128.913 30.7696L128.611 25.3065L121.372 23.8688V23.8427Z" fill="#FFF7EA"/>
<path d="M100.849 68.4232C100.849 68.4232 100.849 69.5733 102.659 71.2985C104.468 73.0237 110.802 76.7616 111.707 83.0873C112.612 89.413 111.707 90.8507 112.914 93.726C114.12 96.6013 116.231 99.7642 114.723 105.802L112.914 114.141C112.914 114.141 97.833 116.729 89.6758 108.103L100.835 68.4101L100.849 68.4232Z" fill="#FFF7EA"/>
<path d="M101.754 67.2731C101.754 67.2731 98.4361 63.326 101.754 61.4179C105.072 59.5097 109.897 63.8227 109.897 63.8227C109.897 63.8227 115.326 68.4232 118.644 73.0237C121.962 77.6242 125.279 79.0619 125.581 75.3239L126.486 70.1484C126.486 70.1484 133.121 72.4486 133.121 79.0619C133.121 85.6751 136.439 93.726 136.439 93.726L140.662 101.489L124.073 113.278L117.739 108.39C117.739 108.39 116.231 106.952 117.739 104.365C119.247 101.777 116.08 96.9411 116.08 96.9411C116.08 96.9411 112.913 91.7002 113.818 85.3745C114.723 79.0488 108.389 74.1607 108.389 74.1607L101.754 67.26V67.2731Z" fill="#FFF7EA"/>
<path d="M125.101 114.52L142.485 102.94L147.914 110.416C147.914 110.416 149.929 113.134 153.137 114.219C156.346 115.304 179.583 146.658 179.583 146.658H141.196L134.328 133.144C134.328 133.144 131.97 129.406 131.641 124.806L125.088 114.533L125.101 114.52Z" fill="#FFF7EA"/>
</g>
<circle cx="59.829" cy="5.45837" r="4.8634" fill="#FFF7EA"/>
<circle cx="86.4891" cy="22.5985" r="3.65293" fill="#FFF7EA"/>
<circle cx="103.932" cy="14.1893" r="3.65293" fill="#FFF7EA"/>
<defs>
<clipPath id="clip0_259_13299">
<rect width="178.91" height="123.861" fill="white" transform="translate(0.686768 22.7971)"/>
</clipPath>
</defs>
</svg>
