<svg width="290" height="222" viewBox="0 0 290 222" fill="none" xmlns="http://www.w3.org/2000/svg">
<g filter="url(#filter0_dd_303_13374)">
<rect x="41.5115" y="21.5" width="207" height="139" rx="5" fill="white"/>
<rect x="41.0115" y="21" width="208" height="140" rx="5.5" stroke="#D6DCE5"/>
<path d="M140.512 107.658H135.856V69.8966H148.199C151.327 69.8966 153.994 70.9834 156.177 73.1571C158.408 75.3308 159.523 77.9847 159.523 81.1189C159.523 84.3289 158.408 86.9828 156.177 89.1313C154.018 91.2797 151.351 92.3413 148.199 92.3413H140.512V107.658ZM140.512 74.5473V87.7158H148.296C150.139 87.7158 151.691 87.0587 152.903 85.7696C154.14 84.4806 154.77 82.9135 154.77 81.1442C154.77 79.4002 154.14 77.8584 152.903 76.5693C151.691 75.2297 150.163 74.5725 148.296 74.5725H140.512V74.5473Z" fill="#3C4043"/>
<path d="M171.696 80.9673C175.139 80.9673 177.855 81.9277 179.843 83.8487C181.832 85.7696 182.826 88.3983 182.826 91.7346V107.658H178.388V104.069H178.194C176.279 107.026 173.708 108.492 170.507 108.492C167.767 108.492 165.488 107.658 163.645 105.965C161.802 104.271 160.88 102.173 160.88 99.6459C160.88 96.9667 161.85 94.8435 163.79 93.2764C165.73 91.6841 168.325 90.9005 171.55 90.9005C174.314 90.9005 176.594 91.4313 178.364 92.4929V91.3808C178.364 89.6873 177.734 88.2719 176.448 87.0839C175.163 85.896 173.66 85.3146 171.938 85.3146C169.343 85.3146 167.282 86.452 165.779 88.7521L161.681 86.0729C163.936 82.6607 167.282 80.9673 171.696 80.9673ZM165.682 99.7217C165.682 100.985 166.191 102.047 167.234 102.881C168.252 103.715 169.465 104.145 170.847 104.145C172.811 104.145 174.557 103.387 176.085 101.87C177.612 100.354 178.388 98.5843 178.388 96.537C176.933 95.349 174.921 94.7424 172.326 94.7424C170.435 94.7424 168.858 95.2227 167.597 96.1579C166.312 97.1436 165.682 98.3316 165.682 99.7217Z" fill="#3C4043"/>
<path d="M208.142 81.8016L192.623 119.007H187.821L193.593 105.99L183.36 81.8016H188.428L195.799 100.354H195.896L203.074 81.8016H208.142Z" fill="#3C4043"/>
<path d="M121.992 89.2829C121.992 87.7007 121.857 86.1867 121.604 84.7308H102.089V93.0717L113.328 93.0743C112.872 95.8495 111.405 98.2153 109.157 99.7925V105.204H115.848C119.754 101.435 121.992 95.8647 121.992 89.2829Z" fill="#4285F4"/>
<path d="M109.16 99.7928C107.297 101.102 104.899 101.868 102.093 101.868C96.6738 101.868 92.0762 98.0614 90.4297 92.9304H83.5284V98.5113C86.9475 105.583 93.9749 110.436 102.093 110.436C107.705 110.436 112.419 108.513 115.85 105.202L109.16 99.7928Z" fill="#34A853"/>
<path d="M89.7796 88.79C89.7796 87.3493 90.01 85.9566 90.4295 84.6473V79.0665H83.5282C82.1145 81.9909 81.3191 85.2919 81.3191 88.79C81.3191 92.2881 82.1169 95.5891 83.5282 98.5135L90.4295 92.9327C90.01 91.6234 89.7796 90.2307 89.7796 88.79Z" fill="#FABB05"/>
<path d="M102.093 75.71C105.156 75.71 107.899 76.8094 110.064 78.9579L115.993 72.783C112.392 69.2874 107.697 67.1415 102.093 67.1415C93.9773 67.1415 86.9473 71.9944 83.5282 79.0665L90.4295 84.6473C92.076 79.5164 96.6738 75.71 102.093 75.71Z" fill="#E94235"/>
</g>
<defs>
<filter id="filter0_dd_303_13374" x="0.511475" y="0.5" width="289" height="221" filterUnits="userSpaceOnUse" color-interpolation-filters="sRGB">
<feFlood flood-opacity="0" result="BackgroundImageFix"/>
<feColorMatrix in="SourceAlpha" type="matrix" values="0 0 0 0 0 0 0 0 0 0 0 0 0 0 0 0 0 0 127 0" result="hardAlpha"/>
<feOffset dy="2"/>
<feGaussianBlur stdDeviation="10"/>
<feColorMatrix type="matrix" values="0 0 0 0 0.717647 0 0 0 0 0.717647 0 0 0 0 0.717647 0 0 0 0.08 0"/>
<feBlend mode="normal" in2="BackgroundImageFix" result="effect1_dropShadow_303_13374"/>
<feColorMatrix in="SourceAlpha" type="matrix" values="0 0 0 0 0 0 0 0 0 0 0 0 0 0 0 0 0 0 127 0" result="hardAlpha"/>
<feOffset dy="20"/>
<feGaussianBlur stdDeviation="20"/>
<feColorMatrix type="matrix" values="0 0 0 0 0.717647 0 0 0 0 0.717647 0 0 0 0 0.717647 0 0 0 0.08 0"/>
<feBlend mode="normal" in2="effect1_dropShadow_303_13374" result="effect2_dropShadow_303_13374"/>
<feBlend mode="normal" in="SourceGraphic" in2="effect2_dropShadow_303_13374" result="shape"/>
</filter>
</defs>
</svg>
