<svg width="192" height="146" viewBox="0 0 192 146" fill="none" xmlns="http://www.w3.org/2000/svg">
<g clip-path="url(#clip0_259_13317)">
<path d="M78.2844 47.8495L79.3154 47.5063L110.487 37.1086L191.351 52.0123V102.411L162.687 120.94L78.2844 106.958V47.8495Z" fill="#FFF7EA"/>
<path d="M74.3616 18.1678L73.644 15.9239C73.644 15.9239 68.1449 16.3032 64.8508 17.4503C61.7183 18.5411 57.3507 21.4504 57.3507 21.4504L58.0683 23.6943C64.8091 22.3324 68.3749 21.119 74.3616 18.1678Z" fill="#FFF7EA"/>
<path d="M101.119 6.45557L92.1472 9.37524L92.8648 11.6191L101.837 8.69944L101.119 6.45557Z" fill="#FFF7EA"/>
<path d="M97.7958 18.0346L73.9549 25.7931C74.2563 26.7356 73.3507 27.4505 74.7267 28.2065C76.1027 28.9625 97.7958 22.4504 98.5676 20.448C99.3394 18.4456 97.7958 18.0346 97.7958 18.0346Z" fill="#FFF7EA"/>
<path d="M92.6176 10.6316L95.512 19.6819L98.0107 18.8687L95.1164 9.81841L92.6176 10.6316Z" fill="#FFF7EA"/>
<path d="M71.3207 17.4421L74.2151 26.4924L76.6372 25.7042L73.7429 16.6539L71.3207 17.4421Z" fill="#FFF7EA"/>
<path d="M87.374 22.4387H84.5173V47.8501H87.374V22.4387Z" fill="#FFF7EA"/>
<path d="M38.8642 41.8755L36.2952 44.467L113.634 122.482L116.203 119.89L38.8642 41.8755Z" fill="#FFF7EA"/>
<path d="M52.9674 58.3097L23.0583 81.5442L25.2799 84.4542L55.189 61.2196L52.9674 58.3097Z" fill="#FFF7EA"/>
<path d="M82.2499 94.5108L25.0427 81.3577L24.2278 84.9642L81.435 98.1174L82.2499 94.5108Z" fill="#FFF7EA"/>
<path d="M23.7475 86.8843C25.4687 86.8843 26.8639 85.4768 26.8639 83.7406C26.8639 82.0044 25.4687 80.5969 23.7475 80.5969C22.0264 80.5969 20.6311 82.0044 20.6311 83.7406C20.6311 85.4768 22.0264 86.8843 23.7475 86.8843Z" fill="#FFF7EA"/>
<path d="M115.682 125.132C117.403 125.132 118.798 123.725 118.798 121.989C118.798 120.252 117.403 118.845 115.682 118.845C113.96 118.845 112.565 120.252 112.565 121.989C112.565 123.725 113.96 125.132 115.682 125.132Z" fill="#FFF7EA"/>
<path d="M22.9449 56.9905C10.4662 56.9905 0.35083 69.0124 0.35083 83.8427C0.35083 98.6729 10.4662 110.695 22.9449 110.695C35.4235 110.695 45.5389 98.6729 45.5389 83.8427C45.5389 69.0124 35.4235 56.9905 22.9449 56.9905ZM22.9449 105.081C13.0762 105.081 5.0748 95.5712 5.0748 83.8427C5.0748 72.1142 13.0762 62.6046 22.9449 62.6046C32.8135 62.6046 40.8149 72.1142 40.8149 83.8427C40.8149 95.5712 32.8135 105.081 22.9449 105.081Z" fill="#FFF7EA"/>
<path d="M115.451 95.7913C102.972 95.7913 92.8567 106.909 92.8567 120.621C92.8567 134.333 102.972 145.451 115.451 145.451C127.929 145.451 138.045 134.333 138.045 120.621C138.045 106.909 127.929 95.7913 115.451 95.7913ZM115.451 140.258C105.582 140.258 97.5807 131.467 97.5807 120.618C97.5807 109.77 105.582 100.978 115.451 100.978C125.319 100.978 133.321 109.77 133.321 120.618C133.321 131.467 125.319 140.258 115.451 140.258Z" fill="#FFF7EA"/>
<g clip-path="url(#clip1_259_13317)">
<path d="M138.331 100.213C136.886 99.2783 134.95 99.7023 134.007 101.16C133.064 102.618 133.471 104.558 134.917 105.492C136.362 106.427 138.298 106.003 139.241 104.545C140.184 103.087 139.777 101.148 138.331 100.213Z" fill="#FFF7EA"/>
<path d="M136.682 106.132C138.403 106.132 139.798 104.725 139.798 102.989C139.798 101.252 138.403 99.845 136.682 99.845C134.96 99.845 133.565 101.252 133.565 102.989C133.565 104.725 134.96 106.132 136.682 106.132Z" fill="#FFF7EA"/>
<path d="M136.451 76.7913C123.972 76.7913 113.857 87.9094 113.857 101.621C113.857 115.333 123.972 126.451 136.451 126.451C148.929 126.451 159.045 115.333 159.045 101.621C159.045 87.9094 148.929 76.7913 136.451 76.7913ZM136.451 121.258C126.582 121.258 118.581 112.467 118.581 101.618C118.581 90.7701 126.582 81.9783 136.451 81.9783C146.319 81.9783 154.321 90.7701 154.321 101.618C154.321 112.467 146.319 121.258 136.451 121.258Z" fill="#FFF7EA"/>
</g>
<path d="M168.707 42.7277C168.139 41.7243 168.211 41.7977 167.926 41.3681C167.64 40.9384 166.718 40.1499 166.222 36.6421L165.44 26.543C165.44 26.543 165.297 26.2575 165.583 26.2575H165.796L165.43 25.0393H161.111L160.828 26.1841H161.111C161.111 26.1841 161.324 26.2549 161.181 26.4697L160.472 35.2065C160.472 35.2065 160.259 39.6469 158.839 41.2213C157.418 42.7958 157.205 44.8025 157.205 44.8025L157.062 46.0914V49.3818L158.553 49.387L158.522 47.1314C158.522 47.1314 158.483 46.7385 158.909 46.7385C159.335 46.7385 159.275 47.1157 159.275 47.1157L159.257 49.387H169.629V46.0443C169.629 46.0443 169.273 43.7284 168.707 42.7251V42.7277ZM161.929 36.1469C161.913 36.3225 161.758 36.4561 161.584 36.4403C161.41 36.4246 161.277 36.2674 161.293 36.0919L162.03 27.3892C162.046 27.2137 162.202 27.0801 162.376 27.0958C162.55 27.1115 162.682 27.2687 162.667 27.4442L161.929 36.1469Z" fill="#FFF7EA"/>
<path d="M149.49 40.1085C148.921 39.1052 148.993 39.1785 148.708 38.7489C148.422 38.3193 147.5 37.5307 147.004 34.0229L146.222 23.9239C146.222 23.9239 146.08 23.6383 146.365 23.6383H146.578L146.212 22.4202H141.893L141.61 23.565H141.893C141.893 23.565 142.106 23.6357 141.963 23.8505L141.254 32.5873C141.254 32.5873 141.041 37.0277 139.621 38.6022C138.2 40.1767 137.987 42.1834 137.987 42.1834L137.844 43.4723V46.7626L139.335 46.7679L139.304 44.5123C139.304 44.5123 139.265 44.1193 139.691 44.1193C140.117 44.1193 140.057 44.4966 140.057 44.4966L140.039 46.7679H150.411V43.4251C150.411 43.4251 150.056 41.1093 149.49 40.1059V40.1085ZM142.711 33.5278C142.696 33.7033 142.54 33.8369 142.366 33.8212C142.192 33.8055 142.059 33.6483 142.075 33.4728L142.813 24.7701C142.828 24.5945 142.984 24.4609 143.158 24.4766C143.332 24.4924 143.464 24.6495 143.449 24.8251L142.711 33.5278Z" fill="#FFF7EA"/>
<path d="M131.051 37.2267C130.482 36.2234 130.555 36.2967 130.269 35.8671C129.983 35.4374 129.061 34.6489 128.565 31.1411L127.783 21.0421C127.783 21.0421 127.641 20.7565 127.926 20.7565H128.139L127.773 19.5383H123.454L123.171 20.6831H123.454C123.454 20.6831 123.667 20.7539 123.524 20.9687L122.815 29.7055C122.815 29.7055 122.602 34.1459 121.182 35.7204C119.761 37.2948 119.548 39.3015 119.548 39.3015L119.406 40.5904V43.8808L120.896 43.8861L120.865 41.6305C120.865 41.6305 120.826 41.2375 121.252 41.2375C121.678 41.2375 121.618 41.6147 121.618 41.6147L121.6 43.8861H131.972V40.5433C131.972 40.5433 131.617 38.2274 131.051 37.2241V37.2267ZM124.272 30.646C124.257 30.8215 124.101 30.9551 123.927 30.9394C123.753 30.9237 123.62 30.7665 123.636 30.5909L124.374 21.8882C124.389 21.7127 124.545 21.5791 124.719 21.5948C124.893 21.6105 125.025 21.7677 125.01 21.9432L124.272 30.646Z" fill="#FFF7EA"/>
<path d="M29.2614 42.8239C27.1334 41.4437 29.2611 35.9231 30.3254 34.7725C31.9212 33.6224 38.8372 35.9227 40.4334 35.9227C47.3494 35.9231 50.4515 43.0871 51.6055 43.399C55.8614 44.5496 55.3296 48.5749 55.3296 49.15C55.3296 49.7251 52.6695 51.4504 51.0735 51.4504C49.4775 51.4504 47.8815 50.3002 46.2854 49.15C44.6894 47.9998 44.6894 48.5749 42.0294 48.5749C39.3693 48.5749 39.9013 49.15 36.7093 48.5749C33.5173 47.9998 31.9215 44.5492 29.2614 42.8239Z" fill="#FFF7EA"/>
<path d="M107.783 6.66864L107.156 4.7074C107.156 4.7074 102.349 5.03896 99.4701 6.04156C96.7323 6.99494 92.9148 9.5378 92.9148 9.5378L93.542 11.499C99.4337 10.3087 102.55 9.24815 107.783 6.66864Z" fill="#FFF7EA"/>
</g>
<defs>
<clipPath id="clip0_259_13317">
<rect width="191" height="145" fill="white" transform="translate(0.35083 0.450439)"/>
</clipPath>
<clipPath id="clip1_259_13317">
<rect width="47" height="50" fill="white" transform="translate(113.351 76.4504)"/>
</clipPath>
</defs>
</svg>
