<svg width="32" height="43" viewBox="0 0 32 43" fill="none" xmlns="http://www.w3.org/2000/svg">
<path d="M7.38123 17.1625V10.6149C7.37922 8.48853 8.11807 6.4345 9.45909 4.83832C10.8001 3.24215 12.6511 2.21358 14.6647 1.94568C16.6782 1.67779 18.7159 2.18897 20.3952 3.3833C22.0745 4.57763 23.28 6.37297 23.7854 8.43237" stroke="#316D5F" stroke-width="2" stroke-linecap="round"/>
<path d="M1 17.881H30.1667V37.5238C30.1667 38.6815 29.7277 39.7918 28.9463 40.6104C28.1649 41.429 27.1051 41.8889 26 41.8889H5.16667C4.0616 41.8889 3.00179 41.429 2.22039 40.6104C1.43899 39.7918 1 38.6815 1 37.5238V17.881Z" stroke="#316D5F" stroke-width="2" stroke-linejoin="round"/>
<circle cx="21.8011" cy="31.8693" r="1.98431" fill="#316D5F"/>
</svg>
