<svg width="349" height="349" viewBox="0 0 349 349" fill="none" xmlns="http://www.w3.org/2000/svg">
<path d="M98.942 10.5225C115.914 0.555963 135.031 1.76402 153.086 7.88485C169.357 13.4218 184.886 15.2741 200.657 6.17344C214.142 -1.61854 232.898 1.36134 246.424 7.36136C254.8 11.0661 262.435 16.5829 268.186 23.7708C275.881 33.4152 275.961 46.6434 284.377 55.9857C292.613 65.1066 303.654 71.771 314.434 77.3885C345.414 93.496 353.149 127.624 337.058 161.127C329.463 176.933 342.648 191.731 346.416 206.45C349.862 219.919 347.077 234.96 341.226 247.302C329.323 272.43 309.064 277.826 309.064 277.826C309.064 277.826 283.455 285.597 272.133 319.121C272.133 319.121 264.399 335.812 245.322 342.417C226.266 349.041 208.993 346.564 198.272 342.417C191.199 339.678 184.926 336.799 177.132 336.98C165.89 337.242 156.312 343.564 145.611 346.101C138.438 347.813 130.562 347.571 123.228 346.967C106.657 345.638 88.2815 340.081 79.7252 324.477C63.6344 295.161 67.8224 289.765 32.074 273.597C15.1015 265.926 4.22067 248.933 2.03648 230.631C0.212995 215.389 7.14627 201.275 10.4125 186.758C14.4402 168.778 7.4268 157.06 3.0384 140.208C0.192957 129.214 2.55747 117.637 6.36476 107.147C12.8371 89.3684 25.2008 81.2543 41.3918 73.4422C55.9597 66.3952 68.0628 53.9924 74.3549 38.9924C79.7051 26.2876 88.4218 16.6634 98.9019 10.4822L98.942 10.5225Z" stroke="#D5C1AA" stroke-width="2" stroke-miterlimit="10"/>
<path d="M76.536 100.471L95.212 111.984L87.8779 91.2519L93.8695 86.3809L111.784 108.643L107.195 112.367L102.306 106.288L94.3103 95.4185L101.685 116.855L98.5585 119.412L79.2612 107.677L88.1584 117.801L93.0479 123.88L88.479 127.584L70.5645 105.322L76.536 100.471Z" fill="#D5C1AA"/>
<path d="M126.931 94.5214L117.693 99.0905L118.535 105.25L112.944 108.028L109.878 77.6537L114.767 75.2383L136.93 96.1719L131.339 98.9496L126.971 94.5415L126.931 94.5214ZM117.032 94.1188L123.424 90.9586L115.509 82.9475L117.052 94.1389L117.032 94.1188Z" fill="#D5C1AA"/>
<path d="M142.841 90.0194L154.885 86.7787L156.107 91.3479L138.393 96.1183L131.019 68.4819L136.69 66.9521L142.841 90.0194Z" fill="#D5C1AA"/>
<path d="M173.382 65.7943L164.705 66.6598L167.07 90.3913L161.218 90.975L158.854 67.2435L150.277 68.109L149.796 63.3587L172.881 61.0439L173.362 65.7943H173.382Z" fill="#D5C1AA"/>
<path d="M201.039 82.6882C200.478 85.7276 199.096 88.0021 196.871 89.5319C194.647 91.0616 191.882 91.6454 188.555 91.2629C184.928 90.8603 182.203 89.3104 180.4 86.6334C178.596 83.9563 177.915 80.4539 178.396 76.1666L178.596 74.4355C178.897 71.698 179.638 69.343 180.84 67.3704C182.023 65.3978 183.586 63.9486 185.489 63.0428C187.393 62.137 189.537 61.7948 191.882 62.0766C195.148 62.4389 197.693 63.6064 199.476 65.5991C201.26 67.5918 202.162 70.1884 202.122 73.3888L196.29 72.7447C196.35 70.8929 195.99 69.504 195.208 68.5781C194.427 67.6522 193.144 67.0886 191.341 66.8873C189.397 66.6659 187.854 67.2094 186.752 68.4976C185.63 69.7858 184.888 71.8993 184.548 74.8381L184.307 76.9918C183.966 80.0715 184.187 82.3661 184.948 83.8959C185.71 85.4257 187.093 86.2912 189.096 86.5126C190.9 86.7139 192.283 86.4522 193.264 85.7276C194.246 85.003 194.888 83.7751 195.208 82.0642L201.039 82.7083V82.6882Z" fill="#D5C1AA"/>
<path d="M209.53 90.1735L221.493 93.7162L220.15 98.2652L202.576 93.0519L210.652 65.5967L216.283 67.2673L209.55 90.1735H209.53Z" fill="#D5C1AA"/>
<path d="M253.502 82.0915L245.607 99.2007C244.304 102.039 242.38 103.871 239.835 104.716C237.311 105.541 234.505 105.239 231.439 103.81C228.413 102.401 226.39 100.489 225.348 98.0534C224.305 95.6178 224.426 93.0011 225.688 90.163L233.664 72.8525L238.994 75.3283L231.099 92.4778C230.317 94.1686 230.157 95.5977 230.598 96.7652C231.059 97.9326 232 98.8384 233.423 99.5026C236.409 100.892 238.673 100.026 240.176 96.8859L248.152 79.5956L253.502 82.0915Z" fill="#D5C1AA"/>
<path d="M244.956 110.079L260.185 85.8848L268.622 91.2389C271.547 93.0908 273.411 95.0633 274.213 97.1567C275.014 99.2501 274.734 101.364 273.371 103.537C272.63 104.725 271.668 105.57 270.485 106.094C269.303 106.617 268.041 106.738 266.698 106.476C267.74 107.563 268.321 108.811 268.441 110.2C268.562 111.589 268.181 112.978 267.339 114.326C265.876 116.661 264.033 117.949 261.789 118.191C259.544 118.433 257.059 117.728 254.314 115.997L244.956 110.039V110.079ZM256.538 102.692L252.431 109.214L256.679 111.911C257.841 112.656 258.943 112.958 259.945 112.817C260.947 112.676 261.769 112.112 262.39 111.126C263.792 108.912 263.352 107.06 261.087 105.57L256.538 102.672V102.692ZM258.763 99.1696L262.43 101.504C264.955 103.054 266.838 102.853 268.081 100.88C268.762 99.7935 268.942 98.7871 268.622 97.9015C268.301 97.0158 267.439 96.1302 266.077 95.2646L262.61 93.0505L258.763 99.1494V99.1696Z" fill="#D5C1AA"/>
<path d="M276.704 259.185L258.028 247.672L265.362 268.404L259.371 273.275L241.456 251.013L246.045 247.289L250.934 253.368L258.93 264.238L251.556 242.801L254.682 240.244L273.979 251.979L265.082 241.855L260.192 235.776L264.761 232.072L282.676 254.334L276.704 259.185Z" fill="#D5C1AA"/>
<path d="M226.289 265.131L235.527 260.562L234.686 254.403L240.276 251.625L243.342 281.999L238.453 284.414L216.29 263.481L221.881 260.703L226.249 265.111L226.289 265.131ZM236.209 265.534L229.816 268.694L237.731 276.705L236.188 265.514L236.209 265.534Z" fill="#D5C1AA"/>
<path d="M210.398 269.664L198.355 272.905L197.132 268.336L214.847 263.565L222.221 291.202L216.55 292.732L210.398 269.664Z" fill="#D5C1AA"/>
<path d="M179.841 293.872L188.518 293.007L186.153 269.275L192.004 268.691L194.369 292.423L202.945 291.557L203.426 296.308L180.342 298.622L179.861 293.872H179.841Z" fill="#D5C1AA"/>
<path d="M152.211 276.985C152.772 273.946 154.155 271.671 156.379 270.142C158.604 268.612 161.369 268.028 164.695 268.411C168.322 268.813 171.048 270.363 172.851 273.04C174.655 275.717 175.336 279.22 174.855 283.507L174.655 285.238C174.354 287.975 173.613 290.331 172.41 292.303C171.228 294.276 169.665 295.725 167.761 296.631C165.858 297.536 163.714 297.879 161.369 297.597C158.103 297.235 155.558 296.067 153.774 294.074C151.991 292.082 151.089 289.485 151.129 286.285L156.96 286.929C156.9 288.781 157.261 290.169 158.043 291.095C158.824 292.021 160.107 292.585 161.91 292.786C163.854 293.008 165.397 292.464 166.499 291.176C167.621 289.888 168.363 287.774 168.703 284.835L168.944 282.682C169.284 279.602 169.064 277.307 168.302 275.778C167.541 274.248 166.158 273.382 164.154 273.161C162.351 272.96 160.968 273.221 159.986 273.946C159.004 274.671 158.363 275.898 158.043 277.609L152.211 276.965V276.985Z" fill="#D5C1AA"/>
<path d="M143.709 269.481L131.746 265.939L133.089 261.39L150.663 266.603L142.587 294.058L136.956 292.387L143.689 269.481H143.709Z" fill="#D5C1AA"/>
<path d="M99.7417 277.56L107.637 260.451C108.939 257.613 110.863 255.781 113.408 254.936C115.933 254.11 118.738 254.412 121.804 255.841C124.83 257.25 126.854 259.163 127.896 261.598C128.938 264.034 128.818 266.65 127.555 269.488L119.58 286.799L114.25 284.323L122.145 267.174C122.926 265.483 123.087 264.054 122.646 262.886C122.185 261.719 121.243 260.813 119.82 260.149C116.835 258.76 114.57 259.626 113.067 262.766L105.092 280.056L99.7417 277.56Z" fill="#D5C1AA"/>
<path d="M108.28 249.577L93.051 273.771L84.6147 268.417C81.6891 266.565 79.8255 264.593 79.0239 262.499C78.2224 260.406 78.5029 258.292 79.8656 256.119C80.607 254.931 81.5688 254.086 82.7511 253.562C83.9334 253.039 85.1958 252.918 86.5384 253.18C85.4964 252.093 84.9153 250.845 84.7951 249.456C84.6748 248.067 85.0556 246.678 85.8972 245.33C87.36 242.995 89.2036 241.707 91.4479 241.465C93.6923 241.223 96.177 241.928 98.9223 243.659L108.28 249.617V249.577ZM94.4537 260.486L90.7866 258.152C88.2618 256.602 86.3781 256.803 85.1357 258.776C84.4544 259.862 84.2741 260.869 84.5947 261.755C84.9153 262.64 85.777 263.526 87.1396 264.391L90.6063 266.605L94.4537 260.507V260.486ZM96.678 256.964L100.786 250.442L96.5378 247.745C95.3755 247 94.2734 246.698 93.2714 246.839C92.2695 246.98 91.4479 247.544 90.8267 248.53C89.424 250.744 89.8649 252.596 92.1292 254.086L96.678 256.984V256.964Z" fill="#D5C1AA"/>
<path d="M201.064 160.842H150.52C145.251 160.842 140.98 165.115 140.98 170.386V227.093C140.98 232.364 145.251 236.637 150.52 236.637H201.064C206.333 236.637 210.604 232.364 210.604 227.093V170.386C210.604 165.115 206.333 160.842 201.064 160.842Z" stroke="#D5C1AA" stroke-width="3" stroke-miterlimit="10"/>
<path d="M211.955 131.265C209.075 130.899 206.275 131.103 203.693 131.752C203.732 131.529 203.772 131.326 203.792 131.103C205.341 118.372 194.814 106.555 180.275 104.728C165.736 102.901 152.984 111.55 151.237 124.077C142.378 124.382 134.969 130.189 133.996 138.229C133.738 140.32 133.956 142.371 134.552 144.3C127.005 144.259 120.609 149.112 119.795 155.873C118.901 163.264 125.018 170.126 133.46 171.182C141.901 172.238 149.469 167.121 150.363 159.731C150.482 158.776 150.462 157.822 150.363 156.888C150.482 156.888 150.581 156.929 150.7 156.949C152.011 157.112 153.302 157.152 154.573 157.091C155.487 166.614 163.929 174.776 175.091 176.177C186.254 177.578 195.907 172.035 199.323 163.385C201.806 164.827 204.666 165.842 207.765 166.228C218.788 167.629 228.66 160.929 229.831 151.284C231.003 141.64 223.019 132.686 211.995 131.285L211.955 131.265Z" fill="#D5C1AA"/>
<path d="M231.677 180.271H210.817C210.702 180.271 210.61 180.36 210.61 180.471V213.109C210.61 213.22 210.702 213.31 210.817 213.31H231.677C231.791 213.31 231.884 213.22 231.884 213.109V180.471C231.884 180.36 231.791 180.271 231.677 180.271Z" stroke="#D5C1AA" stroke-width="2" stroke-miterlimit="10"/>
<path d="M164.193 164.729H162.259V236.638H164.193V164.729Z" stroke="#D5C1AA" stroke-miterlimit="10"/>
<path d="M187.402 164.729V164.729V234.694V234.694V164.729Z" stroke="#D5C1AA" stroke-miterlimit="10"/>
<path d="M100.346 156.709C100.346 156.709 85.8108 144.183 63.798 151.463C55.4207 154.231 49.8825 163.079 57.72 169.488C65.0576 175.47 71.7754 171.54 78.0533 166.603C85.6108 160.678 90.1493 158.007 100.366 156.709H100.346Z" fill="#D5C1AA"/>
<path d="M106.175 162.778C106.175 162.778 82.0153 170.191 85.1887 184.838C85.1887 184.838 90.4988 191.58 99.1515 185.508C104.144 182.019 102.431 176.657 101.458 172.694C100.527 168.949 103.446 166.031 106.175 162.798V162.778Z" fill="#D5C1AA"/>
</svg>
