<svg width="290" height="222" viewBox="0 0 290 222" fill="none" xmlns="http://www.w3.org/2000/svg">
<g filter="url(#filter0_dd_303_13368)">
<rect x="41.5115" y="21.5" width="207" height="139" rx="5" fill="white"/>
<rect x="41.0115" y="21" width="208" height="140" rx="5.5" stroke="#D6DCE5"/>
<path d="M159.881 62.456H129.403V119.543H159.881V62.456Z" fill="#FF5F00"/>
<path d="M131.339 90.9997C131.334 85.5018 132.529 80.0747 134.834 75.1295C137.139 70.1842 140.493 65.8503 144.642 62.456C139.504 58.2461 133.333 55.6281 126.835 54.9011C120.336 54.1741 113.773 55.3674 107.894 58.3448C102.016 61.3221 97.0594 65.9633 93.5919 71.7379C90.1244 77.5124 88.2856 84.1873 88.2856 90.9997C88.2856 97.812 90.1244 104.487 93.5919 110.262C97.0594 116.036 102.016 120.677 107.894 123.655C113.773 126.632 120.336 127.825 126.835 127.098C133.333 126.371 139.504 123.753 144.642 119.543C140.493 116.149 137.139 111.815 134.834 106.87C132.529 101.925 131.334 96.4976 131.339 90.9997Z" fill="#EB001B"/>
<path d="M200.997 90.9997C200.998 97.8119 199.159 104.487 195.692 110.261C192.224 116.036 187.268 120.677 181.39 123.655C175.512 126.632 168.948 127.825 162.45 127.098C155.952 126.371 149.781 123.753 144.642 119.543C148.788 116.146 152.14 111.811 154.444 106.867C156.749 101.922 157.946 96.4968 157.946 90.9997C157.946 85.5026 156.749 80.0773 154.444 75.1328C152.14 70.1883 148.788 65.8538 144.642 62.456C149.781 58.2461 155.952 55.6281 162.45 54.9011C168.948 54.1741 175.512 55.3675 181.39 58.3449C187.268 61.3222 192.224 65.9634 195.692 71.738C199.159 77.5126 200.998 84.1874 200.997 90.9997Z" fill="#F79E1B"/>
<path d="M197.674 113.497V112.328H198.126V112.09H196.975V112.328H197.427V113.497H197.674ZM199.91 113.497V112.088H199.557L199.151 113.057L198.745 112.088H198.392V113.497H198.641V112.434L199.022 113.35H199.28L199.661 112.432V113.497H199.91Z" fill="#F79E1B"/>
</g>
<defs>
<filter id="filter0_dd_303_13368" x="0.511475" y="0.5" width="289" height="221" filterUnits="userSpaceOnUse" color-interpolation-filters="sRGB">
<feFlood flood-opacity="0" result="BackgroundImageFix"/>
<feColorMatrix in="SourceAlpha" type="matrix" values="0 0 0 0 0 0 0 0 0 0 0 0 0 0 0 0 0 0 127 0" result="hardAlpha"/>
<feOffset dy="2"/>
<feGaussianBlur stdDeviation="10"/>
<feColorMatrix type="matrix" values="0 0 0 0 0.717647 0 0 0 0 0.717647 0 0 0 0 0.717647 0 0 0 0.08 0"/>
<feBlend mode="normal" in2="BackgroundImageFix" result="effect1_dropShadow_303_13368"/>
<feColorMatrix in="SourceAlpha" type="matrix" values="0 0 0 0 0 0 0 0 0 0 0 0 0 0 0 0 0 0 127 0" result="hardAlpha"/>
<feOffset dy="20"/>
<feGaussianBlur stdDeviation="20"/>
<feColorMatrix type="matrix" values="0 0 0 0 0.717647 0 0 0 0 0.717647 0 0 0 0 0.717647 0 0 0 0.08 0"/>
<feBlend mode="normal" in2="effect1_dropShadow_303_13368" result="effect2_dropShadow_303_13368"/>
<feBlend mode="normal" in="SourceGraphic" in2="effect2_dropShadow_303_13368" result="shape"/>
</filter>
</defs>
</svg>
