<svg width="146" height="145" viewBox="0 0 146 145" fill="none" xmlns="http://www.w3.org/2000/svg">
<g clip-path="url(#clip0_259_13287)">
<path d="M137.384 90.8703H10.9056V144.647H137.384V90.8703Z" fill="#FFF7EA"/>
<path d="M38.9937 19.1354H28.1031C26.8471 19.1354 25.829 20.0828 25.829 21.2515V22.0669C25.829 23.2356 26.8471 24.1831 28.1031 24.1831H38.9937C40.2497 24.1831 41.2678 23.2356 41.2678 22.0669V21.2515C41.2678 20.0828 40.2497 19.1354 38.9937 19.1354Z" fill="#FFF7EA"/>
<path d="M49.6132 71.3592C47.9441 68.6412 48.1527 68.8354 47.3182 67.6705C46.4837 66.5057 43.7714 64.3702 42.311 54.8573L40.016 27.4834C40.016 27.4834 39.5988 26.7069 40.4333 26.7069H41.0592L39.9827 23.4065H27.2894L26.4549 26.5127H27.2894C27.2894 26.5127 27.9153 26.7069 27.4981 27.2893L25.4117 50.9745C25.4117 50.9745 24.7858 63.0112 20.6132 67.2823C16.4405 71.5534 15.8146 76.9893 15.8146 76.9893L15.3973 80.4838V89.4007L19.7786 89.4143L19.6868 83.2989C19.6868 83.2989 19.57 82.2311 20.8218 82.2311C22.0736 82.2311 21.8983 83.2581 21.8983 83.2581L21.8441 89.4143H52.3254V80.3537C52.3254 80.3537 51.2822 74.0772 49.6132 71.3592ZM29.697 53.5216C29.6532 54.0011 29.1963 54.3583 28.681 54.3176C28.1657 54.2768 27.7818 53.8516 27.8256 53.3721L29.9891 29.7821C30.0329 29.3025 30.4899 28.9453 31.0052 28.9861C31.5205 29.0269 31.9044 29.452 31.8606 29.9316L29.697 53.5216Z" fill="#FFF7EA"/>
<path d="M91.0769 99.6008H59.156C56.6795 99.6008 54.6704 101.47 54.6704 103.775V109.211C54.6704 111.515 56.6795 113.385 59.156 113.385H91.0769C93.5534 113.385 95.5625 111.515 95.5625 109.211V103.775C95.5625 101.47 93.5534 99.6008 91.0769 99.6008ZM93.6765 107.949C93.6765 110.013 91.878 111.686 89.6603 111.686H60.9732C58.7555 111.686 56.957 110.013 56.957 107.949V104.94C56.957 102.876 58.7555 101.202 60.9732 101.202H89.6603C91.878 101.202 93.6765 102.876 93.6765 104.94V107.949Z" fill="white" stroke="#16312B" stroke-miterlimit="10"/>
<path d="M89.6603 101.202H60.9732C58.7551 101.202 56.957 102.876 56.957 104.94V107.949C56.957 110.013 58.7551 111.686 60.9732 111.686H89.6603C91.8783 111.686 93.6765 110.013 93.6765 107.949V104.94C93.6765 102.876 91.8783 101.202 89.6603 101.202Z" fill="#16312B"/>
<path d="M78.9094 19.2111H68.0187C66.7628 19.2111 65.7446 20.1585 65.7446 21.3273V22.1426C65.7446 23.3113 66.7628 24.2588 68.0187 24.2588H78.9094C80.1653 24.2588 81.1835 23.3113 81.1835 22.1426V21.3273C81.1835 20.1585 80.1653 19.2111 78.9094 19.2111Z" fill="#FFF7EA"/>
<path d="M89.5288 71.4349C87.8597 68.717 88.0684 68.9111 87.2338 67.7463C86.3993 66.5814 83.6871 64.4459 82.2267 54.933L79.9317 27.5592C79.9317 27.5592 79.5144 26.7826 80.349 26.7826H80.9749L79.8983 23.4822H67.2051L66.3705 26.5885H67.2051C67.2051 26.5885 67.831 26.7826 67.4137 27.365L65.3274 51.0502C65.3274 51.0502 64.7015 63.0869 60.5288 67.358C56.3562 71.6291 55.7303 77.065 55.7303 77.065L55.313 80.5595V89.4764L59.6943 89.49L59.6025 83.3746C59.6025 83.3746 59.4856 82.3068 60.7374 82.3068C61.9892 82.3068 61.814 83.3338 61.814 83.3338L61.7597 89.49H92.241V80.4295C92.241 80.4295 91.1979 74.1529 89.5288 71.4349ZM69.6127 53.5992C69.5689 54.0788 69.112 54.436 68.5967 54.3952C68.0813 54.3544 67.6974 53.9293 67.7413 53.4497L69.9048 29.8597C69.9486 29.3802 70.4055 29.023 70.9208 29.0637C71.4362 29.1045 71.82 29.5297 71.7762 30.0092L69.6127 53.5992Z" fill="#FFF7EA"/>
<path d="M119.176 19.2111H108.285C107.029 19.2111 106.011 20.1585 106.011 21.3273V22.1426C106.011 23.3113 107.029 24.2588 108.285 24.2588H119.176C120.432 24.2588 121.45 23.3113 121.45 22.1426V21.3273C121.45 20.1585 120.432 19.2111 119.176 19.2111Z" fill="#FFF7EA"/>
<path d="M129.795 71.4349C128.126 68.717 128.335 68.9111 127.5 67.7463C126.666 66.5814 123.953 64.4459 122.493 54.933L120.198 27.5592C120.198 27.5592 119.781 26.7826 120.615 26.7826H121.241L120.165 23.4822H107.471L106.637 26.5885H107.471C107.471 26.5885 108.097 26.7826 107.68 27.365L105.594 51.0502C105.594 51.0502 104.968 63.0869 100.795 67.358C96.6224 71.6291 95.9965 77.065 95.9965 77.065L95.5792 80.5595V89.4764L99.9605 89.49L99.8687 83.3746C99.8687 83.3746 99.7519 82.3068 101.004 82.3068C102.255 82.3068 102.08 83.3338 102.08 83.3338L102.026 89.49H132.507V80.4295C132.507 80.4295 131.464 74.1529 129.795 71.4349ZM109.879 53.5992C109.835 54.0788 109.378 54.436 108.863 54.3952C108.348 54.3544 107.964 53.9293 108.007 53.4497L110.171 29.8597C110.215 29.3802 110.672 29.023 111.187 29.0637C111.702 29.1045 112.086 29.5297 112.042 30.0092L109.879 53.5992Z" fill="#FFF7EA"/>
<path d="M62.447 141.836L59.927 140.38L61.047 138.406C60.0017 137.482 59.157 136.348 58.513 135.004C57.869 133.66 57.547 132.209 57.547 130.65C57.547 129.25 57.799 127.939 58.303 126.716C58.807 125.484 59.5023 124.402 60.389 123.468C61.2757 122.535 62.3023 121.807 63.469 121.284C64.6357 120.752 65.8817 120.486 67.207 120.486C67.879 120.486 68.523 120.556 69.139 120.696C69.7643 120.836 70.3617 121.037 70.931 121.298L71.995 119.464L74.515 120.92L73.381 122.866C74.445 123.79 75.2897 124.929 75.915 126.282C76.5497 127.626 76.867 129.082 76.867 130.65C76.867 132.05 76.615 133.366 76.111 134.598C75.6163 135.821 74.9257 136.899 74.039 137.832C73.1523 138.766 72.1257 139.498 70.959 140.03C69.7923 140.553 68.5417 140.814 67.207 140.814C66.5537 140.814 65.919 140.74 65.303 140.59C64.687 140.45 64.0897 140.25 63.511 139.988L62.447 141.836ZM62.587 135.746L69.447 123.888C69.111 123.739 68.7517 123.622 68.369 123.538C67.9957 123.445 67.6083 123.398 67.207 123.398C66.2737 123.398 65.401 123.59 64.589 123.972C63.777 124.355 63.0583 124.882 62.433 125.554C61.817 126.217 61.3317 126.987 60.977 127.864C60.6317 128.732 60.459 129.661 60.459 130.65C60.459 131.658 60.6503 132.606 61.033 133.492C61.425 134.37 61.943 135.121 62.587 135.746ZM67.207 137.902C68.1403 137.902 69.013 137.711 69.825 137.328C70.637 136.946 71.351 136.423 71.967 135.76C72.5923 135.088 73.0777 134.318 73.423 133.45C73.7777 132.573 73.955 131.64 73.955 130.65C73.955 129.642 73.7637 128.7 73.381 127.822C73.0077 126.936 72.499 126.175 71.855 125.54L64.995 137.398C65.331 137.557 65.6857 137.683 66.059 137.776C66.4417 137.86 66.8243 137.902 67.207 137.902ZM79.5172 140.45V120.85H82.4292V137.538H90.8712V140.45H79.5172Z" fill="black"/>
</g>
<defs>
<clipPath id="clip0_259_13287">
<rect width="145" height="144.052" fill="white" transform="translate(0.688721 0.594971)"/>
</clipPath>
</defs>
</svg>
