<svg width="53" height="53" viewBox="0 0 53 53" fill="none" xmlns="http://www.w3.org/2000/svg">
<path d="M50.8805 26.7834L49.2869 30.5726C49.1452 30.91 49.0797 31.2746 49.0971 31.6405L49.2843 35.7549C49.3177 36.4962 49.0169 37.2132 48.4661 37.7024L45.4086 40.4155C45.1372 40.6568 44.922 40.9576 44.7802 41.2951L43.1867 45.0843C42.8992 45.7673 42.3217 46.2809 41.6158 46.4788L37.7 47.5792C37.3511 47.6768 37.0289 47.853 36.7575 48.0942L33.7 50.8073C33.1492 51.2966 32.4086 51.5039 31.688 51.3725L27.6893 50.642C27.3337 50.577 26.9674 50.5946 26.6198 50.6922L22.704 51.7926C21.9981 51.9905 21.2414 51.8522 20.6492 51.4172L17.3591 48.9995C17.0663 48.784 16.7294 48.639 16.3738 48.5739L12.3751 47.8435C11.6545 47.712 11.0315 47.254 10.6839 46.6008L8.75479 42.9755C8.58366 42.653 8.34168 42.3738 8.0489 42.1583L4.75879 39.7406C4.16521 39.3056 3.80023 38.6199 3.76681 37.8772L3.57964 33.7628C3.5636 33.3969 3.46467 33.0391 3.29355 32.7165L1.36172 29.0927C1.01413 28.4395 0.978034 27.6616 1.26547 26.9786L2.85905 23.1894C3.00076 22.8519 3.06627 22.4874 3.04889 22.1215L2.86173 18.007C2.8283 17.2657 3.12911 16.5488 3.67991 16.0596L6.7374 13.3464C7.00879 13.1052 7.22403 12.8043 7.36575 12.4669L8.95933 8.6777C9.24676 7.99467 9.82431 7.48104 10.5302 7.28318L14.446 6.18274C14.7949 6.08517 15.1171 5.90899 15.3885 5.66776L18.446 2.95462C18.9968 2.46538 19.7374 2.25803 20.458 2.38949L24.4567 3.11995C24.8123 3.185 25.1786 3.16739 25.5262 3.06981L29.442 1.96937C30.1479 1.77151 30.9046 1.90974 31.4968 2.34477L34.7869 4.76248C35.0797 4.97796 35.4166 5.12296 35.7722 5.18801L39.7709 5.91848C40.4915 6.04993 41.1145 6.508 41.4621 7.16121L43.3912 10.7864C43.5623 11.109 43.8043 11.3881 44.0971 11.6036L47.3872 14.0213C47.9808 14.4563 48.3458 15.1421 48.3792 15.8847L48.5664 19.9992C48.5824 20.3651 48.6813 20.7229 48.8524 21.0454L50.7816 24.6706C51.1319 25.3211 51.168 26.1004 50.8805 26.7834Z" stroke="#316D5F" stroke-width="2" stroke-miterlimit="10"/>
<path d="M14.7922 38.8638L15.3404 39.9913L16.5676 40.1716L15.6799 41.0497L15.8898 42.2884L14.7922 41.703L13.6946 42.2884L13.9032 41.0497L13.0155 40.1716L14.2428 39.9913L14.7922 38.8638Z" fill="#316D5F"/>
<path d="M19.9687 39.3652L20.6479 40.7611L22.1679 40.9847L21.0677 42.0716L21.3284 43.6057L19.9687 42.8807L18.6091 43.6057L18.8685 42.0716L17.7695 40.9847L19.2883 40.7611L19.9687 39.3652Z" fill="#316D5F"/>
<path d="M26.073 39.7461L26.9085 41.4632L28.7775 41.7383L27.4259 43.0745L27.7441 44.961L26.073 44.0706L24.4018 44.961L24.7214 43.0745L23.3698 41.7383L25.2374 41.4632L26.073 39.7461Z" fill="#316D5F"/>
<path d="M32.1786 39.399L32.8577 40.7949L34.3778 41.0185L33.2775 42.1054L33.5369 43.6395L32.1786 42.9145L30.8189 43.6395L31.0783 42.1054L29.978 41.0185L31.4981 40.7949L32.1786 39.399Z" fill="#316D5F"/>
<path d="M37.3551 39.3462L37.9032 40.4737L39.1305 40.654L38.2428 41.5308L38.4527 42.7708L37.3551 42.1854L36.2575 42.7708L36.4674 41.5308L35.5784 40.654L36.8056 40.4737L37.3551 39.3462Z" fill="#316D5F"/>
<path d="M11.1545 36.9977H40.9915" stroke="#316D5F" stroke-width="0.5" stroke-miterlimit="10"/>
<path d="M11.1545 20.5413H40.9915" stroke="#316D5F" stroke-width="0.5" stroke-miterlimit="10"/>
<path d="M19.4688 26.965V23.0227H20.5249V24.5622H21.9233V23.0227H22.9795V26.965H21.9233V25.4255H20.5249V26.965H19.4688Z" fill="#316D5F"/>
<path d="M24.5355 23.0227V26.965H23.4794V23.0227H24.5355Z" fill="#316D5F"/>
<path d="M27.5623 24.3237C27.5463 24.2559 27.5195 24.1963 27.4848 24.1435C27.45 24.0906 27.4059 24.0472 27.3524 24.0107C27.3003 23.9741 27.2388 23.947 27.1706 23.928C27.1011 23.909 27.0262 23.8995 26.9433 23.8995C26.7655 23.8995 26.6145 23.9429 26.4901 24.0283C26.3658 24.1137 26.2709 24.2383 26.2054 24.3996C26.1399 24.5609 26.1078 24.756 26.1078 24.9851C26.1078 25.2154 26.1385 25.4133 26.2014 25.5786C26.2629 25.7426 26.3564 25.8687 26.4781 25.9554C26.6011 26.0421 26.7535 26.0868 26.9353 26.0868C27.0957 26.0868 27.2294 26.0625 27.3364 26.015C27.4433 25.9676 27.5236 25.8998 27.577 25.8131C27.6305 25.7264 27.6572 25.6234 27.6572 25.5055L27.8391 25.5244H26.95V24.7628H28.6746V25.309C28.6746 25.6681 28.5998 25.9757 28.45 26.2305C28.3003 26.4853 28.0931 26.6804 27.831 26.816C27.5677 26.9515 27.2669 27.0192 26.9286 27.0192C26.5503 27.0192 26.2174 26.9379 25.9313 26.7753C25.6452 26.6127 25.4219 26.3796 25.2615 26.0787C25.1011 25.7765 25.0209 25.4187 25.0209 25.0027C25.0209 24.6761 25.0703 24.3874 25.1679 24.1367C25.2655 23.8846 25.4019 23.6732 25.577 23.4984C25.7522 23.3249 25.954 23.1935 26.1826 23.104C26.4112 23.0146 26.6572 22.9698 26.9193 22.9698C27.1492 22.9698 27.3645 23.0024 27.5623 23.0688C27.7602 23.1352 27.9353 23.2287 28.0877 23.3493C28.2401 23.4699 28.3631 23.6136 28.4567 23.7789C28.5503 23.9443 28.6078 24.1258 28.6278 24.3237H27.5623Z" fill="#316D5F"/>
<path d="M29.1678 26.965V23.0227H30.224V24.5622H31.6224V23.0227H32.6785V26.965H31.6224V25.4255H30.224V26.965H29.1678Z" fill="#316D5F"/>
<path d="M17.7213 31.4981C17.7213 31.9372 17.6371 32.3072 17.4686 32.608C17.3002 32.9089 17.0729 33.1366 16.7868 33.291C16.5007 33.4455 16.1812 33.5228 15.8296 33.5228C15.4753 33.5228 15.1558 33.4442 14.8697 33.2883C14.5836 33.1325 14.3577 32.9035 14.1905 32.6026C14.0234 32.3017 13.9392 31.9331 13.9392 31.4967C13.9392 31.0577 14.0234 30.6877 14.1905 30.3868C14.3577 30.086 14.5849 29.8583 14.8697 29.7038C15.1558 29.5493 15.4753 29.472 15.8296 29.472C16.1812 29.472 16.5007 29.5493 16.7868 29.7038C17.0729 29.8583 17.3002 30.086 17.4686 30.3868C17.6371 30.689 17.7213 31.059 17.7213 31.4981ZM16.6357 31.4981C16.6357 31.2623 16.605 31.0631 16.5435 30.9004C16.482 30.7378 16.3911 30.6145 16.2721 30.5305C16.1518 30.4464 16.0047 30.4044 15.8309 30.4044C15.6571 30.4044 15.5087 30.4464 15.3897 30.5305C15.2708 30.6145 15.1799 30.7378 15.1184 30.9004C15.0569 31.0631 15.0261 31.2623 15.0261 31.4981C15.0261 31.7339 15.0569 31.9331 15.1184 32.0957C15.1799 32.2584 15.2708 32.3817 15.3897 32.4657C15.5087 32.5497 15.6571 32.5918 15.8309 32.5918C16.0047 32.5918 16.1531 32.5497 16.2721 32.4657C16.3911 32.3817 16.482 32.2584 16.5435 32.0957C16.605 31.9331 16.6357 31.7353 16.6357 31.4981ZM15.4579 32.0063H16.2788L16.5756 32.3831L17.0769 32.9604L17.7307 33.7613H16.7962L16.3323 33.2152L16.0208 32.7612L15.4579 32.0063Z" fill="#316D5F"/>
<path d="M20.5169 29.5277H21.573V32.0538C21.573 32.3547 21.5022 32.6135 21.3618 32.8331C21.2201 33.0526 21.0236 33.2207 20.7722 33.3399C20.5209 33.4592 20.2281 33.5175 19.8952 33.5175C19.5596 33.5175 19.2655 33.4578 19.0142 33.3399C18.7629 33.222 18.5663 33.0526 18.426 32.8331C18.2856 32.6149 18.2161 32.3547 18.2161 32.0538V29.5277H19.2722V31.9603C19.2722 32.0823 19.299 32.1907 19.3524 32.2869C19.4059 32.3832 19.4794 32.4577 19.5744 32.5105C19.6693 32.5648 19.7762 32.5919 19.8965 32.5919C20.0182 32.5919 20.1252 32.5648 20.2201 32.5105C20.3137 32.4563 20.3872 32.3818 20.4407 32.2869C20.4941 32.1921 20.5209 32.0823 20.5209 31.9603V29.5277H20.5169Z" fill="#316D5F"/>
<path d="M23.0837 33.47H21.9447L23.2281 29.5277H24.6706L25.9541 33.47H24.815L23.9648 30.6132H23.934L23.0837 33.47ZM22.8712 31.9142H25.0129V32.7152H22.8712V31.9142Z" fill="#316D5F"/>
<path d="M26.3269 33.47V29.5277H27.3831V32.6081H28.9553V33.47H26.3269Z" fill="#316D5F"/>
<path d="M30.4365 29.5277V33.47H29.3804V29.5277H30.4365Z" fill="#316D5F"/>
<path d="M30.8323 30.3896V29.5277H34.212V30.3896H33.0422V33.47H32.0021V30.3896H30.8323Z" fill="#316D5F"/>
<path d="M34.4474 29.5277H35.6252L36.3846 31.1296H36.4153L37.1747 29.5277H38.3525L36.9247 32.23V33.47H35.8765V32.23L34.4474 29.5277Z" fill="#316D5F"/>
<path d="M21.7374 17.809H29.8992L31.22 12.6091L28.3711 14.3424L25.8577 10.8744L23.2147 14.3424L20.6492 12.8449L21.7374 17.809Z" fill="#316D5F"/>
<path d="M19.8337 12.6877C20.3277 12.6877 20.7281 12.2818 20.7281 11.781C20.7281 11.2803 20.3277 10.8744 19.8337 10.8744C19.3398 10.8744 18.9393 11.2803 18.9393 11.781C18.9393 12.2818 19.3398 12.6877 19.8337 12.6877Z" fill="#316D5F"/>
<path d="M25.9354 10.2294C26.4294 10.2294 26.8298 9.8235 26.8298 9.32278C26.8298 8.82205 26.4294 8.41614 25.9354 8.41614C25.4414 8.41614 25.041 8.82205 25.041 9.32278C25.041 9.8235 25.4414 10.2294 25.9354 10.2294Z" fill="#316D5F"/>
<path d="M32.3137 12.6877C32.8077 12.6877 33.2081 12.2818 33.2081 11.781C33.2081 11.2803 32.8077 10.8744 32.3137 10.8744C31.8197 10.8744 31.4193 11.2803 31.4193 11.781C31.4193 12.2818 31.8197 12.6877 32.3137 12.6877Z" fill="#316D5F"/>
</svg>
