<svg width="101" height="101" viewBox="0 0 101 101" fill="none" xmlns="http://www.w3.org/2000/svg">
<path d="M80.991 33.999L73.5449 61.9463H34.2084L26.7624 33.999H80.991Z" stroke="#FFF7EA"/>
<path d="M18.3906 24.8174H23.7893L26.1031 33.5016M26.1031 33.5016L33.8155 62.4488H73.9205L81.633 33.5016H26.1031Z" stroke="#FFF7EA" stroke-linecap="round" stroke-linejoin="round"/>
<path d="M33.8194 76.9225C36.3751 76.9225 38.4469 74.9784 38.4469 72.5804C38.4469 70.1823 36.3751 68.2383 33.8194 68.2383C31.2637 68.2383 29.1919 70.1823 29.1919 72.5804C29.1919 74.9784 31.2637 76.9225 33.8194 76.9225Z" stroke="#FFF7EA" stroke-linecap="round" stroke-linejoin="round"/>
<path d="M73.9222 76.9225C76.4779 76.9225 78.5497 74.9784 78.5497 72.5804C78.5497 70.1823 76.4779 68.2383 73.9222 68.2383C71.3665 68.2383 69.2947 70.1823 69.2947 72.5804C69.2947 74.9784 71.3665 76.9225 73.9222 76.9225Z" stroke="#FFF7EA" stroke-linecap="round" stroke-linejoin="round"/>
<circle cx="50.0161" cy="50.8701" r="50" fill="#316D5F"/>
<path d="M78.4111 35.6309L71.7558 60.6102H35.6058L28.9505 35.6309H78.4111Z" stroke="#FFF7EA" stroke-width="2.5"/>
<path d="M19.9944 26.1396H25.1193L27.3158 34.3834M27.3158 34.3834L34.6371 61.8627H72.7083L80.0296 34.3834H27.3158Z" stroke="#FFF7EA" stroke-width="2.5" stroke-linecap="round" stroke-linejoin="round"/>
<path d="M34.6407 75.6012C37.0668 75.6012 39.0335 73.7558 39.0335 71.4793C39.0335 69.2029 37.0668 67.3574 34.6407 67.3574C32.2146 67.3574 30.2479 69.2029 30.2479 71.4793C30.2479 73.7558 32.2146 75.6012 34.6407 75.6012Z" stroke="#FFF7EA" stroke-width="2.5" stroke-linecap="round" stroke-linejoin="round"/>
<path d="M72.7092 75.6012C75.1353 75.6012 77.1021 73.7558 77.1021 71.4793C77.1021 69.2029 75.1353 67.3574 72.7092 67.3574C70.2831 67.3574 68.3164 69.2029 68.3164 71.4793C68.3164 73.7558 70.2831 75.6012 72.7092 75.6012Z" stroke="#FFF7EA" stroke-width="2.5" stroke-linecap="round" stroke-linejoin="round"/>
</svg>
