<svg width="290" height="222" viewBox="0 0 290 222" fill="none" xmlns="http://www.w3.org/2000/svg">
<g filter="url(#filter0_dd_303_13372)">
<rect x="41.5115" y="21.5" width="207" height="139" rx="5" fill="white"/>
<rect x="41.0115" y="21" width="208" height="140" rx="5.5" stroke="#D6DCE5"/>
<path d="M106.005 49.5072H137.509C141.907 49.5072 144.645 53.2446 143.619 57.8472L128.949 123.484C127.912 128.073 123.511 131.81 119.112 131.81H87.6064C83.2069 131.81 80.4719 128.073 81.4981 123.484L96.1753 57.8472C97.1985 53.2446 101.597 49.5072 106.005 49.5072Z" fill="#ED171F"/>
<path d="M134.889 49.5072H171.121C175.518 49.5072 173.535 53.2446 172.501 57.8472L157.833 123.484C156.808 128.073 157.13 131.81 152.721 131.81H116.492C112.088 131.81 109.36 128.073 110.395 123.484L125.058 57.8472C126.094 53.2446 130.491 49.5072 134.889 49.5072Z" fill="#082F67"/>
<path d="M169.688 49.5072H201.187C205.588 49.5072 208.323 53.2446 207.293 57.8472L192.626 123.484C191.595 128.073 187.196 131.81 182.781 131.81H151.291C146.882 131.81 144.152 128.073 145.185 123.484L159.848 57.8472C160.88 53.2446 165.278 49.5072 169.688 49.5072Z" fill="#006A65"/>
<path fill-rule="evenodd" clip-rule="evenodd" d="M166.394 70.4923H167.712L167.963 70.498C170.549 70.5563 172.72 70.6052 173.823 72.1782C174.242 72.8027 174.422 73.6144 174.422 74.4262C174.422 75.113 174.302 75.7375 174.182 76.237C173.703 78.3601 172.685 80.171 171.127 81.3574C168.851 83.1058 165.915 83.1058 163.339 83.1058H163.1C162.92 83.2307 162.74 83.4804 162.74 83.4804C162.74 83.6053 162.141 86.1655 162.141 86.1655C162.141 86.1655 161.422 89.7248 161.302 90.2868C160.823 90.2243 159.565 90.2243 156.629 90.2868C156.749 89.6623 159.685 77.1112 159.685 77.1112L160.883 71.1791L161.063 70.4298C161.602 70.4923 162.98 70.5547 166.394 70.4923ZM167.293 79.609C168.371 79.1094 169.15 77.9854 169.45 76.6741C169.749 75.2379 169.33 74.114 168.312 73.6769C168.252 73.6769 165.556 73.4271 165.556 73.4271L165.017 73.3647V73.6144L164.957 73.9266L163.639 79.7963L163.579 80.1085H164.298C165.376 80.1085 166.454 80.0461 167.293 79.609Z" fill="white"/>
<path d="M109.602 70.5544C109.482 71.1164 107.325 81.6068 107.325 81.6068C106.846 83.7299 106.487 85.2286 105.348 86.2277C104.69 86.7896 103.911 87.0394 103.012 87.0394C101.574 87.0394 100.736 86.2901 100.616 84.9164L100.556 84.4168L100.975 81.5444C100.975 81.5444 103.252 71.9906 103.671 70.7417C103.671 70.6793 103.731 70.6169 103.731 70.6169C99.2978 70.6793 98.4591 70.6169 98.4591 70.5544C98.4591 70.6793 98.3393 71.2413 98.3393 71.2413L96.0029 81.9815L95.8232 82.9182L95.4637 85.9154C95.4637 86.7896 95.6434 87.539 95.943 88.1634C97.0213 90.0991 100.017 90.4113 101.754 90.4113C103.971 90.4113 106.007 89.9118 107.445 89.0376C109.801 87.6004 110.448 85.3593 111.026 83.3605L111.1 83.1055L111.339 82.044C111.339 82.044 113.676 72.1155 114.095 70.8042V70.6793C113.353 70.665 112.73 70.6539 112.208 70.6447C110.455 70.6136 109.833 70.6025 109.602 70.5544Z" fill="white"/>
<path fill-rule="evenodd" clip-rule="evenodd" d="M174.542 97.9672L170.708 111.143H171.726L171.347 112.482L171.427 112.204H172.505C172.805 112.204 173.044 112.079 173.284 111.954C173.464 111.892 173.643 111.767 173.883 111.455L176.699 107.333H172.924L173.583 105.086H177.897L178.496 103.025H174.242L174.961 100.465H186.823L186.104 103.025H182.15L181.491 105.086H185.505L184.846 107.333H180.533L179.754 108.27H181.491L181.911 111.143C181.93 111.247 181.944 111.33 181.955 111.399C181.977 111.538 181.99 111.621 182.03 111.705C182.09 111.829 182.629 111.892 182.929 111.892H183.468L182.689 114.639H180.413C180.141 114.599 179.945 114.48 179.759 114.367C179.658 114.306 179.56 114.246 179.454 114.202C179.215 114.077 178.855 113.765 178.735 113.203L178.316 110.331L176.339 113.141C175.74 114.015 174.901 114.702 173.464 114.702H170.708L170.941 113.89H169.929L169.689 114.764H166.035L166.275 113.89H158.846L159.625 111.392H160.344L165.017 95.2821H168.731L168.312 96.6558C168.312 96.6558 169.33 95.9065 170.229 95.6567C171.024 95.4494 174.874 95.3282 176.16 95.2929L176.159 95.2821H180.113L180.173 96.8432C180.173 97.093 180.353 97.2178 180.832 97.2178H181.671L180.952 99.778H178.795C176.938 99.9029 176.219 99.0911 176.279 98.1545L176.212 96.5467L175.8 97.9672H174.542ZM164.118 111.205H167.054L167.952 108.27H164.957L164.118 111.205ZM166.514 102.963L165.496 106.459C165.496 106.459 166.634 105.835 167.233 105.648C167.832 105.523 168.791 105.398 168.791 105.398L169.51 102.963H166.514ZM167.952 97.9672L166.994 101.339C166.994 101.339 168.072 100.84 168.671 100.652C169.27 100.465 170.169 100.402 170.169 100.402L170.888 97.9672H167.952Z" fill="white"/>
<path d="M135.302 101.152H145.307L144.588 103.65H140.574L139.975 105.773H144.049L143.33 108.333H139.256L138.238 111.767C138.118 112.142 139.196 112.204 139.616 112.204L141.653 111.892L140.814 114.764H136.201C135.917 114.764 135.67 114.725 135.371 114.678C135.292 114.666 135.21 114.653 135.123 114.64C134.763 114.577 134.584 114.327 134.404 114.078C134.374 114.025 134.342 113.977 134.311 113.929C134.156 113.691 134.015 113.474 134.164 112.954L135.482 108.395H133.206L133.925 105.773H136.201L136.8 103.65H134.524L135.302 101.152Z" fill="white"/>
<path d="M146.086 96.6558H142.012L142.611 95.2821H138.537L137.519 97.2178C137.279 97.6549 137.1 97.9047 136.92 98.0296C136.8 98.092 136.5 98.1545 136.021 98.1545H135.482L134.763 100.652H136.56C137.459 100.652 138.118 100.34 138.418 100.153C138.531 100.113 138.621 100.092 138.698 100.074C138.865 100.036 138.973 100.011 139.136 99.8404L139.735 99.2785H145.367L146.086 96.6558Z" fill="white"/>
<path fill-rule="evenodd" clip-rule="evenodd" d="M147.883 95.2821H151.358L150.878 97.093C150.878 97.093 151.957 96.1563 152.736 95.8441C153.514 95.5319 155.252 95.2821 155.252 95.2821H160.883L158.966 101.964C158.607 103.087 158.247 103.837 158.007 104.211C157.768 104.586 157.528 104.836 157.049 105.148C156.57 105.398 156.15 105.585 155.731 105.585C155.372 105.648 154.773 105.648 153.994 105.648H148.542L146.984 110.955C146.956 111.072 146.929 111.175 146.904 111.267C146.822 111.568 146.773 111.748 146.865 111.892C146.925 112.017 147.104 112.142 147.404 112.142L149.8 111.892L148.961 114.827H146.266C145.427 114.827 144.768 114.827 144.349 114.764C144.231 114.747 144.113 114.739 143.998 114.732C143.703 114.712 143.426 114.694 143.21 114.515C143.177 114.48 143.142 114.444 143.105 114.408C142.878 114.179 142.611 113.909 142.611 113.64C142.611 113.347 142.717 112.943 142.879 112.325L142.911 112.204L147.883 95.2821ZM149.92 100.964C149.92 100.964 151.058 99.9029 152.975 99.5282C153.395 99.4658 156.15 99.4658 156.15 99.4658L156.57 98.0296H150.759L149.92 100.964ZM155.312 102.026H149.56L149.201 103.212H154.173C154.653 103.162 154.825 103.192 154.906 103.206C154.926 103.21 154.94 103.212 154.952 103.212L155.312 102.026Z" fill="white"/>
<path d="M157.767 107.708L158.067 106.084H155.431L155.072 107.208C155.012 107.396 154.952 107.521 154.832 107.583C154.712 107.646 154.473 107.708 154.233 107.708H153.394L153.454 106.272H150.039L149.92 113.328C149.92 113.827 149.979 114.14 150.339 114.389C150.698 114.702 151.777 114.764 153.274 114.764H155.431L156.21 112.079L154.353 112.204L153.754 112.266C153.729 112.24 153.704 112.225 153.675 112.208C153.634 112.182 153.584 112.152 153.514 112.079C153.498 112.046 153.478 112.026 153.457 112.005C153.399 111.948 153.334 111.884 153.334 111.517V109.706L155.251 109.581C156.27 109.581 156.749 109.207 157.108 108.894C157.528 108.582 157.648 108.208 157.767 107.708Z" fill="white"/>
<path d="M118.648 90.2867C120.505 90.2243 121.104 90.2243 122.662 90.2243L122.842 90.0369C123.032 88.6982 123.147 88.1075 123.426 86.6703C123.498 86.2977 123.582 85.868 123.68 85.3537L123.92 84.2297L123.936 84.1505C124.405 81.8935 124.635 80.7846 124.279 79.8587C123.86 78.7972 122.901 78.5474 122.063 78.5474C121.464 78.5474 120.445 78.6723 119.487 79.1718C119.337 79.2655 119.172 79.3591 119.007 79.4528C118.843 79.5465 118.678 79.6401 118.528 79.7338L118.828 78.6098L118.648 78.4225C116.72 78.8487 116.217 78.9187 114.526 79.1535L114.395 79.1718L114.275 79.2967L114.27 79.3337C114.033 81.1264 113.85 82.506 113.077 86.103C112.927 86.7587 112.777 87.4299 112.627 88.1012C112.478 88.7722 112.328 89.444 112.178 90.0994L112.238 90.2867C114.095 90.2243 114.694 90.2243 116.312 90.2243L116.431 90.0994C116.531 89.6338 116.589 89.3183 116.657 88.9486C116.753 88.4257 116.87 87.7944 117.15 86.4777C117.227 86.1182 117.322 85.6375 117.424 85.1232C117.64 84.0293 117.886 82.7837 118.049 82.2315C118.468 82.0442 118.888 81.8569 119.247 81.8569C120.146 81.8569 120.086 82.7311 120.026 83.0433C119.966 83.6053 119.666 85.4161 119.307 86.9772L119.067 87.9763C118.968 88.5995 118.827 89.1796 118.679 89.7883C118.649 89.9114 118.618 90.0358 118.588 90.1618L118.648 90.2867Z" fill="white"/>
<path d="M129.072 90.2242H126.915C126.641 90.2242 126.366 90.2373 126.069 90.2515C125.717 90.2683 125.333 90.2866 124.878 90.2866L124.758 90.1617C124.998 89.2251 125.118 88.8504 125.238 88.5382C125.357 88.226 125.477 87.8513 125.657 86.9147C125.957 85.6658 126.136 84.7916 126.256 83.9799C126.316 83.6052 126.361 83.2618 126.406 82.9183C126.451 82.5749 126.496 82.2315 126.556 81.8568L126.675 81.7319C127.133 81.6723 127.509 81.6127 127.842 81.5598C128.206 81.502 128.519 81.4523 128.832 81.4197C129.431 81.3572 130.09 81.2324 131.049 80.9826L131.109 81.045V81.1075C131.019 81.5134 130.929 81.9037 130.839 82.294C130.749 82.6842 130.659 83.0745 130.569 83.4803C130.48 83.8862 130.39 84.2765 130.3 84.6669C130.21 85.0571 130.12 85.4473 130.03 85.8532C129.671 87.5391 129.551 88.1011 129.431 88.6007C129.403 88.8054 129.375 88.969 129.341 89.1686C129.302 89.395 129.255 89.6677 129.192 90.0993L129.072 90.2242Z" fill="white"/>
<path fill-rule="evenodd" clip-rule="evenodd" d="M142.851 80.1083C143.39 80.8576 143.809 82.044 143.27 84.5418C143.09 85.2911 142.611 87.1644 141.593 88.3508C140.215 89.9119 138.358 90.4114 136.561 90.4114C135.842 90.4114 134.763 90.2865 133.984 89.9743C131.528 88.9128 131.888 86.1653 132.247 84.6042C132.547 83.1056 133.146 81.5445 134.344 80.3581C136.021 78.7345 138.178 78.6721 139.077 78.6721C140.574 78.6721 142.012 78.9843 142.851 80.1083ZM139.061 84.7198C139.092 84.5938 139.117 84.4897 139.137 84.4169C139.556 82.4811 139.496 81.2323 138.478 81.3572C137.219 81.3572 136.74 82.9182 136.321 84.854C136.303 84.9541 136.286 85.0515 136.269 85.1469C136.169 85.7058 136.081 86.194 136.081 86.7273C136.081 87.9137 136.86 87.9137 136.98 87.9137C137.459 87.9137 137.819 87.6015 138.178 87.1019C138.627 86.5295 138.91 85.3501 139.061 84.7198Z" fill="white"/>
<path fill-rule="evenodd" clip-rule="evenodd" d="M181.851 90.4116C179.934 90.4116 179.394 90.4116 177.597 90.474L177.477 90.3491L177.668 89.6013C177.016 90.1698 176.314 90.5606 175.56 90.5989C174.902 90.5989 174.183 90.474 173.404 90.1618C170.948 89.1627 171.307 86.3527 171.666 84.8541C171.966 83.3554 172.565 81.7944 173.763 80.6079C175.501 79.0469 177.478 78.6098 178.316 78.922C178.938 79.1739 179.355 79.5712 179.648 80.0404L179.694 79.6713L179.814 79.5464C180.208 79.4823 180.541 79.4286 180.839 79.3807C181.991 79.1954 182.617 79.0947 184.187 78.7971L184.247 78.9845L183.169 83.6677C182.607 86.2046 182.338 87.7885 182.104 89.1641L182.103 89.1683C182.038 89.5518 181.976 89.9193 181.91 90.2867L181.851 90.4116ZM179.162 83.1739C179.147 82.101 178.692 81.4822 177.957 81.4822C176.699 81.4822 176.219 83.1057 175.8 84.979L175.767 85.1664C175.659 85.7799 175.56 86.3418 175.56 86.8523C175.56 88.0387 176.339 88.0387 176.459 88.0387C176.938 88.0387 177.717 87.7889 178.017 87.2894C178.198 87.0295 178.362 86.6356 178.503 86.226C178.624 85.71 178.742 85.1907 178.855 84.6668C178.977 84.1029 179.077 83.6122 179.162 83.1739Z" fill="white"/>
<path d="M154.053 90.2243C152.436 90.2243 151.897 90.2243 150.099 90.2867L150.04 90.1618C150.07 90.0358 150.1 89.9115 150.13 89.7884C150.278 89.1797 150.419 88.5996 150.519 87.9763L150.758 86.9772C151.118 85.4161 151.417 83.6053 151.477 83.0433C151.537 82.7311 151.597 81.8569 150.699 81.8569C150.339 81.8569 149.92 82.0442 149.5 82.2315C149.337 82.7837 149.091 84.0292 148.875 85.123C148.773 85.6373 148.678 86.1183 148.602 86.4777C148.224 88.249 148.144 88.7797 148.039 89.475C148.011 89.6621 147.981 89.8611 147.943 90.0994L147.823 90.2243C146.205 90.2243 145.606 90.2243 143.749 90.2867L143.689 90.0994C143.839 89.4437 143.989 88.7725 144.139 88.1012C144.288 87.4299 144.438 86.7587 144.588 86.103C145.361 82.506 145.544 81.1264 145.781 79.3337L145.786 79.2967L145.906 79.1718L146.038 79.1535C147.728 78.9187 148.232 78.8487 150.159 78.4225L150.339 78.6098L150.04 79.7338C150.189 79.6401 150.354 79.5465 150.519 79.4528C150.684 79.3591 150.848 79.2655 150.998 79.1718C151.957 78.6723 152.975 78.5474 153.514 78.5474C154.353 78.5474 155.311 78.7972 155.731 79.8587C156.086 80.7846 155.856 81.8935 155.388 84.1504L155.371 84.2297L155.132 85.3537C154.702 87.3452 154.577 88.0664 154.392 89.1315C154.345 89.4022 154.294 89.6952 154.233 90.0369L154.053 90.2243Z" fill="white"/>
<path d="M197.486 78.7969L197.307 78.6096C195.33 79.0467 195.03 79.1092 193.233 79.3589L193.113 79.4838V79.5463C192.409 81.2474 192.081 81.8438 191.764 82.4206C191.487 82.9235 191.219 83.4115 190.717 84.6042V84.2919L190.477 78.7969L190.297 78.6096C189.824 78.7112 189.458 78.7925 189.15 78.8607C188.136 79.0858 187.769 79.1672 186.344 79.3589L186.224 79.4838C186.224 79.5463 186.224 79.6087 186.164 79.6712C186.344 80.6095 186.355 80.7018 186.451 81.5109C186.483 81.7785 186.524 82.1247 186.583 82.606C186.643 83.1055 186.703 83.5894 186.763 84.0734C186.823 84.5573 186.883 85.0413 186.943 85.5408C187.006 86.1136 187.062 86.5776 187.118 87.0452C187.222 87.9029 187.327 88.7728 187.482 90.3489C187.003 91.1811 186.663 91.8231 186.356 92.4026C185.857 93.345 185.445 94.1219 184.666 95.282L184.726 95.4693C186.583 95.4068 187.003 95.4068 188.38 95.4068L188.68 95.0322C189.638 92.8467 197.486 78.7969 197.486 78.7969Z" fill="white"/>
<path d="M131.109 77.7978C132.007 78.2973 131.888 79.3588 130.809 80.1082C129.731 80.8575 128.173 81.0448 127.275 80.5453C126.376 79.9833 126.496 78.9217 127.574 78.1724C128.653 77.4231 130.21 77.2358 131.109 77.7978Z" fill="white"/>
</g>
<defs>
<filter id="filter0_dd_303_13372" x="0.511475" y="0.5" width="289" height="221" filterUnits="userSpaceOnUse" color-interpolation-filters="sRGB">
<feFlood flood-opacity="0" result="BackgroundImageFix"/>
<feColorMatrix in="SourceAlpha" type="matrix" values="0 0 0 0 0 0 0 0 0 0 0 0 0 0 0 0 0 0 127 0" result="hardAlpha"/>
<feOffset dy="2"/>
<feGaussianBlur stdDeviation="10"/>
<feColorMatrix type="matrix" values="0 0 0 0 0.717647 0 0 0 0 0.717647 0 0 0 0 0.717647 0 0 0 0.08 0"/>
<feBlend mode="normal" in2="BackgroundImageFix" result="effect1_dropShadow_303_13372"/>
<feColorMatrix in="SourceAlpha" type="matrix" values="0 0 0 0 0 0 0 0 0 0 0 0 0 0 0 0 0 0 127 0" result="hardAlpha"/>
<feOffset dy="20"/>
<feGaussianBlur stdDeviation="20"/>
<feColorMatrix type="matrix" values="0 0 0 0 0.717647 0 0 0 0 0.717647 0 0 0 0 0.717647 0 0 0 0.08 0"/>
<feBlend mode="normal" in2="effect1_dropShadow_303_13372" result="effect2_dropShadow_303_13372"/>
<feBlend mode="normal" in="SourceGraphic" in2="effect2_dropShadow_303_13372" result="shape"/>
</filter>
</defs>
</svg>
