<svg width="290" height="222" viewBox="0 0 290 222" fill="none" xmlns="http://www.w3.org/2000/svg">
<g filter="url(#filter0_dd_303_13370)">
<rect x="41.5115" y="21.5" width="207" height="139" rx="5" fill="white"/>
<rect x="41.0115" y="21" width="208" height="140" rx="5.5" stroke="#D6DCE5"/>
<path d="M143.746 68.3478L134.091 115.391H122.416L132.072 68.3478H143.746ZM192.867 98.724L199.014 81.0575L202.551 98.724H192.867ZM205.894 115.391H216.693L207.27 68.3478H197.301C195.062 68.3478 193.172 69.7057 192.33 71.7992L174.814 115.391H187.075L189.509 108.366H204.488L205.894 115.391ZM175.423 100.031C175.473 87.6149 158.949 86.9314 159.064 81.3851C159.098 79.6951 160.642 77.9024 164.015 77.4423C165.69 77.2145 170.297 77.0403 175.528 79.5492L177.577 69.5732C174.767 68.5101 171.152 67.4872 166.655 67.4872C155.115 67.4872 146.993 73.8822 146.924 83.0393C146.851 89.8111 152.723 93.59 157.147 95.8413C161.695 98.1477 163.223 99.6248 163.203 101.687C163.173 104.845 159.575 106.236 156.218 106.291C150.347 106.388 146.94 104.64 144.224 103.32L142.109 113.628C144.836 114.934 149.871 116.069 155.095 116.127C167.359 116.127 175.383 109.811 175.423 100.031ZM127.063 68.3478L108.146 115.391H95.8028L86.4948 77.8473C85.9291 75.535 85.4377 74.6893 83.7192 73.714C80.9151 72.1283 76.2796 70.6378 72.2013 69.7147L72.4798 68.3478H92.3459C94.8772 68.3478 97.1556 70.1048 97.7299 73.1437L102.647 100.368L114.796 68.3478H127.063Z" fill="#1434CB"/>
</g>
<defs>
<filter id="filter0_dd_303_13370" x="0.511475" y="0.5" width="289" height="221" filterUnits="userSpaceOnUse" color-interpolation-filters="sRGB">
<feFlood flood-opacity="0" result="BackgroundImageFix"/>
<feColorMatrix in="SourceAlpha" type="matrix" values="0 0 0 0 0 0 0 0 0 0 0 0 0 0 0 0 0 0 127 0" result="hardAlpha"/>
<feOffset dy="2"/>
<feGaussianBlur stdDeviation="10"/>
<feColorMatrix type="matrix" values="0 0 0 0 0.717647 0 0 0 0 0.717647 0 0 0 0 0.717647 0 0 0 0.08 0"/>
<feBlend mode="normal" in2="BackgroundImageFix" result="effect1_dropShadow_303_13370"/>
<feColorMatrix in="SourceAlpha" type="matrix" values="0 0 0 0 0 0 0 0 0 0 0 0 0 0 0 0 0 0 127 0" result="hardAlpha"/>
<feOffset dy="20"/>
<feGaussianBlur stdDeviation="20"/>
<feColorMatrix type="matrix" values="0 0 0 0 0.717647 0 0 0 0 0.717647 0 0 0 0 0.717647 0 0 0 0.08 0"/>
<feBlend mode="normal" in2="effect1_dropShadow_303_13370" result="effect2_dropShadow_303_13370"/>
<feBlend mode="normal" in="SourceGraphic" in2="effect2_dropShadow_303_13370" result="shape"/>
</filter>
</defs>
</svg>
