<svg width="133" height="117" viewBox="0 0 133 117" fill="none" xmlns="http://www.w3.org/2000/svg">
<g filter="url(#filter0_dd_1551_3561)">
<rect x="41.2715" y="21.6641" width="50" height="33.5261" rx="5" fill="#FFFBF5"/>
<rect x="40.7715" y="21.1641" width="51" height="34.5261" rx="5.5" stroke="#D6DCE5"/>
<path d="M57.4438 34.0356C57.7773 33.6013 58.0037 33.0182 57.944 32.4224C57.4557 32.4476 56.8598 32.7577 56.5148 33.1923C56.205 33.5644 55.9309 34.1719 56.0023 34.7428C56.5505 34.7923 57.0982 34.4576 57.4438 34.0356Z" fill="#000008"/>
<path d="M57.9378 34.8543C57.1417 34.8049 56.4649 35.3245 56.0847 35.3245C55.7044 35.3245 55.1222 34.8792 54.4926 34.8912C53.6731 34.9037 52.9127 35.386 52.4968 36.153C51.6414 37.6874 52.2711 39.9636 53.1029 41.2133C53.5068 41.8316 53.9936 42.5123 54.6351 42.4879C55.2412 42.4631 55.4787 42.0794 56.2154 42.0794C56.9516 42.0794 57.1656 42.4879 57.8071 42.4755C58.4724 42.4631 58.8884 41.8569 59.2923 41.238C59.7557 40.5332 59.9454 39.8527 59.9573 39.8153C59.9454 39.803 58.6744 39.2955 58.6626 37.7738C58.6506 36.4996 59.6605 35.8936 59.708 35.856C59.1378 34.9781 58.2467 34.8792 57.9378 34.8543Z" fill="#000008"/>
<path d="M64.8692 33.1299C66.5994 33.1299 67.8042 34.3713 67.8042 36.1786C67.8042 37.9923 66.5746 39.2401 64.8258 39.2401H62.9101V42.4109H61.5261V33.1299L64.8692 33.1299ZM62.9101 38.0309H64.4983C65.7033 38.0309 66.3892 37.3556 66.3892 36.185C66.3892 35.0145 65.7033 34.3456 64.5045 34.3456H62.9101V38.0309Z" fill="#000008"/>
<path d="M68.1658 40.4878C68.1658 39.3043 69.0372 38.5776 70.5821 38.4875L72.3617 38.3782V37.8573C72.3617 37.1048 71.8735 36.6545 71.058 36.6545C70.2854 36.6545 69.8033 37.0404 69.686 37.645H68.4254C68.4996 36.4229 69.5006 35.5225 71.1073 35.5225C72.683 35.5225 73.6902 36.3908 73.6902 37.7479V42.4109H72.4111V41.2982H72.3803C72.0034 42.0507 71.1814 42.5266 70.3287 42.5266C69.0557 42.5266 68.1658 41.7033 68.1658 40.4878ZM72.3617 39.8768V39.343L70.7612 39.4459C69.964 39.5038 69.513 39.8704 69.513 40.4492C69.513 41.0409 69.9826 41.4268 70.6994 41.4268C71.6325 41.4268 72.3617 40.7579 72.3617 39.8768Z" fill="#000008"/>
<path d="M74.8979 44.9V43.7744C74.9966 43.8001 75.219 43.8001 75.3303 43.8001C75.9482 43.8001 76.282 43.53 76.4858 42.8354C76.4858 42.8225 76.6033 42.4238 76.6033 42.4173L74.2552 35.6447H75.701L77.345 41.1503H77.3695L79.0134 35.6447H80.4223L77.9874 42.7645C77.4315 44.4047 76.7888 44.9321 75.4417 44.9321C75.3303 44.9321 74.9966 44.9192 74.8979 44.9Z" fill="#000008"/>
</g>
<defs>
<filter id="filter0_dd_1551_3561" x="0.271484" y="0.664062" width="132" height="115.526" filterUnits="userSpaceOnUse" color-interpolation-filters="sRGB">
<feFlood flood-opacity="0" result="BackgroundImageFix"/>
<feColorMatrix in="SourceAlpha" type="matrix" values="0 0 0 0 0 0 0 0 0 0 0 0 0 0 0 0 0 0 127 0" result="hardAlpha"/>
<feOffset dy="2"/>
<feGaussianBlur stdDeviation="10"/>
<feColorMatrix type="matrix" values="0 0 0 0 0.717647 0 0 0 0 0.717647 0 0 0 0 0.717647 0 0 0 0.08 0"/>
<feBlend mode="normal" in2="BackgroundImageFix" result="effect1_dropShadow_1551_3561"/>
<feColorMatrix in="SourceAlpha" type="matrix" values="0 0 0 0 0 0 0 0 0 0 0 0 0 0 0 0 0 0 127 0" result="hardAlpha"/>
<feOffset dy="20"/>
<feGaussianBlur stdDeviation="20"/>
<feColorMatrix type="matrix" values="0 0 0 0 0.717647 0 0 0 0 0.717647 0 0 0 0 0.717647 0 0 0 0.08 0"/>
<feBlend mode="normal" in2="effect1_dropShadow_1551_3561" result="effect2_dropShadow_1551_3561"/>
<feBlend mode="normal" in="SourceGraphic" in2="effect2_dropShadow_1551_3561" result="shape"/>
</filter>
</defs>
</svg>
