<svg width="53" height="36" viewBox="0 0 53 36" fill="none" xmlns="http://www.w3.org/2000/svg">
<rect x="0.988281" y="0.71875" width="51" height="34.5261" rx="5.5" fill="white"/>
<rect x="0.988281" y="0.71875" width="51" height="34.5261" rx="5.5" stroke="#D6DCE5"/>
<path d="M17.6606 13.5898C17.9941 13.1555 18.2205 12.5724 18.1608 11.9766C17.6725 12.0018 17.0766 12.3119 16.7316 12.7465C16.4218 13.1186 16.1477 13.7261 16.2191 14.297C16.7673 14.3465 17.3149 14.0118 17.6606 13.5898Z" fill="#000008"/>
<path d="M18.1546 14.4085C17.3585 14.3591 16.6817 14.8787 16.3015 14.8787C15.9212 14.8787 15.339 14.4334 14.7094 14.4454C13.8899 14.4579 13.1295 14.9402 12.7136 15.7072C11.8582 17.2416 12.4879 19.5178 13.3197 20.7675C13.7236 21.3858 14.2104 22.0665 14.8519 22.0421C15.4579 22.0173 15.6955 21.6336 16.4322 21.6336C17.1684 21.6336 17.3824 22.0421 18.0239 22.0297C18.6892 22.0173 19.1052 21.4111 19.5091 20.7922C19.9725 20.0874 20.1622 19.4069 20.1741 19.3695C20.1622 19.3572 18.8912 18.8497 18.8794 17.328C18.8674 16.0538 19.8773 15.4478 19.9248 15.4102C19.3546 14.5323 18.4635 14.4334 18.1546 14.4085Z" fill="#000008"/>
<path d="M25.086 12.6841C26.8162 12.6841 28.021 13.9255 28.021 15.7328C28.021 17.5465 26.7914 18.7943 25.0426 18.7943H23.1269V21.9651H21.7429V12.6841L25.086 12.6841ZM23.1269 17.5851H24.7151C25.9201 17.5851 26.606 16.9098 26.606 15.7392C26.606 14.5687 25.9201 13.8998 24.7213 13.8998H23.1269V17.5851Z" fill="#000008"/>
<path d="M28.3826 20.042C28.3826 18.8585 29.254 18.1318 30.7989 18.0417L32.5785 17.9324V17.4115C32.5785 16.659 32.0903 16.2087 31.2748 16.2087C30.5021 16.2087 30.0201 16.5946 29.9028 17.1992H28.6422C28.7164 15.9771 29.7174 15.0767 31.3241 15.0767C32.8998 15.0767 33.907 15.945 33.907 17.3021V21.9651H32.6278V20.8524H32.5971C32.2202 21.6049 31.3982 22.0808 30.5455 22.0808C29.2725 22.0808 28.3826 21.2575 28.3826 20.042ZM32.5785 19.431V18.8972L30.978 19.0001C30.1808 19.058 29.7298 19.4246 29.7298 20.0034C29.7298 20.5951 30.1994 20.981 30.9162 20.981C31.8493 20.981 32.5785 20.3121 32.5785 19.431Z" fill="#000008"/>
<path d="M35.1147 24.4542V23.3286C35.2134 23.3543 35.4358 23.3543 35.5471 23.3543C36.165 23.3543 36.4988 23.0842 36.7026 22.3896C36.7026 22.3767 36.8201 21.978 36.8201 21.9715L34.472 15.1989H35.9178L37.5617 20.7045H37.5863L39.2302 15.1989H40.6391L38.2042 22.3187C37.6483 23.9589 37.0056 24.4863 35.6585 24.4863C35.5471 24.4863 35.2134 24.4734 35.1147 24.4542Z" fill="#000008"/>
</svg>
