<svg width="92" height="163" viewBox="0 0 92 163" fill="none" xmlns="http://www.w3.org/2000/svg">
<g clip-path="url(#clip0_1955_12287)">
<path d="M7.99971 89.2256H2.99971C2.99971 89.2256 2.66638 80.7786 2.99971 77.0427C3.33304 73.3068 5.06619 67.5011 8.49971 62.424C9.87581 60.3892 12.6664 58.0384 12.4997 57.5511C12.4997 57.5511 13.4599 53.7001 13.9997 51.2163C17.2124 36.4338 17.9997 12.7204 17.9997 12.7204C16.9997 12.0707 15.1997 10.5763 15.9997 9.79665C16.9997 8.82207 18.9997 7.36019 17.9997 5.89832C16.9997 4.43645 15.9997 3.94916 15.9997 3.46187C15.9997 3.07204 17.333 2.32486 17.9997 2H35.4997C36.6664 2.48729 38.1997 3.8517 34.9997 5.41103C30.9997 7.36019 36.4997 6.8729 36.4997 9.30936C36.4997 11.2585 35.4997 11.7458 34.9997 11.7458L38.9997 53.6528C39.6664 55.7644 41.8997 61.0596 45.4997 65.3478C49.0997 69.6359 50.333 74.9311 50.4997 77.0427L10.4997 89.2256C10.833 94.5858 11.2997 105.696 10.4997 107.255C9.69971 108.815 8.49971 107.905 7.99971 107.255V89.2256Z" fill="#316D5F"/>
<path d="M7.99971 89.2256H2.99971C2.99971 89.2256 2.66638 80.7786 2.99971 77.0427C3.33304 73.3068 5.06619 67.5011 8.49971 62.424C9.87581 60.3892 12.6664 58.0384 12.4997 57.5511C12.4997 57.5511 13.4599 53.7001 13.9997 51.2163C17.2124 36.4338 17.9997 12.7204 17.9997 12.7204C16.9997 12.0707 15.1997 10.5763 15.9997 9.79665C16.9997 8.82207 18.9997 7.36019 17.9997 5.89832C16.9997 4.43645 15.9997 3.94916 15.9997 3.46187C15.9997 3.07204 17.333 2.32486 17.9997 2H35.4997C36.6664 2.48729 38.1997 3.8517 34.9997 5.41103C30.9997 7.36019 36.4997 6.8729 36.4997 9.30936C36.4997 11.2585 35.4997 11.7458 34.9997 11.7458L38.9997 53.6528C39.6664 55.7644 41.8997 61.0596 45.4997 65.3478C49.0997 69.6359 50.333 74.9311 50.4997 77.0427L10.4997 89.2256M7.99971 89.2256V107.255C8.49971 107.905 9.69971 108.815 10.4997 107.255C11.2997 105.696 10.833 94.5858 10.4997 89.2256M7.99971 89.2256C7.66638 87.2764 7.19971 82.9883 7.99971 81.429C8.79971 79.8696 9.99971 80.7792 10.4997 81.429V89.2256" stroke="#316D5F"/>
<path d="M45.4534 88.2493H50.4534C50.4534 88.2493 50.7867 79.8023 50.4534 76.0665C50.1201 72.3306 48.3869 66.5248 44.9534 61.4477C43.5773 59.4129 40.7867 57.0621 40.9534 56.5748C40.9534 56.5748 39.9932 52.7239 39.4534 50.2401C36.2407 35.4575 30.043 11.7441 30.043 11.7441C30.043 13.6065 19.0054 11.0201 18.4593 10.7862L18.4534 10.7695C18.4312 10.7695 18.4338 10.7753 18.4593 10.7862L42.9534 80.4527C43.4534 79.803 44.6534 78.8933 45.4534 80.4527C46.2534 82.012 45.7867 86.3002 45.4534 88.2493Z" fill="#316D5F"/>
<path d="M50.4534 88.2493H45.4534C45.7867 86.3002 46.2534 82.012 45.4534 80.4527C44.6534 78.8933 43.4534 79.803 42.9534 80.4527L18.4534 10.7695C17.9534 10.7695 30.043 13.6933 30.043 11.7441C30.043 11.7441 36.2407 35.4575 39.4534 50.2401C39.9932 52.7239 40.9534 56.5748 40.9534 56.5748C40.7867 57.0621 43.5773 59.4129 44.9534 61.4477C48.3869 66.5248 50.1201 72.3306 50.4534 76.0665C50.7867 79.8023 50.4534 88.2493 50.4534 88.2493Z" stroke="#316D5F"/>
<path d="M11 89.4902L51 77.2383V155.001C51 159.42 47.4183 163.001 43 163.001H11V89.4902Z" fill="#316D5F"/>
<path d="M42.8008 89.6141L2.50078 84.2539L2.77031 154.738C2.78716 159.145 6.36391 162.708 10.7702 162.708H42.8008V89.6141Z" fill="#316D5F"/>
<rect x="9" y="81.9141" width="2" height="60.424" rx="1" fill="#FFFBF5"/>
<rect width="1.99962" height="31.203" rx="0.999809" transform="matrix(0.996385 0.0849565 -0.089411 0.995995 20.7891 13.6953)" fill="#FFFBF5"/>
<path d="M28.776 79.9864L29.64 80.5304L22.088 93.3464L21.32 92.8664L28.776 79.9864ZM25.416 92.3224C24.4027 92.3224 23.5333 92.1517 22.808 91.8104C22.0827 91.4691 21.4907 91.0157 21.032 90.4504C20.584 89.8744 20.2533 89.2397 20.04 88.5464C19.8267 87.8531 19.72 87.1597 19.72 86.4664C19.72 85.7944 19.832 85.1171 20.056 84.4344C20.28 83.7411 20.6213 83.1064 21.08 82.5304C21.5493 81.9544 22.1307 81.4904 22.824 81.1384C23.528 80.7864 24.3493 80.6104 25.288 80.6104C26.2693 80.6104 27.1173 80.7864 27.832 81.1384C28.5467 81.4904 29.1333 81.9597 29.592 82.5464C30.0613 83.1224 30.408 83.7517 30.632 84.4344C30.8667 85.1171 30.984 85.7944 30.984 86.4664C30.984 87.1277 30.872 87.8051 30.648 88.4984C30.424 89.1811 30.0773 89.8157 29.608 90.4024C29.1493 90.9784 28.5733 91.4424 27.88 91.7944C27.1867 92.1464 26.3653 92.3224 25.416 92.3224ZM25.448 91.6664C26.1093 91.6664 26.6853 91.5277 27.176 91.2504C27.6667 90.9624 28.072 90.5837 28.392 90.1144C28.7227 89.6344 28.968 89.1064 29.128 88.5304C29.2987 87.9437 29.384 87.3571 29.384 86.7704C29.384 86.1091 29.2933 85.4531 29.112 84.8024C28.9307 84.1517 28.664 83.5597 28.312 83.0264C27.96 82.4931 27.5227 82.0664 27 81.7464C26.488 81.4157 25.9013 81.2504 25.24 81.2504C24.5787 81.2504 23.9973 81.3944 23.496 81.6824C23.0053 81.9704 22.5947 82.3544 22.264 82.8344C21.944 83.3037 21.6987 83.8317 21.528 84.4184C21.368 84.9944 21.288 85.5811 21.288 86.1784C21.288 86.7651 21.368 87.3784 21.528 88.0184C21.6987 88.6584 21.9547 89.2557 22.296 89.8104C22.6373 90.3651 23.0693 90.8131 23.592 91.1544C24.1147 91.4957 24.7333 91.6664 25.448 91.6664ZM32.4425 92.0664V91.5384C32.8478 91.5171 33.1252 91.4264 33.2745 91.2664C33.4238 91.0957 33.5038 90.8664 33.5145 90.5784C33.5358 90.2797 33.5465 89.9437 33.5465 89.5704V82.6584C33.5465 82.4451 33.5518 82.2424 33.5625 82.0504C33.5732 81.8477 33.5838 81.6664 33.5945 81.5064C33.4025 81.5171 33.2105 81.5277 33.0185 81.5384C32.8265 81.5491 32.6345 81.5597 32.4425 81.5704V80.8664H36.0425V81.3944C35.6478 81.4051 35.3705 81.4957 35.2105 81.6664C35.0612 81.8371 34.9758 82.0664 34.9545 82.3544C34.9438 82.6424 34.9385 82.9784 34.9385 83.3624V90.2264C34.9385 90.5144 34.9332 90.7597 34.9225 90.9624C34.9225 91.1651 34.9118 91.3357 34.8905 91.4744L37.8825 91.4264C38.5545 91.4157 39.0612 91.2024 39.4025 90.7864C39.7545 90.3704 39.9305 89.6931 39.9305 88.7544H40.4745L40.3785 92.0664H32.4425Z" fill="#FFFBF5"/>
<path d="M45.9997 89.2256H40.9997C40.9997 89.2256 40.6664 80.7786 40.9997 77.0427C41.333 73.3068 43.0662 67.5011 46.4997 62.424C47.8758 60.3892 50.6664 58.0384 50.4997 57.5511C50.4997 57.5511 51.4599 53.7001 51.9997 51.2163C55.2124 36.4338 55.9997 12.7204 55.9997 12.7204C54.9997 12.0707 53.1997 10.5763 53.9997 9.79665C54.9997 8.82207 56.9997 7.36019 55.9997 5.89832C54.9997 4.43645 53.9997 3.94916 53.9997 3.46187C53.9997 3.07204 55.333 2.32486 55.9997 2H73.4997C74.6664 2.48729 76.1997 3.8517 72.9997 5.41103C68.9997 7.36019 74.4997 6.8729 74.4997 9.30936C74.4997 11.2585 73.4997 11.7458 72.9997 11.7458L76.9997 53.6528C77.6664 55.7644 79.8997 61.0596 83.4997 65.3478C87.0997 69.6359 88.333 74.9311 88.4997 77.0427L48.4997 89.2256C48.833 94.5858 49.2997 105.696 48.4997 107.255C47.6997 108.815 46.4997 107.905 45.9997 107.255V89.2256Z" fill="#316D5F"/>
<path d="M45.9997 89.2256H40.9997C40.9997 89.2256 40.6664 80.7786 40.9997 77.0427C41.333 73.3068 43.0662 67.5011 46.4997 62.424C47.8758 60.3892 50.6664 58.0384 50.4997 57.5511C50.4997 57.5511 51.4599 53.7001 51.9997 51.2163C55.2124 36.4338 55.9997 12.7204 55.9997 12.7204C54.9997 12.0707 53.1997 10.5763 53.9997 9.79665C54.9997 8.82207 56.9997 7.36019 55.9997 5.89832C54.9997 4.43645 53.9997 3.94916 53.9997 3.46187C53.9997 3.07204 55.333 2.32486 55.9997 2H73.4997C74.6664 2.48729 76.1997 3.8517 72.9997 5.41103C68.9997 7.36019 74.4997 6.8729 74.4997 9.30936C74.4997 11.2585 73.4997 11.7458 72.9997 11.7458L76.9997 53.6528C77.6664 55.7644 79.8997 61.0596 83.4997 65.3478C87.0997 69.6359 88.333 74.9311 88.4997 77.0427L48.4997 89.2256M45.9997 89.2256V107.255C46.4997 107.905 47.6997 108.815 48.4997 107.255C49.2997 105.696 48.833 94.5858 48.4997 89.2256M45.9997 89.2256C45.6664 87.2764 45.1997 82.9883 45.9997 81.429C46.7997 79.8696 47.9997 80.7792 48.4997 81.429V89.2256" stroke="#316D5F"/>
<path d="M83.4534 88.2493H88.4534C88.4534 88.2493 88.7867 79.8023 88.4534 76.0665C88.1201 72.3306 86.3869 66.5248 82.9534 61.4477C81.5773 59.4129 78.7867 57.0621 78.9534 56.5748C78.9534 56.5748 77.9932 52.7239 77.4534 50.2401C74.2407 35.4575 68.043 11.7441 68.043 11.7441C68.043 13.6065 57.0054 11.0201 56.4593 10.7862L56.4534 10.7695C56.4312 10.7695 56.4338 10.7753 56.4593 10.7862L80.9534 80.4527C81.4534 79.803 82.6534 78.8933 83.4534 80.4527C84.2534 82.012 83.7867 86.3002 83.4534 88.2493Z" fill="#316D5F"/>
<path d="M88.4534 88.2493H83.4534C83.7867 86.3002 84.2534 82.012 83.4534 80.4527C82.6534 78.8933 81.4534 79.803 80.9534 80.4527L56.4534 10.7695C55.9534 10.7695 68.043 13.6933 68.043 11.7441C68.043 11.7441 74.2407 35.4575 77.4534 50.2401C77.9932 52.7239 78.9534 56.5748 78.9534 56.5748C78.7867 57.0621 81.5773 59.4129 82.9534 61.4477C86.3869 66.5248 88.1201 72.3306 88.4534 76.0665C88.7867 79.8023 88.4534 88.2493 88.4534 88.2493Z" stroke="#316D5F"/>
<path d="M49 89.4902L89 77.2383V155.001C89 159.42 85.4183 163.001 81 163.001H49V89.4902Z" fill="#316D5F"/>
<path d="M80.8008 89.6141L40.5008 84.2539L40.7703 154.738C40.7872 159.145 44.3639 162.708 48.7702 162.708H80.8008V89.6141Z" fill="#316D5F"/>
<rect x="47" y="81.9141" width="2" height="60.424" rx="1" fill="#FFFBF5"/>
<rect width="1.99962" height="31.203" rx="0.999809" transform="matrix(0.996385 0.0849565 -0.089411 0.995995 58.7891 13.6953)" fill="#FFFBF5"/>
<path d="M66.776 79.9864L67.64 80.5304L60.088 93.3464L59.32 92.8664L66.776 79.9864ZM63.416 92.3224C62.4027 92.3224 61.5333 92.1517 60.808 91.8104C60.0827 91.4691 59.4907 91.0157 59.032 90.4504C58.584 89.8744 58.2533 89.2397 58.04 88.5464C57.8267 87.8531 57.72 87.1597 57.72 86.4664C57.72 85.7944 57.832 85.1171 58.056 84.4344C58.28 83.7411 58.6213 83.1064 59.08 82.5304C59.5493 81.9544 60.1307 81.4904 60.824 81.1384C61.528 80.7864 62.3493 80.6104 63.288 80.6104C64.2693 80.6104 65.1173 80.7864 65.832 81.1384C66.5467 81.4904 67.1333 81.9597 67.592 82.5464C68.0613 83.1224 68.408 83.7517 68.632 84.4344C68.8667 85.1171 68.984 85.7944 68.984 86.4664C68.984 87.1277 68.872 87.8051 68.648 88.4984C68.424 89.1811 68.0773 89.8157 67.608 90.4024C67.1493 90.9784 66.5733 91.4424 65.88 91.7944C65.1867 92.1464 64.3653 92.3224 63.416 92.3224ZM63.448 91.6664C64.1093 91.6664 64.6853 91.5277 65.176 91.2504C65.6667 90.9624 66.072 90.5837 66.392 90.1144C66.7227 89.6344 66.968 89.1064 67.128 88.5304C67.2987 87.9437 67.384 87.3571 67.384 86.7704C67.384 86.1091 67.2933 85.4531 67.112 84.8024C66.9307 84.1517 66.664 83.5597 66.312 83.0264C65.96 82.4931 65.5227 82.0664 65 81.7464C64.488 81.4157 63.9013 81.2504 63.24 81.2504C62.5787 81.2504 61.9973 81.3944 61.496 81.6824C61.0053 81.9704 60.5947 82.3544 60.264 82.8344C59.944 83.3037 59.6987 83.8317 59.528 84.4184C59.368 84.9944 59.288 85.5811 59.288 86.1784C59.288 86.7651 59.368 87.3784 59.528 88.0184C59.6987 88.6584 59.9547 89.2557 60.296 89.8104C60.6373 90.3651 61.0693 90.8131 61.592 91.1544C62.1147 91.4957 62.7333 91.6664 63.448 91.6664ZM70.4425 92.0664V91.5384C70.8478 91.5171 71.1252 91.4264 71.2745 91.2664C71.4238 91.0957 71.5038 90.8664 71.5145 90.5784C71.5358 90.2797 71.5465 89.9437 71.5465 89.5704V82.6584C71.5465 82.4451 71.5518 82.2424 71.5625 82.0504C71.5732 81.8477 71.5838 81.6664 71.5945 81.5064C71.4025 81.5171 71.2105 81.5277 71.0185 81.5384C70.8265 81.5491 70.6345 81.5597 70.4425 81.5704V80.8664H74.0425V81.3944C73.6478 81.4051 73.3705 81.4957 73.2105 81.6664C73.0612 81.8371 72.9758 82.0664 72.9545 82.3544C72.9438 82.6424 72.9385 82.9784 72.9385 83.3624V90.2264C72.9385 90.5144 72.9332 90.7597 72.9225 90.9624C72.9225 91.1651 72.9118 91.3357 72.8905 91.4744L75.8825 91.4264C76.5545 91.4157 77.0612 91.2024 77.4025 90.7864C77.7545 90.3704 77.9305 89.6931 77.9305 88.7544H78.4745L78.3785 92.0664H70.4425Z" fill="#FFFBF5"/>
</g>
<defs>
<clipPath id="clip0_1955_12287">
<rect width="92" height="163" fill="white"/>
</clipPath>
</defs>
</svg>
