<svg width="131" height="22" viewBox="0 0 131 22" fill="none" xmlns="http://www.w3.org/2000/svg">
<path d="M7.00083 2.10905C7.29185 2.10901 7.57937 2.17248 7.84332 2.29503C8.10728 2.41759 8.34131 2.59626 8.52908 2.8186C8.71685 3.04093 8.85384 3.30157 8.93048 3.58231C9.00713 3.86305 9.02158 4.15714 8.97283 4.44405L10.9458 4.77405C11.0219 4.32343 11.0202 3.8631 10.9408 3.41305C11.3193 3.17607 11.7661 3.07253 12.2102 3.11894C12.6543 3.16535 13.0701 3.35903 13.3913 3.66913C13.7126 3.97923 13.9208 4.38791 13.9829 4.83008C14.045 5.27226 13.9573 5.72248 13.7338 6.10905H3.00083C2.84562 6.10888 2.69257 6.07258 2.55382 6.00303C2.41506 5.93347 2.29439 5.83258 2.20138 5.70832C2.10836 5.58406 2.04555 5.43986 2.01791 5.28713C1.99027 5.13439 1.99856 4.97732 2.04213 4.82835C2.08569 4.67937 2.16334 4.54259 2.26893 4.42881C2.37451 4.31504 2.50513 4.22741 2.65044 4.17285C2.79575 4.1183 2.95176 4.09832 3.10613 4.11449C3.2605 4.13067 3.40899 4.18255 3.53983 4.26605C3.67453 4.35232 3.82796 4.40502 3.98724 4.41973C4.14652 4.43444 4.30701 4.41073 4.45522 4.35058C4.60344 4.29043 4.73507 4.1956 4.83905 4.07405C4.94304 3.95251 5.01635 3.80779 5.05283 3.65205C5.15592 3.21285 5.40447 2.8214 5.7581 2.54128C6.11174 2.26117 6.5497 2.10884 7.00083 2.10905ZM8.51683 0.406047C7.61312 0.0357795 6.60517 0.00892843 5.68302 0.330556C4.76087 0.652184 3.98825 1.30007 3.51083 2.15205C2.86884 2.04111 2.20818 2.14218 1.62872 2.43998C1.04926 2.73778 0.582487 3.21613 0.298966 3.80271C0.0154458 4.38929 -0.0694149 5.05223 0.0572113 5.69131C0.183838 6.3304 0.515067 6.91089 1.00083 7.34505V19.109C1.00083 19.6395 1.21155 20.1482 1.58662 20.5233C1.96169 20.8983 2.4704 21.109 3.00083 21.109H13.0008C13.5313 21.109 14.04 20.8983 14.415 20.5233C14.7901 20.1482 15.0008 19.6395 15.0008 19.109H17.0008C17.5313 19.109 18.04 18.8983 18.415 18.5233C18.7901 18.1482 19.0008 17.6395 19.0008 17.109V10.109C19.0008 9.57861 18.7901 9.06991 18.415 8.69483C18.04 8.31976 17.5313 8.10905 17.0008 8.10905H15.0008V7.75505C15.6225 7.05119 15.9767 6.15106 16.0014 5.21231C16.0261 4.27356 15.7197 3.35605 15.1359 2.62048C14.5522 1.88491 13.7282 1.37819 12.8084 1.18906C11.8885 0.999939 10.9315 1.14047 10.1048 1.58605C9.68266 1.06595 9.13662 0.660204 8.51683 0.406047ZM15.0008 17.109V10.109H17.0008V17.109H15.0008ZM5.00083 10.109H7.00083V17.109H5.00083V10.109ZM9.00083 10.109H11.0008V17.109H9.00083V10.109Z" fill="#16312B"/>
<path d="M35.0008 2.10905C35.2919 2.10901 35.5794 2.17248 35.8433 2.29503C36.1073 2.41759 36.3413 2.59626 36.5291 2.8186C36.7168 3.04093 36.8538 3.30157 36.9305 3.58231C37.0071 3.86305 37.0216 4.15714 36.9728 4.44405L38.9458 4.77405C39.0219 4.32343 39.0202 3.8631 38.9408 3.41305C39.3193 3.17607 39.7661 3.07253 40.2102 3.11894C40.6543 3.16535 41.0701 3.35903 41.3913 3.66913C41.7126 3.97923 41.9208 4.38791 41.9829 4.83008C42.045 5.27226 41.9573 5.72248 41.7338 6.10905H31.0008C30.8456 6.10888 30.6926 6.07258 30.5538 6.00303C30.4151 5.93347 30.2944 5.83258 30.2014 5.70832C30.1084 5.58406 30.0455 5.43986 30.0179 5.28713C29.9903 5.13439 29.9986 4.97732 30.0421 4.82835C30.0857 4.67937 30.1633 4.54259 30.2689 4.42881C30.3745 4.31504 30.5051 4.22741 30.6504 4.17285C30.7957 4.1183 30.9518 4.09832 31.1061 4.11449C31.2605 4.13067 31.409 4.18255 31.5398 4.26605C31.6745 4.35232 31.828 4.40502 31.9872 4.41973C32.1465 4.43444 32.307 4.41073 32.4552 4.35058C32.6034 4.29043 32.7351 4.1956 32.8391 4.07405C32.943 3.95251 33.0164 3.80779 33.0528 3.65205C33.1559 3.21285 33.4045 2.8214 33.7581 2.54128C34.1117 2.26117 34.5497 2.10884 35.0008 2.10905ZM36.5168 0.406047C35.6131 0.0357795 34.6052 0.00892843 33.683 0.330556C32.7609 0.652184 31.9883 1.30007 31.5108 2.15205C30.8688 2.04111 30.2082 2.14218 29.6287 2.43998C29.0493 2.73778 28.5825 3.21613 28.299 3.80271C28.0154 4.38929 27.9306 5.05223 28.0572 5.69131C28.1838 6.3304 28.5151 6.91089 29.0008 7.34505V19.109C29.0008 19.6395 29.2115 20.1482 29.5866 20.5233C29.9617 20.8983 30.4704 21.109 31.0008 21.109H41.0008C41.5313 21.109 42.04 20.8983 42.415 20.5233C42.7901 20.1482 43.0008 19.6395 43.0008 19.109H45.0008C45.5313 19.109 46.04 18.8983 46.415 18.5233C46.7901 18.1482 47.0008 17.6395 47.0008 17.109V10.109C47.0008 9.57861 46.7901 9.06991 46.415 8.69483C46.04 8.31976 45.5313 8.10905 45.0008 8.10905H43.0008V7.75505C43.6225 7.05119 43.9767 6.15106 44.0014 5.21231C44.0261 4.27356 43.7197 3.35605 43.1359 2.62048C42.5522 1.88491 41.7282 1.37819 40.8084 1.18906C39.8885 0.999939 38.9315 1.14047 38.1048 1.58605C37.6827 1.06595 37.1366 0.660204 36.5168 0.406047ZM43.0008 17.109V10.109H45.0008V17.109H43.0008ZM33.0008 10.109H35.0008V17.109H33.0008V10.109ZM37.0008 10.109H39.0008V17.109H37.0008V10.109Z" fill="#16312B"/>
<path d="M62.493 2.00162C62.784 2.00159 63.0716 2.06506 63.3355 2.18761C63.5995 2.31016 63.8335 2.48884 64.0213 2.71118C64.209 2.93351 64.346 3.19415 64.4227 3.47489C64.4993 3.75563 64.5138 4.04972 64.465 4.33662L66.438 4.66662C66.5141 4.216 66.5124 3.75567 66.433 3.30562C66.8114 3.06864 67.2583 2.96511 67.7024 3.01152C68.1465 3.05793 68.5623 3.25161 68.8835 3.56171C69.2048 3.87181 69.413 4.28049 69.4751 4.72266C69.5372 5.16483 69.4495 5.61506 69.226 6.00162H58.493C58.3378 6.00146 58.1848 5.96516 58.046 5.89561C57.9072 5.82605 57.7866 5.72515 57.6936 5.6009C57.6005 5.47664 57.5377 5.33244 57.5101 5.17971C57.4825 5.02697 57.4907 4.8699 57.5343 4.72093C57.5779 4.57195 57.6555 4.43516 57.7611 4.32139C57.8667 4.20762 57.9973 4.11999 58.1426 4.06543C58.2879 4.01088 58.444 3.99089 58.5983 4.00707C58.7527 4.02325 58.9012 4.07513 59.032 4.15862C59.1667 4.2449 59.3201 4.2976 59.4794 4.31231C59.6387 4.32702 59.7992 4.3033 59.9474 4.24315C60.0956 4.183 60.2273 4.08818 60.3312 3.96663C60.4352 3.84508 60.5085 3.70037 60.545 3.54462C60.6481 3.10542 60.8967 2.71397 61.2503 2.43386C61.6039 2.15374 62.0419 2.00142 62.493 2.00162ZM64.009 0.298625C63.1053 -0.0716424 62.0974 -0.0984934 61.1752 0.223134C60.2531 0.544762 59.4804 1.19264 59.003 2.04462C58.361 1.93369 57.7004 2.03476 57.1209 2.33256C56.5414 2.63036 56.0747 3.1087 55.7912 3.69529C55.5076 4.28187 55.4228 4.9448 55.5494 5.58389C55.676 6.22297 56.0073 6.80347 56.493 7.23762V19.0016C56.493 19.5321 56.7037 20.0408 57.0788 20.4158C57.4539 20.7909 57.9626 21.0016 58.493 21.0016H68.493C69.0235 21.0016 69.5322 20.7909 69.9072 20.4158C70.2823 20.0408 70.493 19.5321 70.493 19.0016H72.493C73.0235 19.0016 73.5322 18.7909 73.9072 18.4158C74.2823 18.0408 74.493 17.5321 74.493 17.0016V10.0016C74.493 9.47119 74.2823 8.96248 73.9072 8.58741C73.5322 8.21234 73.0235 8.00163 72.493 8.00163H70.493V7.64762C71.1147 6.94377 71.4689 6.04364 71.4936 5.10489C71.5183 4.16614 71.2119 3.24863 70.6281 2.51306C70.0443 1.77749 69.2204 1.27077 68.3005 1.08164C67.3807 0.892517 66.4237 1.03305 65.597 1.47862C65.1748 0.958526 64.6288 0.552782 64.009 0.298625ZM70.493 17.0016V10.0016H72.493V17.0016H70.493ZM60.493 10.0016H62.493V17.0016H60.493V10.0016ZM64.493 10.0016H66.493V17.0016H64.493V10.0016Z" fill="#16312B"/>
<path d="M90.493 2.00162C90.784 2.00159 91.0716 2.06506 91.3355 2.18761C91.5995 2.31016 91.8335 2.48884 92.0213 2.71118C92.209 2.93351 92.346 3.19415 92.4227 3.47489C92.4993 3.75563 92.5138 4.04972 92.465 4.33662L94.438 4.66662C94.5141 4.216 94.5124 3.75567 94.433 3.30562C94.8114 3.06864 95.2583 2.96511 95.7024 3.01152C96.1465 3.05793 96.5623 3.25161 96.8835 3.56171C97.2048 3.87181 97.413 4.28049 97.4751 4.72266C97.5372 5.16483 97.4495 5.61506 97.226 6.00162H86.493C86.3378 6.00146 86.1848 5.96516 86.046 5.89561C85.9072 5.82605 85.7866 5.72515 85.6936 5.6009C85.6005 5.47664 85.5377 5.33244 85.5101 5.17971C85.4825 5.02697 85.4907 4.8699 85.5343 4.72093C85.5779 4.57195 85.6555 4.43516 85.7611 4.32139C85.8667 4.20762 85.9973 4.11999 86.1426 4.06543C86.2879 4.01088 86.444 3.99089 86.5983 4.00707C86.7527 4.02325 86.9012 4.07513 87.032 4.15862C87.1667 4.2449 87.3201 4.2976 87.4794 4.31231C87.6387 4.32702 87.7992 4.3033 87.9474 4.24315C88.0956 4.183 88.2273 4.08818 88.3312 3.96663C88.4352 3.84508 88.5085 3.70037 88.545 3.54462C88.6481 3.10542 88.8967 2.71397 89.2503 2.43386C89.6039 2.15374 90.0419 2.00142 90.493 2.00162ZM92.009 0.298625C91.1053 -0.0716424 90.0974 -0.0984934 89.1752 0.223134C88.2531 0.544762 87.4804 1.19264 87.003 2.04462C86.361 1.93369 85.7004 2.03476 85.1209 2.33256C84.5414 2.63036 84.0747 3.1087 83.7912 3.69529C83.5076 4.28187 83.4228 4.9448 83.5494 5.58389C83.676 6.22297 84.0073 6.80347 84.493 7.23762V19.0016C84.493 19.5321 84.7037 20.0408 85.0788 20.4158C85.4539 20.7909 85.9626 21.0016 86.493 21.0016H96.493C97.0235 21.0016 97.5322 20.7909 97.9072 20.4158C98.2823 20.0408 98.493 19.5321 98.493 19.0016H100.493C101.023 19.0016 101.532 18.7909 101.907 18.4158C102.282 18.0408 102.493 17.5321 102.493 17.0016V10.0016C102.493 9.47119 102.282 8.96248 101.907 8.58741C101.532 8.21234 101.023 8.00163 100.493 8.00163H98.493V7.64762C99.1147 6.94377 99.4689 6.04364 99.4936 5.10489C99.5183 4.16614 99.2119 3.24863 98.6281 2.51306C98.0443 1.77749 97.2204 1.27077 96.3005 1.08164C95.3807 0.892517 94.4237 1.03305 93.597 1.47862C93.1748 0.958526 92.6288 0.552782 92.009 0.298625ZM98.493 17.0016V10.0016H100.493V17.0016H98.493ZM88.493 10.0016H90.493V17.0016H88.493V10.0016ZM92.493 10.0016H94.493V17.0016H92.493V10.0016Z" fill="#16312B"/>
<path d="M119.001 2.00162C119.292 2.00159 119.579 2.06506 119.843 2.18761C120.107 2.31016 120.341 2.48884 120.529 2.71118C120.717 2.93351 120.854 3.19415 120.93 3.47489C121.007 3.75563 121.022 4.04972 120.973 4.33662L122.946 4.66662C123.022 4.216 123.02 3.75567 122.941 3.30562C123.319 3.06864 123.766 2.96511 124.21 3.01152C124.654 3.05793 125.07 3.25161 125.391 3.56171C125.713 3.87181 125.921 4.28049 125.983 4.72266C126.045 5.16483 125.957 5.61506 125.734 6.00162H115.001C114.846 6.00146 114.693 5.96516 114.554 5.89561C114.415 5.82605 114.294 5.72515 114.201 5.6009C114.108 5.47664 114.046 5.33244 114.018 5.17971C113.99 5.02697 113.999 4.8699 114.042 4.72093C114.086 4.57195 114.163 4.43516 114.269 4.32139C114.375 4.20762 114.505 4.11999 114.65 4.06543C114.796 4.01088 114.952 3.99089 115.106 4.00707C115.261 4.02325 115.409 4.07513 115.54 4.15862C115.675 4.2449 115.828 4.2976 115.987 4.31231C116.147 4.32702 116.307 4.3033 116.455 4.24315C116.603 4.183 116.735 4.08818 116.839 3.96663C116.943 3.84508 117.016 3.70037 117.053 3.54462C117.156 3.10542 117.404 2.71397 117.758 2.43386C118.112 2.15374 118.55 2.00142 119.001 2.00162ZM120.517 0.298625C119.613 -0.0716424 118.605 -0.0984934 117.683 0.223134C116.761 0.544762 115.988 1.19264 115.511 2.04462C114.869 1.93369 114.208 2.03476 113.629 2.33256C113.049 2.63036 112.582 3.1087 112.299 3.69529C112.015 4.28187 111.931 4.9448 112.057 5.58389C112.184 6.22297 112.515 6.80347 113.001 7.23762V19.0016C113.001 19.5321 113.212 20.0408 113.587 20.4158C113.962 20.7909 114.47 21.0016 115.001 21.0016H125.001C125.531 21.0016 126.04 20.7909 126.415 20.4158C126.79 20.0408 127.001 19.5321 127.001 19.0016H129.001C129.531 19.0016 130.04 18.7909 130.415 18.4158C130.79 18.0408 131.001 17.5321 131.001 17.0016V10.0016C131.001 9.47119 130.79 8.96248 130.415 8.58741C130.04 8.21234 129.531 8.00163 129.001 8.00163H127.001V7.64762C127.622 6.94377 127.977 6.04364 128.001 5.10489C128.026 4.16614 127.72 3.24863 127.136 2.51306C126.552 1.77749 125.728 1.27077 124.808 1.08164C123.889 0.892517 122.931 1.03305 122.105 1.47862C121.683 0.958526 121.137 0.552782 120.517 0.298625ZM127.001 17.0016V10.0016H129.001V17.0016H127.001ZM117.001 10.0016H119.001V17.0016H117.001V10.0016ZM121.001 10.0016H123.001V17.0016H121.001V10.0016Z" fill="#16312B"/>
</svg>
