<?xml version="1.0" encoding="UTF-8"?>
<svg xmlns="http://www.w3.org/2000/svg" version="1.1" viewBox="0 0 441 1280">
  <!-- Generator: Adobe Illustrator 28.7.3, SVG Export Plug-In . SVG Version: 1.2.0 Build 164)  -->
  <g>
    <g id="Lag_1">
      <path d="M187.3,35c-12.4,1-25.5,3.4-34,6.2-10.6,3.5-14,9.3-16.3,27.7-1,8.6-.8,10.1,1.4,10.1s1.9.7,2.6,1.5,2.8,1.5,4.6,1.5,3.4.5,3.4,1.2-1.9,5-4.2,9.5c-5.5,10.9-5.8,16.3-1.1,21.6,2.5,2.8,3.1,4.4,2.8,6.5-.3,1.5-2.8,23.4-5.6,48.7-2.7,25.3-5.2,46.9-5.5,48-.2,1.1-1.8,12.3-3.4,25-1.7,12.6-5.5,41-8.5,63s-6.6,49-8,60c-5.7,44.4-8.2,56.8-14.4,70-1.5,3.3-8.3,15-15.1,26-14.7,23.8-24.1,41.5-26.9,50.7-1.1,3.7-2.8,11.8-3.8,18-1.6,10.6-1.7,31.9-1.8,320.8,0,294.3.1,310.1,1.8,321,4.4,27.6,14.1,43.8,31.1,52,25.4,12.2,61.4,17,126.6,17s117.7-6.7,141.3-19.2c15.9-8.5,22.9-20.4,27.1-46.3,1.5-9.1,1.7-36.4,1.4-319-.3-289.8-.4-309.6-2.1-318.5-5.5-29.7-13.3-49.6-28.7-73.5-12.7-19.7-20.4-36.4-24.9-54.3-2-7.9-7.9-47-12.5-82.7-7.6-59.5-13.7-104.4-14.6-107.5-1.1-4-8.1-56.5-10.4-78-.9-8-1.8-16.5-2.1-18.8-.4-4-.2-4.6,3-7.5,6.8-6,7-12.6.5-22.6-4.4-6.8-4.9-8.9-2.2-9.7.9-.3,2.5-1,3.4-1.5,1-.5,2.7-.9,3.9-.9,2.1,0,2.2-.2,1.5-9.6-1.3-18.8-3.6-24.1-12.6-28.6s-28.4-7.5-64.5-8.2c-12.6-.2-27.6-.1-33.2.4Z"/>
    </g>
  </g>
</svg>