<svg width="146" height="145" viewBox="0 0 146 145" fill="none" xmlns="http://www.w3.org/2000/svg">
<g clip-path="url(#clip0_131_3037)">
<path d="M137.177 90.9297H10.6982V144.707H137.177V90.9297Z" fill="#FFFBF5"/>
<path d="M38.7868 19.1953H27.8962C26.6402 19.1953 25.6221 20.1427 25.6221 21.3114V22.1268C25.6221 23.2955 26.6402 24.243 27.8962 24.243H38.7868C40.0428 24.243 41.0609 23.2955 41.0609 22.1268V21.3114C41.0609 20.1427 40.0428 19.1953 38.7868 19.1953Z" fill="#FFFBF5"/>
<path d="M49.4063 71.4215C47.7372 68.7035 47.9458 68.8976 47.1113 67.7328C46.2768 66.568 43.5645 64.4324 42.1041 54.9195L39.8091 27.5457C39.8091 27.5457 39.3919 26.7691 40.2264 26.7691H40.8523L39.7758 23.4688H27.0825L26.248 26.575H27.0825C27.0825 26.575 27.7084 26.7691 27.2911 27.3516L25.2048 51.0367C25.2048 51.0367 24.5789 63.0734 20.4063 67.3445C16.2336 71.6156 15.6077 77.0515 15.6077 77.0515L15.1904 80.5461V89.4629L19.5717 89.4765L19.4799 83.3611C19.4799 83.3611 19.3631 82.2933 20.6149 82.2933C21.8667 82.2933 21.6914 83.3203 21.6914 83.3203L21.6372 89.4765H52.1185V80.416C52.1185 80.416 51.0753 74.1394 49.4063 71.4215ZM29.4901 53.5838C29.4463 54.0634 28.9894 54.4206 28.4741 54.3798C27.9588 54.339 27.5749 53.9139 27.6187 53.4343L29.7822 29.8443C29.826 29.3648 30.2829 29.0076 30.7983 29.0484C31.3136 29.0891 31.6975 29.5143 31.6537 29.9938L29.4901 53.5838Z" fill="#FFFBF5"/>
<path d="M90.8694 99.6641H58.9485C56.472 99.6641 54.4629 101.534 54.4629 103.838V109.274C54.4629 111.578 56.472 113.448 58.9485 113.448H90.8694C93.3458 113.448 95.355 111.578 95.355 109.274V103.838C95.355 101.534 93.3458 99.6641 90.8694 99.6641ZM93.4689 108.012C93.4689 110.076 91.6705 111.749 89.4528 111.749H60.7657C58.5479 111.749 56.7495 110.076 56.7495 108.012V105.003C56.7495 102.939 58.5479 101.266 60.7657 101.266H89.4528C91.6705 101.266 93.4689 102.939 93.4689 105.003V108.012Z" fill="#FFF7EA"/>
<path d="M93.4689 108.012C93.4689 110.076 91.6705 111.749 89.4528 111.749H60.7657C58.5479 111.749 56.7495 110.076 56.7495 108.012V105.003C56.7495 102.939 58.5479 101.266 60.7657 101.266H89.4528C91.6705 101.266 93.4689 102.939 93.4689 105.003V108.012Z" fill="#16312B"/>
<path d="M78.7019 19.2734H67.8112C66.5553 19.2734 65.5371 20.2209 65.5371 21.3896V22.205C65.5371 23.3737 66.5553 24.3211 67.8112 24.3211H78.7019C79.9578 24.3211 80.976 23.3737 80.976 22.205V21.3896C80.976 20.2209 79.9578 19.2734 78.7019 19.2734Z" fill="#FFFBF5"/>
<path d="M89.3213 71.4996C87.6522 68.7816 87.8609 68.9758 87.0263 67.8109C86.1918 66.6461 83.4796 64.5105 82.0191 54.9976L79.7242 27.6238C79.7242 27.6238 79.3069 26.8473 80.1414 26.8473H80.7673L79.6908 23.5469H66.9976L66.163 26.6531H66.9976C66.9976 26.6531 67.6235 26.8473 67.2062 27.4297L65.1199 51.1148C65.1199 51.1148 64.494 63.1516 60.3213 67.4226C56.1486 71.6937 55.5227 77.1297 55.5227 77.1297L55.1055 80.6242V89.5411L59.4868 89.5547L59.395 83.4392C59.395 83.4392 59.2781 82.3715 60.5299 82.3715C61.7817 82.3715 61.6065 83.3985 61.6065 83.3985L61.5522 89.5547H92.0335V80.4941C92.0335 80.4941 90.9904 74.2176 89.3213 71.4996ZM69.4052 53.6639C69.3614 54.1434 68.9045 54.5006 68.3891 54.4599C67.8738 54.4191 67.4899 53.9939 67.5337 53.5144L69.6973 29.9244C69.7411 29.4449 70.198 29.0876 70.7133 29.1284C71.2286 29.1692 71.6125 29.5944 71.5687 30.0739L69.4052 53.6639Z" fill="#FFFBF5"/>
<path d="M118.968 19.2734H108.078C106.822 19.2734 105.804 20.2209 105.804 21.3896V22.205C105.804 23.3737 106.822 24.3211 108.078 24.3211H118.968C120.224 24.3211 121.243 23.3737 121.243 22.205V21.3896C121.243 20.2209 120.224 19.2734 118.968 19.2734Z" fill="#FFFBF5"/>
<path d="M129.588 71.4996C127.919 68.7816 128.127 68.9758 127.293 67.8109C126.458 66.6461 123.746 64.5105 122.286 54.9976L119.991 27.6238C119.991 27.6238 119.574 26.8473 120.408 26.8473H121.034L119.957 23.5469H107.264L106.43 26.6531H107.264C107.264 26.6531 107.89 26.8473 107.473 27.4297L105.386 51.1148C105.386 51.1148 104.761 63.1516 100.588 67.4226C96.4152 71.6937 95.7893 77.1297 95.7893 77.1297L95.3721 80.6242V89.5411L99.7534 89.5547L99.6616 83.4392C99.6616 83.4392 99.5447 82.3715 100.797 82.3715C102.048 82.3715 101.873 83.3985 101.873 83.3985L101.819 89.5547H132.3V80.4941C132.3 80.4941 131.257 74.2176 129.588 71.4996ZM109.672 53.6639C109.628 54.1434 109.171 54.5006 108.656 54.4599C108.14 54.4191 107.757 53.9939 107.8 53.5144L109.964 29.9244C110.008 29.4449 110.465 29.0876 110.98 29.1284C111.495 29.1692 111.879 29.5944 111.835 30.0739L109.672 53.6639Z" fill="#FFFBF5"/>
<g clip-path="url(#clip1_131_3037)">
<path d="M136.695 91.2734H10.2168V145.05H136.695V91.2734Z" fill="#FFF7EA"/>
<path d="M38.3054 19.5391H27.4147C26.1588 19.5391 25.1406 20.4865 25.1406 21.6552V22.4706C25.1406 23.6393 26.1588 24.5867 27.4147 24.5867H38.3054C39.5613 24.5867 40.5795 23.6393 40.5795 22.4706V21.6552C40.5795 20.4865 39.5613 19.5391 38.3054 19.5391Z" fill="#FFF7EA"/>
<path d="M48.9248 71.7652C47.2557 69.0472 47.4644 69.2414 46.6298 68.0765C45.7953 66.9117 43.0831 64.7762 41.6227 55.2633L39.3277 27.8895C39.3277 27.8895 38.9104 27.1129 39.745 27.1129H40.3709L39.2943 23.8125H26.6011L25.7665 26.9187H26.6011C26.6011 26.9187 27.227 27.1129 26.8097 27.6953L24.7234 51.3805C24.7234 51.3805 24.0975 63.4172 19.9248 67.6883C15.7521 71.9594 15.1263 77.3953 15.1263 77.3953L14.709 80.8898V89.8067L19.0903 89.8203L18.9985 83.7049C18.9985 83.7049 18.8816 82.6371 20.1334 82.6371C21.3852 82.6371 21.21 83.6641 21.21 83.6641L21.1557 89.8203H51.637V80.7597C51.637 80.7597 50.5939 74.4832 48.9248 71.7652ZM29.0087 53.9276C28.9649 54.4071 28.508 54.7643 27.9927 54.7236C27.4773 54.6828 27.0934 54.2576 27.1373 53.7781L29.3008 30.1881C29.3446 29.7085 29.8015 29.3513 30.3168 29.3921C30.8321 29.4329 31.216 29.858 31.1722 30.3376L29.0087 53.9276Z" fill="#FFF7EA"/>
<path d="M90.3879 100.008H58.4671C55.9906 100.008 53.9814 101.877 53.9814 104.182V109.618C53.9814 111.922 55.9906 113.792 58.4671 113.792H90.3879C92.8644 113.792 94.8735 111.922 94.8735 109.618V104.182C94.8735 101.877 92.8644 100.008 90.3879 100.008ZM92.9875 108.356C92.9875 110.42 91.1891 112.093 88.9713 112.093H60.2843C58.0665 112.093 56.2681 110.42 56.2681 108.356V105.347C56.2681 103.283 58.0665 101.609 60.2843 101.609H88.9713C91.1891 101.609 92.9875 103.283 92.9875 105.347V108.356Z" fill="white" stroke="#16312B" stroke-miterlimit="10"/>
<path d="M88.9718 101.609H60.2847C58.0667 101.609 56.2686 103.283 56.2686 105.347V108.356C56.2686 110.42 58.0667 112.093 60.2847 112.093H88.9718C91.1899 112.093 92.988 110.42 92.988 108.356V105.347C92.988 103.283 91.1899 101.609 88.9718 101.609Z" fill="#16312B"/>
<path d="M78.2204 19.6172H67.3298C66.0738 19.6172 65.0557 20.5646 65.0557 21.7333V22.5487C65.0557 23.7174 66.0738 24.6648 67.3298 24.6648H78.2204C79.4764 24.6648 80.4945 23.7174 80.4945 22.5487V21.7333C80.4945 20.5646 79.4764 19.6172 78.2204 19.6172Z" fill="#FFF7EA"/>
<path d="M88.8398 71.8433C87.1708 69.1254 87.3794 69.3195 86.5449 68.1547C85.7104 66.9898 82.9981 64.8543 81.5377 55.3414L79.2427 27.9676C79.2427 27.9676 78.8255 27.191 79.66 27.191H80.2859L79.2093 23.8906H66.5161L65.6816 26.9969H66.5161C66.5161 26.9969 67.142 27.191 66.7247 27.7734L64.6384 51.4586C64.6384 51.4586 64.0125 63.4953 59.8399 67.7664C55.6672 72.0375 55.0413 77.4734 55.0413 77.4734L54.624 80.9679V89.8848L59.0053 89.8984L58.9135 83.783C58.9135 83.783 58.7967 82.7152 60.0485 82.7152C61.3003 82.7152 61.125 83.7422 61.125 83.7422L61.0708 89.8984H91.5521V80.8379C91.5521 80.8379 90.5089 74.5613 88.8398 71.8433ZM68.9237 54.0076C68.8799 54.4872 68.423 54.8444 67.9077 54.8036C67.3924 54.7629 67.0085 54.3377 67.0523 53.8582L69.2158 30.2681C69.2596 29.7886 69.7165 29.4314 70.2319 29.4722C70.7472 29.5129 71.1311 29.9381 71.0873 30.4176L68.9237 54.0076Z" fill="#FFF7EA"/>
<path d="M118.487 19.6172H107.596C106.34 19.6172 105.322 20.5646 105.322 21.7333V22.5487C105.322 23.7174 106.34 24.6648 107.596 24.6648H118.487C119.743 24.6648 120.761 23.7174 120.761 22.5487V21.7333C120.761 20.5646 119.743 19.6172 118.487 19.6172Z" fill="#FFF7EA"/>
<path d="M129.106 71.8433C127.437 69.1254 127.646 69.3195 126.811 68.1547C125.977 66.9898 123.265 64.8543 121.804 55.3414L119.509 27.9676C119.509 27.9676 119.092 27.191 119.927 27.191H120.552L119.476 23.8906H106.783L105.948 26.9969H106.783C106.783 26.9969 107.409 27.191 106.991 27.7734L104.905 51.4586C104.905 51.4586 104.279 63.4953 100.106 67.7664C95.9338 72.0375 95.3079 77.4734 95.3079 77.4734L94.8906 80.9679V89.8848L99.2719 89.8984L99.1801 83.783C99.1801 83.783 99.0633 82.7152 100.315 82.7152C101.567 82.7152 101.392 83.7422 101.392 83.7422L101.337 89.8984H131.819V80.8379C131.819 80.8379 130.776 74.5613 129.106 71.8433ZM109.19 54.0076C109.147 54.4872 108.69 54.8444 108.174 54.8036C107.659 54.7629 107.275 54.3377 107.319 53.8582L109.482 30.2681C109.526 29.7886 109.983 29.4314 110.498 29.4722C111.014 29.5129 111.398 29.9381 111.354 30.4176L109.19 54.0076Z" fill="#FFF7EA"/>
<path d="M61.7583 142.245L59.2383 140.789L60.3583 138.815C59.3129 137.891 58.4683 136.757 57.8243 135.413C57.1803 134.069 56.8583 132.618 56.8583 131.059C56.8583 129.659 57.1103 128.348 57.6143 127.125C58.1183 125.893 58.8136 124.811 59.7003 123.877C60.5869 122.944 61.6136 122.216 62.7803 121.693C63.9469 121.161 65.1929 120.895 66.5183 120.895C67.1903 120.895 67.8343 120.965 68.4503 121.105C69.0756 121.245 69.6729 121.446 70.2423 121.707L71.3063 119.873L73.8263 121.329L72.6923 123.275C73.7563 124.199 74.6009 125.338 75.2263 126.691C75.8609 128.035 76.1783 129.491 76.1783 131.059C76.1783 132.459 75.9263 133.775 75.4223 135.007C74.9276 136.23 74.2369 137.308 73.3503 138.241C72.4636 139.175 71.4369 139.907 70.2703 140.439C69.1036 140.962 67.8529 141.223 66.5183 141.223C65.8649 141.223 65.2303 141.149 64.6143 140.999C63.9983 140.859 63.4009 140.659 62.8223 140.397L61.7583 142.245ZM61.8983 136.155L68.7583 124.297C68.4223 124.148 68.0629 124.031 67.6803 123.947C67.3069 123.854 66.9196 123.807 66.5183 123.807C65.5849 123.807 64.7123 123.999 63.9003 124.381C63.0883 124.764 62.3696 125.291 61.7443 125.963C61.1283 126.626 60.6429 127.396 60.2883 128.273C59.9429 129.141 59.7703 130.07 59.7703 131.059C59.7703 132.067 59.9616 133.015 60.3443 133.901C60.7363 134.779 61.2543 135.53 61.8983 136.155ZM66.5183 138.311C67.4516 138.311 68.3243 138.12 69.1363 137.737C69.9483 137.355 70.6623 136.832 71.2783 136.169C71.9036 135.497 72.3889 134.727 72.7343 133.859C73.0889 132.982 73.2663 132.049 73.2663 131.059C73.2663 130.051 73.0749 129.109 72.6923 128.231C72.3189 127.345 71.8103 126.584 71.1663 125.949L64.3063 137.807C64.6423 137.966 64.9969 138.092 65.3703 138.185C65.7529 138.269 66.1356 138.311 66.5183 138.311ZM78.8284 140.859V121.259H81.7404V137.947H90.1824V140.859H78.8284Z" fill="black"/>
</g>
</g>
<defs>
<clipPath id="clip0_131_3037">
<rect width="145" height="144.052" fill="white" transform="translate(0.481445 0.65625)"/>
</clipPath>
<clipPath id="clip1_131_3037">
<rect width="145" height="144.052" fill="white" transform="translate(0 1)"/>
</clipPath>
</defs>
</svg>
