<svg width="801" height="523" viewBox="0 0 801 523" fill="none" xmlns="http://www.w3.org/2000/svg">
<g clip-path="url(#clip0_1968_8218)">
<path d="M63.3135 387.445L56.5562 383.986C56.5562 383.986 62.1029 372.041 65.2059 367.091C68.3088 362.141 74.7731 355.29 83.0181 350.625C86.3225 348.756 91.7629 347.427 91.8837 346.635C91.8837 346.635 95.9155 341.96 98.4085 338.889C113.246 320.613 131.146 288.274 131.146 288.274C130.256 286.681 128.884 283.363 130.519 282.835C132.562 282.176 136.303 281.532 135.99 278.813C135.676 276.094 134.671 274.726 135.017 274.051C135.293 273.51 137.626 273.397 138.757 273.407L162.408 285.516C163.639 286.999 164.742 289.952 159.311 289.901C152.521 289.836 160.3 292.966 158.57 296.344C157.186 299.047 155.489 299.031 154.813 298.685L130.465 359.566C129.867 362.956 129.126 371.844 130.947 380.281C132.767 388.719 130.675 396.915 129.401 399.959L66.6922 389.175C63.337 396.839 56.0796 412.569 53.8913 414.177C51.703 415.786 50.727 413.695 50.5126 412.448L63.3135 387.445Z" fill="#316D5F"/>
<path d="M63.3135 387.445L56.5562 383.986C56.5562 383.986 62.1029 372.041 65.2059 367.091C68.3088 362.141 74.7731 355.29 83.0181 350.625C86.3225 348.756 91.7629 347.427 91.8837 346.635C91.8837 346.635 95.9155 341.96 98.4085 338.889C113.246 320.613 131.146 288.274 131.146 288.274C130.256 286.681 128.884 283.363 130.519 282.835C132.562 282.176 136.303 281.532 135.99 278.813C135.676 276.094 134.671 274.726 135.017 274.051C135.293 273.51 137.626 273.397 138.757 273.407L162.408 285.516C163.639 286.999 164.742 289.952 159.311 289.901C152.521 289.836 160.3 292.966 158.57 296.344C157.186 299.047 155.489 299.031 154.813 298.685L130.465 359.566C129.867 362.956 129.126 371.844 130.947 380.281C132.767 388.719 130.675 396.915 129.401 399.959L66.6922 389.175M63.3135 387.445L50.5126 412.448C50.727 413.695 51.703 415.786 53.8913 414.177C56.0796 412.569 63.337 396.839 66.6922 389.175M63.3135 387.445C64.2469 384.512 66.6608 378.242 68.8491 376.634C71.0373 375.025 72.0133 377.117 72.2277 378.363L66.6922 389.175" stroke="#316D5F"/>
<path d="M114.622 412.009L121.38 415.469C121.38 415.469 127.828 403.986 130.03 398.575C132.231 393.164 134.011 383.913 132.976 374.497C132.561 370.723 130.458 365.532 131.029 364.972C131.029 364.972 132.466 358.967 133.5 355.15C139.653 332.427 148.114 295.255 148.114 295.255C146.791 297.838 133.711 286.614 133.139 285.911L133.143 285.884C133.113 285.869 133.112 285.879 133.139 285.911L116.779 399.468C117.916 398.913 120.184 398.482 120.158 401.198C120.132 403.914 116.457 409.537 114.622 412.009Z" fill="#316D5F"/>
<path d="M121.38 415.469L114.622 412.009C116.457 409.537 120.132 403.914 120.158 401.198C120.184 398.482 117.916 398.913 116.779 399.468L133.143 285.884C132.467 285.538 146.73 297.958 148.114 295.255C148.114 295.255 139.653 332.427 133.5 355.15C132.466 358.967 131.029 364.972 131.029 364.972C130.458 365.532 132.561 370.723 132.976 374.497C134.011 383.913 132.231 393.164 130.03 398.575C127.828 403.986 121.38 415.469 121.38 415.469Z" stroke="#316D5F"/>
<path d="M67.1802 389.884L129.938 400.572L72.6927 512.381C70.6791 516.313 65.8587 517.869 61.9259 515.856L14.988 491.824L67.1802 389.884Z" fill="#316D5F"/>
<path d="M110.073 412.066L59.4147 376.748L7.72467 478.641C5.73106 482.57 7.29086 487.372 11.2133 489.381L58.1776 513.426L110.073 412.066Z" fill="#316D5F"/>
<rect x="69.8516" y="378.004" width="3.03661" height="94.135" rx="1.51831" transform="rotate(27.1121 69.8516 378.004)" fill="#FFFBF5"/>
<rect x="134.219" y="291.555" width="3.03661" height="48.6017" rx="1.51831" transform="rotate(32.1121 134.219 291.555)" fill="#FFFBF5"/>
<path d="M77.2419 391.473L76.5517 390.412L77.7303 389.65C77.3387 388.782 77.1438 387.84 77.1454 386.823C77.1524 385.809 77.3966 384.831 77.8778 383.891C78.288 383.09 78.8164 382.414 79.463 381.862C80.1123 381.305 80.8274 380.889 81.6082 380.614C82.389 380.34 83.1898 380.224 84.0105 380.267C84.8339 380.304 85.6248 380.517 86.3832 380.906C86.8158 381.127 87.2037 381.39 87.547 381.693C87.8956 382 88.201 382.338 88.4631 382.708L89.585 381.979L90.2752 383.04L89.1008 383.793C89.5004 384.659 89.694 385.597 89.6817 386.608C89.6693 387.62 89.4198 388.601 88.9331 389.552C88.5229 390.353 87.9932 391.032 87.3438 391.589C86.7026 392.144 85.9915 392.558 85.2107 392.833C84.4299 393.107 83.6278 393.226 82.8043 393.188C81.9836 393.145 81.1914 392.929 80.4277 392.538C80.0058 392.322 79.6246 392.059 79.284 391.75C78.9408 391.446 78.634 391.11 78.3639 390.743L77.2419 391.473ZM78.8401 388.924L87.3857 383.411C87.1925 383.13 86.9615 382.87 86.6928 382.631C86.4294 382.395 86.1348 382.194 85.809 382.027C85.1948 381.713 84.5564 381.544 83.8938 381.522C83.2393 381.497 82.5984 381.597 81.971 381.821C81.349 382.049 80.7782 382.387 80.2587 382.835C79.7445 383.287 79.3248 383.83 78.9994 384.466C78.6248 385.197 78.4283 385.956 78.4101 386.742C78.3999 387.526 78.5433 388.253 78.8401 388.924ZM81.0019 391.416C81.6161 391.73 82.2504 391.9 82.905 391.925C83.5675 391.948 84.2099 391.845 84.8319 391.618C85.4593 391.393 86.03 391.055 86.5442 390.604C87.0637 390.155 87.4861 389.613 87.8115 388.977C88.1861 388.246 88.3812 387.49 88.3967 386.709C88.4203 385.925 88.2864 385.193 87.995 384.511L79.4412 390.041C79.6344 390.322 79.8627 390.58 80.1261 390.816C80.3949 391.055 80.6868 391.255 81.0019 391.416ZM87.688 395.992L93.4302 384.776L94.5517 385.351L89.3837 395.445L94.5348 398.082L93.9606 399.203L87.688 395.992Z" fill="#FFFBF5"/>
</g>
<g clip-path="url(#clip1_1968_8218)">
<path d="M690.784 152.434L684.616 156.859C684.616 156.859 676.534 146.461 673.552 141.437C670.571 136.413 667.437 127.53 667.062 118.064C666.912 114.271 668.22 108.825 667.572 108.356C667.572 108.356 665.259 102.631 663.67 99.0091C654.209 77.4531 633.646 46.7383 633.646 46.7383C631.822 46.8009 628.245 46.5023 628.524 44.8073C628.872 42.6886 630.012 39.068 627.451 38.1025C624.89 37.137 623.213 37.4052 622.771 36.7883C622.417 36.2949 623.383 34.169 623.911 33.1678L645.5 17.6799C647.382 17.2642 650.513 17.6343 647.981 22.4403C644.816 28.4478 651.159 22.9633 653.372 26.0475C655.142 28.5149 654.351 30.0168 653.734 30.4593L696.724 79.9678C699.464 82.0508 707.028 86.7773 715.364 89.0194C723.699 91.2616 730.029 96.8731 732.152 99.3986L693.868 150.221C699.147 156.712 709.812 170.363 710.241 173.045C710.67 175.727 708.364 175.637 707.157 175.257L690.784 152.434Z" fill="#316D5F"/>
<path d="M690.784 152.434L684.616 156.859C684.616 156.859 676.534 146.461 673.552 141.437C670.571 136.413 667.437 127.53 667.062 118.064C666.912 114.271 668.22 108.825 667.572 108.356C667.572 108.356 665.259 102.631 663.67 99.0091C654.209 77.4531 633.646 46.7383 633.646 46.7383C631.822 46.8009 628.245 46.5023 628.524 44.8073C628.872 42.6886 630.012 39.068 627.451 38.1025C624.89 37.137 623.213 37.4052 622.771 36.7883C622.417 36.2949 623.383 34.169 623.911 33.1678L645.5 17.6799C647.382 17.2642 650.513 17.6343 647.981 22.4403C644.816 28.4478 651.159 22.9633 653.372 26.0475C655.142 28.5149 654.351 30.0168 653.734 30.4593L696.724 79.9678C699.464 82.0508 707.028 86.7773 715.364 89.0194C723.699 91.2616 730.029 96.8731 732.152 99.3986L693.868 150.221M690.784 152.434L707.157 175.257C708.364 175.637 710.67 175.727 710.241 173.045C709.812 170.363 699.147 156.712 693.868 150.221M690.784 152.434C688.603 150.262 684.133 145.246 683.704 142.564C683.275 139.882 685.581 139.972 686.788 140.352L693.868 150.221" stroke="#316D5F"/>
<path d="M736.106 118.053L742.275 113.628C742.275 113.628 735.015 102.64 731.211 98.2062C727.408 93.7721 719.997 87.9567 711.151 84.5685C707.605 83.2106 702.028 82.7045 701.791 81.9402C701.791 81.9402 697.109 77.9152 694.188 75.2487C676.8 59.3793 647.62 34.8465 647.62 34.8465C649.311 37.2041 633.345 43.6984 632.459 43.8857L632.437 43.8698C632.409 43.8895 632.418 43.8945 632.459 43.8857L725.942 110.396C725.969 109.131 726.623 106.918 729.026 108.184C731.429 109.45 734.747 115.291 736.106 118.053Z" fill="#316D5F"/>
<path d="M742.275 113.628L736.106 118.053C734.747 115.291 731.429 109.45 729.026 108.184C726.623 106.918 725.969 109.131 725.942 110.396L632.437 43.8698C631.82 44.3123 649.39 37.3139 647.62 34.8465C647.62 34.8465 676.8 59.3793 694.188 75.2487C697.109 77.9151 701.791 81.9402 701.791 81.9402C702.028 82.7045 707.605 83.2106 711.151 84.5685C719.997 87.9567 727.408 93.7721 731.211 98.2062C735.015 102.64 742.275 113.628 742.275 113.628Z" stroke="#316D5F"/>
<path d="M694.724 150.111L732.945 99.2007L806.164 201.265C808.739 204.855 807.917 209.853 804.327 212.428L761.48 243.166L694.724 150.111Z" fill="#316D5F"/>
<path d="M734.075 122.125L679.489 151.006L746.434 243.594C749.016 247.165 753.999 247.975 757.58 245.407L800.451 214.652L734.075 122.125Z" fill="#316D5F"/>
<rect x="685.383" y="142.301" width="3.03661" height="94.135" rx="1.51831" transform="rotate(-35.6549 685.383 142.301)" fill="#FFFBF5"/>
<rect x="637.969" y="45.5078" width="3.03661" height="48.6017" rx="1.51831" transform="rotate(-30.6549 637.969 45.5078)" fill="#FFFBF5"/>
<path d="M700.741 141.891L699.481 142.019L699.344 140.623C698.393 140.574 697.466 140.316 696.562 139.849C695.663 139.379 694.906 138.715 694.291 137.857C693.766 137.125 693.406 136.346 693.212 135.518C693.013 134.686 692.971 133.86 693.084 133.04C693.197 132.22 693.461 131.455 693.875 130.745C694.285 130.03 694.836 129.424 695.528 128.928C695.923 128.644 696.334 128.42 696.761 128.253C697.193 128.084 697.634 127.967 698.083 127.903L697.947 126.572L699.207 126.444L699.339 127.833C700.291 127.873 701.214 128.131 702.108 128.604C703.002 129.078 703.76 129.749 704.383 130.617C704.907 131.348 705.269 132.13 705.467 132.962C705.667 133.786 705.71 134.608 705.597 135.428C705.483 136.248 705.222 137.015 704.811 137.73C704.398 138.441 703.843 139.046 703.145 139.546C702.76 139.822 702.352 140.041 701.922 140.202C701.494 140.368 701.056 140.488 700.605 140.56L700.741 141.891ZM699.206 139.304L698.214 129.183C697.876 129.226 697.539 129.312 697.204 129.442C696.874 129.568 696.56 129.738 696.262 129.951C695.702 130.354 695.26 130.844 694.937 131.423C694.615 131.994 694.411 132.609 694.323 133.27C694.241 133.927 694.28 134.589 694.441 135.256C694.607 135.92 694.898 136.542 695.315 137.122C695.794 137.79 696.379 138.312 697.069 138.688C697.761 139.055 698.473 139.261 699.206 139.304ZM702.411 138.522C702.972 138.12 703.413 137.634 703.735 137.063C704.058 136.484 704.26 135.866 704.343 135.209C704.43 134.548 704.391 133.886 704.225 133.222C704.064 132.555 703.775 131.932 703.359 131.351C702.88 130.683 702.297 130.164 701.609 129.793C700.924 129.414 700.211 129.197 699.472 129.144L700.474 139.28C700.812 139.237 701.146 139.152 701.477 139.026C701.812 138.896 702.123 138.728 702.411 138.522ZM709.539 134.671L702.195 124.433L703.218 123.699L709.829 132.913L714.531 129.54L715.265 130.563L709.539 134.671Z" fill="#FFFBF5"/>
</g>
<g clip-path="url(#clip2_1968_8218)">
<path d="M348.784 225.434L342.616 229.859C342.616 229.859 334.534 219.461 331.552 214.437C328.571 209.413 325.437 200.53 325.062 191.064C324.912 187.271 326.22 181.825 325.572 181.356C325.572 181.356 323.259 175.631 321.67 172.009C312.209 150.453 291.646 119.738 291.646 119.738C289.822 119.801 286.245 119.502 286.524 117.807C286.872 115.689 288.012 112.068 285.451 111.103C282.89 110.137 281.213 110.405 280.771 109.788C280.417 109.295 281.383 107.169 281.911 106.168L303.5 90.6799C305.382 90.2642 308.513 90.6343 305.981 95.4403C302.816 101.448 309.159 95.9633 311.372 99.0475C313.142 101.515 312.351 103.017 311.734 103.459L354.724 152.968C357.464 155.051 365.028 159.777 373.364 162.019C381.699 164.262 388.029 169.873 390.152 172.399L351.868 223.221C357.147 229.712 367.812 243.363 368.241 246.045C368.67 248.727 366.364 248.637 365.157 248.257L348.784 225.434Z" fill="#316D5F"/>
<path d="M348.784 225.434L342.616 229.859C342.616 229.859 334.534 219.461 331.552 214.437C328.571 209.413 325.437 200.53 325.062 191.064C324.912 187.271 326.22 181.825 325.572 181.356C325.572 181.356 323.259 175.631 321.67 172.009C312.209 150.453 291.646 119.738 291.646 119.738C289.822 119.801 286.245 119.502 286.524 117.807C286.872 115.689 288.012 112.068 285.451 111.103C282.89 110.137 281.213 110.405 280.771 109.788C280.417 109.295 281.383 107.169 281.911 106.168L303.5 90.6799C305.382 90.2642 308.513 90.6343 305.981 95.4403C302.816 101.448 309.159 95.9633 311.372 99.0475C313.142 101.515 312.351 103.017 311.734 103.459L354.724 152.968C357.464 155.051 365.028 159.777 373.364 162.019C381.699 164.262 388.029 169.873 390.152 172.399L351.868 223.221M348.784 225.434L365.157 248.257C366.364 248.637 368.67 248.727 368.241 246.045C367.812 243.363 357.147 229.712 351.868 223.221M348.784 225.434C346.603 223.262 342.133 218.246 341.704 215.564C341.275 212.882 343.581 212.972 344.788 213.352L351.868 223.221" stroke="#316D5F"/>
<path d="M394.106 191.053L400.275 186.628C400.275 186.628 393.015 175.64 389.211 171.206C385.408 166.772 377.997 160.957 369.151 157.569C365.605 156.211 360.028 155.705 359.791 154.94C359.791 154.94 355.109 150.915 352.188 148.249C334.8 132.379 305.62 107.846 305.62 107.846C307.311 110.204 291.345 116.698 290.459 116.886L290.437 116.87C290.409 116.889 290.418 116.894 290.459 116.886L383.942 183.396C383.969 182.131 384.623 179.918 387.026 181.184C389.429 182.45 392.747 188.291 394.106 191.053Z" fill="#316D5F"/>
<path d="M400.275 186.628L394.106 191.053C392.747 188.291 389.429 182.45 387.026 181.184C384.623 179.918 383.969 182.131 383.942 183.396L290.437 116.87C289.82 117.312 307.39 110.314 305.62 107.846C305.62 107.846 334.8 132.379 352.188 148.249C355.109 150.915 359.791 154.94 359.791 154.94C360.028 155.705 365.605 156.211 369.151 157.569C377.997 160.957 385.408 166.772 389.211 171.206C393.015 175.64 400.275 186.628 400.275 186.628Z" stroke="#316D5F"/>
<path d="M352.724 223.111L390.945 172.201L464.164 274.265C466.739 277.855 465.917 282.853 462.327 285.428L419.48 316.166L352.724 223.111Z" fill="#316D5F"/>
<path d="M392.075 195.125L337.489 224.006L404.434 316.594C407.016 320.165 411.999 320.975 415.58 318.407L458.451 287.652L392.075 195.125Z" fill="#316D5F"/>
<rect x="343.383" y="215.301" width="3.03661" height="94.135" rx="1.51831" transform="rotate(-35.6549 343.383 215.301)" fill="#FFFBF5"/>
<rect x="295.969" y="118.508" width="3.03661" height="48.6017" rx="1.51831" transform="rotate(-30.6549 295.969 118.508)" fill="#FFFBF5"/>
<path d="M358.741 214.891L357.481 215.019L357.344 213.623C356.393 213.574 355.466 213.316 354.562 212.849C353.663 212.379 352.906 211.715 352.291 210.857C351.766 210.125 351.406 209.346 351.212 208.518C351.013 207.686 350.971 206.86 351.084 206.04C351.197 205.22 351.461 204.455 351.875 203.745C352.285 203.03 352.836 202.424 353.528 201.928C353.923 201.644 354.334 201.42 354.761 201.253C355.193 201.084 355.634 200.967 356.083 200.903L355.947 199.572L357.207 199.444L357.339 200.833C358.291 200.873 359.214 201.131 360.108 201.604C361.002 202.078 361.76 202.749 362.383 203.617C362.907 204.348 363.269 205.13 363.467 205.962C363.667 206.786 363.71 207.608 363.597 208.428C363.483 209.248 363.222 210.015 362.811 210.73C362.398 211.441 361.843 212.046 361.145 212.546C360.76 212.822 360.352 213.041 359.922 213.202C359.494 213.368 359.056 213.488 358.605 213.56L358.741 214.891ZM357.206 212.304L356.214 202.183C355.876 202.226 355.539 202.312 355.204 202.442C354.874 202.568 354.56 202.738 354.262 202.951C353.702 203.354 353.26 203.844 352.937 204.423C352.615 204.994 352.411 205.609 352.323 206.27C352.241 206.927 352.28 207.589 352.441 208.256C352.607 208.92 352.898 209.542 353.315 210.122C353.794 210.79 354.379 211.312 355.069 211.688C355.761 212.055 356.473 212.261 357.206 212.304ZM360.411 211.522C360.972 211.12 361.413 210.634 361.735 210.063C362.058 209.484 362.26 208.866 362.343 208.209C362.43 207.548 362.391 206.886 362.225 206.222C362.064 205.555 361.775 204.932 361.359 204.351C360.88 203.683 360.297 203.164 359.609 202.793C358.924 202.414 358.211 202.197 357.472 202.144L358.474 212.28C358.812 212.237 359.146 212.152 359.477 212.026C359.812 211.896 360.123 211.728 360.411 211.522ZM367.539 207.671L360.195 197.433L361.218 196.699L367.829 205.913L372.531 202.54L373.265 203.563L367.539 207.671Z" fill="#FFFBF5"/>
</g>
<g clip-path="url(#clip3_1968_8218)">
<path d="M493.746 303.799L486.348 302.097C486.348 302.097 488.805 289.159 490.603 283.6C492.402 278.042 496.994 269.817 503.848 263.278C506.595 260.657 511.545 258.038 511.469 257.242C511.469 257.242 514.235 251.722 515.901 248.135C525.818 226.785 535.267 191.05 535.267 191.05C534.014 189.723 531.873 186.842 533.329 185.93C535.149 184.791 538.619 183.253 537.65 180.693C536.681 178.133 535.371 177.053 535.542 176.313C535.678 175.721 537.912 175.04 539.012 174.774L564.905 180.732C566.461 181.869 568.254 184.462 562.974 185.74C556.375 187.338 564.683 188.47 563.832 192.17C563.151 195.129 561.501 195.528 560.761 195.358L552.041 260.345C552.29 263.777 553.745 272.577 557.574 280.313C561.402 288.049 561.378 296.509 560.887 299.771L497.445 304.65C496.066 312.902 492.875 329.929 491.147 332.024C489.419 334.119 487.961 332.329 487.448 331.173L493.746 303.799Z" fill="#316D5F"/>
<path d="M493.746 303.799L486.348 302.097C486.348 302.097 488.805 289.159 490.603 283.6C492.402 278.042 496.994 269.817 503.848 263.278C506.595 260.657 511.545 258.038 511.469 257.242C511.469 257.242 514.235 251.722 515.901 248.135C525.818 226.785 535.267 191.05 535.267 191.05C534.014 189.723 531.873 186.842 533.329 185.93C535.149 184.791 538.619 183.253 537.65 180.693C536.681 178.133 535.371 177.053 535.542 176.313C535.678 175.721 537.912 175.04 539.012 174.774L564.905 180.732C566.461 181.869 568.254 184.462 562.974 185.74C556.375 187.338 564.683 188.47 563.832 192.17C563.151 195.129 561.501 195.528 560.761 195.358L552.041 260.345C552.29 263.777 553.745 272.577 557.574 280.313C561.402 288.049 561.378 296.509 560.887 299.771L497.445 304.65M493.746 303.799L487.448 331.173C487.961 332.329 489.419 334.119 491.147 332.024C492.875 329.929 496.066 312.902 497.445 304.65M493.746 303.799C493.934 300.726 494.741 294.057 496.469 291.962C498.198 289.867 499.656 291.656 500.169 292.813L497.445 304.65" stroke="#316D5F"/>
<path d="M549.505 315.072L556.903 316.774C556.903 316.774 560.347 304.063 561.159 298.277C561.971 292.492 561.434 283.087 558.128 274.21C556.802 270.652 553.494 266.133 553.911 265.45C553.911 265.45 553.836 259.277 553.905 255.322C554.315 231.785 553.428 193.672 553.428 193.672C552.777 196.5 537.349 188.815 536.622 188.274L536.62 188.247C536.587 188.239 536.589 188.249 536.622 188.274L548.53 302.383C549.496 301.567 551.59 300.595 552.229 303.235C552.868 305.874 550.679 312.226 549.505 315.072Z" fill="#316D5F"/>
<path d="M556.903 316.774L549.505 315.072C550.679 312.226 552.868 305.874 552.229 303.235C551.59 300.595 549.496 301.567 548.53 302.383L536.62 188.247C535.88 188.077 552.747 196.631 553.428 193.672C553.428 193.672 554.315 231.785 553.905 255.322C553.836 259.277 553.911 265.45 553.911 265.45C553.494 266.133 556.802 270.652 558.128 274.21C561.434 283.087 561.971 292.492 561.159 298.277C560.347 304.063 556.903 316.774 556.903 316.774Z" stroke="#316D5F"/>
<path d="M498.091 305.218L561.557 300.235L533.392 422.647C532.402 426.953 528.108 429.64 523.802 428.65L472.413 416.826L498.091 305.218Z" fill="#316D5F"/>
<path d="M545.108 316.24L487.351 294.382L462.148 405.822C461.176 410.12 463.862 414.395 468.157 415.383L519.575 427.213L545.108 316.24Z" fill="#316D5F"/>
<rect x="497.777" y="293.047" width="3.03661" height="94.135" rx="1.51831" transform="rotate(12.957 497.777 293.047)" fill="#FFFBF5"/>
<rect x="539.047" y="193.48" width="3.03661" height="48.6017" rx="1.51831" transform="rotate(17.957 539.047 193.48)" fill="#FFFBF5"/>
<path d="M508.235 304.299L507.306 303.439L508.263 302.412C507.671 301.666 507.252 300.8 507.005 299.814C506.763 298.828 506.761 297.821 506.998 296.792C507.2 295.915 507.547 295.13 508.039 294.436C508.532 293.737 509.124 293.159 509.814 292.702C510.504 292.245 511.252 291.937 512.058 291.778C512.866 291.613 513.684 291.626 514.515 291.817C514.988 291.926 515.429 292.086 515.836 292.296C516.249 292.508 516.628 292.762 516.972 293.057L517.882 292.074L518.811 292.935L517.856 293.952C518.455 294.694 518.872 295.556 519.108 296.54C519.343 297.524 519.341 298.536 519.102 299.577C518.9 300.454 518.552 301.242 518.059 301.941C517.573 302.636 516.985 303.212 516.295 303.669C515.605 304.126 514.856 304.437 514.048 304.602C513.242 304.761 512.421 304.745 511.585 304.552C511.123 304.446 510.689 304.284 510.283 304.068C509.876 303.857 509.496 303.607 509.145 303.317L508.235 304.299ZM509.162 301.437L516.099 294.001C515.843 293.776 515.556 293.58 515.237 293.415C514.924 293.25 514.589 293.127 514.232 293.045C513.56 292.89 512.9 292.883 512.252 293.023C511.611 293.159 511.014 293.413 510.46 293.784C509.913 294.157 509.442 294.624 509.048 295.186C508.66 295.749 508.386 296.379 508.226 297.075C508.041 297.876 508.037 298.66 508.211 299.426C508.393 300.188 508.71 300.858 509.162 301.437ZM511.867 303.324C512.54 303.479 513.196 303.488 513.837 303.353C514.485 303.212 515.083 302.956 515.63 302.583C516.184 302.212 516.654 301.744 517.042 301.181C517.437 300.619 517.714 299.99 517.874 299.294C518.058 298.493 518.062 297.712 517.886 296.952C517.718 296.186 517.409 295.509 516.959 294.919L510.018 302.372C510.274 302.597 510.558 302.792 510.871 302.957C511.19 303.122 511.522 303.245 511.867 303.324ZM519.469 306.126L522.294 293.847L523.522 294.129L520.98 305.181L526.619 306.478L526.337 307.706L519.469 306.126Z" fill="#FFFBF5"/>
</g>
<defs>
<clipPath id="clip0_1968_8218">
<rect width="78.7276" height="255.641" fill="white" transform="translate(116.961 258.859) rotate(27.1121)"/>
</clipPath>
<clipPath id="clip1_1968_8218">
<rect width="78.7276" height="255.641" fill="white" transform="translate(601 45.8906) rotate(-35.6549)"/>
</clipPath>
<clipPath id="clip2_1968_8218">
<rect width="78.7276" height="255.641" fill="white" transform="translate(259 118.891) rotate(-35.6549)"/>
</clipPath>
<clipPath id="clip3_1968_8218">
<rect width="78.7276" height="255.641" fill="white" transform="translate(514.32 166) rotate(12.957)"/>
</clipPath>
</defs>
</svg>
