<svg width="131" height="21" viewBox="0 0 131 21" fill="none" xmlns="http://www.w3.org/2000/svg">
<path d="M62.0008 2.00162C62.2919 2.00159 62.5794 2.06506 62.8433 2.18761C63.1073 2.31016 63.3413 2.48884 63.5291 2.71118C63.7168 2.93351 63.8538 3.19415 63.9305 3.47489C64.0071 3.75563 64.0216 4.04972 63.9728 4.33662L65.9458 4.66662C66.0219 4.216 66.0202 3.75567 65.9408 3.30562C66.3193 3.06864 66.7661 2.96511 67.2102 3.01152C67.6543 3.05793 68.0701 3.25161 68.3913 3.56171C68.7126 3.87181 68.9208 4.28049 68.9829 4.72266C69.045 5.16483 68.9573 5.61506 68.7338 6.00162H58.0008C57.8456 6.00146 57.6926 5.96516 57.5538 5.89561C57.4151 5.82605 57.2944 5.72515 57.2014 5.6009C57.1084 5.47664 57.0455 5.33244 57.0179 5.17971C56.9903 5.02697 56.9986 4.8699 57.0421 4.72093C57.0857 4.57195 57.1633 4.43516 57.2689 4.32139C57.3745 4.20762 57.5051 4.11999 57.6504 4.06543C57.7957 4.01088 57.9518 3.99089 58.1061 4.00707C58.2605 4.02325 58.409 4.07513 58.5398 4.15862C58.6745 4.2449 58.828 4.2976 58.9872 4.31231C59.1465 4.32702 59.307 4.3033 59.4552 4.24315C59.6034 4.183 59.7351 4.08818 59.8391 3.96663C59.943 3.84508 60.0164 3.70037 60.0528 3.54462C60.1559 3.10542 60.4045 2.71397 60.7581 2.43386C61.1117 2.15374 61.5497 2.00142 62.0008 2.00162ZM63.5168 0.298625C62.6131 -0.0716424 61.6052 -0.0984934 60.683 0.223134C59.7609 0.544762 58.9883 1.19264 58.5108 2.04462C57.8688 1.93369 57.2082 2.03476 56.6287 2.33256C56.0493 2.63036 55.5825 3.1087 55.299 3.69529C55.0154 4.28187 54.9306 4.9448 55.0572 5.58389C55.1838 6.22297 55.5151 6.80347 56.0008 7.23762V19.0016C56.0008 19.5321 56.2115 20.0408 56.5866 20.4158C56.9617 20.7909 57.4704 21.0016 58.0008 21.0016H68.0008C68.5313 21.0016 69.04 20.7909 69.415 20.4158C69.7901 20.0408 70.0008 19.5321 70.0008 19.0016H72.0008C72.5313 19.0016 73.04 18.7909 73.415 18.4158C73.7901 18.0408 74.0008 17.5321 74.0008 17.0016V10.0016C74.0008 9.47119 73.7901 8.96248 73.415 8.58741C73.04 8.21234 72.5313 8.00163 72.0008 8.00163H70.0008V7.64762C70.6225 6.94377 70.9767 6.04364 71.0014 5.10489C71.0261 4.16614 70.7197 3.24863 70.1359 2.51306C69.5522 1.77749 68.7282 1.27077 67.8084 1.08164C66.8885 0.892517 65.9315 1.03305 65.1048 1.47862C64.6827 0.958526 64.1366 0.552782 63.5168 0.298625ZM70.0008 17.0016V10.0016H72.0008V17.0016H70.0008ZM60.0008 10.0016H62.0008V17.0016H60.0008V10.0016ZM64.0008 10.0016H66.0008V17.0016H64.0008V10.0016Z" fill="#16312B"/>
<path d="M35.0008 2.00162C35.2919 2.00159 35.5794 2.06506 35.8433 2.18761C36.1073 2.31016 36.3413 2.48884 36.5291 2.71118C36.7168 2.93351 36.8538 3.19415 36.9305 3.47489C37.0071 3.75563 37.0216 4.04972 36.9728 4.33662L38.9458 4.66662C39.0219 4.216 39.0202 3.75567 38.9408 3.30562C39.3193 3.06864 39.7661 2.96511 40.2102 3.01152C40.6543 3.05793 41.0701 3.25161 41.3913 3.56171C41.7126 3.87181 41.9208 4.28049 41.9829 4.72266C42.045 5.16483 41.9573 5.61506 41.7338 6.00162H31.0008C30.8456 6.00146 30.6926 5.96516 30.5538 5.89561C30.4151 5.82605 30.2944 5.72515 30.2014 5.6009C30.1084 5.47664 30.0455 5.33244 30.0179 5.17971C29.9903 5.02697 29.9986 4.8699 30.0421 4.72093C30.0857 4.57195 30.1633 4.43516 30.2689 4.32139C30.3745 4.20762 30.5051 4.11999 30.6504 4.06543C30.7957 4.01088 30.9518 3.99089 31.1061 4.00707C31.2605 4.02325 31.409 4.07513 31.5398 4.15862C31.6745 4.2449 31.828 4.2976 31.9872 4.31231C32.1465 4.32702 32.307 4.3033 32.4552 4.24315C32.6034 4.183 32.7351 4.08818 32.8391 3.96663C32.943 3.84508 33.0164 3.70037 33.0528 3.54462C33.1559 3.10542 33.4045 2.71397 33.7581 2.43386C34.1117 2.15374 34.5497 2.00142 35.0008 2.00162ZM36.5168 0.298625C35.6131 -0.0716424 34.6052 -0.0984934 33.683 0.223134C32.7609 0.544762 31.9883 1.19264 31.5108 2.04462C30.8688 1.93369 30.2082 2.03476 29.6287 2.33256C29.0493 2.63036 28.5825 3.1087 28.299 3.69529C28.0154 4.28187 27.9306 4.9448 28.0572 5.58389C28.1838 6.22297 28.5151 6.80347 29.0008 7.23762V19.0016C29.0008 19.5321 29.2115 20.0408 29.5866 20.4158C29.9617 20.7909 30.4704 21.0016 31.0008 21.0016H41.0008C41.5313 21.0016 42.04 20.7909 42.415 20.4158C42.7901 20.0408 43.0008 19.5321 43.0008 19.0016H45.0008C45.5313 19.0016 46.04 18.7909 46.415 18.4158C46.7901 18.0408 47.0008 17.5321 47.0008 17.0016V10.0016C47.0008 9.47119 46.7901 8.96248 46.415 8.58741C46.04 8.21234 45.5313 8.00163 45.0008 8.00163H43.0008V7.64762C43.6225 6.94377 43.9767 6.04364 44.0014 5.10489C44.0261 4.16614 43.7197 3.24863 43.1359 2.51306C42.5522 1.77749 41.7282 1.27077 40.8084 1.08164C39.8885 0.892517 38.9315 1.03305 38.1048 1.47862C37.6827 0.958526 37.1366 0.552782 36.5168 0.298625ZM43.0008 17.0016V10.0016H45.0008V17.0016H43.0008ZM33.0008 10.0016H35.0008V17.0016H33.0008V10.0016ZM37.0008 10.0016H39.0008V17.0016H37.0008V10.0016Z" fill="#16312B"/>
<path d="M7.00083 2.00162C7.29185 2.00159 7.57937 2.06506 7.84332 2.18761C8.10728 2.31016 8.34131 2.48884 8.52908 2.71118C8.71685 2.93351 8.85384 3.19415 8.93048 3.47489C9.00713 3.75563 9.02158 4.04972 8.97283 4.33662L10.9458 4.66662C11.0219 4.216 11.0202 3.75567 10.9408 3.30562C11.3193 3.06864 11.7661 2.96511 12.2102 3.01152C12.6543 3.05793 13.0701 3.25161 13.3913 3.56171C13.7126 3.87181 13.9208 4.28049 13.9829 4.72266C14.045 5.16483 13.9573 5.61506 13.7338 6.00162H3.00083C2.84562 6.00146 2.69257 5.96516 2.55382 5.89561C2.41506 5.82605 2.29439 5.72515 2.20138 5.6009C2.10836 5.47664 2.04555 5.33244 2.01791 5.17971C1.99027 5.02697 1.99856 4.8699 2.04213 4.72093C2.08569 4.57195 2.16334 4.43516 2.26893 4.32139C2.37451 4.20762 2.50513 4.11999 2.65044 4.06543C2.79575 4.01088 2.95176 3.99089 3.10613 4.00707C3.2605 4.02325 3.40899 4.07513 3.53983 4.15862C3.67453 4.2449 3.82796 4.2976 3.98724 4.31231C4.14652 4.32702 4.30701 4.3033 4.45522 4.24315C4.60344 4.183 4.73507 4.08818 4.83905 3.96663C4.94304 3.84508 5.01635 3.70037 5.05283 3.54462C5.15592 3.10542 5.40447 2.71397 5.7581 2.43386C6.11174 2.15374 6.5497 2.00142 7.00083 2.00162ZM8.51683 0.298625C7.61312 -0.0716424 6.60517 -0.0984934 5.68302 0.223134C4.76087 0.544762 3.98825 1.19264 3.51083 2.04462C2.86884 1.93369 2.20818 2.03476 1.62872 2.33256C1.04926 2.63036 0.582487 3.1087 0.298966 3.69529C0.0154458 4.28187 -0.0694149 4.9448 0.0572113 5.58389C0.183838 6.22297 0.515067 6.80347 1.00083 7.23762V19.0016C1.00083 19.5321 1.21155 20.0408 1.58662 20.4158C1.96169 20.7909 2.4704 21.0016 3.00083 21.0016H13.0008C13.5313 21.0016 14.04 20.7909 14.415 20.4158C14.7901 20.0408 15.0008 19.5321 15.0008 19.0016H17.0008C17.5313 19.0016 18.04 18.7909 18.415 18.4158C18.7901 18.0408 19.0008 17.5321 19.0008 17.0016V10.0016C19.0008 9.47119 18.7901 8.96248 18.415 8.58741C18.04 8.21234 17.5313 8.00163 17.0008 8.00163H15.0008V7.64762C15.6225 6.94377 15.9767 6.04364 16.0014 5.10489C16.0261 4.16614 15.7197 3.24863 15.1359 2.51306C14.5522 1.77749 13.7282 1.27077 12.8084 1.08164C11.8885 0.892517 10.9315 1.03305 10.1048 1.47862C9.68266 0.958526 9.13662 0.552782 8.51683 0.298625ZM15.0008 17.0016V10.0016H17.0008V17.0016H15.0008ZM5.00083 10.0016H7.00083V17.0016H5.00083V10.0016ZM9.00083 10.0016H11.0008V17.0016H9.00083V10.0016Z" fill="#16312B"/>
<path d="M119.001 2.00162C119.292 2.00159 119.579 2.06506 119.843 2.18761C120.107 2.31016 120.341 2.48884 120.529 2.71118C120.717 2.93351 120.854 3.19415 120.93 3.47489C121.007 3.75563 121.022 4.04972 120.973 4.33662L122.946 4.66662C123.022 4.216 123.02 3.75567 122.941 3.30562C123.319 3.06864 123.766 2.96511 124.21 3.01152C124.654 3.05793 125.07 3.25161 125.391 3.56171C125.713 3.87181 125.921 4.28049 125.983 4.72266C126.045 5.16483 125.957 5.61506 125.734 6.00162H115.001C114.846 6.00146 114.693 5.96516 114.554 5.89561C114.415 5.82605 114.294 5.72515 114.201 5.6009C114.108 5.47664 114.046 5.33244 114.018 5.17971C113.99 5.02697 113.999 4.8699 114.042 4.72093C114.086 4.57195 114.163 4.43516 114.269 4.32139C114.375 4.20762 114.505 4.11999 114.65 4.06543C114.796 4.01088 114.952 3.99089 115.106 4.00707C115.261 4.02325 115.409 4.07513 115.54 4.15862C115.675 4.2449 115.828 4.2976 115.987 4.31231C116.147 4.32702 116.307 4.3033 116.455 4.24315C116.603 4.183 116.735 4.08818 116.839 3.96663C116.943 3.84508 117.016 3.70037 117.053 3.54462C117.156 3.10542 117.404 2.71397 117.758 2.43386C118.112 2.15374 118.55 2.00142 119.001 2.00162ZM120.517 0.298625C119.613 -0.0716424 118.605 -0.0984934 117.683 0.223134C116.761 0.544762 115.988 1.19264 115.511 2.04462C114.869 1.93369 114.208 2.03476 113.629 2.33256C113.049 2.63036 112.582 3.1087 112.299 3.69529C112.015 4.28187 111.931 4.9448 112.057 5.58389C112.184 6.22297 112.515 6.80347 113.001 7.23762V19.0016C113.001 19.5321 113.212 20.0408 113.587 20.4158C113.962 20.7909 114.47 21.0016 115.001 21.0016H125.001C125.531 21.0016 126.04 20.7909 126.415 20.4158C126.79 20.0408 127.001 19.5321 127.001 19.0016H129.001C129.531 19.0016 130.04 18.7909 130.415 18.4158C130.79 18.0408 131.001 17.5321 131.001 17.0016V10.0016C131.001 9.47119 130.79 8.96248 130.415 8.58741C130.04 8.21234 129.531 8.00163 129.001 8.00163H127.001V7.64762C127.622 6.94377 127.977 6.04364 128.001 5.10489C128.026 4.16614 127.72 3.24863 127.136 2.51306C126.552 1.77749 125.728 1.27077 124.808 1.08164C123.889 0.892517 122.931 1.03305 122.105 1.47862C121.683 0.958526 121.137 0.552782 120.517 0.298625ZM127.001 17.0016V10.0016H129.001V17.0016H127.001ZM117.001 10.0016H119.001V17.0016H117.001V10.0016ZM121.001 10.0016H123.001V17.0016H121.001V10.0016Z" fill="#9FAA9E"/>
<path d="M90.0008 2.00162C90.2919 2.00159 90.5794 2.06506 90.8433 2.18761C91.1073 2.31016 91.3413 2.48884 91.5291 2.71118C91.7168 2.93351 91.8538 3.19415 91.9305 3.47489C92.0071 3.75563 92.0216 4.04972 91.9728 4.33662L93.9458 4.66662C94.0219 4.216 94.0202 3.75567 93.9408 3.30562C94.3193 3.06864 94.7661 2.96511 95.2102 3.01152C95.6543 3.05793 96.0701 3.25161 96.3913 3.56171C96.7126 3.87181 96.9208 4.28049 96.9829 4.72266C97.045 5.16483 96.9573 5.61506 96.7338 6.00162H86.0008C85.8456 6.00146 85.6926 5.96516 85.5538 5.89561C85.4151 5.82605 85.2944 5.72515 85.2014 5.6009C85.1084 5.47664 85.0455 5.33244 85.0179 5.17971C84.9903 5.02697 84.9986 4.8699 85.0421 4.72093C85.0857 4.57195 85.1633 4.43516 85.2689 4.32139C85.3745 4.20762 85.5051 4.11999 85.6504 4.06543C85.7957 4.01088 85.9518 3.99089 86.1061 4.00707C86.2605 4.02325 86.409 4.07513 86.5398 4.15862C86.6745 4.2449 86.828 4.2976 86.9872 4.31231C87.1465 4.32702 87.307 4.3033 87.4552 4.24315C87.6034 4.183 87.7351 4.08818 87.8391 3.96663C87.943 3.84508 88.0164 3.70037 88.0528 3.54462C88.1559 3.10542 88.4045 2.71397 88.7581 2.43386C89.1117 2.15374 89.5497 2.00142 90.0008 2.00162ZM91.5168 0.298625C90.6131 -0.0716424 89.6052 -0.0984934 88.683 0.223134C87.7609 0.544762 86.9883 1.19264 86.5108 2.04462C85.8688 1.93369 85.2082 2.03476 84.6287 2.33256C84.0493 2.63036 83.5825 3.1087 83.299 3.69529C83.0154 4.28187 82.9306 4.9448 83.0572 5.58389C83.1838 6.22297 83.5151 6.80347 84.0008 7.23762V19.0016C84.0008 19.5321 84.2115 20.0408 84.5866 20.4158C84.9617 20.7909 85.4704 21.0016 86.0008 21.0016H96.0008C96.5313 21.0016 97.04 20.7909 97.415 20.4158C97.7901 20.0408 98.0008 19.5321 98.0008 19.0016H100.001C100.531 19.0016 101.04 18.7909 101.415 18.4158C101.79 18.0408 102.001 17.5321 102.001 17.0016V10.0016C102.001 9.47119 101.79 8.96248 101.415 8.58741C101.04 8.21234 100.531 8.00163 100.001 8.00163H98.0008V7.64762C98.6225 6.94377 98.9767 6.04364 99.0014 5.10489C99.0261 4.16614 98.7197 3.24863 98.1359 2.51306C97.5522 1.77749 96.7282 1.27077 95.8084 1.08164C94.8885 0.892517 93.9315 1.03305 93.1048 1.47862C92.6827 0.958526 92.1366 0.552782 91.5168 0.298625ZM98.0008 17.0016V10.0016H100.001V17.0016H98.0008ZM88.0008 10.0016H90.0008V17.0016H88.0008V10.0016ZM92.0008 10.0016H94.0008V17.0016H92.0008V10.0016Z" fill="#9FAA9E"/>
</svg>
