<svg width="51" height="51" viewBox="0 0 51 51" fill="none" xmlns="http://www.w3.org/2000/svg">
<path d="M44.8899 14.5L40.4315 32.3333H15.6905L11.2322 14.5H44.8899Z" stroke="#EFEBE7" stroke-width="3"/>
<path d="M4.10254 6.75H7.74837L9.31087 13M9.31087 13L14.5192 33.8333H41.6025L46.8109 13H9.31087Z" stroke="#EFEBE7" stroke-width="3" stroke-linecap="round" stroke-linejoin="round"/>
<path d="M14.519 44.25C16.2449 44.25 17.644 42.8509 17.644 41.125C17.644 39.3991 16.2449 38 14.519 38C12.7932 38 11.394 39.3991 11.394 41.125C11.394 42.8509 12.7932 44.25 14.519 44.25Z" stroke="#EFEBE7" stroke-width="3" stroke-linecap="round" stroke-linejoin="round"/>
<path d="M41.6025 44.25C43.3284 44.25 44.7275 42.8509 44.7275 41.125C44.7275 39.3991 43.3284 38 41.6025 38C39.8766 38 38.4775 39.3991 38.4775 41.125C38.4775 42.8509 39.8766 44.25 41.6025 44.25Z" stroke="#EFEBE7" stroke-width="3" stroke-linecap="round" stroke-linejoin="round"/>
</svg>
