<svg width="137" height="163" viewBox="0 0 137 163" fill="none" xmlns="http://www.w3.org/2000/svg">
<g clip-path="url(#clip0_1955_12195)">
<path d="M54.6542 86.0653C55.3653 86.6894 56.4102 87.2989 64.3485 87.444C70.139 87.5456 73.085 87.5891 76.1181 86.7474C79.2818 85.8767 82.1262 85.093 83.7371 82.5969C85.1884 80.3329 83.9548 79.2445 85.1158 74.9779C85.319 74.2087 85.7834 72.7429 89.2664 66.6767C91.3707 63.0196 92.1979 61.8151 93.4169 59.7543C98.2205 51.5983 100.078 45.1258 100.339 45.2274C100.601 45.3289 98.5398 51.5258 98.2641 51.4532C97.9738 51.3806 101.283 44.8936 99.6427 37.6083C98.6124 33.0079 96.7983 33.3852 95.4922 27.914C94.3602 23.1975 95.5067 21.9494 94.1135 16.841C93.3879 14.1708 92.7058 11.6601 90.6596 9.22201C88.6568 6.84197 86.3349 5.79708 81.6618 3.69277C78.2369 2.13994 76.2777 1.25469 73.3607 0.630656C68.3394 -0.457777 64.4066 0.0791835 60.2125 0.630656C54.4801 1.39981 51.6211 1.77713 49.1395 3.69277C49.1395 3.69277 48.0511 4.5345 42.9137 11.3118C40.8529 18.1762 40.8384 18.2342 40.8384 18.2342C40.8384 18.2342 39.5613 23.1975 39.4597 33.4578C36.2524 45.4886 36.6878 49.3779 36.6878 49.3779C36.92 51.3951 37.7617 53.4849 39.4597 57.679C40.5046 60.2622 42.7976 65.8786 47.0787 72.206C49.2991 75.5003 49.9522 75.8776 51.2293 78.4318C53.3771 82.8291 52.8111 84.44 54.6542 86.0653Z" fill="#316D5F"/>
<path d="M43.8015 87.5C45.6881 89.1834 48.6051 92.1295 50.9852 96.4687C56.1226 105.844 64.5253 140.543 64.5253 140.543C70.2287 140.543 65.5557 140.543 72.5362 140.543C72.5362 140.543 81.3162 109.036 84.7266 100.431C85.3651 98.8052 91.4749 93.0873 95.8576 88.2256C96.8735 87.0937 100.908 90.5766 109.862 94.6837C118.903 98.8487 121.153 97.3249 127.451 101.504C130.687 103.652 134.824 106.41 136.42 111.199C137.16 113.39 138.103 118.281 132.835 127.714C123.01 145.259 105.566 153.59 99.805 156.071C83.3479 163.153 69.0677 162.674 66.0636 162.529C45.4705 161.557 31.4224 152.124 26.2125 148.525C19.6819 144.011 14.9218 138.337 5.38712 126.988C3.05062 124.216 0.104596 120.53 0.00300935 115.494C-0.0985777 110.734 2.39756 107.164 3.58758 105.437C12.5127 92.6374 41.0297 87.9354 43.8015 87.5Z" fill="#316D5F"/>
<path d="M105.375 140.233L110.499 136.347L115.6 140.233L113.657 133.94L118.78 129.876H112.508L110.499 123.671L108.489 129.876H102.217L107.319 133.94L105.375 140.233ZM128.165 132.085C128.165 122.324 120.26 114.418 110.499 114.418C100.738 114.418 92.832 122.324 92.832 132.085C92.832 136.568 94.5104 140.631 97.2487 143.745V160.793L110.499 156.376L123.749 160.793V143.745C126.596 140.528 128.167 136.38 128.165 132.085ZM110.499 118.835C117.808 118.835 123.749 124.775 123.749 132.085C123.749 139.394 117.808 145.335 110.499 145.335C103.189 145.335 97.2487 139.394 97.2487 132.085C97.2487 124.775 103.189 118.835 110.499 118.835Z" fill="#C27801"/>
</g>
<defs>
<clipPath id="clip0_1955_12195">
<rect width="137" height="163" fill="white"/>
</clipPath>
</defs>
</svg>
