<svg width="95" height="150" viewBox="0 0 95 150" fill="none" xmlns="http://www.w3.org/2000/svg">
<g clip-path="url(#clip0_1356_12258)">
<path d="M20.6753 123.328L23.6953 129.438L30.4453 130.428L25.5553 135.188L26.7153 141.908L20.6753 138.738L14.6353 141.908L15.7853 135.188L10.8953 130.428L17.6553 129.438L20.6753 123.328Z" fill="#316D5F"/>
<path d="M47.7951 124.998L51.5051 132.518L59.8051 133.728L53.7951 139.578L55.2151 147.848L47.7951 143.948L40.3651 147.848L41.7851 139.578L35.7751 133.728L44.0751 132.518L47.7951 124.998Z" fill="#316D5F"/>
<path d="M74.9153 123.478L77.9353 129.588L84.6853 130.568L79.7953 135.338L80.9553 142.058L74.9153 138.888L68.8753 142.058L70.0253 135.338L65.1453 130.568L71.8953 129.588L74.9153 123.478Z" fill="#316D5F"/>
<path d="M38.2552 61.4081C38.7452 61.8381 39.4652 62.2581 44.9352 62.3581C48.9252 62.4281 50.9552 62.4581 53.0452 61.8781C55.2252 61.2781 57.1852 60.7381 58.2952 59.0181C59.2952 57.4581 58.4453 56.7081 59.2453 53.7681C59.3853 53.2381 59.7052 52.2281 62.1053 48.0481C63.5553 45.5281 64.1253 44.6981 64.9653 43.2781C68.2753 37.6581 69.5552 33.1981 69.7352 33.2681C69.9152 33.3381 68.4952 37.6081 68.3052 37.5581C68.1052 37.5081 70.3852 33.0381 69.2552 28.0181C68.5452 24.8481 67.2953 25.1081 66.3953 21.3381C65.6153 18.0881 66.4052 17.2281 65.4452 13.7081C64.9452 11.8681 64.4753 10.1381 63.0653 8.45808C61.6852 6.81808 60.0852 6.09807 56.8652 4.64807C54.5052 3.57807 53.1553 2.96808 51.1453 2.53808C47.6853 1.78808 44.9752 2.15808 42.0852 2.53808C38.1352 3.06808 36.1653 3.32807 34.4553 4.64807C34.4553 4.64807 33.7053 5.22808 30.1653 9.89808C28.7453 14.6281 28.7352 14.6681 28.7352 14.6681C28.7352 14.6681 27.8553 18.0881 27.7853 25.1581C25.5753 33.4481 25.8752 36.1281 25.8752 36.1281C26.0352 37.5181 26.6153 38.9581 27.7853 41.8481C28.5053 43.6281 30.0853 47.4981 33.0353 51.8581C34.5653 54.1281 35.0153 54.3881 35.8953 56.1481C37.3753 59.1781 36.9852 60.2881 38.2552 61.4081Z" fill="#316D5F"/>
<path d="M30.7753 62.3984C32.0753 63.5584 34.0853 65.5884 35.7253 68.5784C39.2653 75.0384 45.0553 98.9484 45.0553 98.9484C48.9853 98.9484 45.7653 98.9484 50.5753 98.9484C50.5753 98.9484 56.6253 77.2384 58.9753 71.3084C59.4153 70.1884 63.6253 66.2484 66.6453 62.8984C67.3453 62.1184 70.1253 64.5184 76.2953 67.3484C82.5253 70.2184 84.0753 69.1684 88.4153 72.0484C90.6453 73.5284 93.4953 75.4284 94.5953 78.7284C95.1053 80.2384 95.7553 83.6084 92.1253 90.1084C85.3553 102.198 73.3353 107.938 69.3653 109.648C58.0253 114.528 48.1853 114.198 46.1153 114.098C31.9253 113.428 22.2453 106.928 18.6553 104.448C14.1553 101.338 10.8753 97.4284 4.30533 89.6084C2.69533 87.6984 0.665335 85.1584 0.595335 81.6884C0.525335 78.4084 2.24534 75.9484 3.06534 74.7584C9.21534 65.9384 28.8653 62.6984 30.7753 62.3984Z" fill="#316D5F"/>
</g>
<defs>
<clipPath id="clip0_1356_12258">
<rect width="94" height="149" fill="white" transform="translate(0.593262 0.103516)"/>
</clipPath>
</defs>
</svg>
