<svg width="94" height="149" viewBox="0 0 94 149" fill="none" xmlns="http://www.w3.org/2000/svg">
<g clip-path="url(#clip0_1356_12258)">
<path d="M20.082 123.225L23.102 129.335L29.852 130.325L24.962 135.085L26.122 141.805L20.082 138.635L14.042 141.805L15.192 135.085L10.302 130.325L17.062 129.335L20.082 123.225Z" fill="#316D5F"/>
<path d="M47.2019 124.895L50.9119 132.415L59.2119 133.625L53.2019 139.475L54.6219 147.745L47.2019 143.845L39.7719 147.745L41.1919 139.475L35.1819 133.625L43.4819 132.415L47.2019 124.895Z" fill="#316D5F"/>
<path d="M74.322 123.375L77.342 129.485L84.092 130.465L79.202 135.235L80.362 141.955L74.322 138.785L68.282 141.955L69.432 135.235L64.552 130.465L71.302 129.485L74.322 123.375Z" fill="#316D5F"/>
<path d="M37.662 61.3046C38.152 61.7346 38.872 62.1546 44.342 62.2546C48.332 62.3246 50.362 62.3546 52.452 61.7746C54.632 61.1746 56.592 60.6346 57.702 58.9146C58.702 57.3546 57.852 56.6046 58.652 53.6646C58.792 53.1346 59.112 52.1246 61.512 47.9446C62.962 45.4246 63.532 44.5946 64.372 43.1746C67.682 37.5546 68.962 33.0946 69.142 33.1646C69.322 33.2346 67.902 37.5046 67.712 37.4546C67.512 37.4046 69.792 32.9346 68.662 27.9146C67.952 24.7446 66.702 25.0046 65.802 21.2346C65.022 17.9846 65.812 17.1246 64.852 13.6046C64.352 11.7646 63.882 10.0346 62.472 8.35456C61.092 6.71456 59.492 5.99456 56.272 4.54456C53.912 3.47456 52.562 2.86456 50.552 2.43456C47.092 1.68456 44.382 2.05456 41.492 2.43456C37.542 2.96456 35.572 3.22456 33.862 4.54456C33.862 4.54456 33.112 5.12456 29.572 9.79456C28.152 14.5246 28.142 14.5646 28.142 14.5646C28.142 14.5646 27.262 17.9846 27.192 25.0546C24.982 33.3446 25.282 36.0246 25.282 36.0246C25.442 37.4146 26.022 38.8546 27.192 41.7446C27.912 43.5246 29.492 47.3946 32.442 51.7546C33.972 54.0246 34.422 54.2846 35.302 56.0446C36.782 59.0746 36.392 60.1846 37.662 61.3046Z" fill="#316D5F"/>
<path d="M30.1821 62.2949C31.4821 63.4549 33.4921 65.4849 35.1321 68.4749C38.6721 74.9349 44.4621 98.8449 44.4621 98.8449C48.3921 98.8449 45.1721 98.8449 49.9821 98.8449C49.9821 98.8449 56.0321 77.1349 58.3821 71.2049C58.8221 70.0849 63.0321 66.1449 66.0521 62.7949C66.7521 62.0149 69.5321 64.4149 75.7021 67.2449C81.9321 70.1149 83.4821 69.0649 87.8221 71.9449C90.0521 73.4249 92.9021 75.3249 94.0021 78.6249C94.5121 80.1349 95.1621 83.5049 91.5321 90.0049C84.7621 102.095 72.7421 107.835 68.7721 109.545C57.4321 114.425 47.5921 114.095 45.5221 113.995C31.3321 113.325 21.6521 106.825 18.0621 104.345C13.5621 101.235 10.2821 97.3249 3.71207 89.5049C2.10207 87.5949 0.0720736 85.0549 0.00207364 81.5849C-0.0679264 78.3049 1.65207 75.8449 2.47207 74.6549C8.62208 65.8349 28.2721 62.5949 30.1821 62.2949Z" fill="#316D5F"/>
</g>
<defs>
<clipPath id="clip0_1356_12258">
<rect width="94" height="149" fill="white"/>
</clipPath>
</defs>
</svg>
