<svg width="36" height="35" viewBox="0 0 36 35" fill="none" xmlns="http://www.w3.org/2000/svg">
<circle cx="18.1465" cy="17.5" r="17.5" fill="#FFFBF5"/>
<g clip-path="url(#clip0_1551_3541)">
<path d="M27.1465 17.125C27.1465 21.6168 23.851 25.3405 19.549 26.0163V19.744H21.6407L22.039 17.149H19.549V15.4653C19.549 14.755 19.897 14.0635 21.0115 14.0635H22.1432V11.854C22.1432 11.854 21.1157 11.6785 20.134 11.6785C18.0835 11.6785 16.744 12.9213 16.744 15.1705V17.1483H14.4647V19.7433H16.744V26.0155C12.4427 25.339 9.14648 21.616 9.14648 17.125C9.14648 12.1548 13.1762 8.125 18.1465 8.125C23.1167 8.125 27.1465 12.154 27.1465 17.125Z" fill="#16312B"/>
</g>
<defs>
<clipPath id="clip0_1551_3541">
<rect width="18" height="18" fill="white" transform="translate(9.14648 8.07031)"/>
</clipPath>
</defs>
</svg>
