<svg width="133" height="117" viewBox="0 0 133 117" fill="none" xmlns="http://www.w3.org/2000/svg">
<g filter="url(#filter0_dd_1551_3559)">
<rect x="41.1895" y="21.6641" width="50" height="33.5261" rx="5" fill="#FFFBF5"/>
<rect x="40.6895" y="21.1641" width="51" height="34.5261" rx="5.5" stroke="#D6DCE5"/>
<path d="M65.1024 42.445H63.9778V33.3371H66.9592C67.7148 33.3371 68.3591 33.5992 68.8862 34.1235C69.4251 34.6478 69.6945 35.2879 69.6945 36.0439C69.6945 36.8181 69.4251 37.4582 68.8862 37.9764C68.3649 38.4946 67.7206 38.7507 66.9592 38.7507H65.1024V42.445ZM65.1024 34.4588V37.635H66.9826C67.4278 37.635 67.8026 37.4765 68.0955 37.1656C68.3942 36.8547 68.5465 36.4767 68.5465 36.05C68.5465 35.6293 68.3942 35.2575 68.0955 34.9465C67.8026 34.6234 67.4336 34.4649 66.9826 34.4649H65.1024V34.4588Z" fill="#3C4043"/>
<path d="M72.6348 36.0073C73.4665 36.0073 74.1225 36.239 74.6028 36.7023C75.0831 37.1656 75.3232 37.7996 75.3232 38.6043V42.445H74.2514V41.5794H74.2045C73.7418 42.2926 73.1209 42.6462 72.3477 42.6462C71.6859 42.6462 71.1353 42.445 70.6901 42.0366C70.245 41.6281 70.0224 41.1221 70.0224 40.5125C70.0224 39.8663 70.2567 39.3542 70.7253 38.9762C71.1939 38.5921 71.8206 38.4032 72.5996 38.4032C73.2673 38.4032 73.8179 38.5312 74.2455 38.7872V38.519C74.2455 38.1105 74.0932 37.7691 73.7828 37.4826C73.4723 37.1961 73.1092 37.0559 72.6933 37.0559C72.0666 37.0559 71.5687 37.3302 71.2056 37.885L70.2157 37.2388C70.7604 36.4158 71.5687 36.0073 72.6348 36.0073ZM71.1822 40.5308C71.1822 40.8356 71.3052 41.0916 71.557 41.2928C71.803 41.494 72.0959 41.5976 72.4298 41.5976C72.9042 41.5976 73.3259 41.4148 73.6949 41.049C74.0639 40.6832 74.2514 40.2565 74.2514 39.7626C73.8999 39.4761 73.4138 39.3298 72.787 39.3298C72.3302 39.3298 71.9495 39.4456 71.6449 39.6712C71.3344 39.909 71.1822 40.1955 71.1822 40.5308Z" fill="#3C4043"/>
<path d="M81.4383 36.2085L77.6896 45.1824H76.5299L77.9239 42.0427L75.4522 36.2085H76.6763L78.4569 40.6833H78.4804L80.2141 36.2085H81.4383Z" fill="#3C4043"/>
<path d="M60.6291 38.013C60.6291 37.6314 60.5963 37.2662 60.5354 36.9151H55.8215V38.9268L58.5363 38.9275C58.4262 39.5968 58.0719 40.1674 57.5289 40.5479V41.8531H59.1449C60.0885 40.9441 60.6291 39.6005 60.6291 38.013Z" fill="#4285F4"/>
<path d="M57.5295 40.5479C57.0796 40.8637 56.5003 41.0484 55.8227 41.0484C54.5136 41.0484 53.403 40.1303 53.0053 38.8928H51.3383V40.2388C52.1642 41.9446 53.8616 43.1151 55.8227 43.1151C57.178 43.1151 58.3167 42.6512 59.1455 41.8525L57.5295 40.5479Z" fill="#34A853"/>
<path d="M52.8483 37.8941C52.8483 37.5466 52.9039 37.2107 53.0053 36.8949V35.5488H51.3383C50.9968 36.2542 50.8047 37.0504 50.8047 37.8941C50.8047 38.7378 50.9974 39.534 51.3383 40.2394L53.0053 38.8933C52.9039 38.5775 52.8483 38.2416 52.8483 37.8941Z" fill="#FABB05"/>
<path d="M55.8227 34.7393C56.5624 34.7393 57.2249 35.0045 57.7479 35.5226L59.18 34.0333C58.3102 33.1902 57.1763 32.6726 55.8227 32.6726C53.8622 32.6726 52.1642 33.8431 51.3383 35.5488L53.0053 36.8949C53.403 35.6574 54.5136 34.7393 55.8227 34.7393Z" fill="#E94235"/>
</g>
<defs>
<filter id="filter0_dd_1551_3559" x="0.189453" y="0.664062" width="132" height="115.526" filterUnits="userSpaceOnUse" color-interpolation-filters="sRGB">
<feFlood flood-opacity="0" result="BackgroundImageFix"/>
<feColorMatrix in="SourceAlpha" type="matrix" values="0 0 0 0 0 0 0 0 0 0 0 0 0 0 0 0 0 0 127 0" result="hardAlpha"/>
<feOffset dy="2"/>
<feGaussianBlur stdDeviation="10"/>
<feColorMatrix type="matrix" values="0 0 0 0 0.717647 0 0 0 0 0.717647 0 0 0 0 0.717647 0 0 0 0.08 0"/>
<feBlend mode="normal" in2="BackgroundImageFix" result="effect1_dropShadow_1551_3559"/>
<feColorMatrix in="SourceAlpha" type="matrix" values="0 0 0 0 0 0 0 0 0 0 0 0 0 0 0 0 0 0 127 0" result="hardAlpha"/>
<feOffset dy="20"/>
<feGaussianBlur stdDeviation="20"/>
<feColorMatrix type="matrix" values="0 0 0 0 0.717647 0 0 0 0 0.717647 0 0 0 0 0.717647 0 0 0 0.08 0"/>
<feBlend mode="normal" in2="effect1_dropShadow_1551_3559" result="effect2_dropShadow_1551_3559"/>
<feBlend mode="normal" in="SourceGraphic" in2="effect2_dropShadow_1551_3559" result="shape"/>
</filter>
</defs>
</svg>
