<svg width="53" height="36" viewBox="0 0 53 36" fill="none" xmlns="http://www.w3.org/2000/svg">
<rect x="0.90625" y="0.71875" width="51" height="34.5261" rx="5.5" fill="white"/>
<rect x="0.90625" y="0.71875" width="51" height="34.5261" rx="5.5" stroke="#D6DCE5"/>
<path d="M25.3192 21.999H24.1946V12.8911H27.176C27.9316 12.8911 28.5759 13.1532 29.103 13.6775C29.6419 14.2018 29.9113 14.8419 29.9113 15.5978C29.9113 16.3721 29.6419 17.0122 29.103 17.5304C28.5817 18.0486 27.9374 18.3046 27.176 18.3046H25.3192V21.999ZM25.3192 14.0128V17.189H27.1994C27.6446 17.189 28.0194 17.0305 28.3123 16.7196C28.611 16.4086 28.7633 16.0307 28.7633 15.6039C28.7633 15.1833 28.611 14.8114 28.3123 14.5005C28.0194 14.1774 27.6504 14.0189 27.1994 14.0189H25.3192V14.0128Z" fill="#3C4043"/>
<path d="M32.8516 15.5613C33.6833 15.5613 34.3393 15.7929 34.8196 16.2562C35.2999 16.7196 35.54 17.3536 35.54 18.1583V21.999H34.4682V21.1333H34.4213C33.9586 21.8466 33.3377 22.2002 32.5645 22.2002C31.9027 22.2002 31.3521 21.999 30.9069 21.5905C30.4618 21.1821 30.2392 20.6761 30.2392 20.0665C30.2392 19.4202 30.4735 18.9081 30.9421 18.5302C31.4107 18.1461 32.0374 17.9571 32.8164 17.9571C33.4841 17.9571 34.0347 18.0851 34.4623 18.3412V18.0729C34.4623 17.6645 34.31 17.3231 33.9996 17.0366C33.6891 16.75 33.326 16.6098 32.9101 16.6098C32.2834 16.6098 31.7855 16.8842 31.4224 17.4389L30.4325 16.7927C30.9772 15.9697 31.7855 15.5613 32.8516 15.5613ZM31.3989 20.0847C31.3989 20.3896 31.522 20.6456 31.7738 20.8468C32.0198 21.048 32.3127 21.1516 32.6465 21.1516C33.121 21.1516 33.5427 20.9687 33.9117 20.6029C34.2807 20.2371 34.4682 19.8104 34.4682 19.3166C34.1167 19.0301 33.6306 18.8838 33.0038 18.8838C32.547 18.8838 32.1663 18.9996 31.8617 19.2252C31.5512 19.4629 31.3989 19.7494 31.3989 20.0847Z" fill="#3C4043"/>
<path d="M41.6551 15.7625L37.9064 24.7363H36.7467L38.1407 21.5967L35.669 15.7625H36.8931L38.6737 20.2372H38.6972L40.4309 15.7625H41.6551Z" fill="#3C4043"/>
<path d="M20.8459 17.567C20.8459 17.1853 20.8131 16.8202 20.7522 16.469H16.0383V18.4808L18.7531 18.4814C18.643 19.1508 18.2887 19.7214 17.7457 20.1018V21.407H19.3617C20.3053 20.4981 20.8459 19.1544 20.8459 17.567Z" fill="#4285F4"/>
<path d="M17.7463 20.1019C17.2964 20.4177 16.7171 20.6024 16.0395 20.6024C14.7304 20.6024 13.6198 19.6843 13.2221 18.4467H11.5551V19.7928C12.381 21.4985 14.0784 22.669 16.0395 22.669C17.3948 22.669 18.5335 22.2051 19.3623 21.4065L17.7463 20.1019Z" fill="#34A853"/>
<path d="M13.0651 17.4481C13.0651 17.1006 13.1207 16.7647 13.2221 16.4489V15.1028H11.5551C11.2136 15.8082 11.0215 16.6043 11.0215 17.4481C11.0215 18.2918 11.2142 19.088 11.5551 19.7933L13.2221 18.4473C13.1207 18.1315 13.0651 17.7956 13.0651 17.4481Z" fill="#FABB05"/>
<path d="M16.0395 14.2932C16.7792 14.2932 17.4417 14.5584 17.9647 15.0766L19.3968 13.5873C18.527 12.7441 17.3931 12.2266 16.0395 12.2266C14.079 12.2266 12.381 13.397 11.5551 15.1028L13.2221 16.4489C13.6198 15.2113 14.7304 14.2932 16.0395 14.2932Z" fill="#E94235"/>
</svg>
