<svg width="169" height="146" viewBox="0 0 169 146" fill="none" xmlns="http://www.w3.org/2000/svg">
<path d="M73.4528 42.4633C73.3245 42.9947 73.2493 43.5389 73.2583 44.1222L73.6307 87.251C71.8011 101.73 81.1153 115.583 95.6073 119.082C104.172 121.15 112.76 119.006 119.216 113.985C119.938 113.71 120.623 113.275 121.242 112.731L155.561 82.6653C158.596 80.0239 158.904 75.4121 156.249 72.3715C155.22 71.2045 153.889 70.4334 152.491 70.0958C150.262 69.5575 147.815 70.0727 145.964 71.6878L138.312 78.4067C136.532 79.9637 134.26 80.8399 131.898 80.8506C130.83 80.8551 129.862 80.2091 129.466 79.2136C129.466 79.2136 129.466 79.2136 129.47 79.1959C128.938 77.8303 128.931 76.3101 129.556 74.9615L144.057 44.0656C145.643 40.6806 144.198 36.6578 140.817 35.0728C140.396 34.8774 139.966 34.7175 139.524 34.6106C136.463 33.8715 133.203 35.3524 131.813 38.316L118.971 65.676L117.744 65.2487L126.174 30.3374C127.055 26.6886 124.828 23.0391 121.2 22.1632C119.378 21.7232 117.57 22.074 116.08 22.9702C114.608 23.8707 113.467 25.3385 113.027 27.1629L104.448 62.6941L102.855 62.3096L106.669 33.3318C107.152 29.6245 104.547 26.2212 100.843 25.7392C97.3733 25.2951 94.194 27.5267 93.39 30.8566C93.3344 31.0869 93.2922 31.3391 93.2543 31.5737L89.2787 61.8432C89.2787 61.8432 89.2573 61.9317 89.1999 61.9366C88.4335 62.1639 87.6852 62.4707 86.9681 62.8036L86.8109 44.3766C86.7881 40.9033 84.3086 37.7552 80.8702 37.3374C77.4318 36.9196 74.2532 39.2262 73.4705 42.4676L73.4528 42.4633Z" fill="#4CA995"/>
<path d="M95.8873 48.7584C96.0139 49.2902 96.0873 49.8346 96.0765 50.4179L95.5643 93.5453C97.347 108.031 87.9879 121.853 73.4847 125.305C64.9139 127.345 56.3321 125.173 49.8928 120.132C49.1717 119.854 48.4877 119.417 47.8712 118.871L13.6494 88.6941C10.6233 86.043 10.3299 81.4302 12.995 78.3982C14.0278 77.2346 15.3609 76.4677 16.7599 76.1347C18.9912 75.6036 21.436 76.1268 23.2814 77.7479L30.9118 84.4914C32.6872 86.0543 34.9558 86.9378 37.3178 86.9562C38.3863 86.9641 39.356 86.3212 39.7555 85.327C39.7555 85.327 39.7555 85.327 39.7513 85.3093C40.2874 83.9455 40.2998 82.4253 39.6789 81.0747L25.2778 50.132C23.7036 46.7418 25.161 42.7237 28.5474 41.1497C28.969 40.9557 29.3991 40.7971 29.8418 40.6917C32.9053 39.9625 36.1607 41.454 37.5408 44.4221L50.2944 71.8235L51.5221 71.4002L43.2056 36.4618C42.3363 32.8101 44.5755 29.1679 48.2057 28.3037C50.0297 27.8696 51.8361 28.2263 53.323 29.1273C54.7921 30.0325 55.9283 31.504 56.3629 33.3298L64.8272 68.8886L66.4209 68.5093L62.7013 39.5193C62.2301 35.8105 64.8463 32.4156 68.5516 31.9457C72.0225 31.5128 75.1945 33.7547 75.9878 37.0872C76.0427 37.3176 76.084 37.57 76.1212 37.8047L79.9987 68.0869C79.9987 68.0869 80.0198 68.1755 80.0772 68.1806C80.8429 68.4104 81.5901 68.7195 82.3061 69.0548L82.5231 50.6284C82.5571 47.1552 85.0468 44.0152 88.4865 43.6085C91.9262 43.2018 95.0974 45.5187 95.8696 48.7626L95.8873 48.7584Z" fill="#316D5F"/>
<line x1="45.3589" y1="16.7951" x2="59.0006" y2="25.6221" stroke="#316D5F" stroke-width="4" stroke-linecap="round"/>
<line x1="67.8386" y1="2.39023" x2="72.6006" y2="17.0986" stroke="#316D5F" stroke-width="4" stroke-linecap="round"/>
<line x1="92.9924" y1="4.38931" x2="88.9628" y2="15.7256" stroke="#316D5F" stroke-width="4" stroke-linecap="round"/>
<line x1="145.012" y1="128.98" x2="131.37" y2="120.153" stroke="#316D5F" stroke-width="4" stroke-linecap="round"/>
<line x1="122.532" y1="143.385" x2="117.77" y2="128.677" stroke="#316D5F" stroke-width="4" stroke-linecap="round"/>
<line x1="97.3786" y1="141.386" x2="101.408" y2="130.05" stroke="#316D5F" stroke-width="4" stroke-linecap="round"/>
</svg>
