<svg width="137" height="116" viewBox="0 0 137 116" fill="none" xmlns="http://www.w3.org/2000/svg">
<path d="M59.3513 35.9663C59.2467 36.4155 59.1855 36.8756 59.1928 37.3687L59.4961 73.8304C58.0058 86.0715 65.5931 97.7824 77.3982 100.741C84.3745 102.489 91.3709 100.677 96.6296 96.432C97.2177 96.199 97.7761 95.8318 98.2797 95.3717L126.236 69.9536C128.708 67.7205 128.959 63.8216 126.796 61.2511C125.958 60.2645 124.874 59.6125 123.735 59.3272C121.919 58.8721 119.926 59.3077 118.419 60.6731L112.185 66.3533C110.735 67.6697 108.885 68.4104 106.961 68.4195C106.09 68.4232 105.302 67.8771 104.979 67.0355C104.979 67.0355 104.979 67.0355 104.983 67.0205C104.55 65.866 104.543 64.5809 105.053 63.4407L116.865 37.3209C118.157 34.4591 116.98 31.0582 114.226 29.7182C113.883 29.553 113.533 29.4178 113.173 29.3275C110.679 28.7026 108.023 29.9546 106.891 32.4601L96.43 55.5906L95.4309 55.2293L102.298 25.7149C103.015 22.6301 101.201 19.5448 98.2462 18.8043C96.7615 18.4323 95.2891 18.7289 94.0756 19.4865C92.8764 20.2478 91.947 21.4887 91.5882 23.0311L84.5994 53.0697L83.3021 52.7446L86.4086 28.2464C86.8022 25.1121 84.6801 22.2349 81.663 21.8275C78.8368 21.452 76.247 23.3386 75.592 26.1538C75.5467 26.3485 75.5123 26.5617 75.4815 26.76L72.2429 52.3503C72.2429 52.3503 72.2255 52.4252 72.1788 52.4293C71.5544 52.6215 70.9449 52.8808 70.3608 53.1623L70.2327 37.5838C70.2141 34.6474 68.1943 31.986 65.3934 31.6328C62.5925 31.2795 60.0032 33.2296 59.3657 35.9699L59.3513 35.9663Z" fill="#4CA995"/>
<path d="M77.6261 41.2879C77.7292 41.7374 77.789 42.1977 77.7802 42.6908L77.363 79.1513C78.8151 91.3973 71.1913 103.083 59.3771 106.001C52.3953 107.726 45.4046 105.89 40.1591 101.628C39.5718 101.393 39.0146 101.024 38.5124 100.562L10.6355 75.0501C8.1704 72.8087 7.93139 68.909 10.1024 66.3458C10.9437 65.362 12.0297 64.7137 13.1693 64.4322C14.9869 63.9832 16.9784 64.4254 18.4816 65.7959L24.6973 71.4971C26.1436 72.8183 27.9915 73.5652 29.9157 73.5808C30.786 73.5875 31.5759 73.044 31.9014 72.2035C31.9014 72.2035 31.9014 72.2035 31.898 72.1885C32.3347 71.0355 32.3448 69.7503 31.839 68.6085L20.1079 42.4491C18.8256 39.583 20.0128 36.186 22.7713 34.8553C23.1148 34.6913 23.4651 34.5573 23.8257 34.4682C26.3213 33.8517 28.9731 35.1126 30.0973 37.6218L40.4863 60.7874L41.4864 60.4295L34.7118 30.8921C34.0037 27.805 35.8277 24.7257 38.7849 23.9952C40.2707 23.6281 41.7422 23.9297 42.9534 24.6914C44.1502 25.4567 45.0757 26.7008 45.4297 28.2443L52.3247 58.3062L53.6229 57.9855L50.5929 33.477C50.2091 30.3415 52.3402 27.4714 55.3586 27.0741C58.186 26.7082 60.7699 28.6035 61.4161 31.4208C61.4607 31.6157 61.4944 31.829 61.5247 32.0274L64.6833 57.6284C64.6833 57.6284 64.7005 57.7033 64.7472 57.7076C65.371 57.9019 65.9797 58.1633 66.5629 58.4467L66.7397 42.8688C66.7674 39.9325 68.7955 37.2779 71.5974 36.934C74.3994 36.5902 76.9826 38.549 77.6116 41.2914L77.6261 41.2879Z" fill="#316D5F"/>
<line x1="2" y1="-2" x2="14.6809" y2="-2" transform="matrix(0.830179 0.557497 -0.529066 0.848581 34.2129 14.7671)" stroke="#316D5F" stroke-width="4" stroke-linecap="round"/>
<line x1="2" y1="-2" x2="14.3958" y2="-2" transform="matrix(0.297805 0.954627 -0.947919 0.318511 52.7256 1)" stroke="#316D5F" stroke-width="4" stroke-linecap="round"/>
<line x1="2" y1="-2" x2="11.4985" y2="-2" transform="matrix(-0.324028 0.946048 -0.938193 -0.346112 74.2788 1.61865)" stroke="#316D5F" stroke-width="4" stroke-linecap="round"/>
</svg>
