<svg width="180" height="147" viewBox="0 0 180 147" fill="none" xmlns="http://www.w3.org/2000/svg">
<g clip-path="url(#clip0_131_3060)">
<path d="M39.5762 99.9734L55.5616 110.9C55.5616 110.9 59.6333 110.468 62.0462 102.705C64.4591 94.9416 72.9042 95.2291 72.9042 95.2291H78.3058C78.3058 95.2291 85.5718 95.5167 82.8573 91.4912C80.1428 87.4658 67.7768 89.191 67.7768 89.191L65.0623 90.0536C65.0623 90.0536 63.2526 91.2037 62.951 90.3411C62.6494 89.4785 62.6494 89.191 65.0623 88.3284C67.4752 87.4658 68.38 87.1783 68.38 87.1783C68.38 87.1783 68.6816 86.6032 75.6187 87.4658C75.6187 87.4658 81.3493 90.0536 82.5557 88.0409C83.7622 86.0281 81.0477 84.0154 81.0477 84.0154L78.3332 81.7151C78.3332 81.7151 78.0316 80.8526 68.6816 79.4149C68.6816 79.4149 63.8559 78.8398 60.2365 82.0027C60.2365 82.0027 58.4269 83.1528 57.8236 82.2902C57.2204 81.4276 59.6333 80.565 59.6333 80.565L63.8559 78.5523C63.8559 78.5523 65.3639 77.6897 71.0945 78.2648L75.3171 79.1274C75.3171 79.1274 79.5396 82.0027 81.0477 80.2775C82.5557 78.5523 81.3493 76.8271 78.3332 74.8144L75.3171 72.8017C75.3171 72.8017 71.9994 71.6515 67.7768 71.6515C63.5542 71.6515 63.8559 71.0765 60.2365 72.5141C56.6172 73.9518 56.6172 74.8144 56.6172 74.8144C56.6172 74.8144 55.4107 76.5396 54.5059 75.677C53.6011 74.8144 55.4107 73.9518 57.2204 72.5141C59.0301 71.0765 62.3478 69.3513 66.5704 68.4887C70.7929 67.6261 74.4122 66.1884 73.5074 63.3131C72.6026 60.4378 63.2526 62.4505 63.2526 62.4505L56.014 65.3258C56.014 65.3258 53.2995 65.9009 50.8866 69.0637C48.4737 72.2266 44.8544 77.6897 44.8544 77.6897C44.8544 77.6897 43.6479 79.4149 43.0447 88.3284C42.4415 97.2419 39.5762 99.9734 39.5762 99.9734Z" fill="#FFFBF5"/>
<path d="M38.2182 101.56L55.7116 113.349L51.1874 120.25L49.6794 122.262C49.6794 122.262 49.6794 124.85 49.3778 125.713C49.0762 126.575 45.7584 133.188 45.7584 133.188L39.123 146.702L0.804688 146.415L22.2191 118.511C22.2191 118.511 26.1263 112.839 30.9521 111.075L38.2045 101.547L38.2182 101.56Z" fill="#FFFBF5"/>
<path d="M61.4414 108.456L62.6479 114.207C62.6479 114.207 77.7284 115.357 85.8856 108.169L82.8695 95.8047C82.8695 95.8047 81.6631 97.2423 76.5357 96.9548C71.4083 96.6673 65.3761 97.8174 63.5664 105.293C63.5664 105.293 63.2648 107.593 61.4551 108.456H61.4414Z" fill="#FFFBF5"/>
<path d="M49.9809 67.041C49.9809 67.041 55.1083 59.5651 72.9171 59.8527C72.9171 59.8527 71.409 54.102 65.6784 49.5015C65.6784 49.5015 64.0195 48.3383 61.5381 42.0126C59.043 35.7 56.0268 28.7862 56.0268 28.7862L56.9317 28.4986L55.4236 26.7734L47.2801 28.7862L46.9785 30.7989H48.185L50.5978 49.776C50.5978 49.776 50.5978 52.0762 49.3914 56.6767C48.185 61.2773 49.9946 67.0279 49.9946 67.0279L49.9809 67.041Z" fill="#FFFBF5"/>
<path d="M69.5996 69.3393C69.5996 69.3393 73.2052 69.0518 74.5762 67.0391L75.6318 70.4894C75.6318 70.4894 72.6157 70.2019 69.5996 69.3393Z" fill="#FFFBF5"/>
<path d="M54.1301 23.5041L46.6817 24.9203C46.11 25.0291 45.7389 25.559 45.853 26.1041C45.967 26.6492 46.523 27.0029 47.0947 26.8942L54.5431 25.4779C55.1149 25.3692 55.4859 24.8392 55.3719 24.2941C55.2578 23.7491 54.7019 23.3953 54.1301 23.5041Z" fill="#FFFBF5"/>
<path d="M46.9648 26.0371V30.7945L56.918 28.4942L54.2035 24.4688L46.9648 26.0371Z" fill="#FFFBF5"/>
<path d="M129.358 24.8985L121.72 22.886C121.238 22.7591 120.74 23.0285 120.607 23.4877C120.473 23.9469 120.756 24.422 121.238 24.5489L128.875 26.5613C129.357 26.6882 129.856 26.4189 129.989 25.9597C130.122 25.5005 129.839 25.0254 129.358 24.8985Z" fill="#FFFBF5"/>
<path d="M121.491 23.8984L119.078 27.6364L119.983 27.9239L113.951 42.588C113.471 43.7643 113.101 44.9405 112.498 46.0776C111.072 48.7569 108.988 50.6389 106.877 52.7954C105.273 54.4422 104.203 56.6248 103.395 58.7029C103.395 58.7029 106.411 58.1278 108.824 60.4281C110.194 61.735 111.716 62.9113 113.156 64.166C114.088 64.9763 115.034 65.7866 115.898 66.6623C116.761 67.5379 117.378 68.5966 118.078 69.6421C118.653 70.5178 119.38 71.2497 120.134 71.9816C120.367 72.2038 123.479 75.0268 123.602 74.8177C123.602 74.8177 126.015 71.0798 126.92 59.8661C126.92 59.8661 127.222 56.4157 125.714 51.8152C124.206 47.2147 127.825 30.5378 127.825 30.5378L129.031 30.8253L128.73 25.3622L121.491 23.9246V23.8984Z" fill="#FFFBF5"/>
<path d="M100.966 68.474C100.966 68.474 100.966 69.6241 102.776 71.3493C104.586 73.0745 110.919 76.8124 111.824 83.1381C112.729 89.4638 111.824 90.9015 113.031 93.7768C114.237 96.6521 116.348 99.815 114.84 105.853L113.031 114.192C113.031 114.192 97.9502 116.779 89.793 108.153L100.953 68.4609L100.966 68.474Z" fill="#FFFBF5"/>
<path d="M101.871 67.3267C101.871 67.3267 98.5533 63.3797 101.871 61.4715C105.189 59.5634 110.015 63.8764 110.015 63.8764C110.015 63.8764 115.444 68.4769 118.761 73.0774C122.079 77.6779 125.397 79.1155 125.698 75.3776L126.603 70.2021C126.603 70.2021 133.239 72.5023 133.239 79.1155C133.239 85.7288 136.556 93.7797 136.556 93.7797L140.779 101.543L124.19 113.332L117.856 108.444C117.856 108.444 116.348 107.006 117.856 104.418C119.364 101.831 116.198 96.9948 116.198 96.9948C116.198 96.9948 113.031 91.7539 113.935 85.4282C114.84 79.1025 108.506 74.2144 108.506 74.2144L101.871 67.3137V67.3267Z" fill="#FFFBF5"/>
<path d="M125.219 114.572L142.603 102.992L148.032 110.468C148.032 110.468 150.047 113.186 153.255 114.271C156.463 115.356 179.701 146.71 179.701 146.71H141.314L134.445 133.196C134.445 133.196 132.087 129.458 131.758 124.858L125.205 114.585L125.219 114.572Z" fill="#FFFBF5"/>
</g>
<circle cx="59.9474" cy="5.51184" r="4.8634" fill="#FFFBF5"/>
<circle cx="86.6061" cy="22.6529" r="3.65293" fill="#FFFBF5"/>
<circle cx="104.049" cy="14.2467" r="3.65293" fill="#FFFBF5"/>
<defs>
<clipPath id="clip0_131_3060">
<rect width="178.91" height="123.861" fill="white" transform="translate(0.804688 22.8516)"/>
</clipPath>
</defs>
</svg>
