<svg width="32" height="30" viewBox="0 0 32 30" fill="none" xmlns="http://www.w3.org/2000/svg">
<path d="M26.4799 9.99989L18.7299 3.42489C18.0195 2.80994 17.0998 2.46997 16.1466 2.46997C15.1934 2.46997 14.2737 2.80994 13.5633 3.42489L5.81327 9.99989C5.403 10.355 5.0756 10.7906 4.85288 11.2777C4.63016 11.7648 4.51723 12.2922 4.52161 12.8249V23.7499C4.52161 24.7444 4.92986 25.6983 5.65657 26.4015C6.38327 27.1048 7.36889 27.4999 8.39661 27.4999H23.8966C24.9243 27.4999 25.9099 27.1048 26.6366 26.4015C27.3633 25.6983 27.7716 24.7444 27.7716 23.7499V12.8124C27.7741 12.2818 27.6603 11.7568 27.4377 11.272C27.215 10.7872 26.8886 10.3536 26.4799 9.99989ZM18.7299 24.9999H13.5633V18.7499C13.5633 18.4184 13.6994 18.1004 13.9416 17.866C14.1838 17.6316 14.5124 17.4999 14.8549 17.4999H17.4383C17.7808 17.4999 18.1094 17.6316 18.3516 17.866C18.5939 18.1004 18.7299 18.4184 18.7299 18.7499V24.9999ZM25.1883 23.7499C25.1883 24.0814 25.0522 24.3993 24.81 24.6338C24.5677 24.8682 24.2392 24.9999 23.8966 24.9999H21.3133V18.7499C21.3133 17.7553 20.905 16.8015 20.1783 16.0982C19.4516 15.395 18.466 14.9999 17.4383 14.9999H14.8549C13.8272 14.9999 12.8416 15.395 12.1149 16.0982C11.3882 16.8015 10.9799 17.7553 10.9799 18.7499V24.9999H8.39661C8.05404 24.9999 7.7255 24.8682 7.48326 24.6338C7.24103 24.3993 7.10494 24.0814 7.10494 23.7499V12.8124C7.10517 12.6349 7.14446 12.4595 7.22018 12.2979C7.2959 12.1362 7.40633 11.992 7.54411 11.8749L15.2941 5.31239C15.5298 5.11199 15.8328 5.00147 16.1466 5.00147C16.4604 5.00147 16.7634 5.11199 16.9991 5.31239L24.7491 11.8749C24.8869 11.992 24.9973 12.1362 25.073 12.2979C25.1488 12.4595 25.188 12.6349 25.1883 12.8124V23.7499Z" fill="white"/>
</svg>
