<svg width="43" height="43" viewBox="0 0 43 43" fill="none" xmlns="http://www.w3.org/2000/svg">
<path d="M14.6982 12.1757V30.3057C14.6982 31.6882 16.2207 32.5282 17.3932 31.7757L31.6382 22.7107C31.8876 22.5529 32.0931 22.3346 32.2354 22.076C32.3778 21.8175 32.4524 21.5271 32.4524 21.232C32.4524 20.9368 32.3778 20.6465 32.2354 20.3879C32.0931 20.1294 31.8876 19.9111 31.6382 19.7532L17.3932 10.7057C17.1293 10.535 16.8241 10.4387 16.51 10.4269C16.1959 10.4152 15.8844 10.4884 15.6084 10.639C15.3325 10.7895 15.1022 11.0117 14.942 11.2822C14.7818 11.5527 14.6976 11.8614 14.6982 12.1757Z" fill="#316D5F"/>
</svg>
