<svg width="36" height="35" viewBox="0 0 36 35" fill="none" xmlns="http://www.w3.org/2000/svg">
<circle cx="17.9746" cy="17.5" r="17.5" fill="#FFFBF5"/>
<g clip-path="url(#clip0_1551_3533)">
<path d="M17.9746 10.9413C20.3776 10.9413 20.6626 10.9493 21.6114 10.988C22.5924 11.028 23.6026 11.2267 24.3174 11.862C25.0389 12.5033 25.2556 13.3927 25.3006 14.2673C25.3441 15.1107 25.3531 15.364 25.3531 17.5C25.3531 19.636 25.3441 19.8893 25.3006 20.7327C25.2564 21.6 25.0276 22.5067 24.3174 23.138C23.5959 23.7793 22.5961 23.972 21.6114 24.012C20.6626 24.0507 20.3776 24.0587 17.9746 24.0587C15.5716 24.0587 15.2866 24.0507 14.3379 24.012C13.3696 23.9727 12.3361 23.7647 11.6319 23.138C10.9141 22.5 10.6936 21.602 10.6486 20.7327C10.6051 19.8893 10.5961 19.636 10.5961 17.5C10.5961 15.364 10.6051 15.1107 10.6486 14.2673C10.6929 13.4033 10.9239 12.4913 11.6319 11.862C12.3519 11.222 13.3561 11.028 14.3379 10.988C15.2866 10.9493 15.5716 10.9413 17.9746 10.9413ZM17.9746 9.5C15.5304 9.5 15.2236 9.50933 14.2636 9.548C12.8724 9.60467 11.4909 9.94867 10.4851 10.8427C9.47561 11.74 9.09236 12.9653 9.02861 14.2013C8.98511 15.0547 8.97461 15.3273 8.97461 17.5C8.97461 19.6727 8.98511 19.9453 9.02861 20.7987C9.09236 22.034 9.48086 23.2653 10.4851 24.1573C11.4939 25.054 12.8746 25.3953 14.2636 25.452C15.2236 25.4907 15.5304 25.5 17.9746 25.5C20.4189 25.5 20.7256 25.4907 21.6856 25.452C23.0761 25.3953 24.4591 25.0507 25.4641 24.1573C26.4744 23.2593 26.8569 22.0347 26.9206 20.7987C26.9641 19.9453 26.9746 19.6727 26.9746 17.5C26.9746 15.3273 26.9641 15.0547 26.9206 14.2013C26.8569 12.9647 26.4691 11.736 25.4641 10.8427C24.4569 9.94733 23.0724 9.604 21.6856 9.548C20.7256 9.50933 20.4189 9.5 17.9746 9.5Z" fill="#16312B"/>
<path d="M17.975 13.3916C15.4228 13.3916 13.3535 15.2309 13.3535 17.4996C13.3535 19.7683 15.4228 21.6076 17.975 21.6076C20.5273 21.6076 22.5965 19.7683 22.5965 17.4996C22.5965 15.2309 20.5273 13.3916 17.975 13.3916ZM17.975 20.1663C16.3183 20.1663 14.975 18.9723 14.975 17.4996C14.975 16.0269 16.3183 14.8329 17.975 14.8329C19.6318 14.8329 20.975 16.0269 20.975 17.4996C20.975 18.9723 19.6318 20.1663 17.975 20.1663Z" fill="#16312B"/>
<path d="M22.7792 14.1893C23.3757 14.1893 23.8592 13.7595 23.8592 13.2293C23.8592 12.6991 23.3757 12.2693 22.7792 12.2693C22.1828 12.2693 21.6992 12.6991 21.6992 13.2293C21.6992 13.7595 22.1828 14.1893 22.7792 14.1893Z" fill="#16312B"/>
</g>
<defs>
<clipPath id="clip0_1551_3533">
<rect width="18" height="16" fill="white" transform="translate(8.97461 9.5)"/>
</clipPath>
</defs>
</svg>
