<svg width="191" height="145" viewBox="0 0 191 145" fill="none" xmlns="http://www.w3.org/2000/svg">
<g clip-path="url(#clip0_131_3008)">
<path d="M77.9336 47.3971L78.9646 47.0539L110.137 36.6562L191 51.5599V101.958L162.337 120.487L77.9336 106.506V47.3971Z" fill="#FFF7EA"/>
<path d="M74.0103 17.7183L73.2927 15.4744C73.2927 15.4744 67.7936 15.8538 64.4994 17.0009C61.367 18.0916 56.9994 21.0009 56.9994 21.0009L57.717 23.2448C64.4578 21.8829 68.0236 20.6696 74.0103 17.7183Z" fill="#FFF7EA"/>
<path d="M100.769 6.0022L91.7969 8.92188L92.5145 11.1658L101.486 8.24607L100.769 6.0022Z" fill="#FFF7EA"/>
<path d="M97.4449 17.5851L73.604 25.3436C73.9055 26.2861 72.9999 27.001 74.3759 27.757C75.7519 28.513 97.4449 22.001 98.2168 19.9986C98.9886 17.9961 97.4449 17.5851 97.4449 17.5851Z" fill="#FFF7EA"/>
<path d="M92.2668 10.1841L95.1611 19.2344L97.6599 18.4212L94.7655 9.3709L92.2668 10.1841Z" fill="#FFF7EA"/>
<path d="M70.9699 16.9888L73.8643 26.0391L76.2864 25.2508L73.392 16.2005L70.9699 16.9888Z" fill="#FFF7EA"/>
<path d="M87.0227 21.9844H84.166V47.3957H87.0227V21.9844Z" fill="#FFF7EA"/>
<path d="M38.5134 41.4241L35.9443 44.0156L113.283 122.031L115.852 119.439L38.5134 41.4241Z" fill="#FFF7EA"/>
<path d="M52.6161 57.8592L22.707 81.0938L24.9286 84.0037L54.8377 60.7692L52.6161 57.8592Z" fill="#FFF7EA"/>
<path d="M81.8986 94.0594L24.6914 80.9062L23.8765 84.5128L81.0836 97.666L81.8986 94.0594Z" fill="#FFF7EA"/>
<path d="M23.3967 86.4358C25.1178 86.4358 26.5131 85.0283 26.5131 83.2921C26.5131 81.5559 25.1178 80.1484 23.3967 80.1484C21.6755 80.1484 20.2803 81.5559 20.2803 83.2921C20.2803 85.0283 21.6755 86.4358 23.3967 86.4358Z" fill="#FFF7EA"/>
<path d="M115.331 124.678C117.052 124.678 118.448 123.27 118.448 121.534C118.448 119.798 117.052 118.391 115.331 118.391C113.61 118.391 112.215 119.798 112.215 121.534C112.215 123.27 113.61 124.678 115.331 124.678Z" fill="#FFF7EA"/>
<path d="M22.594 56.5391C10.1154 56.5391 0 68.561 0 83.3912C0 98.2215 10.1154 110.243 22.594 110.243C35.0727 110.243 45.188 98.2215 45.188 83.3912C45.188 68.561 35.0727 56.5391 22.594 56.5391ZM22.594 104.629C12.7254 104.629 4.72397 95.1198 4.72397 83.3912C4.72397 71.6627 12.7254 62.1531 22.594 62.1531C32.4627 62.1531 40.4641 71.6627 40.4641 83.3912C40.4641 95.1198 32.4627 104.629 22.594 104.629Z" fill="#FFF7EA"/>
<path d="M115.1 95.3438C102.621 95.3438 92.5059 106.462 92.5059 120.174C92.5059 133.885 102.621 145.003 115.1 145.003C127.579 145.003 137.694 133.885 137.694 120.174C137.694 106.462 127.579 95.3438 115.1 95.3438ZM115.1 139.811C105.231 139.811 97.2298 131.019 97.2298 120.171C97.2298 109.323 105.231 100.531 115.1 100.531C124.969 100.531 132.97 109.323 132.97 120.171C132.97 131.019 124.969 139.811 115.1 139.811Z" fill="#FFF7EA"/>
<g clip-path="url(#clip1_131_3008)">
<path d="M137.981 99.7626C136.535 98.8278 134.599 99.2519 133.656 100.71C132.713 102.168 133.121 104.107 134.566 105.042C136.011 105.977 137.947 105.553 138.89 104.095C139.833 102.637 139.426 100.697 137.981 99.7626Z" fill="#FFF7EA"/>
<path d="M136.331 105.678C138.052 105.678 139.448 104.27 139.448 102.534C139.448 100.798 138.052 99.3906 136.331 99.3906C134.61 99.3906 133.215 100.798 133.215 102.534C133.215 104.27 134.61 105.678 136.331 105.678Z" fill="#FFF7EA"/>
<path d="M136.1 76.3438C123.621 76.3438 113.506 87.4619 113.506 101.174C113.506 114.885 123.621 126.003 136.1 126.003C148.579 126.003 158.694 114.885 158.694 101.174C158.694 87.4619 148.579 76.3438 136.1 76.3438ZM136.1 120.811C126.231 120.811 118.23 112.019 118.23 101.171C118.23 90.3226 126.231 81.5308 136.1 81.5308C145.969 81.5308 153.97 90.3226 153.97 101.171C153.97 112.019 145.969 120.811 136.1 120.811Z" fill="#FFF7EA"/>
</g>
<path d="M168.356 45.2743C167.787 44.271 167.86 44.3443 167.574 43.9147C167.289 43.485 166.367 42.6965 165.871 39.1887L165.089 29.0897C165.089 29.0897 164.946 28.8041 165.232 28.8041H165.445L165.079 27.5859H160.76L160.477 28.7308H160.76C160.76 28.7308 160.973 28.8015 160.83 29.0163L160.121 37.7531C160.121 37.7531 159.908 42.1935 158.487 43.768C157.067 45.3424 156.854 47.3491 156.854 47.3491L156.711 48.638V51.9284L158.202 51.9337L158.17 49.6781C158.17 49.6781 158.132 49.2851 158.557 49.2851C158.983 49.2851 158.924 49.6624 158.924 49.6624L158.905 51.9337H169.278V48.5909C169.278 48.5909 168.922 46.2751 168.356 45.2717V45.2743ZM161.578 38.6936C161.562 38.8691 161.406 39.0027 161.232 38.987C161.058 38.9713 160.926 38.8141 160.941 38.6386L161.679 29.9358C161.695 29.7603 161.85 29.6267 162.024 29.6424C162.198 29.6581 162.331 29.8153 162.315 29.9908L161.578 38.6936Z" fill="#FFF7EA"/>
<path d="M149.139 42.6571C148.57 41.6538 148.643 41.7271 148.357 41.2975C148.072 40.8679 147.15 40.0793 146.654 36.5715L145.872 26.4725C145.872 26.4725 145.729 26.1869 146.015 26.1869H146.228L145.862 24.9688H141.543L141.26 26.1136H141.543C141.543 26.1136 141.756 26.1843 141.613 26.3991L140.904 35.1359C140.904 35.1359 140.691 39.5763 139.271 41.1508C137.85 42.7252 137.637 44.732 137.637 44.732L137.494 46.0209V49.3112L138.985 49.3165L138.954 47.0609C138.954 47.0609 138.915 46.6679 139.341 46.6679C139.767 46.6679 139.707 47.0452 139.707 47.0452L139.689 49.3165H150.061V45.9737C150.061 45.9737 149.705 43.6579 149.139 42.6545V42.6571ZM142.361 36.0764C142.345 36.2519 142.19 36.3855 142.016 36.3698C141.842 36.3541 141.709 36.1969 141.725 36.0214L142.462 27.3186C142.478 27.1431 142.634 27.0095 142.808 27.0252C142.982 27.041 143.114 27.1981 143.099 27.3737L142.361 36.0764Z" fill="#FFF7EA"/>
<path d="M130.7 39.7743C130.131 38.771 130.204 38.8443 129.918 38.4147C129.632 37.985 128.71 37.1965 128.214 33.6887L127.433 23.5897C127.433 23.5897 127.29 23.3041 127.575 23.3041H127.788L127.422 22.0859H123.103L122.82 23.2308H123.103C123.103 23.2308 123.316 23.3015 123.174 23.5163L122.465 32.2531C122.465 32.2531 122.252 36.6935 120.831 38.268C119.41 39.8424 119.198 41.8491 119.198 41.8491L119.055 43.138V46.4284L120.545 46.4337L120.514 44.1781C120.514 44.1781 120.475 43.7851 120.901 43.7851C121.327 43.7851 121.267 44.1624 121.267 44.1624L121.249 46.4337H131.622V43.0909C131.622 43.0909 131.266 40.7751 130.7 39.7717V39.7743ZM123.921 33.1936C123.906 33.3691 123.75 33.5027 123.576 33.487C123.402 33.4713 123.27 33.3141 123.285 33.1386L124.023 24.4358C124.038 24.2603 124.194 24.1267 124.368 24.1424C124.542 24.1581 124.675 24.3153 124.659 24.4908L123.921 33.1936Z" fill="#FFF7EA"/>
<path d="M28.9106 42.3735C26.7826 40.9933 28.9103 35.4726 29.9746 34.3221C31.5704 33.172 38.4864 35.4722 40.0825 35.4723C46.9986 35.4726 50.1007 42.6366 51.2547 42.9486C55.5106 44.0992 54.9787 48.1245 54.9787 48.6996C54.9787 49.2747 52.3187 51 50.7227 51C49.1267 51 47.5306 49.8498 45.9346 48.6996C44.3386 47.5494 44.3386 48.1245 41.6785 48.1245C39.0185 48.1245 39.5505 48.6996 36.3585 48.1245C33.1664 47.5494 31.5706 44.0988 28.9106 42.3735Z" fill="#FFF7EA"/>
<path d="M107.432 6.21917L106.804 4.25794C106.804 4.25794 101.998 4.5895 99.1188 5.5921C96.3809 6.54548 92.5635 9.08834 92.5635 9.08834L93.1907 11.0496C99.0824 9.85919 102.199 8.79869 107.432 6.21917Z" fill="#FFF7EA"/>
</g>
<defs>
<clipPath id="clip0_131_3008">
<rect width="191" height="145" fill="white"/>
</clipPath>
<clipPath id="clip1_131_3008">
<rect width="47" height="50" fill="white" transform="translate(113 76)"/>
</clipPath>
</defs>
</svg>
