<svg width="79" height="79" viewBox="0 0 79 79" fill="none" xmlns="http://www.w3.org/2000/svg">
<path d="M23.0825 3.35735C26.8246 1.15993 31.0394 1.42629 35.0201 2.77581C38.6076 3.9966 42.0316 4.40501 45.5086 2.39848C48.482 0.680497 52.6173 1.3375 55.5995 2.66039C57.4462 3.47721 59.1295 4.69356 60.3975 6.27837C62.094 8.40476 62.1117 11.3213 63.9673 13.3811C65.7831 15.3921 68.2175 16.8615 70.5944 18.1C77.4247 21.6514 79.1301 29.1759 75.5824 36.5628C73.908 40.0476 76.8151 43.3104 77.6457 46.5555C78.4056 49.5253 77.7914 52.8414 76.5014 55.5627C73.877 61.1029 69.4104 62.2926 69.4104 62.2926C69.4104 62.2926 63.7641 64.0061 61.2679 71.3974C61.2679 71.3974 59.5625 75.0775 55.3565 76.5336C51.1549 77.9941 47.3465 77.4481 44.9828 76.5336C43.4233 75.9299 42.0404 75.2951 40.3218 75.335C37.8432 75.3927 35.7314 76.7867 33.3722 77.346C31.7905 77.7233 30.0542 77.6701 28.4372 77.5369C24.7834 77.2439 20.7321 76.0187 18.8455 72.5783C15.2978 66.1147 16.2212 64.925 8.33936 61.3603C4.59726 59.669 2.19825 55.9223 1.71668 51.887C1.31463 48.5265 2.84329 45.4146 3.56343 42.2139C4.45146 38.2497 2.90514 35.6661 1.93758 31.9504C1.31021 29.5266 1.83155 26.9741 2.67098 24.6612C4.09802 20.7414 6.82397 18.9524 10.3938 17.2299C13.6057 15.6762 16.2742 12.9417 17.6615 9.63443C18.8411 6.83327 20.763 4.71132 23.0736 3.34847L23.0825 3.35735Z" stroke="#D5C1AA" stroke-width="2" stroke-miterlimit="10"/>
<path d="M18.1418 23.1886L22.2595 25.7271L20.6425 21.156L21.9635 20.082L25.9133 24.9904L24.9016 25.8114L23.8235 24.4712L22.0607 22.0747L23.6866 26.8011L22.9973 27.3647L18.7427 24.7774L20.7043 27.0097L21.7824 28.3499L20.775 29.1665L16.8252 24.2581L18.1418 23.1886Z" fill="#D5C1AA"/>
<path d="M29.2525 21.877L27.2158 22.8844L27.4013 24.2425L26.1687 24.8549L25.4927 18.158L26.5707 17.6255L31.4572 22.2409L30.2245 22.8534L29.2614 21.8815L29.2525 21.877ZM27.07 21.7883L28.4793 21.0915L26.7342 19.3252L27.0744 21.7927L27.07 21.7883Z" fill="#D5C1AA"/>
<path d="M32.7605 20.8847L35.4158 20.1702L35.6853 21.1776L31.7797 22.2294L30.1538 16.1361L31.4041 15.7988L32.7605 20.8847Z" fill="#D5C1AA"/>
<path d="M39.4946 15.5434L37.5815 15.7343L38.1029 20.9666L36.8128 21.0953L36.2914 15.863L34.4005 16.0538L34.2944 15.0065L39.3841 14.4961L39.4902 15.5434H39.4946Z" fill="#D5C1AA"/>
<path d="M45.5929 19.2683C45.4692 19.9384 45.1643 20.4399 44.6739 20.7772C44.1835 21.1145 43.5738 21.2432 42.8404 21.1589C42.0407 21.0701 41.4398 20.7284 41.0422 20.1381C40.6446 19.5479 40.4943 18.7757 40.6004 17.8304L40.6446 17.4487C40.7108 16.8452 40.8743 16.3259 41.1394 15.891C41.4001 15.4561 41.7447 15.1366 42.1644 14.9369C42.5841 14.7371 43.0569 14.6617 43.5738 14.7238C44.2939 14.8037 44.855 15.0611 45.2483 15.5005C45.6415 15.9398 45.8403 16.5123 45.8315 17.218L44.5458 17.0759C44.559 16.6677 44.4795 16.3614 44.3072 16.1573C44.1349 15.9531 43.8521 15.8289 43.4545 15.7845C43.0259 15.7357 42.6857 15.8555 42.4427 16.1395C42.1953 16.4236 42.0319 16.8896 41.9567 17.5375L41.9037 18.0124C41.8286 18.6914 41.8772 19.1973 42.0451 19.5346C42.213 19.8718 42.5179 20.0627 42.9597 20.1115C43.3573 20.1559 43.6622 20.0982 43.8786 19.9384C44.0951 19.7787 44.2365 19.5079 44.3072 19.1307L45.5929 19.2727V19.2683Z" fill="#D5C1AA"/>
<path d="M47.4643 20.9187L50.1019 21.6998L49.8059 22.7028L45.9312 21.5534L47.7117 15.5L48.9532 15.8683L47.4687 20.9187H47.4643Z" fill="#D5C1AA"/>
<path d="M57.1597 19.1366L55.419 22.9089C55.1318 23.5346 54.7077 23.9385 54.1466 24.1249C53.5899 24.3068 52.9713 24.2403 52.2954 23.9252C51.6282 23.6145 51.182 23.1929 50.9522 22.6559C50.7225 22.1189 50.749 21.542 51.0274 20.9162L52.7858 17.0996L53.961 17.6455L52.2203 21.4266C52.0479 21.7994 52.0126 22.1145 52.1098 22.3719C52.2114 22.6293 52.4191 22.829 52.7328 22.9754C53.3911 23.2817 53.8903 23.0908 54.2217 22.3985L55.9801 18.5863L57.1597 19.1366Z" fill="#D5C1AA"/>
<path d="M55.2749 25.3075L58.6327 19.9731L60.4927 21.1536C61.1378 21.5619 61.5487 21.9968 61.7254 22.4584C61.9021 22.9199 61.8403 23.3859 61.5398 23.8652C61.3764 24.1271 61.1643 24.3135 60.9036 24.4288C60.643 24.5442 60.3646 24.5709 60.0686 24.5132C60.2983 24.7528 60.4265 25.028 60.453 25.3342C60.4795 25.6404 60.3955 25.9466 60.21 26.244C59.8874 26.7588 59.481 27.0428 58.9862 27.096C58.4913 27.1493 57.9435 26.994 57.3382 26.6123L55.2749 25.2987V25.3075ZM57.8286 23.6788L56.9229 25.1167L57.8595 25.7114C58.1158 25.8756 58.3588 25.9422 58.5797 25.9111C58.8006 25.88 58.9817 25.7558 59.1187 25.5383C59.428 25.0502 59.3308 24.6419 58.8315 24.3135L57.8286 23.6744V23.6788ZM58.319 22.9022L59.1275 23.417C59.6842 23.7587 60.0995 23.7143 60.3734 23.2794C60.5237 23.0398 60.5634 22.8179 60.4927 22.6226C60.4221 22.4273 60.2321 22.2321 59.9316 22.0412L59.1673 21.5531L58.319 22.8977V22.9022Z" fill="#D5C1AA"/>
<path d="M62.2754 58.1825L58.1577 55.644L59.7748 60.2151L58.4537 61.2891L54.5039 56.3807L55.5157 55.5597L56.5937 56.8999L58.3565 59.2964L56.7307 54.57L57.4199 54.0064L61.6746 56.5937L59.7129 54.3614L58.6349 53.0212L59.6422 52.2046L63.592 57.113L62.2754 58.1825Z" fill="#D5C1AA"/>
<path d="M51.1602 59.4935L53.197 58.4861L53.0114 57.1281L54.2441 56.5156L54.9201 63.2125L53.842 63.745L48.9556 59.1296L50.1882 58.5171L51.1514 59.4891L51.1602 59.4935ZM53.3472 59.5822L51.9378 60.279L53.683 62.0453L53.3428 59.5778L53.3472 59.5822Z" fill="#D5C1AA"/>
<path d="M47.6558 60.4931L45.0005 61.2076L44.731 60.2002L48.6366 59.1484L50.2625 65.2417L49.0121 65.579L47.6558 60.4931Z" fill="#D5C1AA"/>
<path d="M40.9185 65.8302L42.8315 65.6394L42.3102 60.407L43.6003 60.2783L44.1216 65.5107L46.0126 65.3198L46.1186 66.3672L41.0289 66.8775L40.9229 65.8302H40.9185Z" fill="#D5C1AA"/>
<path d="M34.8272 62.107C34.951 61.4369 35.2558 60.9354 35.7462 60.5981C36.2366 60.2609 36.8463 60.1322 37.5797 60.2165C38.3794 60.3052 38.9803 60.647 39.3779 61.2372C39.7756 61.8274 39.9258 62.5996 39.8198 63.5449L39.7756 63.9266C39.7093 64.5302 39.5458 65.0494 39.2807 65.4843C39.0201 65.9192 38.6755 66.2388 38.2557 66.4385C37.836 66.6382 37.3633 66.7136 36.8463 66.6515C36.1262 66.5716 35.5651 66.3142 35.1719 65.8749C34.7786 65.4355 34.5798 64.863 34.5887 64.1574L35.8743 64.2994C35.8611 64.7077 35.9406 65.0139 36.1129 65.218C36.2852 65.4222 36.568 65.5464 36.9656 65.5908C37.3942 65.6396 37.7344 65.5198 37.9774 65.2358C38.2248 64.9518 38.3883 64.4858 38.4634 63.8378L38.5164 63.363C38.5915 62.684 38.5429 62.178 38.375 61.8408C38.2071 61.5035 37.9023 61.3126 37.4605 61.2638C37.0628 61.2194 36.758 61.2771 36.5415 61.4369C36.325 61.5967 36.1836 61.8674 36.1129 62.2446L34.8272 62.1026V62.107Z" fill="#D5C1AA"/>
<path d="M32.9526 60.4525L30.3149 59.6714L30.611 58.6685L34.4857 59.8179L32.7052 65.8712L31.4637 65.5029L32.9482 60.4525H32.9526Z" fill="#D5C1AA"/>
<path d="M23.2588 62.2337L24.9995 58.4614C25.2867 57.8357 25.7109 57.4318 26.272 57.2454C26.8287 57.0635 27.4472 57.13 28.1232 57.4451C28.7903 57.7558 29.2365 58.1774 29.4663 58.7144C29.696 59.2514 29.6695 59.8283 29.3912 60.4541L27.6328 64.2707L26.4575 63.7248L28.1983 59.9437C28.3706 59.5709 28.4059 59.2558 28.3087 58.9984C28.2071 58.741 27.9995 58.5413 27.6858 58.3949C27.0275 58.0886 26.5282 58.2795 26.1969 58.9718L24.4384 62.784L23.2588 62.2337Z" fill="#D5C1AA"/>
<path d="M25.141 56.0643L21.7832 61.3987L19.9231 60.2182C19.2781 59.8099 18.8672 59.375 18.6905 58.9134C18.5137 58.4519 18.5756 57.9859 18.876 57.5066C19.0395 57.2448 19.2516 57.0584 19.5122 56.943C19.7729 56.8276 20.0513 56.801 20.3473 56.8587C20.1175 56.619 19.9894 56.3439 19.9629 56.0376C19.9364 55.7314 20.0203 55.4252 20.2059 55.1279C20.5284 54.6131 20.9349 54.329 21.4297 54.2758C21.9246 54.2225 22.4724 54.3779 23.0777 54.7595L25.141 56.0731V56.0643ZM22.0924 58.4696L21.2839 57.9548C20.7272 57.6131 20.3119 57.6575 20.038 58.0924C19.8878 58.3321 19.848 58.554 19.9187 58.7492C19.9894 58.9445 20.1794 59.1398 20.4798 59.3306L21.2442 59.8188L22.0924 58.4741V58.4696ZM22.5829 57.693L23.4886 56.2551L22.5519 55.6604C22.2957 55.4962 22.0527 55.4297 21.8318 55.4607C21.6109 55.4918 21.4297 55.616 21.2928 55.8335C20.9835 56.3217 21.0807 56.73 21.5799 57.0584L22.5829 57.6974V57.693Z" fill="#D5C1AA"/>
<path d="M45.5984 36.5H34.4544C33.2928 36.5 32.3511 37.4422 32.3511 38.6044V51.107C32.3511 52.2693 33.2928 53.2114 34.4544 53.2114H45.5984C46.7601 53.2114 47.7018 52.2693 47.7018 51.107V38.6044C47.7018 37.4422 46.7601 36.5 45.5984 36.5Z" stroke="#D5C1AA" stroke-width="3" stroke-miterlimit="10"/>
<path d="M47.9994 29.9788C47.3644 29.8982 46.747 29.943 46.1777 30.0863C46.1864 30.037 46.1952 29.9922 46.1996 29.943C46.5411 27.1362 44.2201 24.5308 41.0145 24.1279C37.8089 23.725 34.9975 25.6321 34.6121 28.3941C32.659 28.4613 31.0255 29.7416 30.8109 31.5143C30.754 31.9754 30.8022 32.4275 30.9335 32.8528C29.2694 32.8438 27.8593 33.9137 27.6798 35.4044C27.4827 37.0339 28.8315 38.547 30.6927 38.7798C32.5539 39.0126 34.2223 37.8845 34.4194 36.255C34.4457 36.0446 34.4413 35.8342 34.4194 35.6283C34.4457 35.6283 34.4676 35.6372 34.4939 35.6417C34.7829 35.6775 35.0675 35.6865 35.3478 35.673C35.5493 37.7725 37.4104 39.5721 39.8716 39.881C42.3327 40.1899 44.461 38.9678 45.2142 37.0608C45.7616 37.3786 46.3922 37.6024 47.0754 37.6875C49.5059 37.9964 51.6824 36.5191 51.9407 34.3927C52.1991 32.2663 50.4387 30.2922 48.0082 29.9833L47.9994 29.9788Z" fill="#D5C1AA"/>
<path d="M52.3475 40.7837H47.7482C47.723 40.7837 47.7026 40.8035 47.7026 40.8279V48.0239C47.7026 48.0484 47.723 48.0682 47.7482 48.0682H52.3475C52.3727 48.0682 52.3931 48.0484 52.3931 48.0239V40.8279C52.3931 40.8035 52.3727 40.7837 52.3475 40.7837Z" stroke="#D5C1AA" stroke-width="2" stroke-miterlimit="10"/>
<path d="M37.4689 37.3569H37.0425V53.2114H37.4689V37.3569Z" stroke="#D5C1AA" stroke-miterlimit="10"/>
<path d="M42.5864 37.3569V37.3569V52.7829V52.7829V37.3569Z" stroke="#D5C1AA" stroke-miterlimit="10"/>
<path d="M23.392 35.5884C23.392 35.5884 20.1872 32.8265 15.3338 34.4316C13.4868 35.042 12.2658 36.9928 13.9938 38.4057C15.6116 39.7248 17.0927 38.8582 18.4769 37.7697C20.1432 36.4635 21.1438 35.8744 23.3964 35.5884H23.392Z" fill="#D5C1AA"/>
<path d="M24.6773 36.9268C24.6773 36.9268 19.3505 38.561 20.0502 41.7905C20.0502 41.7905 21.2209 43.277 23.1287 41.9383C24.2295 41.169 23.8517 39.9867 23.6371 39.1131C23.4319 38.2872 24.0756 37.6439 24.6773 36.9311V36.9268Z" fill="#D5C1AA"/>
</svg>
