<svg width="25" height="24" viewBox="0 0 25 24" fill="none" xmlns="http://www.w3.org/2000/svg">
<g clip-path="url(#clip0_1551_3519)">
<path d="M19.6465 1H5.64648C4.32089 1.00159 3.05004 1.52888 2.1127 2.46622C1.17537 3.40356 0.648072 4.67441 0.646484 6L0.646484 18C0.648072 19.3256 1.17537 20.5964 2.1127 21.5338C3.05004 22.4711 4.32089 22.9984 5.64648 23H19.6465C20.9721 22.9984 22.2429 22.4711 23.1803 21.5338C24.1176 20.5964 24.6449 19.3256 24.6465 18V6C24.6449 4.67441 24.1176 3.40356 23.1803 2.46622C22.2429 1.52888 20.9721 1.00159 19.6465 1ZM5.64648 3H19.6465C20.2453 3.00118 20.83 3.18151 21.3254 3.5178C21.8209 3.85409 22.2043 4.33095 22.4265 4.887L14.7685 12.546C14.2049 13.1073 13.4419 13.4225 12.6465 13.4225C11.8511 13.4225 11.0881 13.1073 10.5245 12.546L2.86648 4.887C3.08863 4.33095 3.4721 3.85409 3.96753 3.5178C4.46297 3.18151 5.0477 3.00118 5.64648 3ZM19.6465 21H5.64648C4.85083 21 4.08777 20.6839 3.52516 20.1213C2.96255 19.5587 2.64648 18.7956 2.64648 18V7.5L9.11048 13.96C10.0491 14.8963 11.3207 15.422 12.6465 15.422C13.9722 15.422 15.2439 14.8963 16.1825 13.96L22.6465 7.5V18C22.6465 18.7956 22.3304 19.5587 21.7678 20.1213C21.2052 20.6839 20.4421 21 19.6465 21Z" fill="white"/>
</g>
<defs>
<clipPath id="clip0_1551_3519">
<rect width="24" height="24" fill="white" transform="translate(0.646484)"/>
</clipPath>
</defs>
</svg>
