<svg width="53" height="37" viewBox="0 0 53 37" fill="none" xmlns="http://www.w3.org/2000/svg">
<rect x="0.90625" y="1.33594" width="51" height="34.5261" rx="5.5" fill="white"/>
<rect x="0.90625" y="1.33594" width="51" height="34.5261" rx="5.5" stroke="#D6DCE5"/>
<path d="M29.9977 11.716H22.6359V25.4852H29.9977V11.716Z" fill="#FF5F00"/>
<path d="M23.1034 18.6006C23.1022 17.2745 23.3909 15.9655 23.9477 14.7728C24.5044 13.58 25.3146 12.5347 26.3168 11.716C25.0757 10.7006 23.5851 10.0691 22.0154 9.89376C20.4458 9.71841 18.8604 10.0062 17.4404 10.7244C16.0205 11.4425 14.8234 12.5619 13.9858 13.9547C13.1483 15.3475 12.7041 16.9575 12.7041 18.6006C12.7041 20.2437 13.1483 21.8536 13.9858 23.2464C14.8234 24.6392 16.0205 25.7587 17.4404 26.4768C18.8604 27.1949 20.4458 27.4827 22.0154 27.3074C23.5851 27.132 25.0757 26.5006 26.3168 25.4852C25.3146 24.6665 24.5044 23.6212 23.9477 22.4284C23.391 21.2356 23.1022 19.9266 23.1034 18.6006Z" fill="#EB001B"/>
<path d="M39.9292 18.6006C39.9292 20.2437 39.4851 21.8536 38.6476 23.2464C37.8101 24.6392 36.613 25.7586 35.1931 26.4768C33.7732 27.1949 32.1878 27.4827 30.6182 27.3074C29.0485 27.132 27.558 26.5006 26.3168 25.4852C27.3182 24.6656 28.1277 23.6202 28.6844 22.4276C29.241 21.235 29.5303 19.9264 29.5303 18.6006C29.5303 17.2747 29.241 15.9661 28.6844 14.7736C28.1277 13.581 27.3182 12.5355 26.3168 11.716C27.558 10.7006 29.0485 10.0691 30.6182 9.89376C32.1878 9.71841 33.7732 10.0063 35.1931 10.7244C36.613 11.4425 37.8101 12.562 38.6476 13.9547C39.4851 15.3475 39.9292 16.9575 39.9292 18.6006Z" fill="#F79E1B"/>
<path d="M39.1265 24.0268V23.7449H39.2357V23.6875H38.9576V23.7449H39.0668V24.0268H39.1265ZM39.6665 24.0268V23.6869H39.5812L39.4831 23.9207L39.3851 23.6869H39.2997V24.0268H39.3599V23.7704L39.4519 23.9915H39.5143L39.6063 23.7699V24.0268H39.6665Z" fill="#F79E1B"/>
</svg>
