<svg width="133" height="117" viewBox="0 0 133 117" fill="none" xmlns="http://www.w3.org/2000/svg">
<g filter="url(#filter0_dd_1551_3553)">
<rect x="41.1895" y="21.9609" width="50" height="33.5261" rx="5" fill="#FFFBF5"/>
<rect x="40.6895" y="21.4609" width="51" height="34.5261" rx="5.5" stroke="#D6DCE5"/>
<path d="M69.7809 31.8393H62.4191V45.6085H69.7809V31.8393Z" fill="#FF5F00"/>
<path d="M62.8866 38.7239C62.8854 37.3978 63.1741 36.0888 63.7309 34.896C64.2876 33.7033 65.0978 32.658 66.1 31.8393C64.8589 30.8239 63.3683 30.1924 61.7986 30.0171C60.229 29.8417 58.6436 30.1295 57.2236 30.8477C55.8037 31.5658 54.6066 32.6852 53.769 34.078C52.9315 35.4708 52.4873 37.0808 52.4873 38.7239C52.4873 40.367 52.9315 41.9769 53.769 43.3697C54.6066 44.7625 55.8037 45.8819 57.2236 46.6001C58.6436 47.3182 60.229 47.606 61.7986 47.4307C63.3683 47.2553 64.8589 46.6239 66.1 45.6085C65.0978 44.7898 64.2876 43.7444 63.7309 42.5517C63.1742 41.3589 62.8854 40.0499 62.8866 38.7239Z" fill="#EB001B"/>
<path d="M79.7124 38.7239C79.7124 40.3669 79.2683 41.9769 78.4308 43.3697C77.5933 44.7625 76.3962 45.8819 74.9763 46.6C73.5564 47.3182 71.971 47.606 70.4014 47.4307C68.8317 47.2553 67.3412 46.6239 66.1 45.6085C67.1014 44.7889 67.911 43.7435 68.4676 42.5509C69.0242 41.3583 69.3135 40.0497 69.3135 38.7239C69.3135 37.398 69.0242 36.0894 68.4676 34.8968C67.911 33.7043 67.1014 32.6588 66.1 31.8393C67.3412 30.8239 68.8317 30.1924 70.4014 30.0171C71.971 29.8417 73.5564 30.1295 74.9763 30.8477C76.3962 31.5658 77.5933 32.6852 78.4308 34.078C79.2683 35.4708 79.7124 37.0808 79.7124 38.7239Z" fill="#F79E1B"/>
<path d="M78.9097 44.1501V43.8682H79.0189V43.8108H78.7408V43.8682H78.85V44.1501H78.9097ZM79.4497 44.1501V43.8102H79.3644L79.2663 44.044L79.1683 43.8102H79.0829V44.1501H79.1432V43.8937L79.2351 44.1148H79.2975L79.3895 43.8932V44.1501H79.4497Z" fill="#F79E1B"/>
</g>
<defs>
<filter id="filter0_dd_1551_3553" x="0.189453" y="0.960938" width="132" height="115.526" filterUnits="userSpaceOnUse" color-interpolation-filters="sRGB">
<feFlood flood-opacity="0" result="BackgroundImageFix"/>
<feColorMatrix in="SourceAlpha" type="matrix" values="0 0 0 0 0 0 0 0 0 0 0 0 0 0 0 0 0 0 127 0" result="hardAlpha"/>
<feOffset dy="2"/>
<feGaussianBlur stdDeviation="10"/>
<feColorMatrix type="matrix" values="0 0 0 0 0.717647 0 0 0 0 0.717647 0 0 0 0 0.717647 0 0 0 0.08 0"/>
<feBlend mode="normal" in2="BackgroundImageFix" result="effect1_dropShadow_1551_3553"/>
<feColorMatrix in="SourceAlpha" type="matrix" values="0 0 0 0 0 0 0 0 0 0 0 0 0 0 0 0 0 0 127 0" result="hardAlpha"/>
<feOffset dy="20"/>
<feGaussianBlur stdDeviation="20"/>
<feColorMatrix type="matrix" values="0 0 0 0 0.717647 0 0 0 0 0.717647 0 0 0 0 0.717647 0 0 0 0.08 0"/>
<feBlend mode="normal" in2="effect1_dropShadow_1551_3553" result="effect2_dropShadow_1551_3553"/>
<feBlend mode="normal" in="SourceGraphic" in2="effect2_dropShadow_1551_3553" result="shape"/>
</filter>
</defs>
</svg>
