<svg width="42" height="43" viewBox="0 0 42 43" fill="none" xmlns="http://www.w3.org/2000/svg">
<path d="M8.16488 32.1248C9.93571 30.7707 11.9149 29.7033 14.1024 28.9228C16.2899 28.1422 18.5815 27.7512 20.9774 27.7498C23.3732 27.7484 25.6649 28.1394 27.8524 28.9228C30.0399 29.7061 32.019 30.7734 33.7899 32.1248C35.0052 30.7012 35.9517 29.0866 36.6295 27.2811C37.3072 25.4755 37.6454 23.5484 37.644 21.4998C37.644 16.8818 36.0211 12.9491 32.7753 9.70192C29.5295 6.4547 25.5968 4.83178 20.9774 4.83317C16.3579 4.83456 12.4253 6.45817 9.17946 9.704C5.93363 12.9498 4.31071 16.8818 4.31071 21.4998C4.31071 23.5484 4.6496 25.4755 5.32738 27.2811C6.00516 29.0866 6.95099 30.7012 8.16488 32.1248ZM20.9774 23.5832C18.9288 23.5832 17.201 22.8804 15.794 21.4748C14.3871 20.0693 13.6843 18.3415 13.6857 16.2915C13.6871 14.2415 14.3906 12.5137 15.7961 11.1082C17.2017 9.70261 18.9288 8.99984 20.9774 8.99984C23.026 8.99984 24.7538 9.70331 26.1607 11.1103C27.5677 12.5172 28.2704 14.2443 28.269 16.2915C28.2677 18.3387 27.5649 20.0665 26.1607 21.4748C24.7565 22.8832 23.0288 23.5859 20.9774 23.5832ZM20.9774 42.3332C18.0954 42.3332 15.3871 41.7859 12.8524 40.6915C10.3177 39.5971 8.1128 38.113 6.2378 36.2394C4.3628 34.3658 2.87877 32.1609 1.78571 29.6248C0.692657 27.0887 0.145434 24.3804 0.144046 21.4998C0.142657 18.6193 0.689879 15.9109 1.78571 13.3748C2.88155 10.8387 4.36557 8.63386 6.2378 6.76025C8.11002 4.88664 10.3149 3.40261 12.8524 2.30817C15.3899 1.21373 18.0982 0.666504 20.9774 0.666504C23.8565 0.666504 26.5649 1.21373 29.1024 2.30817C31.6399 3.40261 33.8447 4.88664 35.717 6.76025C37.5892 8.63386 39.0739 10.8387 40.1711 13.3748C41.2683 15.9109 41.8149 18.6193 41.8107 21.4998C41.8065 24.3804 41.2593 27.0887 40.169 29.6248C39.0788 32.1609 37.5947 34.3658 35.717 36.2394C33.8392 38.113 31.6343 39.5977 29.1024 40.6936C26.5704 41.7894 23.8621 42.3359 20.9774 42.3332ZM20.9774 38.1665C22.8177 38.1665 24.5538 37.8978 26.1857 37.3603C27.8177 36.8228 29.3107 36.0498 30.6649 35.0415C29.3107 34.0346 27.8177 33.2623 26.1857 32.7248C24.5538 32.1873 22.8177 31.9179 20.9774 31.9165C19.1371 31.9151 17.401 32.1846 15.769 32.7248C14.1371 33.2651 12.644 34.0373 11.2899 35.0415C12.644 36.0484 14.1371 36.8214 15.769 37.3603C17.401 37.8991 19.1371 38.1679 20.9774 38.1665ZM20.9774 19.4165C21.8802 19.4165 22.6267 19.1214 23.217 18.5311C23.8072 17.9408 24.1024 17.1943 24.1024 16.2915C24.1024 15.3887 23.8072 14.6422 23.217 14.0519C22.6267 13.4616 21.8802 13.1665 20.9774 13.1665C20.0746 13.1665 19.3281 13.4616 18.7378 14.0519C18.1475 14.6422 17.8524 15.3887 17.8524 16.2915C17.8524 17.1943 18.1475 17.9408 18.7378 18.5311C19.3281 19.1214 20.0746 19.4165 20.9774 19.4165Z" fill="#EFEBE7"/>
</svg>
