<svg width="25" height="24" viewBox="0 0 25 24" fill="none" xmlns="http://www.w3.org/2000/svg">
<g clip-path="url(#clip0_1551_3514)">
<path d="M13.6465 1.95205C13.6465 1.69789 13.7518 1.45413 13.9394 1.27441C14.1269 1.09468 14.3813 0.993718 14.6465 0.993718C17.2977 0.996508 19.8396 2.00707 21.7143 3.80369C23.5891 5.60031 24.6436 8.03625 24.6465 10.5771C24.6465 10.8312 24.5411 11.075 24.3536 11.2547C24.166 11.4344 23.9117 11.5354 23.6465 11.5354C23.3813 11.5354 23.1269 11.4344 22.9394 11.2547C22.7518 11.075 22.6465 10.8312 22.6465 10.5771C22.6441 8.54443 21.8005 6.59571 20.3007 5.15842C18.8009 3.72114 16.7675 2.91267 14.6465 2.91038C14.3813 2.91038 14.1269 2.80942 13.9394 2.6297C13.7518 2.44997 13.6465 2.20622 13.6465 1.95205ZM14.6465 6.74372C15.7073 6.74372 16.7248 7.14759 17.4749 7.86648C18.225 8.58536 18.6465 9.56039 18.6465 10.5771C18.6465 10.8312 18.7518 11.075 18.9394 11.2547C19.1269 11.4344 19.3813 11.5354 19.6465 11.5354C19.9117 11.5354 20.166 11.4344 20.3536 11.2547C20.5411 11.075 20.6465 10.8312 20.6465 10.5771C20.6449 9.05252 20.0122 7.59087 18.8874 6.51287C17.7625 5.43486 16.2373 4.82857 14.6465 4.82705C14.3813 4.82705 14.1269 4.92802 13.9394 5.10774C13.7518 5.28746 13.6465 5.53122 13.6465 5.78538C13.6465 6.03955 13.7518 6.28331 13.9394 6.46303C14.1269 6.64275 14.3813 6.74372 14.6465 6.74372ZM23.7395 17.0353C24.319 17.5922 24.6444 18.3466 24.6444 19.1331C24.6444 19.9195 24.319 20.6739 23.7395 21.2308L22.8295 22.2361C14.6395 29.7504 -5.29053 10.6556 2.42947 2.78197L3.57947 1.82363C4.16124 1.28378 4.9414 0.98514 5.75117 0.992314C6.56095 0.999488 7.33522 1.3119 7.90647 1.86197C7.93747 1.89168 9.79047 4.19838 9.79047 4.19838C10.3403 4.75194 10.6464 5.48728 10.6451 6.25152C10.6438 7.01577 10.3352 7.75013 9.78347 8.30197L8.62547 9.6973C9.26632 11.1895 10.2085 12.5457 11.398 13.6879C12.5874 14.8301 14.0007 15.7358 15.5565 16.3529L17.0215 15.2365C17.5974 14.7082 18.3635 14.4128 19.1608 14.4117C19.958 14.4106 20.725 14.704 21.3025 15.2307C21.3025 15.2307 23.7085 17.0056 23.7395 17.0353ZM22.3635 18.4287C22.3635 18.4287 19.9705 16.6644 19.9395 16.6347C19.7335 16.4389 19.4551 16.3291 19.165 16.3291C18.8749 16.3291 18.5965 16.4389 18.3905 16.6347C18.3635 16.6615 16.3465 18.2016 16.3465 18.2016C16.2105 18.3052 16.0488 18.3732 15.8771 18.3987C15.7055 18.4243 15.5298 18.4065 15.3675 18.3472C13.3519 17.6281 11.5212 16.5022 9.99931 15.0458C8.4774 13.5895 7.29987 11.8367 6.54647 9.90622C6.47967 9.74853 6.45789 9.57664 6.48337 9.40821C6.50886 9.23978 6.58068 9.0809 6.69147 8.94789C6.69147 8.94789 8.29847 7.01397 8.32547 6.98905C8.52974 6.79162 8.64435 6.52485 8.64435 6.24682C8.64435 5.96879 8.52974 5.70202 8.32547 5.50459C8.29447 5.47584 6.45347 3.18063 6.45347 3.18063C6.24437 3.00095 5.97147 2.90473 5.69072 2.91168C5.40996 2.91862 5.14261 3.02822 4.94347 3.21801L3.79347 4.17634C-1.84853 10.6777 15.4225 26.311 21.3675 20.9271L22.2785 19.9208C22.492 19.7313 22.6202 19.4697 22.636 19.1912C22.6519 18.9128 22.5542 18.6393 22.3635 18.4287Z" fill="white"/>
</g>
<defs>
<clipPath id="clip0_1551_3514">
<rect width="24" height="24" fill="white" transform="translate(0.646484)"/>
</clipPath>
</defs>
</svg>
