<svg width="135" height="34" viewBox="0 0 135 34" fill="none" xmlns="http://www.w3.org/2000/svg">
<g clip-path="url(#clip0_1551_1679)">
<path d="M35.5949 11.9839H49.1453V14.4754H43.8181V28.4844H40.8868V14.4754H35.5825V11.9829H35.594L35.5949 11.9839ZM48.5669 16.5362H51.0718V18.8425H51.1186C51.2018 18.5163 51.3548 18.2017 51.5795 17.8985C52.0599 17.2487 52.7101 16.745 53.4581 16.4431C53.8381 16.292 54.2426 16.213 54.6513 16.21C54.9573 16.21 55.1829 16.2215 55.3014 16.234C55.419 16.2455 55.5366 16.2685 55.6667 16.28V18.8185C55.4748 18.7849 55.2819 18.7577 55.0882 18.737C54.8959 18.7142 54.7025 18.7026 54.5089 18.7025C54.0595 18.7025 53.635 18.7955 53.2335 18.9711C52.8319 19.1447 52.4887 19.4124 52.1942 19.7511C51.88 20.1297 51.6394 20.5642 51.4848 21.0318C51.3079 21.5442 51.2248 22.1255 51.2248 22.7904V28.4728H48.5554V16.5362H48.5669ZM67.9416 28.4853H65.3191V26.8198H65.2713C64.9405 27.4262 64.4568 27.9039 63.8066 28.2647C63.1565 28.6254 62.4949 28.8115 61.8218 28.8115C60.2271 28.8115 59.0683 28.4278 58.3609 27.6468C57.6515 26.8668 57.2968 25.6906 57.2968 24.1182V16.5371H59.9671V23.862C59.9671 24.9106 60.1678 25.6561 60.5818 26.0869C60.9834 26.5176 61.5618 26.7392 62.2941 26.7392C62.8611 26.7392 63.3219 26.6577 63.6995 26.4821C64.0781 26.3075 64.385 26.0869 64.6097 25.7952C64.8459 25.516 65.0113 25.1668 65.1184 24.7706C65.2235 24.3743 65.2713 23.9436 65.2713 23.4783V16.5486H67.9416V28.4853ZM72.4896 24.6545C72.5728 25.422 72.8673 25.9593 73.3759 26.273C73.8951 26.5761 74.5098 26.7392 75.2307 26.7392C75.4793 26.7392 75.7623 26.7153 76.0816 26.6807C76.4 26.6452 76.7069 26.5637 76.9793 26.4601C77.2623 26.3545 77.4861 26.1914 77.6754 25.9823C77.8532 25.7712 77.9354 25.5045 77.9239 25.1668C77.9224 25.0101 77.888 24.8554 77.8229 24.7129C77.7578 24.5704 77.6636 24.4433 77.5463 24.3398C77.3092 24.1192 77.0147 23.9561 76.6476 23.816C76.2386 23.6738 75.8201 23.5609 75.3951 23.4783C74.9228 23.3852 74.4505 23.2797 73.9668 23.1751C73.4794 23.0693 72.9981 22.937 72.525 22.7789C72.0813 22.6362 71.6628 22.4241 71.285 22.1505C70.9168 21.8927 70.6166 21.5489 70.4102 21.1489C70.1865 20.7412 70.0794 20.2404 70.0794 19.635C70.0794 18.9826 70.2448 18.4473 70.5641 18.004C70.8862 17.5645 71.302 17.2026 71.7812 16.9449C72.2962 16.6717 72.8498 16.4792 73.4228 16.374C74.0251 16.2694 74.6045 16.2109 75.1475 16.2109C75.7737 16.2109 76.3761 16.281 76.944 16.4095C77.4938 16.5276 78.0178 16.7444 78.4909 17.0494C78.9517 17.3411 79.3294 17.7248 79.6372 18.1911C79.9441 18.6564 80.1334 19.2272 80.2156 19.8911H77.4277C77.2977 19.2627 77.0138 18.832 76.5539 18.6219C76.0931 18.4012 75.5615 18.2957 74.9706 18.2957C74.7813 18.2957 74.5567 18.3072 74.2976 18.3427C74.0479 18.376 73.8022 18.4345 73.5643 18.5173C73.3468 18.5977 73.1494 18.7247 72.9858 18.8895C72.9064 18.9755 72.8447 19.0764 72.8042 19.1864C72.7637 19.2964 72.7452 19.4133 72.7497 19.5304C72.7497 19.8566 72.8673 20.1128 73.092 20.3104C73.3166 20.508 73.6121 20.6711 73.9782 20.8112C74.3444 20.9397 74.7584 21.0558 75.2307 21.1489C75.703 21.242 76.1868 21.3465 76.6839 21.4521C77.1677 21.5566 77.64 21.6967 78.1132 21.8473C78.5855 21.9989 78.9986 22.209 79.3657 22.4767C79.7319 22.7443 80.0273 23.0705 80.251 23.4668C80.4757 23.862 80.5942 24.3628 80.5942 24.9452C80.5942 25.6551 80.4288 26.2499 80.0971 26.7507C79.7672 27.24 79.3418 27.6468 78.8217 27.95C78.2772 28.2647 77.6873 28.4926 77.073 28.6254C76.4481 28.7633 75.8103 28.8335 75.1705 28.8345C74.4539 28.8426 73.7394 28.7565 73.0451 28.5784C72.395 28.4038 71.828 28.1476 71.3557 27.8109C70.8889 27.4705 70.5052 27.0283 70.2333 26.5176C69.9618 26.0053 69.8193 25.3875 69.7964 24.6775H72.4896V24.6545ZM81.3027 16.5381H83.3229V12.95H85.9932V16.5381H88.4024V18.5048H85.9941V24.8876C85.9941 25.1658 86.0056 25.3999 86.0295 25.6091C86.0524 25.8077 86.1117 25.9823 86.1949 26.1214C86.2852 26.2676 86.4225 26.3785 86.584 26.4361C86.7618 26.5061 86.9856 26.5416 87.2934 26.5416C87.4818 26.5416 87.6711 26.5416 87.8604 26.5291C88.0497 26.5176 88.238 26.4946 88.4273 26.4476V28.4853C88.1319 28.5208 87.8365 28.5438 87.5649 28.5784C87.2787 28.6118 86.9907 28.6275 86.7026 28.6254C85.9941 28.6254 85.4272 28.5554 85.0008 28.4278C84.5763 28.2992 84.233 28.1016 83.9969 27.8454C83.7483 27.5893 83.5953 27.2746 83.5007 26.8899C83.4086 26.4572 83.3574 26.0168 83.3477 25.5745V18.5269H81.3275V16.5352H81.3036L81.3027 16.5381ZM90.2926 16.5381H92.8214V18.1556H92.8692C93.2459 17.4572 93.766 16.9679 94.4391 16.6657C95.1271 16.3587 95.8727 16.2037 96.6256 16.2109C97.5817 16.2109 98.4087 16.374 99.1181 16.7117C99.8265 17.0379 100.417 17.4927 100.89 18.0741C101.362 18.6564 101.705 19.3318 101.941 20.1012C102.182 20.9016 102.302 21.7337 102.296 22.5697C102.296 23.3727 102.19 24.1527 101.977 24.8991C101.781 25.6191 101.457 26.2975 101.02 26.9014C100.59 27.4836 100.032 27.9581 99.3896 28.2877C98.728 28.6369 97.9603 28.8115 97.0625 28.8115C96.6701 28.8111 96.2785 28.7758 95.8923 28.706C95.5071 28.6363 95.1309 28.5234 94.7708 28.3692C94.4132 28.2195 94.0786 28.0192 93.7775 27.7744C93.4802 27.5365 93.2212 27.254 93.0097 26.9369H92.9619V32.8995H90.2926V16.5362V16.5381ZM99.6257 22.5227C99.6263 21.9917 99.5549 21.463 99.4135 20.9513C99.2826 20.4664 99.0663 20.0089 98.7748 19.6004C98.4983 19.2118 98.1395 18.8895 97.7241 18.6564C97.278 18.4145 96.7779 18.2904 96.2709 18.2957C95.1485 18.2957 94.2976 18.6794 93.7306 19.4489C93.1637 20.2173 92.8797 21.2429 92.8797 22.5227C92.8797 23.1281 92.9514 23.6874 93.1044 24.1997C93.2574 24.7121 93.4706 25.1553 93.7775 25.5275C94.0738 25.9007 94.4276 26.1914 94.8416 26.4006C95.2546 26.6222 95.7393 26.7268 96.2824 26.7268C96.8971 26.7268 97.4048 26.5992 97.8302 26.3545C98.2422 26.1167 98.597 25.7908 98.8695 25.3999C99.141 25.0037 99.3427 24.5605 99.4603 24.0606C99.5691 23.5552 99.6245 23.0398 99.6257 22.5227ZM104.339 11.9839H107.009V14.4764H104.339V11.9839ZM104.339 16.5371H107.009V28.4853H104.339V16.5371ZM109.396 11.9839H112.066V28.4853H109.396V11.9839ZM120.253 28.8115C119.283 28.8115 118.421 28.6484 117.666 28.3347C116.942 28.0367 116.286 27.5926 115.74 27.0299C115.209 26.4559 114.803 25.7778 114.546 25.0382C114.265 24.2219 114.125 23.3633 114.133 22.4997C114.133 21.5912 114.275 20.7536 114.546 19.9842C114.803 19.245 115.21 18.5672 115.74 17.9935C116.259 17.4341 116.91 17.0034 117.666 16.6887C118.421 16.374 119.283 16.2109 120.253 16.2109C121.221 16.2109 122.084 16.374 122.84 16.6887C123.596 17.0034 124.234 17.4466 124.766 17.9935C125.296 18.567 125.703 19.2449 125.959 19.9842C126.23 20.7527 126.372 21.5912 126.372 22.4997C126.372 23.4207 126.23 24.2698 125.959 25.0382C125.703 25.7779 125.296 26.4561 124.766 27.0299C124.245 27.5893 123.596 28.02 122.84 28.3347C122.084 28.6484 121.221 28.8115 120.253 28.8115ZM120.253 26.7268C120.844 26.7268 121.363 26.5992 121.8 26.3545C122.226 26.1166 122.593 25.7862 122.875 25.3875C123.158 24.9922 123.359 24.5374 123.502 24.0366C123.632 23.5358 123.702 23.0235 123.702 22.4997C123.702 21.9874 123.632 21.4866 123.502 20.9743C123.38 20.4883 123.167 20.03 122.875 19.6235C122.593 19.2285 122.225 18.9023 121.8 18.6689C121.363 18.4242 120.844 18.2957 120.253 18.2957C119.662 18.2957 119.142 18.4242 118.705 18.6689C118.283 18.9058 117.916 19.2314 117.63 19.6235C117.343 20.0324 117.13 20.4899 117.004 20.9743C116.873 21.4722 116.806 21.9847 116.802 22.4997C116.802 23.0235 116.874 23.5358 117.004 24.0366C117.134 24.5374 117.346 24.9922 117.63 25.3875C117.913 25.7837 118.268 26.1099 118.705 26.3545C119.142 26.6107 119.662 26.7268 120.253 26.7268ZM127.152 16.5381H129.172V12.95H131.842V16.5381H134.252V18.5048H131.842V24.8876C131.842 25.1658 131.854 25.3999 131.877 25.6091C131.901 25.8077 131.96 25.9823 132.043 26.1214C132.133 26.2677 132.271 26.3787 132.432 26.4361C132.61 26.5061 132.834 26.5416 133.142 26.5416C133.33 26.5416 133.519 26.5416 133.709 26.5291C133.898 26.5176 134.086 26.4946 134.276 26.4476V28.4853C133.98 28.5208 133.685 28.5438 133.413 28.5784C133.127 28.6118 132.839 28.6275 132.551 28.6254C131.842 28.6254 131.274 28.5554 130.849 28.4278C130.425 28.2992 130.081 28.1016 129.845 27.8454C129.598 27.5893 129.444 27.2746 129.349 26.8899C129.257 26.4572 129.206 26.0168 129.196 25.5745V18.5269H127.176V16.5352H127.152V16.5381Z" fill="white"/>
<path d="M32.4761 11.9829H20.2374L16.4571 0.5L12.6635 11.9839L0.425781 11.9714L10.3373 19.0747L6.54558 30.5451L16.4571 23.4533L26.3572 30.5451L22.5769 19.0747L32.4761 11.9829Z" fill="#04DA8D"/>
<path d="M23.4268 21.6727L22.5759 19.0757L16.457 23.4543L23.4268 21.6727Z" fill="#126849"/>
</g>
<defs>
<clipPath id="clip0_1551_1679">
<rect width="133.85" height="32.6191" fill="white" transform="translate(0.425781 0.5)"/>
</clipPath>
</defs>
</svg>
