<svg width="117" height="57" viewBox="0 0 117 57" fill="none" xmlns="http://www.w3.org/2000/svg">
<g clip-path="url(#clip0_1551_4171)">
<path d="M31.4566 10.6981H43.1999V12.8368H38.5831V24.862H36.0427V12.8368H31.4458V10.6973H31.4557L31.4566 10.6981ZM42.6986 14.6057H44.8695V16.5855H44.9101C44.9822 16.3055 45.1147 16.0354 45.3095 15.7751C45.7258 15.2174 46.2893 14.785 46.9376 14.5259C47.2669 14.3962 47.6175 14.3283 47.9717 14.3257C48.2368 14.3257 48.4323 14.3356 48.5351 14.3463C48.637 14.3562 48.7389 14.376 48.8516 14.3859V16.5649C48.6853 16.536 48.5182 16.5127 48.3503 16.4949C48.1837 16.4753 48.016 16.4654 47.8482 16.4653C47.4588 16.4653 47.0909 16.5451 46.7429 16.6959C46.3949 16.8449 46.0974 17.0747 45.8422 17.3654C45.5699 17.6904 45.3614 18.0633 45.2274 18.4648C45.0741 18.9046 45.0021 19.4036 45.0021 19.9743V24.8521H42.6887V14.6057H42.6986ZM59.4896 24.8628H57.2169V23.4331H57.1754C56.8887 23.9536 56.4695 24.3637 55.9061 24.6734C55.3426 24.983 54.7693 25.1428 54.1859 25.1428C52.8039 25.1428 51.7997 24.8134 51.1865 24.143C50.5717 23.4735 50.2643 22.4639 50.2643 21.1141V14.6066H52.5785V20.8942C52.5785 21.7943 52.7525 22.4342 53.1113 22.804C53.4593 23.1737 53.9606 23.364 54.5953 23.364C55.0866 23.364 55.486 23.294 55.8133 23.1433C56.1414 22.9934 56.4073 22.804 56.6021 22.5536C56.8067 22.314 56.9501 22.0142 57.0429 21.6741C57.134 21.334 57.1754 20.9642 57.1754 20.5648V14.6164H59.4896V24.8628ZM63.4311 21.5744C63.5032 22.2333 63.7584 22.6944 64.1992 22.9637C64.6491 23.224 65.1819 23.364 65.8067 23.364C66.0221 23.364 66.2673 23.3434 66.5441 23.3137C66.82 23.2833 67.086 23.2133 67.3221 23.1243C67.5674 23.0337 67.7613 22.8937 67.9253 22.7142C68.0794 22.533 68.1507 22.3041 68.1407 22.0142C68.1394 21.8797 68.1096 21.7469 68.0532 21.6246C67.9968 21.5023 67.9151 21.3932 67.8135 21.3043C67.608 21.1149 67.3528 20.9749 67.0346 20.8547C66.6802 20.7326 66.3174 20.6358 65.9492 20.5648C65.5399 20.4849 65.1305 20.3943 64.7113 20.3046C64.2889 20.2137 63.8718 20.1002 63.4618 19.9644C63.0773 19.8419 62.7146 19.6599 62.3871 19.425C62.0681 19.2037 61.8079 18.9087 61.629 18.5653C61.4351 18.2153 61.3423 17.7854 61.3423 17.2657C61.3423 16.7057 61.4857 16.2462 61.7624 15.8657C62.0415 15.4884 62.4019 15.1778 62.8172 14.9566C63.2635 14.7221 63.7432 14.5568 64.2398 14.4666C64.7618 14.3768 65.2639 14.3266 65.7346 14.3266C66.2773 14.3266 66.7993 14.3867 67.2915 14.497C67.768 14.5984 68.2221 14.7845 68.6321 15.0463C69.0315 15.2967 69.3587 15.6261 69.6255 16.0263C69.8915 16.4257 70.0556 16.9157 70.1268 17.4856H67.7107C67.598 16.9462 67.3519 16.5764 66.9534 16.3961C66.554 16.2067 66.0933 16.1161 65.5813 16.1161C65.4172 16.1161 65.2225 16.126 64.998 16.1564C64.7816 16.185 64.5687 16.2353 64.3625 16.3063C64.174 16.3753 64.0029 16.4844 63.8612 16.6259C63.7924 16.6997 63.7389 16.7863 63.7038 16.8807C63.6686 16.9751 63.6526 17.0754 63.6565 17.176C63.6565 17.456 63.7584 17.6759 63.9531 17.8455C64.1479 18.0151 64.4039 18.1551 64.7212 18.2754C65.0386 18.3857 65.3973 18.4854 65.8067 18.5653C66.216 18.6451 66.6352 18.7349 67.0661 18.8255C67.4853 18.9153 67.8947 19.0355 68.3048 19.1648C68.7141 19.2949 69.0721 19.4753 69.3902 19.705C69.7076 19.9348 69.9636 20.2148 70.1575 20.5549C70.3522 20.8942 70.4549 21.3241 70.4549 21.824C70.4549 22.4334 70.3116 22.944 70.0241 23.3739C69.7382 23.7939 69.3695 24.143 68.9188 24.4033C68.4469 24.6734 67.9356 24.869 67.4033 24.983C66.8618 25.1015 66.309 25.1616 65.7545 25.1626C65.1335 25.1695 64.5142 25.0956 63.9125 24.9427C63.3491 24.7928 62.8578 24.5729 62.4485 24.2839C62.0439 23.9917 61.7113 23.6121 61.4757 23.1737C61.2404 22.734 61.1169 22.2036 61.0971 21.5942H63.4311V21.5744ZM71.0689 14.6074H72.8197V11.5274H75.1339V14.6074H77.2219V16.2956H75.1347V21.7746C75.1347 22.0134 75.1447 22.2143 75.1654 22.3939C75.1853 22.5643 75.2366 22.7142 75.3087 22.8336C75.387 22.9591 75.506 23.0543 75.6459 23.1037C75.8001 23.1639 75.9939 23.1943 76.2607 23.1943C76.424 23.1943 76.588 23.1943 76.7521 23.1836C76.9161 23.1737 77.0794 23.154 77.2434 23.1136V24.8628C76.9874 24.8933 76.7314 24.913 76.4961 24.9427C76.248 24.9713 75.9984 24.9848 75.7487 24.983C75.1347 24.983 74.6434 24.9229 74.2738 24.8134C73.9059 24.703 73.6085 24.5334 73.4038 24.3135C73.1884 24.0936 73.0558 23.8235 72.9738 23.4933C72.894 23.1219 72.8497 22.7439 72.8412 22.3642V16.3146H71.0905V14.6049H71.0697L71.0689 14.6074ZM78.86 14.6074H81.0515V15.9959H81.093C81.4194 15.3963 81.8702 14.9763 82.4535 14.7169C83.0497 14.4534 83.6959 14.3203 84.3484 14.3266C85.177 14.3266 85.8937 14.4666 86.5085 14.7564C87.1225 15.0364 87.6345 15.4268 88.0439 15.9259C88.4532 16.4257 88.7506 17.0055 88.9553 17.666C89.1638 18.353 89.2674 19.0673 89.2627 19.7849C89.2627 20.4742 89.1707 21.1437 88.986 21.7844C88.8163 22.4025 88.5352 22.9848 88.1565 23.5031C87.7844 24.0029 87.3008 24.4102 86.7438 24.6931C86.1705 24.9929 85.5051 25.1428 84.7271 25.1428C84.387 25.1424 84.0476 25.1121 83.7129 25.0522C83.3791 24.9924 83.053 24.8954 82.741 24.7631C82.431 24.6346 82.1411 24.4627 81.8801 24.2526C81.6225 24.0483 81.3981 23.8058 81.2148 23.5336H81.1733V28.6519H78.86V14.6057V14.6074ZM86.9485 19.7446C86.9489 19.2887 86.8871 18.8349 86.7645 18.3956C86.6511 17.9794 86.4636 17.5867 86.2111 17.2361C85.9714 16.9025 85.6604 16.6258 85.3005 16.4257C84.9138 16.2181 84.4805 16.1115 84.041 16.1161C83.0683 16.1161 82.3309 16.4455 81.8395 17.106C81.3482 17.7656 81.1021 18.646 81.1021 19.7446C81.1021 20.2642 81.1642 20.7443 81.2968 21.1841C81.4294 21.6239 81.6141 22.0043 81.8801 22.3239C82.137 22.6442 82.4435 22.8937 82.8023 23.0733C83.1603 23.2635 83.5803 23.3533 84.051 23.3533C84.5837 23.3533 85.0237 23.2437 85.3924 23.0337C85.7495 22.8296 86.057 22.5498 86.2931 22.2143C86.5284 21.8742 86.7032 21.4937 86.8051 21.0647C86.8994 20.6309 86.9474 20.1884 86.9485 19.7446ZM91.0333 10.6981H93.3475V12.8376H91.0333V10.6981ZM91.0333 14.6066H93.3475V24.8628H91.0333V14.6066ZM95.4157 10.6981H97.7299V24.8628H95.4157V10.6981ZM104.825 25.1428C103.985 25.1428 103.237 25.0028 102.583 24.7335C101.955 24.4777 101.387 24.0965 100.914 23.6135C100.454 23.1208 100.102 22.5387 99.8792 21.9039C99.6356 21.2031 99.5146 20.4661 99.5212 19.7248C99.5212 18.9449 99.6439 18.226 99.8792 17.5655C100.102 16.931 100.454 16.3492 100.914 15.8567C101.364 15.3766 101.927 15.0068 102.583 14.7367C103.237 14.4666 103.985 14.3266 104.825 14.3266C105.664 14.3266 106.412 14.4666 107.067 14.7367C107.722 15.0068 108.275 15.3873 108.736 15.8567C109.196 16.349 109.548 16.9309 109.77 17.5655C110.005 18.2251 110.128 18.9449 110.128 19.7248C110.128 20.5154 110.005 21.2442 109.77 21.9039C109.548 22.5388 109.196 23.121 108.736 23.6135C108.285 24.0936 107.722 24.4634 107.067 24.7335C106.412 25.0028 105.664 25.1428 104.825 25.1428ZM104.825 23.3533C105.337 23.3533 105.787 23.2437 106.166 23.0337C106.535 22.8295 106.853 22.5459 107.098 22.2036C107.343 21.8643 107.517 21.474 107.64 21.0441C107.753 20.6142 107.814 20.1744 107.814 19.7248C107.814 19.285 107.753 18.8551 107.64 18.4154C107.535 17.9982 107.351 17.6048 107.098 17.2559C106.853 16.9168 106.534 16.6368 106.166 16.4364C105.787 16.2264 105.337 16.1161 104.825 16.1161C104.313 16.1161 103.862 16.2264 103.483 16.4364C103.117 16.6398 102.8 16.9193 102.552 17.2559C102.303 17.6069 102.119 17.9996 102.009 18.4154C101.896 18.8428 101.837 19.2828 101.835 19.7248C101.835 20.1744 101.897 20.6142 102.009 21.0441C102.122 21.474 102.306 21.8643 102.552 22.2036C102.797 22.5437 103.105 22.8237 103.483 23.0337C103.862 23.2536 104.313 23.3533 104.825 23.3533ZM110.804 14.6074H112.555V11.5274H114.869V14.6074H116.957V16.2956H114.869V21.7746C114.869 22.0134 114.879 22.2143 114.899 22.3939C114.919 22.5643 114.971 22.7142 115.043 22.8336C115.121 22.9592 115.24 23.0545 115.38 23.1037C115.534 23.1639 115.728 23.1943 115.995 23.1943C116.158 23.1943 116.322 23.1943 116.486 23.1836C116.65 23.1737 116.814 23.154 116.978 23.1136V24.8628C116.722 24.8933 116.466 24.913 116.23 24.9427C115.982 24.9713 115.733 24.9848 115.483 24.983C114.869 24.983 114.377 24.9229 114.008 24.8134C113.64 24.703 113.343 24.5334 113.138 24.3135C112.923 24.0936 112.79 23.8235 112.708 23.4933C112.628 23.1219 112.584 22.7439 112.575 22.3642V16.3146H110.825V14.6049H110.804V14.6074Z" fill="white"/>
<path d="M28.7537 10.6972H18.1472L14.871 0.840332L11.5833 10.698L0.977539 10.6873L9.56734 16.7847L6.28122 26.6308L14.871 20.5433L23.4509 26.6308L20.1747 16.7847L28.7537 10.6972Z" fill="#04DA8D"/>
<path d="M20.9114 19.0149L20.174 16.7856L14.8711 20.5442L20.9114 19.0149Z" fill="#126849"/>
</g>
<path d="M39.7675 51.1602V47.5802H33.7775V45.4902L39.2675 37.1602H41.8475V45.5002H43.1275V47.5802H41.8475V51.1602H39.7675ZM36.1975 45.4902L39.7675 45.5002L39.7475 40.0302L36.1975 45.4902ZM54.7299 51.4202C53.8099 51.4202 52.9699 51.1835 52.2099 50.7102C51.4565 50.2368 50.8532 49.6035 50.3999 48.8102C49.9532 48.0102 49.7299 47.1268 49.7299 46.1602C49.7299 45.4268 49.8599 44.7435 50.1199 44.1102C50.3799 43.4702 50.7365 42.9102 51.1899 42.4302C51.6499 41.9435 52.1832 41.5635 52.7899 41.2902C53.3965 41.0168 54.0432 40.8802 54.7299 40.8802C55.6499 40.8802 56.4865 41.1168 57.2399 41.5902C57.9999 42.0635 58.6032 42.7002 59.0499 43.5002C59.5032 44.3002 59.7299 45.1868 59.7299 46.1602C59.7299 46.8868 59.5999 47.5668 59.3399 48.2002C59.0799 48.8335 58.7199 49.3935 58.2599 49.8802C57.8065 50.3602 57.2765 50.7368 56.6699 51.0102C56.0699 51.2835 55.4232 51.4202 54.7299 51.4202ZM54.7299 49.3402C55.2832 49.3402 55.7799 49.1935 56.2199 48.9002C56.6599 48.6068 57.0065 48.2202 57.2599 47.7402C57.5199 47.2535 57.6499 46.7268 57.6499 46.1602C57.6499 45.5802 57.5165 45.0468 57.2499 44.5602C56.9899 44.0735 56.6399 43.6868 56.1999 43.4002C55.7599 43.1068 55.2699 42.9602 54.7299 42.9602C54.1832 42.9602 53.6865 43.1068 53.2399 43.4002C52.7999 43.6935 52.4499 44.0835 52.1899 44.5702C51.9365 45.0568 51.8099 45.5868 51.8099 46.1602C51.8099 46.7535 51.9432 47.2902 52.2099 47.7702C52.4765 48.2502 52.8299 48.6335 53.2699 48.9202C53.7165 49.2002 54.2032 49.3402 54.7299 49.3402ZM60.7502 47.4102V41.1602H62.8302V46.9002C62.8302 47.3468 62.9402 47.7535 63.1602 48.1202C63.3802 48.4868 63.6735 48.7802 64.0402 49.0002C64.4069 49.2135 64.8102 49.3202 65.2502 49.3202C65.6969 49.3202 66.1002 49.2135 66.4602 49.0002C66.8269 48.7802 67.1169 48.4868 67.3302 48.1202C67.5502 47.7535 67.6602 47.3468 67.6602 46.9002V41.1602H69.7402L69.7502 51.1602H67.6702L67.6602 50.0802C67.3202 50.4935 66.8969 50.8202 66.3902 51.0602C65.8835 51.3002 65.3402 51.4202 64.7602 51.4202C64.0202 51.4202 63.3469 51.2402 62.7402 50.8802C62.1335 50.5202 61.6502 50.0368 61.2902 49.4302C60.9302 48.8235 60.7502 48.1502 60.7502 47.4102ZM77.0357 43.2402H74.9357L74.9257 51.1602H72.8457L72.8557 43.2402H71.2657V41.1602H72.8557L72.8457 38.0202H74.9257L74.9357 41.1602H77.0357V43.2402ZM88.0307 51.4202C87.1107 51.4202 86.2707 51.1835 85.5107 50.7102C84.7573 50.2368 84.154 49.6035 83.7007 48.8102C83.254 48.0102 83.0307 47.1268 83.0307 46.1602C83.0307 45.4268 83.1607 44.7435 83.4207 44.1102C83.6807 43.4702 84.0373 42.9102 84.4907 42.4302C84.9507 41.9435 85.484 41.5635 86.0907 41.2902C86.6973 41.0168 87.344 40.8802 88.0307 40.8802C88.9507 40.8802 89.7873 41.1168 90.5407 41.5902C91.3007 42.0635 91.904 42.7002 92.3507 43.5002C92.804 44.3002 93.0307 45.1868 93.0307 46.1602C93.0307 46.8868 92.9007 47.5668 92.6407 48.2002C92.3807 48.8335 92.0207 49.3935 91.5607 49.8802C91.1073 50.3602 90.5773 50.7368 89.9707 51.0102C89.3707 51.2835 88.724 51.4202 88.0307 51.4202ZM88.0307 49.3402C88.584 49.3402 89.0807 49.1935 89.5207 48.9002C89.9607 48.6068 90.3073 48.2202 90.5607 47.7402C90.8207 47.2535 90.9507 46.7268 90.9507 46.1602C90.9507 45.5802 90.8173 45.0468 90.5507 44.5602C90.2907 44.0735 89.9407 43.6868 89.5007 43.4002C89.0607 43.1068 88.5707 42.9602 88.0307 42.9602C87.484 42.9602 86.9873 43.1068 86.5407 43.4002C86.1007 43.6935 85.7507 44.0835 85.4907 44.5702C85.2373 45.0568 85.1107 45.5868 85.1107 46.1602C85.1107 46.7535 85.244 47.2902 85.5107 47.7702C85.7773 48.2502 86.1307 48.6335 86.5707 48.9202C87.0173 49.2002 87.504 49.3402 88.0307 49.3402ZM97.3921 38.8902V41.1602H100.212V43.2402H97.3921V51.1602H95.3121V43.2402H94.1221V41.1602H95.3121V38.8902C95.3121 38.3435 95.4454 37.8468 95.7121 37.4002C95.9787 36.9468 96.3354 36.5868 96.7821 36.3202C97.2354 36.0535 97.7387 35.9202 98.2921 35.9202C98.6921 35.9202 99.0821 36.0002 99.4621 36.1602C99.8421 36.3202 100.182 36.5668 100.482 36.9002L98.9921 38.3702C98.9187 38.2502 98.8154 38.1602 98.6821 38.1002C98.5554 38.0335 98.4254 38.0002 98.2921 38.0002C98.0454 38.0002 97.8321 38.0868 97.6521 38.2602C97.4787 38.4335 97.3921 38.6435 97.3921 38.8902ZM110.927 51.4202C110.04 51.4202 109.237 51.2068 108.517 50.7802C107.804 50.3468 107.237 49.7735 106.817 49.0602C106.404 48.3402 106.197 47.5535 106.197 46.7002H108.277C108.277 47.1868 108.397 47.6302 108.637 48.0302C108.877 48.4302 109.197 48.7502 109.597 48.9902C109.997 49.2235 110.44 49.3402 110.927 49.3402C111.407 49.3402 111.847 49.2235 112.247 48.9902C112.647 48.7502 112.967 48.4302 113.207 48.0302C113.447 47.6302 113.567 47.1868 113.567 46.7002C113.567 46.2135 113.457 45.7702 113.237 45.3702C113.017 44.9635 112.687 44.6402 112.247 44.4002C111.807 44.1535 111.247 44.0302 110.567 44.0302H107.037L108.457 37.1602H115.227V39.2402H110.147L109.597 41.9502L110.807 41.9702C111.76 41.9902 112.597 42.2102 113.317 42.6302C114.044 43.0435 114.614 43.6035 115.027 44.3102C115.44 45.0102 115.647 45.8068 115.647 46.7002C115.647 47.3468 115.524 47.9568 115.277 48.5302C115.03 49.0968 114.69 49.5968 114.257 50.0302C113.83 50.4635 113.33 50.8035 112.757 51.0502C112.19 51.2968 111.58 51.4202 110.927 51.4202Z" fill="white"/>
<defs>
<clipPath id="clip0_1551_4171">
<rect width="116" height="28" fill="white" transform="translate(0.977539 0.840332)"/>
</clipPath>
</defs>
</svg>
