<svg width="53" height="37" viewBox="0 0 53 37" fill="none" xmlns="http://www.w3.org/2000/svg">
<rect x="1.07031" y="1.01562" width="51" height="34.5261" rx="5.5" fill="white"/>
<rect x="1.07031" y="1.01562" width="51" height="34.5261" rx="5.5" stroke="#D6DCE5"/>
<path d="M17.1483 8.26953H24.758C25.8203 8.26953 26.4817 9.17097 26.2338 10.2811L22.6904 26.1123C22.44 27.2191 21.377 28.1206 20.3143 28.1206H12.7043C11.6416 28.1206 10.981 27.2191 11.2288 26.1123L14.7741 10.2811C15.0212 9.17097 16.0835 8.26953 17.1483 8.26953Z" fill="#ED171F"/>
<path d="M24.1252 8.26953H32.8769C33.9389 8.26953 33.4599 9.17097 33.2103 10.2811L29.6672 26.1123C29.4197 27.2191 29.4973 28.1206 28.4325 28.1206H19.6814C18.6177 28.1206 17.9589 27.2191 18.2089 26.1123L21.7505 10.2811C22.0009 9.17097 23.0628 8.26953 24.1252 8.26953Z" fill="#082F67"/>
<path d="M32.5307 8.26953H40.1393C41.2023 8.26953 41.8629 9.17097 41.614 10.2811L38.0713 26.1123C37.8223 27.2191 36.7596 28.1206 35.6934 28.1206H28.0869C27.0221 28.1206 26.3626 27.2191 26.6122 26.1123L30.1539 10.2811C30.4032 9.17097 31.4655 8.26953 32.5307 8.26953Z" fill="#006A65"/>
<path fill-rule="evenodd" clip-rule="evenodd" d="M31.7352 13.331H32.0536L32.1141 13.3324C32.7387 13.3465 33.2632 13.3583 33.5295 13.7377C33.6308 13.8883 33.6743 14.0841 33.6743 14.2799C33.6743 14.4455 33.6453 14.5961 33.6164 14.7166C33.5006 15.2287 33.2546 15.6655 32.8784 15.9516C32.3285 16.3733 31.6194 16.3733 30.9972 16.3733H30.9393C30.8959 16.4035 30.8525 16.4637 30.8525 16.4637C30.8525 16.4938 30.7078 17.1113 30.7078 17.1113C30.7078 17.1113 30.5342 17.9698 30.5052 18.1054C30.3895 18.0903 30.0856 18.0903 29.3765 18.1054C29.4055 17.9548 30.1145 14.9275 30.1145 14.9275L30.4039 13.4967L30.4473 13.316C30.5776 13.331 30.9104 13.3461 31.7352 13.331ZM31.9523 15.5299C32.2127 15.4094 32.4009 15.1383 32.4732 14.8221C32.5456 14.4757 32.4443 14.2046 32.1983 14.0991C32.1838 14.0991 31.5326 14.0389 31.5326 14.0389L31.4024 14.0238V14.0841L31.3879 14.1594L31.0696 15.5751L31.0551 15.6504H31.2287C31.4892 15.6504 31.7497 15.6354 31.9523 15.5299Z" fill="white"/>
<path d="M18.0172 13.346C17.9883 13.4816 17.4673 16.0118 17.4673 16.0118C17.3516 16.5239 17.2647 16.8853 16.9898 17.1263C16.8306 17.2619 16.6425 17.3221 16.4255 17.3221C16.0782 17.3221 15.8756 17.1414 15.8466 16.81L15.8322 16.6896L15.9335 15.9968C15.9335 15.9968 16.4833 13.6924 16.5846 13.3912C16.5846 13.3761 16.5991 13.3611 16.5991 13.3611C15.5283 13.3761 15.3257 13.3611 15.3257 13.346C15.3257 13.3761 15.2968 13.5117 15.2968 13.5117L14.7324 16.1022L14.689 16.3281L14.6022 17.051C14.6022 17.2619 14.6456 17.4426 14.7179 17.5932C14.9784 18.0601 15.7019 18.1354 16.1216 18.1354C16.657 18.1354 17.149 18.0149 17.4963 17.8041C18.0652 17.4574 18.2216 16.9169 18.3611 16.4348L18.379 16.3733L18.4369 16.1172C18.4369 16.1172 19.0012 13.7225 19.1025 13.4063V13.3761C18.9232 13.3727 18.7729 13.37 18.6467 13.3678C18.2232 13.3603 18.073 13.3576 18.0172 13.346Z" fill="white"/>
<path fill-rule="evenodd" clip-rule="evenodd" d="M33.7032 19.9578L32.7771 23.1357H33.0231L32.9314 23.4588L32.9507 23.3917H33.2112C33.2835 23.3917 33.3414 23.3616 33.3993 23.3315C33.4427 23.3164 33.4861 23.2863 33.544 23.211L34.2241 22.2169H33.3125L33.4717 21.6748H34.5135L34.6582 21.1777H33.6308L33.8045 20.5602H36.6696L36.496 21.1777H35.5409L35.3818 21.6748H36.3513L36.1921 22.2169H35.1502L34.9621 22.4429H35.3818L35.4831 23.1357C35.4879 23.1608 35.4911 23.1809 35.4938 23.1976C35.4991 23.2311 35.5023 23.2511 35.512 23.2712C35.5265 23.3013 35.6567 23.3164 35.729 23.3164H35.8593L35.6712 23.9791H35.1213C35.0557 23.9693 35.0083 23.9406 34.9634 23.9134C34.939 23.8986 34.9153 23.8843 34.8898 23.8737C34.8319 23.8435 34.7451 23.7682 34.7161 23.6327L34.6148 22.9399L34.1373 23.6176C33.9926 23.8285 33.79 23.9941 33.4427 23.9941H32.7771L32.8335 23.7984H32.589L32.5311 24.0092H31.6484L31.7063 23.7984H29.9119L30.1001 23.1959H30.2737L31.4024 19.3102H32.2996L32.1983 19.6416C32.1983 19.6416 32.4443 19.4608 32.6613 19.4006C32.8535 19.3506 33.7834 19.3213 34.094 19.3128L34.0939 19.3102H35.0489L35.0634 19.6867C35.0634 19.747 35.1068 19.7771 35.2226 19.7771H35.4251L35.2515 20.3946H34.7306C34.282 20.4247 34.1083 20.2289 34.1228 20.003L34.1066 19.6152L34.0071 19.9578H33.7032ZM31.1853 23.1508H31.8944L32.1115 22.4429H31.3879L31.1853 23.1508ZM31.7642 21.1627L31.5182 22.0061C31.5182 22.0061 31.7931 21.8555 31.9378 21.8103C32.0825 21.7802 32.314 21.7501 32.314 21.7501L32.4877 21.1627H31.7642ZM32.1115 19.9578L31.8799 20.7711C31.8799 20.7711 32.1404 20.6506 32.2851 20.6055C32.4298 20.5603 32.6469 20.5452 32.6469 20.5452L32.8205 19.9578H32.1115Z" fill="white"/>
<path d="M24.2251 20.726H26.6416L26.468 21.3284H25.4985L25.3538 21.8405H26.3377L26.1641 22.458H25.1801L24.9341 23.2863C24.9052 23.3767 25.1656 23.3918 25.2669 23.3918L25.7589 23.3165L25.5563 24.0093H24.4421C24.3734 24.0093 24.3138 23.9998 24.2417 23.9884C24.2227 23.9854 24.2028 23.9823 24.1816 23.9791C24.0948 23.9641 24.0514 23.9038 24.008 23.8436C24.0008 23.831 23.9931 23.8193 23.9856 23.8077C23.9481 23.7503 23.914 23.6979 23.9501 23.5725L24.2685 22.473H23.7186L23.8922 21.8405H24.4421L24.5868 21.3284H24.0369L24.2251 20.726Z" fill="white"/>
<path d="M26.8297 19.6416H25.8457L25.9904 19.3102H25.0064L24.7604 19.7771C24.7026 19.8825 24.6591 19.9428 24.6157 19.9729C24.5868 19.988 24.5144 20.003 24.3987 20.003H24.2684L24.0948 20.6055H24.5289C24.746 20.6055 24.9051 20.5302 24.9775 20.485C25.005 20.4754 25.0267 20.4704 25.0453 20.4661C25.0856 20.4568 25.1116 20.4508 25.1511 20.4097L25.2958 20.2741H26.6561L26.8297 19.6416Z" fill="white"/>
<path fill-rule="evenodd" clip-rule="evenodd" d="M27.2639 19.3102H28.1031L27.9874 19.747C27.9874 19.747 28.2479 19.5211 28.436 19.4458C28.6241 19.3705 29.0437 19.3102 29.0437 19.3102H30.4039L29.9409 20.9217C29.8541 21.1928 29.7672 21.3736 29.7094 21.4639C29.6515 21.5543 29.5936 21.6145 29.4778 21.6898C29.3621 21.7501 29.2608 21.7953 29.1595 21.7953C29.0727 21.8103 28.928 21.8103 28.74 21.8103H27.423L27.0468 23.0905C27.04 23.1186 27.0333 23.1435 27.0273 23.1656C27.0075 23.2383 26.9957 23.2818 27.0179 23.3164C27.0323 23.3466 27.0757 23.3767 27.1481 23.3767L27.7269 23.3164L27.5243 24.0243H26.8732C26.6706 24.0243 26.5114 24.0243 26.4101 24.0092C26.3817 24.005 26.3532 24.0032 26.3255 24.0013C26.2542 23.9967 26.1872 23.9923 26.1352 23.949C26.1272 23.9407 26.1186 23.932 26.1098 23.9232C26.0549 23.8679 25.9905 23.803 25.9905 23.7381C25.9905 23.6674 26.016 23.57 26.0551 23.4209L26.0628 23.3917L27.2639 19.3102ZM27.7559 20.6808C27.7559 20.6808 28.0308 20.4247 28.4938 20.3344C28.5951 20.3193 29.2608 20.3193 29.2608 20.3193L29.3621 19.9729H27.9584L27.7559 20.6808ZM29.0582 20.9368H27.669L27.5822 21.223H28.7833C28.899 21.2109 28.9407 21.2181 28.9601 21.2215C28.965 21.2224 28.9685 21.223 28.9714 21.223L29.0582 20.9368Z" fill="white"/>
<path d="M29.6514 22.3073L29.7238 21.9157H29.0871L29.0002 22.1868C28.9858 22.232 28.9713 22.2621 28.9423 22.2772C28.9134 22.2922 28.8555 22.3073 28.7976 22.3073H28.5951L28.6095 21.9609H27.7847L27.7558 23.6628C27.7558 23.7833 27.7702 23.8586 27.8571 23.9188C27.9439 23.9941 28.2044 24.0092 28.5661 24.0092H29.0871L29.2752 23.3615L28.8266 23.3917L28.6819 23.4067C28.6759 23.4005 28.6699 23.3968 28.6629 23.3926C28.6529 23.3865 28.6409 23.3792 28.624 23.3615C28.6201 23.3535 28.6153 23.3487 28.6102 23.3437C28.5962 23.3298 28.5806 23.3144 28.5806 23.226V22.7892L29.0436 22.7591C29.2896 22.7591 29.4054 22.6687 29.4922 22.5934C29.5935 22.5181 29.6225 22.4278 29.6514 22.3073Z" fill="white"/>
<path d="M20.2023 18.1054C20.6508 18.0903 20.7955 18.0903 21.1718 18.0903L21.2152 18.0451C21.2612 17.7222 21.2889 17.5797 21.3563 17.2331C21.3738 17.1432 21.3939 17.0396 21.4178 16.9155L21.4757 16.6444L21.4796 16.6253C21.5927 16.0809 21.6483 15.8135 21.5625 15.5902C21.4612 15.3341 21.2297 15.2739 21.0271 15.2739C20.8824 15.2739 20.6364 15.304 20.4048 15.4245C20.3687 15.4471 20.3289 15.4697 20.2891 15.4923C20.2493 15.5149 20.2095 15.5374 20.1733 15.56L20.2457 15.2889L20.2023 15.2438C19.7366 15.3466 19.615 15.3634 19.2067 15.4201L19.1749 15.4245L19.1459 15.4546L19.1447 15.4635C19.0874 15.8959 19.0433 16.2287 18.8565 17.0963C18.8203 17.2544 18.7842 17.4163 18.748 17.5782C18.7118 17.74 18.6756 17.9021 18.6394 18.0602L18.6539 18.1054C19.1025 18.0903 19.2472 18.0903 19.6379 18.0903L19.6668 18.0602C19.6908 17.9479 19.7049 17.8718 19.7213 17.7826C19.7446 17.6565 19.7727 17.5042 19.8405 17.1866C19.859 17.0999 19.882 16.984 19.9065 16.8599C19.9587 16.5961 20.0182 16.2957 20.0576 16.1625C20.1588 16.1173 20.2601 16.0721 20.347 16.0721C20.564 16.0721 20.5495 16.283 20.5351 16.3583C20.5206 16.4938 20.4483 16.9306 20.3614 17.3071L20.3035 17.5481C20.2795 17.6984 20.2454 17.8383 20.2096 17.9851C20.2024 18.0148 20.1951 18.0448 20.1878 18.0752L20.2023 18.1054Z" fill="white"/>
<path d="M22.7201 18.0903H22.1991C22.1328 18.0903 22.0666 18.0934 21.9947 18.0969C21.9097 18.1009 21.8169 18.1053 21.7071 18.1053L21.6782 18.0752C21.7361 17.8493 21.765 17.7589 21.794 17.6836C21.8229 17.6083 21.8518 17.5179 21.8952 17.292C21.9676 16.9908 22.011 16.78 22.04 16.5842C22.0544 16.4938 22.0653 16.411 22.0761 16.3281C22.087 16.2453 22.0978 16.1625 22.1123 16.0721L22.1412 16.042C22.2518 16.0276 22.3425 16.0132 22.4229 16.0005C22.5109 15.9865 22.5866 15.9745 22.6622 15.9667C22.8069 15.9516 22.9661 15.9215 23.1976 15.8612L23.2121 15.8763V15.8914C23.1904 15.9893 23.1686 16.0834 23.1469 16.1775C23.1252 16.2717 23.1035 16.3658 23.0818 16.4637C23.0601 16.5616 23.0384 16.6557 23.0167 16.7499C22.995 16.844 22.9733 16.9381 22.9516 17.036C22.8648 17.4426 22.8358 17.5782 22.8069 17.6987C22.8001 17.7481 22.7933 17.7875 22.7851 17.8357C22.7757 17.8903 22.7644 17.9561 22.749 18.0601L22.7201 18.0903Z" fill="white"/>
<path fill-rule="evenodd" clip-rule="evenodd" d="M26.0483 15.6504C26.1786 15.8311 26.2799 16.1173 26.1496 16.7197C26.1062 16.9004 25.9905 17.3523 25.7445 17.6384C25.4116 18.0149 24.9631 18.1354 24.5289 18.1354C24.3553 18.1354 24.0948 18.1053 23.9067 18.03C23.3134 17.774 23.4002 17.1113 23.4871 16.7348C23.5594 16.3733 23.7041 15.9968 23.9935 15.7106C24.3987 15.319 24.9196 15.304 25.1367 15.304C25.4985 15.304 25.8458 15.3793 26.0483 15.6504ZM25.133 16.7626C25.1403 16.7322 25.1463 16.7071 25.1512 16.6896C25.2525 16.2227 25.238 15.9215 24.992 15.9516C24.6881 15.9516 24.5724 16.3281 24.4711 16.795C24.4668 16.8191 24.4626 16.8426 24.4585 16.8657C24.4343 17.0005 24.4132 17.1182 24.4132 17.2468C24.4132 17.533 24.6013 17.533 24.6302 17.533C24.746 17.533 24.8328 17.4577 24.9196 17.3372C25.0282 17.1991 25.0965 16.9147 25.133 16.7626Z" fill="white"/>
<path fill-rule="evenodd" clip-rule="evenodd" d="M35.4686 18.1355C35.0055 18.1355 34.8753 18.1355 34.4412 18.1505L34.4122 18.1204L34.4584 17.94C34.3009 18.0771 34.1312 18.1714 33.9492 18.1806C33.7901 18.1806 33.6164 18.1505 33.4283 18.0752C32.835 17.8342 32.9218 17.1565 33.0086 16.795C33.081 16.4336 33.2257 16.057 33.5151 15.7709C33.9348 15.3944 34.4123 15.2889 34.6149 15.3642C34.765 15.425 34.8659 15.5208 34.9365 15.634L34.9476 15.545L34.9766 15.5148C35.0718 15.4994 35.1523 15.4864 35.2243 15.4749C35.5024 15.4302 35.6536 15.4059 36.0329 15.3341L36.0474 15.3793L35.7869 16.5089C35.6512 17.1208 35.5862 17.5028 35.5298 17.8346L35.5296 17.8356C35.5139 17.9281 35.4988 18.0167 35.483 18.1053L35.4686 18.1355ZM34.8191 16.3898C34.8154 16.131 34.7057 15.9817 34.528 15.9817C34.2242 15.9817 34.1084 16.3733 34.0071 16.8251L33.9992 16.8704C33.9731 17.0183 33.9492 17.1539 33.9492 17.277C33.9492 17.5631 34.1373 17.5631 34.1663 17.5631C34.282 17.5631 34.4702 17.5029 34.5425 17.3824C34.5863 17.3197 34.626 17.2247 34.6599 17.1259C34.6892 17.0015 34.7176 16.8762 34.745 16.7498C34.7744 16.6138 34.7987 16.4955 34.8191 16.3898Z" fill="white"/>
<path d="M28.7543 18.0903C28.3636 18.0903 28.2333 18.0903 27.7992 18.1054L27.7847 18.0752C27.7921 18.0448 27.7994 18.0149 27.8066 17.9852C27.8424 17.8383 27.8764 17.6984 27.9005 17.5481L27.9584 17.3071C28.0452 16.9306 28.1176 16.4938 28.132 16.3583C28.1465 16.283 28.161 16.0721 27.9439 16.0721C27.8571 16.0721 27.7558 16.1173 27.6545 16.1625C27.6151 16.2957 27.5557 16.5961 27.5035 16.8599C27.4789 16.9839 27.456 17.0999 27.4375 17.1866C27.3462 17.6139 27.3269 17.7419 27.3016 17.9096C27.2947 17.9547 27.2875 18.0027 27.2783 18.0602L27.2493 18.0903C26.8586 18.0903 26.7139 18.0903 26.2654 18.1054L26.2509 18.0602C26.2871 17.902 26.3232 17.7401 26.3594 17.5782C26.3956 17.4163 26.4318 17.2544 26.4679 17.0963C26.6548 16.2287 26.6989 15.8959 26.7562 15.4635L26.7573 15.4546L26.7863 15.4245L26.8181 15.4201C27.2264 15.3634 27.348 15.3466 27.8137 15.2438L27.8571 15.2889L27.7847 15.56C27.8209 15.5374 27.8607 15.5149 27.9005 15.4923C27.9403 15.4697 27.9801 15.4471 28.0163 15.4245C28.2478 15.304 28.4938 15.2739 28.624 15.2739C28.8266 15.2739 29.0582 15.3341 29.1594 15.5902C29.2453 15.8135 29.1897 16.0809 29.0766 16.6253L29.0726 16.6444L29.0147 16.9155C28.9109 17.3959 28.8807 17.5698 28.836 17.8267C28.8246 17.892 28.8123 17.9627 28.7977 18.0451L28.7543 18.0903Z" fill="white"/>
<path d="M39.2453 15.3341L39.2019 15.2889C38.7244 15.3943 38.6521 15.4094 38.2179 15.4696L38.189 15.4997V15.5148C38.0189 15.9251 37.9397 16.069 37.8631 16.2081C37.7963 16.3294 37.7315 16.4471 37.6102 16.7347V16.6594L37.5523 15.3341L37.5089 15.2889C37.3945 15.3134 37.306 15.333 37.2318 15.3495C36.9867 15.4038 36.8981 15.4234 36.5538 15.4696L36.5249 15.4997C36.5249 15.5148 36.5249 15.5299 36.5104 15.5449C36.5539 15.7713 36.5566 15.7935 36.5797 15.9887C36.5874 16.0532 36.5973 16.1367 36.6117 16.2528C36.6262 16.3733 36.6407 16.49 36.6551 16.6067C36.6696 16.7234 36.6841 16.8402 36.6985 16.9607C36.7139 17.0988 36.7274 17.2107 36.741 17.3235C36.766 17.5304 36.7913 17.7402 36.8288 18.1204C36.7131 18.3211 36.6309 18.4759 36.5568 18.6157C36.4362 18.843 36.3368 19.0304 36.1487 19.3102L36.1631 19.3554C36.6117 19.3403 36.713 19.3403 37.0458 19.3403L37.1182 19.2499C37.3497 18.7228 39.2453 15.3341 39.2453 15.3341Z" fill="white"/>
<path d="M23.2121 15.0931C23.4292 15.2136 23.4002 15.4696 23.1398 15.6503C22.8793 15.8311 22.5031 15.8762 22.286 15.7558C22.069 15.6202 22.0979 15.3642 22.3584 15.1834C22.6188 15.0027 22.9951 14.9575 23.2121 15.0931Z" fill="white"/>
</svg>
