<svg width="133" height="117" viewBox="0 0 133 117" fill="none" xmlns="http://www.w3.org/2000/svg">
<g filter="url(#filter0_dd_1551_3557)">
<rect x="41.3535" y="21.9609" width="50" height="33.5261" rx="5" fill="#FFFBF5"/>
<rect x="40.8535" y="21.4609" width="51" height="34.5261" rx="5.5" stroke="#D6DCE5"/>
<path d="M56.9315 28.7161H64.5412C65.6035 28.7161 66.2649 29.6175 66.017 30.7276L62.4736 46.5589C62.2232 47.6656 61.1602 48.5671 60.0975 48.5671H52.4875C51.4248 48.5671 50.7642 47.6656 51.012 46.5589L54.5573 30.7276C54.8044 29.6175 55.8667 28.7161 56.9315 28.7161Z" fill="#ED171F"/>
<path d="M63.9084 28.7161H72.6601C73.7221 28.7161 73.2431 29.6175 72.9935 30.7276L69.4504 46.5589C69.2029 47.6656 69.2805 48.5671 68.2157 48.5671H59.4646C58.4009 48.5671 57.7421 47.6656 57.9921 46.5589L61.5337 30.7276C61.7841 29.6175 62.846 28.7161 63.9084 28.7161Z" fill="#082F67"/>
<path d="M72.3139 28.7161H79.9225C80.9855 28.7161 81.6461 29.6175 81.3972 30.7276L77.8545 46.5589C77.6055 47.6656 76.5428 48.5671 75.4766 48.5671H67.8701C66.8053 48.5671 66.1458 47.6656 66.3954 46.5589L69.9371 30.7276C70.1864 29.6175 71.2487 28.7161 72.3139 28.7161Z" fill="#006A65"/>
<path fill-rule="evenodd" clip-rule="evenodd" d="M71.5184 33.7776H71.8368L71.8973 33.7789C72.5219 33.793 73.0464 33.8048 73.3127 34.1842C73.414 34.3348 73.4575 34.5306 73.4575 34.7264C73.4575 34.8921 73.4285 35.0427 73.3996 35.1632C73.2838 35.6752 73.0378 36.112 72.6616 36.3982C72.1117 36.8199 71.4026 36.8199 70.7804 36.8199H70.7225C70.6791 36.85 70.6357 36.9102 70.6357 36.9102C70.6357 36.9404 70.491 37.5579 70.491 37.5579C70.491 37.5579 70.3174 38.4163 70.2884 38.5519C70.1727 38.5368 69.8688 38.5368 69.1597 38.5519C69.1887 38.4013 69.8977 35.374 69.8977 35.374L70.1871 33.9432L70.2305 33.7625C70.3608 33.7776 70.6936 33.7926 71.5184 33.7776ZM71.7355 35.9765C71.9959 35.856 72.1841 35.5849 72.2564 35.2686C72.3288 34.9222 72.2275 34.6511 71.9815 34.5457C71.967 34.5457 71.3158 34.4854 71.3158 34.4854L71.1856 34.4704V34.5306L71.1711 34.6059L70.8528 36.0216L70.8383 36.0969H71.0119C71.2724 36.0969 71.5329 36.0819 71.7355 35.9765Z" fill="#FFFBF5"/>
<path d="M57.8004 33.7925C57.7715 33.9281 57.2505 36.4583 57.2505 36.4583C57.1348 36.9704 57.0479 37.3319 56.773 37.5729C56.6138 37.7084 56.4257 37.7687 56.2087 37.7687C55.8614 37.7687 55.6588 37.5879 55.6298 37.2566L55.6154 37.1361L55.7167 36.4433C55.7167 36.4433 56.2665 34.1389 56.3678 33.8377C56.3678 33.8227 56.3823 33.8076 56.3823 33.8076C55.3115 33.8227 55.1089 33.8076 55.1089 33.7925C55.1089 33.8227 55.08 33.9582 55.08 33.9582L54.5156 36.5487L54.4722 36.7746L54.3854 37.4976C54.3854 37.7084 54.4288 37.8891 54.5011 38.0397C54.7616 38.5066 55.4851 38.5819 55.9048 38.5819C56.4402 38.5819 56.9322 38.4615 57.2795 38.2506C57.8484 37.904 58.0048 37.3634 58.1443 36.8813L58.1622 36.8198L58.2201 36.5638C58.2201 36.5638 58.7844 34.1691 58.8857 33.8528V33.8227C58.7064 33.8192 58.5561 33.8165 58.4299 33.8143C58.0064 33.8068 57.8562 33.8042 57.8004 33.7925Z" fill="#FFFBF5"/>
<path fill-rule="evenodd" clip-rule="evenodd" d="M73.4864 40.4044L72.5603 43.5822H72.8063L72.7146 43.9053L72.7339 43.8382H72.9944C73.0667 43.8382 73.1246 43.8081 73.1825 43.778C73.2259 43.7629 73.2693 43.7328 73.3272 43.6575L74.0073 42.6635H73.0957L73.2549 42.1213H74.2967L74.4414 41.6243H73.414L73.5877 41.0068H76.4528L76.2792 41.6243H75.3241L75.165 42.1213H76.1345L75.9753 42.6635H74.9334L74.7453 42.8894H75.165L75.2663 43.5822C75.2711 43.6073 75.2743 43.6274 75.277 43.6441C75.2823 43.6776 75.2855 43.6977 75.2952 43.7178C75.3097 43.7479 75.4399 43.7629 75.5123 43.7629H75.6425L75.4544 44.4256H74.9045C74.8389 44.4159 74.7915 44.3872 74.7466 44.36C74.7222 44.3452 74.6985 44.3308 74.673 44.3202C74.6151 44.2901 74.5283 44.2148 74.4993 44.0792L74.398 43.3864L73.9205 44.0642C73.7758 44.275 73.5732 44.4407 73.2259 44.4407H72.5603L72.6167 44.2449H72.3722L72.3143 44.4558H71.4316L71.4895 44.2449H69.6952L69.8833 43.6425H70.0569L71.1856 39.7567H72.0828L71.9815 40.0881C71.9815 40.0881 72.2275 39.9074 72.4445 39.8471C72.6367 39.7971 73.5666 39.7679 73.8772 39.7594L73.8771 39.7567H74.8321L74.8466 40.1333C74.8466 40.1935 74.89 40.2236 75.0058 40.2236H75.2083L75.0347 40.8411H74.5138C74.0652 40.8713 73.8915 40.6755 73.906 40.4495L73.8898 40.0618L73.7903 40.4044H73.4864ZM70.9686 43.5973H71.6776L71.8947 42.8894H71.1711L70.9686 43.5973ZM71.5474 41.6092L71.3014 42.4527C71.3014 42.4527 71.5763 42.3021 71.721 42.2569C71.8657 42.2267 72.0972 42.1966 72.0972 42.1966L72.2709 41.6092H71.5474ZM71.8947 40.4044L71.6631 41.2177C71.6631 41.2177 71.9236 41.0972 72.0683 41.052C72.213 41.0068 72.4301 40.9917 72.4301 40.9917L72.6037 40.4044H71.8947Z" fill="#FFFBF5"/>
<path d="M64.0083 41.1725H66.4248L66.2512 41.7749H65.2817L65.137 42.287H66.121L65.9473 42.9045H64.9633L64.7173 43.7329C64.6884 43.8232 64.9488 43.8383 65.0501 43.8383L65.5421 43.763L65.3395 44.4558H64.2253C64.1566 44.4558 64.097 44.4464 64.0249 44.435C64.0059 44.432 63.986 44.4288 63.9649 44.4257C63.878 44.4106 63.8346 44.3504 63.7912 44.2901C63.784 44.2775 63.7763 44.2658 63.7688 44.2543C63.7313 44.1968 63.6972 44.1445 63.7333 44.019L64.0517 42.9196H63.5018L63.6754 42.287H64.2253L64.37 41.7749H63.8201L64.0083 41.1725Z" fill="#FFFBF5"/>
<path d="M66.6129 40.0881H65.6289L65.7736 39.7567H64.7896L64.5436 40.2236C64.4858 40.3291 64.4423 40.3893 64.3989 40.4194C64.37 40.4345 64.2976 40.4495 64.1819 40.4495H64.0516L63.878 41.052H64.3121C64.5292 41.052 64.6883 40.9767 64.7607 40.9315C64.7882 40.922 64.8099 40.917 64.8285 40.9126C64.8688 40.9034 64.8948 40.8974 64.9343 40.8562L65.079 40.7206H66.4393L66.6129 40.0881Z" fill="#FFFBF5"/>
<path fill-rule="evenodd" clip-rule="evenodd" d="M67.0471 39.7567H67.8863L67.7706 40.1935C67.7706 40.1935 68.0311 39.9676 68.2192 39.8923C68.4073 39.817 68.8269 39.7567 68.8269 39.7567H70.1872L69.7241 41.3683C69.6373 41.6394 69.5504 41.8201 69.4926 41.9105C69.4347 42.0008 69.3768 42.0611 69.261 42.1364C69.1453 42.1966 69.044 42.2418 68.9427 42.2418C68.8559 42.2569 68.7112 42.2569 68.5232 42.2569H67.2062L66.83 43.5371C66.8232 43.5652 66.8165 43.59 66.8105 43.6121C66.7907 43.6848 66.7789 43.7283 66.8011 43.763C66.8155 43.7931 66.8589 43.8232 66.9313 43.8232L67.5101 43.763L67.3075 44.4708H66.6564C66.4538 44.4708 66.2946 44.4708 66.1933 44.4558C66.1649 44.4515 66.1364 44.4497 66.1087 44.4479C66.0374 44.4432 65.9704 44.4389 65.9184 44.3955C65.9104 44.3872 65.9018 44.3786 65.893 44.3697C65.8381 44.3145 65.7737 44.2495 65.7737 44.1847C65.7737 44.1139 65.7992 44.0165 65.8383 43.8675L65.846 43.8383L67.0471 39.7567ZM67.5391 41.1273C67.5391 41.1273 67.814 40.8713 68.2771 40.7809C68.3783 40.7658 69.044 40.7658 69.044 40.7658L69.1453 40.4194H67.7416L67.5391 41.1273ZM68.8414 41.3833H67.4522L67.3654 41.6695H68.5665C68.6822 41.6574 68.7239 41.6647 68.7433 41.668C68.7482 41.6689 68.7517 41.6695 68.7546 41.6695L68.8414 41.3833Z" fill="#FFFBF5"/>
<path d="M69.4346 42.7538L69.507 42.3622H68.8703L68.7834 42.6333C68.769 42.6785 68.7545 42.7086 68.7256 42.7237C68.6966 42.7387 68.6387 42.7538 68.5808 42.7538H68.3783L68.3927 42.4074H67.5679L67.539 44.1093C67.539 44.2298 67.5534 44.3051 67.6403 44.3653C67.7271 44.4406 67.9876 44.4557 68.3493 44.4557H68.8703L69.0584 43.8081L68.6098 43.8382L68.4651 43.8533C68.4591 43.847 68.4531 43.8434 68.4461 43.8391C68.4361 43.833 68.4242 43.8257 68.4072 43.8081C68.4033 43.8001 68.3985 43.7953 68.3934 43.7902C68.3794 43.7764 68.3638 43.761 68.3638 43.6725V43.2358L68.8268 43.2056C69.0728 43.2056 69.1886 43.1153 69.2754 43.04C69.3767 42.9647 69.4057 42.8743 69.4346 42.7538Z" fill="#FFFBF5"/>
<path d="M59.9855 38.5519C60.434 38.5368 60.5787 38.5368 60.955 38.5368L60.9984 38.4916C61.0444 38.1687 61.0721 38.0263 61.1395 37.6796C61.157 37.5897 61.1771 37.4861 61.201 37.3621L61.2589 37.091L61.2628 37.0719C61.3759 36.5275 61.4315 36.26 61.3457 36.0367C61.2444 35.7807 61.0129 35.7204 60.8103 35.7204C60.6656 35.7204 60.4196 35.7505 60.188 35.871C60.1519 35.8936 60.1121 35.9162 60.0723 35.9388C60.0325 35.9614 59.9927 35.984 59.9565 36.0066L60.0289 35.7355L59.9855 35.6903C59.5198 35.7931 59.3982 35.81 58.9899 35.8666L58.9581 35.871L58.9291 35.9011L58.9279 35.9101C58.8706 36.3425 58.8265 36.6752 58.6397 37.5428C58.6035 37.7009 58.5674 37.8628 58.5312 38.0247C58.495 38.1866 58.4588 38.3486 58.4226 38.5067L58.4371 38.5519C58.8857 38.5368 59.0304 38.5368 59.4211 38.5368L59.4501 38.5067C59.474 38.3944 59.4881 38.3183 59.5045 38.2291C59.5278 38.103 59.5559 37.9507 59.6237 37.6332C59.6422 37.5465 59.6652 37.4305 59.6897 37.3065C59.7419 37.0426 59.8014 36.7422 59.8408 36.609C59.942 36.5638 60.0433 36.5187 60.1302 36.5187C60.3472 36.5187 60.3328 36.7295 60.3183 36.8048C60.3038 36.9404 60.2315 37.3771 60.1446 37.7536L60.0868 37.9946C60.0627 38.1449 60.0286 38.2848 59.9928 38.4317C59.9856 38.4614 59.9783 38.4914 59.971 38.5218L59.9855 38.5519Z" fill="#FFFBF5"/>
<path d="M62.5033 38.5368H61.9823C61.9161 38.5368 61.8498 38.54 61.7779 38.5434C61.6929 38.5474 61.6001 38.5519 61.4903 38.5519L61.4614 38.5217C61.5193 38.2958 61.5482 38.2055 61.5772 38.1302C61.6061 38.0548 61.635 37.9645 61.6784 37.7386C61.7508 37.4373 61.7942 37.2265 61.8232 37.0307C61.8376 36.9403 61.8485 36.8575 61.8593 36.7747C61.8702 36.6918 61.881 36.609 61.8955 36.5186L61.9244 36.4885C62.035 36.4741 62.1257 36.4597 62.2061 36.447C62.2941 36.4331 62.3698 36.4211 62.4454 36.4132C62.5901 36.3981 62.7493 36.368 62.9808 36.3078L62.9953 36.3228V36.3379C62.9736 36.4358 62.9518 36.5299 62.9301 36.6241C62.9084 36.7182 62.8867 36.8123 62.865 36.9102C62.8433 37.0081 62.8216 37.1023 62.7999 37.1964C62.7782 37.2905 62.7565 37.3846 62.7348 37.4825C62.648 37.8892 62.619 38.0247 62.5901 38.1452C62.5833 38.1946 62.5765 38.2341 62.5683 38.2822C62.5589 38.3368 62.5476 38.4026 62.5322 38.5067L62.5033 38.5368Z" fill="#FFFBF5"/>
<path fill-rule="evenodd" clip-rule="evenodd" d="M65.8315 36.0969C65.9618 36.2776 66.0631 36.5638 65.9328 37.1662C65.8894 37.347 65.7737 37.7988 65.5277 38.085C65.1948 38.4615 64.7463 38.582 64.3121 38.582C64.1385 38.582 63.878 38.5518 63.6899 38.4765C63.0966 38.2205 63.1834 37.5578 63.2703 37.1813C63.3426 36.8198 63.4873 36.4433 63.7767 36.1571C64.1819 35.7656 64.7028 35.7505 64.9199 35.7505C65.2817 35.7505 65.629 35.8258 65.8315 36.0969ZM64.9162 37.2092C64.9235 37.1788 64.9296 37.1537 64.9344 37.1361C65.0357 36.6692 65.0212 36.368 64.7752 36.3981C64.4713 36.3981 64.3556 36.7746 64.2543 37.2415C64.25 37.2657 64.2458 37.2892 64.2417 37.3122C64.2175 37.447 64.1964 37.5647 64.1964 37.6934C64.1964 37.9795 64.3845 37.9795 64.4134 37.9795C64.5292 37.9795 64.616 37.9042 64.7028 37.7837C64.8114 37.6457 64.8797 37.3612 64.9162 37.2092Z" fill="#FFFBF5"/>
<path fill-rule="evenodd" clip-rule="evenodd" d="M75.2518 38.582C74.7887 38.582 74.6585 38.582 74.2244 38.5971L74.1954 38.5669L74.2416 38.3866C74.0841 38.5237 73.9144 38.6179 73.7324 38.6272C73.5733 38.6272 73.3996 38.597 73.2115 38.5217C72.6182 38.2808 72.705 37.603 72.7918 37.2416C72.8642 36.8801 73.0089 36.5036 73.2983 36.2174C73.718 35.8409 74.1955 35.7355 74.3981 35.8108C74.5482 35.8715 74.6491 35.9673 74.7197 36.0805L74.7308 35.9915L74.7598 35.9614C74.855 35.9459 74.9355 35.933 75.0075 35.9214C75.2856 35.8767 75.4368 35.8524 75.8161 35.7806L75.8306 35.8258L75.5701 36.9554C75.4345 37.5673 75.3694 37.9493 75.313 38.2811L75.3128 38.2821C75.2971 38.3746 75.282 38.4633 75.2662 38.5519L75.2518 38.582ZM74.6023 36.8363C74.5986 36.5775 74.4889 36.4283 74.3112 36.4283C74.0074 36.4283 73.8916 36.8199 73.7903 37.2717L73.7824 37.3169C73.7563 37.4649 73.7324 37.6004 73.7324 37.7235C73.7324 38.0097 73.9205 38.0097 73.9495 38.0097C74.0653 38.0097 74.2534 37.9494 74.3257 37.8289C74.3695 37.7663 74.4092 37.6713 74.4431 37.5725C74.4724 37.448 74.5008 37.3227 74.5282 37.1964C74.5576 37.0604 74.5819 36.942 74.6023 36.8363Z" fill="#FFFBF5"/>
<path d="M68.5375 38.5368C68.1468 38.5368 68.0165 38.5368 67.5824 38.5519L67.568 38.5218C67.5753 38.4914 67.5826 38.4614 67.5898 38.4317C67.6256 38.2849 67.6596 38.145 67.6837 37.9946L67.7416 37.7536C67.8284 37.3771 67.9008 36.9404 67.9152 36.8048C67.9297 36.7295 67.9442 36.5187 67.7271 36.5187C67.6403 36.5187 67.539 36.5638 67.4377 36.609C67.3983 36.7422 67.3389 37.0426 67.2867 37.3064C67.2621 37.4305 67.2392 37.5465 67.2207 37.6332C67.1294 38.0604 67.1101 38.1884 67.0848 38.3561C67.0779 38.4012 67.0707 38.4492 67.0615 38.5067L67.0325 38.5368C66.6418 38.5368 66.4971 38.5368 66.0486 38.5519L66.0341 38.5067C66.0703 38.3486 66.1064 38.1866 66.1426 38.0247C66.1788 37.8628 66.215 37.7009 66.2511 37.5428C66.438 36.6752 66.4821 36.3425 66.5394 35.9101L66.5405 35.9011L66.5695 35.871L66.6013 35.8666C67.0096 35.81 67.1313 35.7931 67.5969 35.6903L67.6403 35.7355L67.568 36.0066C67.6041 35.984 67.6439 35.9614 67.6837 35.9388C67.7235 35.9162 67.7633 35.8936 67.7995 35.871C68.031 35.7505 68.277 35.7204 68.4072 35.7204C68.6098 35.7204 68.8414 35.7807 68.9426 36.0367C69.0285 36.26 68.9729 36.5275 68.8598 37.0718L68.8558 37.091L68.7979 37.3621C68.6941 37.8424 68.6639 38.0163 68.6192 38.2732C68.6078 38.3385 68.5956 38.4092 68.5809 38.4916L68.5375 38.5368Z" fill="#FFFBF5"/>
<path d="M79.0285 35.7806L78.9851 35.7354C78.5076 35.8408 78.4353 35.8559 78.0011 35.9162L77.9722 35.9463V35.9613C77.8021 36.3716 77.7229 36.5155 77.6463 36.6546C77.5795 36.7759 77.5147 36.8936 77.3934 37.1813V37.106L77.3355 35.7806L77.2921 35.7354C77.1777 35.7599 77.0892 35.7795 77.015 35.796C76.7699 35.8503 76.6814 35.8699 76.337 35.9162L76.3081 35.9463C76.3081 35.9613 76.3081 35.9764 76.2936 35.9915C76.3371 36.2178 76.3398 36.24 76.3629 36.4352C76.3706 36.4998 76.3805 36.5832 76.3949 36.6993C76.4094 36.8198 76.4239 36.9365 76.4383 37.0533C76.4528 37.17 76.4673 37.2867 76.4817 37.4072C76.4971 37.5453 76.5106 37.6573 76.5242 37.77C76.5492 37.9769 76.5745 38.1867 76.612 38.5669C76.4963 38.7676 76.4141 38.9225 76.34 39.0622C76.2194 39.2895 76.12 39.4769 75.9319 39.7567L75.9463 39.8019C76.3949 39.7868 76.4962 39.7868 76.829 39.7868L76.9014 39.6965C77.1329 39.1693 79.0285 35.7806 79.0285 35.7806Z" fill="#FFFBF5"/>
<path d="M62.9953 35.5396C63.2124 35.6601 63.1834 35.9161 62.923 36.0969C62.6625 36.2776 62.2863 36.3228 62.0692 36.2023C61.8522 36.0667 61.8811 35.8107 62.1416 35.63C62.402 35.4492 62.7783 35.4041 62.9953 35.5396Z" fill="#FFFBF5"/>
</g>
<defs>
<filter id="filter0_dd_1551_3557" x="0.353516" y="0.960938" width="132" height="115.526" filterUnits="userSpaceOnUse" color-interpolation-filters="sRGB">
<feFlood flood-opacity="0" result="BackgroundImageFix"/>
<feColorMatrix in="SourceAlpha" type="matrix" values="0 0 0 0 0 0 0 0 0 0 0 0 0 0 0 0 0 0 127 0" result="hardAlpha"/>
<feOffset dy="2"/>
<feGaussianBlur stdDeviation="10"/>
<feColorMatrix type="matrix" values="0 0 0 0 0.717647 0 0 0 0 0.717647 0 0 0 0 0.717647 0 0 0 0.08 0"/>
<feBlend mode="normal" in2="BackgroundImageFix" result="effect1_dropShadow_1551_3557"/>
<feColorMatrix in="SourceAlpha" type="matrix" values="0 0 0 0 0 0 0 0 0 0 0 0 0 0 0 0 0 0 127 0" result="hardAlpha"/>
<feOffset dy="20"/>
<feGaussianBlur stdDeviation="20"/>
<feColorMatrix type="matrix" values="0 0 0 0 0.717647 0 0 0 0 0.717647 0 0 0 0 0.717647 0 0 0 0.08 0"/>
<feBlend mode="normal" in2="effect1_dropShadow_1551_3557" result="effect2_dropShadow_1551_3557"/>
<feBlend mode="normal" in="SourceGraphic" in2="effect2_dropShadow_1551_3557" result="shape"/>
</filter>
</defs>
</svg>
