<svg width="32" height="21" viewBox="0 0 32 21" fill="none" xmlns="http://www.w3.org/2000/svg">
<path d="M6.93155 0.716065H14.5412C15.6035 0.716065 16.2649 1.61751 16.017 2.72763L12.4736 18.5589C12.2232 19.6656 11.1602 20.5671 10.0975 20.5671H2.48747C1.42479 20.5671 0.764182 19.6656 1.01205 18.5589L4.55727 2.72763C4.80442 1.61751 5.86673 0.716065 6.93155 0.716065Z" fill="#ED171F"/>
<path d="M13.9084 0.716064H22.6601C23.7221 0.716064 23.2431 1.61751 22.9935 2.72763L19.4504 18.5589C19.2029 19.6656 19.2805 20.5671 18.2157 20.5671H9.46464C8.4009 20.5671 7.74207 19.6656 7.99207 18.5589L11.5337 2.72763C11.7841 1.61751 12.846 0.716064 13.9084 0.716064Z" fill="#082F67"/>
<path d="M22.3139 0.716064H29.9225C30.9855 0.716064 31.6461 1.61751 31.3972 2.72763L27.8545 18.5589C27.6055 19.6656 26.5428 20.5671 25.4766 20.5671H17.8701C16.8053 20.5671 16.1458 19.6656 16.3954 18.5589L19.9371 2.72763C20.1864 1.61751 21.2487 0.716064 22.3139 0.716064Z" fill="#006A65"/>
<path fill-rule="evenodd" clip-rule="evenodd" d="M21.5184 5.77756H21.8368L21.8973 5.77893C22.5219 5.793 23.0464 5.80481 23.3127 6.18421C23.414 6.33482 23.4575 6.5306 23.4575 6.7264C23.4575 6.89207 23.4285 7.04268 23.3996 7.16317C23.2838 7.67524 23.0378 8.11201 22.6616 8.39817C22.1117 8.81988 21.4026 8.81988 20.7804 8.81988H20.7225C20.6791 8.85 20.6357 8.91024 20.6357 8.91024C20.6357 8.94036 20.491 9.55787 20.491 9.55787C20.491 9.55787 20.3174 10.4163 20.2884 10.5519C20.1727 10.5368 19.8688 10.5368 19.1597 10.5519C19.1887 10.4013 19.8977 7.37402 19.8977 7.37402L20.1871 5.94323L20.2305 5.7625C20.3608 5.77756 20.6936 5.79262 21.5184 5.77756ZM21.7355 7.97646C21.9959 7.85598 22.1841 7.58488 22.2564 7.26859C22.3288 6.92219 22.2275 6.6511 21.9815 6.54567C21.967 6.54567 21.3158 6.48543 21.3158 6.48543L21.1856 6.47036V6.53061L21.1711 6.60591L20.8528 8.02164L20.8383 8.09695H21.0119C21.2724 8.09695 21.5329 8.08189 21.7355 7.97646Z" fill="#FFFBF5"/>
<path d="M7.80041 5.79255C7.77147 5.9281 7.25054 8.45834 7.25054 8.45834C7.13477 8.97042 7.04795 9.33188 6.77301 9.57286C6.61383 9.70841 6.42572 9.76865 6.20866 9.76865C5.86137 9.76865 5.65878 9.58792 5.62984 9.25658L5.61537 9.13609L5.71667 8.44328C5.71667 8.44328 6.26654 6.13895 6.36784 5.83773C6.36784 5.82267 6.38231 5.80761 6.38231 5.80761C5.31149 5.82267 5.10891 5.80761 5.10891 5.79255C5.10891 5.82267 5.07997 5.95822 5.07997 5.95822L4.51562 8.54871L4.47221 8.77462L4.38538 9.49755C4.38538 9.70841 4.42879 9.88914 4.50115 10.0397C4.76162 10.5066 5.48514 10.5819 5.90478 10.5819C6.44019 10.5819 6.93218 10.4615 7.27948 10.2506C7.84844 9.90396 8.00485 9.3634 8.14434 8.88131L8.16217 8.81981L8.22006 8.56377C8.22006 8.56377 8.7844 6.16907 8.8857 5.85279V5.82267C8.7064 5.81921 8.55606 5.81655 8.42994 5.81431C8.00642 5.80681 7.85616 5.80415 7.80041 5.79255Z" fill="#FFFBF5"/>
<path fill-rule="evenodd" clip-rule="evenodd" d="M23.4864 12.4044L22.5603 15.5822H22.8063L22.7146 15.9053L22.7339 15.8382H22.9944C23.0667 15.8382 23.1246 15.8081 23.1825 15.778C23.2259 15.7629 23.2693 15.7328 23.3272 15.6575L24.0073 14.6635H23.0957L23.2549 14.1213H24.2967L24.4414 13.6243H23.414L23.5877 13.0068H26.4528L26.2792 13.6243H25.3241L25.165 14.1213H26.1345L25.9753 14.6635H24.9334L24.7453 14.8894H25.165L25.2663 15.5822C25.2711 15.6073 25.2743 15.6274 25.277 15.6441C25.2823 15.6776 25.2855 15.6977 25.2952 15.7178C25.3097 15.7479 25.4399 15.7629 25.5123 15.7629H25.6425L25.4544 16.4256H24.9045C24.8389 16.4159 24.7915 16.3872 24.7466 16.36C24.7222 16.3452 24.6985 16.3308 24.673 16.3202C24.6151 16.2901 24.5283 16.2148 24.4993 16.0792L24.398 15.3864L23.9205 16.0642C23.7758 16.275 23.5732 16.4407 23.2259 16.4407H22.5603L22.6167 16.2449H22.3722L22.3143 16.4558H21.4316L21.4895 16.2449H19.6952L19.8833 15.6425H20.0569L21.1856 11.7567H22.0828L21.9815 12.0881C21.9815 12.0881 22.2275 11.9074 22.4445 11.8471C22.6367 11.7971 23.5666 11.7679 23.8772 11.7594L23.8771 11.7567H24.8321L24.8466 12.1333C24.8466 12.1935 24.89 12.2236 25.0058 12.2236H25.2083L25.0347 12.8411H24.5138C24.0652 12.8713 23.8915 12.6755 23.906 12.4495L23.8898 12.0618L23.7903 12.4044H23.4864ZM20.9686 15.5973H21.6776L21.8947 14.8894H21.1711L20.9686 15.5973ZM21.5474 13.6092L21.3014 14.4527C21.3014 14.4527 21.5763 14.3021 21.721 14.2569C21.8657 14.2267 22.0972 14.1966 22.0972 14.1966L22.2709 13.6092H21.5474ZM21.8947 12.4044L21.6631 13.2177C21.6631 13.2177 21.9236 13.0972 22.0683 13.052C22.213 13.0068 22.4301 12.9917 22.4301 12.9917L22.6037 12.4044H21.8947Z" fill="#FFFBF5"/>
<path d="M14.0083 13.1725H16.4248L16.2512 13.7749H15.2817L15.137 14.287H16.121L15.9473 14.9045H14.9633L14.7173 15.7329C14.6884 15.8232 14.9488 15.8383 15.0501 15.8383L15.5421 15.763L15.3395 16.4558H14.2253C14.1566 16.4558 14.097 16.4464 14.0249 16.435C14.0059 16.432 13.986 16.4288 13.9649 16.4257C13.878 16.4106 13.8346 16.3504 13.7912 16.2901C13.784 16.2775 13.7763 16.2658 13.7688 16.2543C13.7313 16.1968 13.6972 16.1445 13.7333 16.019L14.0517 14.9196H13.5018L13.6754 14.287H14.2253L14.37 13.7749H13.8201L14.0083 13.1725Z" fill="#FFFBF5"/>
<path d="M16.6129 12.0881H15.6289L15.7736 11.7567H14.7896L14.5436 12.2236C14.4858 12.3291 14.4423 12.3893 14.3989 12.4194C14.37 12.4345 14.2976 12.4495 14.1819 12.4495H14.0516L13.878 13.052H14.3121C14.5292 13.052 14.6883 12.9767 14.7607 12.9315C14.7882 12.922 14.8099 12.917 14.8285 12.9126C14.8688 12.9034 14.8948 12.8974 14.9343 12.8562L15.079 12.7206H16.4393L16.6129 12.0881Z" fill="#FFFBF5"/>
<path fill-rule="evenodd" clip-rule="evenodd" d="M17.0471 11.7567H17.8863L17.7706 12.1935C17.7706 12.1935 18.0311 11.9676 18.2192 11.8923C18.4073 11.817 18.8269 11.7567 18.8269 11.7567H20.1872L19.7241 13.3683C19.6373 13.6394 19.5504 13.8201 19.4926 13.9105C19.4347 14.0008 19.3768 14.0611 19.261 14.1364C19.1453 14.1966 19.044 14.2418 18.9427 14.2418C18.8559 14.2569 18.7112 14.2569 18.5232 14.2569H17.2062L16.83 15.5371C16.8232 15.5652 16.8165 15.59 16.8105 15.6121C16.7907 15.6848 16.7789 15.7283 16.8011 15.763C16.8155 15.7931 16.8589 15.8232 16.9313 15.8232L17.5101 15.763L17.3075 16.4708H16.6564C16.4538 16.4708 16.2946 16.4708 16.1933 16.4558C16.1649 16.4515 16.1364 16.4497 16.1087 16.4479C16.0374 16.4432 15.9704 16.4389 15.9184 16.3955C15.9104 16.3872 15.9018 16.3786 15.893 16.3697C15.8381 16.3145 15.7737 16.2495 15.7737 16.1847C15.7737 16.1139 15.7992 16.0165 15.8383 15.8675L15.846 15.8383L17.0471 11.7567ZM17.5391 13.1273C17.5391 13.1273 17.814 12.8713 18.2771 12.7809C18.3783 12.7658 19.044 12.7658 19.044 12.7658L19.1453 12.4194H17.7416L17.5391 13.1273ZM18.8414 13.3833H17.4522L17.3654 13.6695H18.5665C18.6822 13.6574 18.7239 13.6647 18.7433 13.668C18.7482 13.6689 18.7517 13.6695 18.7546 13.6695L18.8414 13.3833Z" fill="#FFFBF5"/>
<path d="M19.4346 14.7538L19.507 14.3622H18.8703L18.7834 14.6333C18.769 14.6785 18.7545 14.7086 18.7256 14.7237C18.6966 14.7387 18.6387 14.7538 18.5808 14.7538H18.3783L18.3927 14.4074H17.5679L17.539 16.1093C17.539 16.2298 17.5534 16.3051 17.6403 16.3653C17.7271 16.4406 17.9876 16.4557 18.3493 16.4557H18.8703L19.0584 15.8081L18.6098 15.8382L18.4651 15.8533C18.4591 15.847 18.4531 15.8434 18.4461 15.8391C18.4361 15.833 18.4242 15.8257 18.4072 15.8081C18.4033 15.8001 18.3985 15.7953 18.3934 15.7902C18.3794 15.7764 18.3638 15.761 18.3638 15.6725V15.2358L18.8268 15.2056C19.0728 15.2056 19.1886 15.1153 19.2754 15.04C19.3767 14.9647 19.4057 14.8743 19.4346 14.7538Z" fill="#FFFBF5"/>
<path d="M9.98546 10.5519C10.434 10.5368 10.5787 10.5368 10.955 10.5368L10.9984 10.4916C11.0444 10.1687 11.0721 10.0263 11.1395 9.67963C11.157 9.58974 11.1771 9.48612 11.201 9.36206L11.2589 9.09097L11.2628 9.07186C11.3759 8.52748 11.4315 8.26001 11.3457 8.0367C11.2444 7.78066 11.0129 7.72041 10.8103 7.72041C10.6656 7.72041 10.4196 7.75054 10.188 7.87102C10.1519 7.89362 10.1121 7.91621 10.0723 7.9388C10.0325 7.96139 9.99269 7.98398 9.95652 8.00657L10.0289 7.73548L9.98546 7.6903C9.51982 7.7931 9.39816 7.80998 8.98988 7.86661L8.95806 7.87102L8.92912 7.90115L8.92793 7.91006C8.87064 8.34246 8.82654 8.67521 8.63971 9.5428C8.60353 9.70094 8.56736 9.86284 8.53118 10.0247C8.49502 10.1866 8.45881 10.3486 8.42265 10.5067L8.43712 10.5519C8.8857 10.5368 9.03041 10.5368 9.42111 10.5368L9.45005 10.5067C9.47403 10.3944 9.48807 10.3183 9.50452 10.2291C9.52779 10.103 9.55589 9.95075 9.6237 9.63316C9.64221 9.54647 9.66516 9.43051 9.68971 9.30647C9.74193 9.04262 9.80138 8.74219 9.84075 8.60901C9.94205 8.56383 10.0433 8.51865 10.1302 8.51865C10.3472 8.51865 10.3328 8.7295 10.3183 8.80481C10.3038 8.94036 10.2315 9.37712 10.1446 9.75365L10.0868 9.99463C10.0627 10.1449 10.0286 10.2848 9.99284 10.4317C9.9856 10.4614 9.97829 10.4914 9.97099 10.5218L9.98546 10.5519Z" fill="#FFFBF5"/>
<path d="M12.5033 10.5368H11.9823C11.9161 10.5368 11.8498 10.54 11.7779 10.5434C11.6929 10.5474 11.6001 10.5519 11.4903 10.5519L11.4614 10.5217C11.5193 10.2958 11.5482 10.2055 11.5772 10.1302C11.6061 10.0548 11.635 9.96448 11.6784 9.73857C11.7508 9.43735 11.7942 9.22649 11.8232 9.0307C11.8376 8.94034 11.8485 8.8575 11.8593 8.77467C11.8702 8.69183 11.881 8.60899 11.8955 8.51863L11.9244 8.4885C12.035 8.47412 12.1257 8.45974 12.2061 8.447C12.2941 8.43305 12.3698 8.42107 12.4454 8.4132C12.5901 8.39814 12.7493 8.36802 12.9808 8.30777L12.9953 8.32283V8.33789C12.9736 8.4358 12.9518 8.52994 12.9301 8.62408C12.9084 8.7182 12.8867 8.81232 12.865 8.91021C12.8433 9.00812 12.8216 9.10226 12.7999 9.1964C12.7782 9.29052 12.7565 9.38465 12.7348 9.48253C12.648 9.88918 12.619 10.0247 12.5901 10.1452C12.5833 10.1946 12.5765 10.2341 12.5683 10.2822C12.5589 10.3368 12.5476 10.4026 12.5322 10.5067L12.5033 10.5368Z" fill="#FFFBF5"/>
<path fill-rule="evenodd" clip-rule="evenodd" d="M15.8315 8.0969C15.9618 8.27763 16.0631 8.56379 15.9328 9.16623C15.8894 9.34696 15.7737 9.79879 15.5277 10.085C15.1948 10.4615 14.7463 10.582 14.3121 10.582C14.1385 10.582 13.878 10.5518 13.6899 10.4765C13.0966 10.2205 13.1834 9.55782 13.2703 9.18129C13.3426 8.81983 13.4873 8.4433 13.7767 8.15714C14.1819 7.76556 14.7028 7.7505 14.9199 7.7505C15.2817 7.7505 15.629 7.8258 15.8315 8.0969ZM14.9162 9.20918C14.9235 9.17878 14.9296 9.15368 14.9344 9.13611C15.0357 8.66921 15.0212 8.368 14.7752 8.39812C14.4713 8.39812 14.3556 8.77464 14.2543 9.24153C14.25 9.26568 14.2458 9.28918 14.2417 9.31218C14.2175 9.447 14.1964 9.56473 14.1964 9.69336C14.1964 9.97952 14.3845 9.97952 14.4134 9.97952C14.5292 9.97952 14.616 9.90422 14.7028 9.78373C14.8114 9.64567 14.8797 9.36119 14.9162 9.20918Z" fill="#FFFBF5"/>
<path fill-rule="evenodd" clip-rule="evenodd" d="M25.2518 10.582C24.7887 10.582 24.6585 10.582 24.2244 10.5971L24.1954 10.5669L24.2416 10.3866C24.0841 10.5237 23.9144 10.6179 23.7324 10.6272C23.5733 10.6272 23.3996 10.597 23.2115 10.5217C22.6182 10.2808 22.705 9.60302 22.7918 9.24156C22.8642 8.88009 23.0089 8.50357 23.2983 8.21741C23.718 7.84089 24.1955 7.73546 24.3981 7.81076C24.5482 7.87154 24.6491 7.96735 24.7197 8.08052L24.7308 7.9915L24.7598 7.96138C24.855 7.9459 24.9355 7.93296 25.0075 7.9214C25.2856 7.87671 25.4368 7.85243 25.8161 7.78065L25.8306 7.82583L25.5701 8.95541C25.4345 9.56729 25.3694 9.94934 25.313 10.2811L25.3128 10.2821C25.2971 10.3746 25.282 10.4633 25.2662 10.5519L25.2518 10.582ZM24.6023 8.83631C24.5986 8.57752 24.4889 8.42827 24.3112 8.42827C24.0074 8.42827 23.8916 8.81985 23.7903 9.27168L23.7824 9.31689C23.7563 9.46485 23.7324 9.60039 23.7324 9.72351C23.7324 10.0097 23.9205 10.0097 23.9495 10.0097C24.0653 10.0097 24.2534 9.94942 24.3257 9.82894C24.3695 9.76626 24.4092 9.67126 24.4431 9.57247C24.4724 9.44801 24.5008 9.32275 24.5282 9.19638C24.5576 9.06038 24.5819 8.94203 24.6023 8.83631Z" fill="#FFFBF5"/>
<path d="M18.5375 10.5368C18.1468 10.5368 18.0165 10.5368 17.5824 10.5519L17.568 10.5218C17.5753 10.4914 17.5826 10.4614 17.5898 10.4317C17.6256 10.2849 17.6596 10.145 17.6837 9.99463L17.7416 9.75365C17.8284 9.37712 17.9008 8.94036 17.9152 8.80481C17.9297 8.7295 17.9442 8.51865 17.7271 8.51865C17.6403 8.51865 17.539 8.56383 17.4377 8.60901C17.3983 8.74219 17.3389 9.04259 17.2867 9.30643C17.2621 9.43047 17.2392 9.54647 17.2207 9.63316C17.1294 10.0604 17.1101 10.1884 17.0848 10.3561C17.0779 10.4012 17.0707 10.4492 17.0615 10.5067L17.0325 10.5368C16.6418 10.5368 16.4971 10.5368 16.0486 10.5519L16.0341 10.5067C16.0703 10.3486 16.1064 10.1866 16.1426 10.0247C16.1788 9.86284 16.215 9.70094 16.2511 9.5428C16.438 8.67522 16.4821 8.34246 16.5394 7.91007L16.5405 7.90115L16.5695 7.87102L16.6013 7.86661C17.0096 7.80998 17.1313 7.7931 17.5969 7.6903L17.6403 7.73548L17.568 8.00657C17.6041 7.98398 17.6439 7.96139 17.6837 7.9388C17.7235 7.91621 17.7633 7.89362 17.7995 7.87102C18.031 7.75054 18.277 7.72041 18.4072 7.72041C18.6098 7.72041 18.8414 7.78066 18.9426 8.0367C19.0285 8.26001 18.9729 8.52748 18.8598 9.07184L18.8558 9.09097L18.7979 9.36206C18.6941 9.84239 18.6639 10.0163 18.6192 10.2732C18.6078 10.3385 18.5956 10.4092 18.5809 10.4916L18.5375 10.5368Z" fill="#FFFBF5"/>
<path d="M29.0285 7.7806L28.9851 7.73542C28.5076 7.84085 28.4353 7.85591 28.0011 7.91616L27.9722 7.94628V7.96134C27.8021 8.37164 27.7229 8.5155 27.6463 8.65461C27.5795 8.77592 27.5147 8.89363 27.3934 9.18128V9.10597L27.3355 7.7806L27.2921 7.73542C27.1777 7.75992 27.0892 7.77954 27.015 7.79599C26.7699 7.85028 26.6814 7.86992 26.337 7.91616L26.3081 7.94628C26.3081 7.96134 26.3081 7.9764 26.2936 7.99146C26.3371 8.21779 26.3398 8.24005 26.3629 8.43519C26.3706 8.49975 26.3805 8.58325 26.3949 8.69932C26.4094 8.81981 26.4239 8.93653 26.4383 9.05326C26.4528 9.16998 26.4673 9.2867 26.4817 9.40719C26.4971 9.54535 26.5106 9.65726 26.5242 9.77004C26.5492 9.97692 26.5745 10.1867 26.612 10.5669C26.4963 10.7676 26.4141 10.9225 26.34 11.0622C26.2194 11.2895 26.12 11.4769 25.9319 11.7567L25.9463 11.8019C26.3949 11.7868 26.4962 11.7868 26.829 11.7868L26.9014 11.6965C27.1329 11.1693 29.0285 7.7806 29.0285 7.7806Z" fill="#FFFBF5"/>
<path d="M12.9953 7.53961C13.2124 7.6601 13.1834 7.91613 12.923 8.09686C12.6625 8.2776 12.2863 8.32278 12.0692 8.20229C11.8522 8.06674 11.8811 7.8107 12.1416 7.62997C12.402 7.44924 12.7783 7.40406 12.9953 7.53961Z" fill="#FFFBF5"/>
</svg>
