<svg width="133" height="117" viewBox="0 0 133 117" fill="none" xmlns="http://www.w3.org/2000/svg">
<g filter="url(#filter0_dd_1551_3555)">
<rect x="41.2715" y="21.9609" width="50" height="33.5261" rx="5" fill="#FFFBF5"/>
<rect x="40.7715" y="21.4609" width="51" height="34.5261" rx="5.5" stroke="#D6DCE5"/>
<path d="M65.9659 33.2603L63.6337 44.607H60.8136L63.1462 33.2603H65.9659ZM77.831 40.5869L79.3157 36.3258L80.1701 40.5869H77.831ZM80.9775 44.607H83.586L81.3097 33.2603H78.902C78.361 33.2603 77.9045 33.5878 77.7012 34.0928L73.4703 44.607H76.4318L77.0198 42.9126H80.6379L80.9775 44.607ZM73.6173 40.9022C73.6294 37.9074 69.6382 37.7426 69.6658 36.4048C69.6741 35.9972 70.0471 35.5648 70.8617 35.4539C71.2665 35.3989 72.3793 35.3569 73.6428 35.962L74.1376 33.5559C73.4589 33.2995 72.5856 33.0527 71.4994 33.0527C68.7121 33.0527 66.7502 34.5952 66.7336 36.8038C66.716 38.4371 68.1341 39.3486 69.2028 39.8916C70.3014 40.4479 70.6706 40.8042 70.6658 41.3016C70.6585 42.0633 69.7893 42.3987 68.9785 42.412C67.5603 42.4353 66.7374 42.0137 66.0815 41.6955L65.5705 44.1818C66.2291 44.4967 67.4454 44.7704 68.7073 44.7844C71.6695 44.7844 73.6076 43.261 73.6173 40.9022ZM61.9361 33.2603L57.367 44.607H54.3854L52.1371 35.5516C52.0005 34.9938 51.8818 34.7898 51.4667 34.5546C50.7894 34.1721 49.6697 33.8127 48.6846 33.59L48.7519 33.2603H53.5504C54.1618 33.2603 54.7122 33.6841 54.8509 34.4171L56.0385 40.9834L58.9732 33.2603H61.9361Z" fill="#1434CB"/>
</g>
<defs>
<filter id="filter0_dd_1551_3555" x="0.271484" y="0.960938" width="132" height="115.526" filterUnits="userSpaceOnUse" color-interpolation-filters="sRGB">
<feFlood flood-opacity="0" result="BackgroundImageFix"/>
<feColorMatrix in="SourceAlpha" type="matrix" values="0 0 0 0 0 0 0 0 0 0 0 0 0 0 0 0 0 0 127 0" result="hardAlpha"/>
<feOffset dy="2"/>
<feGaussianBlur stdDeviation="10"/>
<feColorMatrix type="matrix" values="0 0 0 0 0.717647 0 0 0 0 0.717647 0 0 0 0 0.717647 0 0 0 0.08 0"/>
<feBlend mode="normal" in2="BackgroundImageFix" result="effect1_dropShadow_1551_3555"/>
<feColorMatrix in="SourceAlpha" type="matrix" values="0 0 0 0 0 0 0 0 0 0 0 0 0 0 0 0 0 0 127 0" result="hardAlpha"/>
<feOffset dy="20"/>
<feGaussianBlur stdDeviation="20"/>
<feColorMatrix type="matrix" values="0 0 0 0 0.717647 0 0 0 0 0.717647 0 0 0 0 0.717647 0 0 0 0.08 0"/>
<feBlend mode="normal" in2="effect1_dropShadow_1551_3555" result="effect2_dropShadow_1551_3555"/>
<feBlend mode="normal" in="SourceGraphic" in2="effect2_dropShadow_1551_3555" result="shape"/>
</filter>
</defs>
</svg>
