<svg width="53" height="37" viewBox="0 0 53 37" fill="none" xmlns="http://www.w3.org/2000/svg">
<rect x="0.988281" y="1.01562" width="51" height="34.5261" rx="5.5" fill="white"/>
<rect x="0.988281" y="1.01562" width="51" height="34.5261" rx="5.5" stroke="#D6DCE5"/>
<path d="M26.1827 12.817L23.8505 24.1636H21.0304L23.363 12.817H26.1827ZM38.0478 20.1435L39.5325 15.8825L40.3869 20.1435H38.0478ZM41.1943 24.1636H43.8028L41.5265 12.817H39.1188C38.5778 12.817 38.1213 13.1445 37.918 13.6494L33.6871 24.1636H36.6486L37.2366 22.4692H40.8547L41.1943 24.1636ZM33.8341 20.4588C33.8462 17.4641 29.855 17.2992 29.8826 15.9615C29.8909 15.5539 30.2639 15.1215 31.0785 15.0105C31.4833 14.9556 32.596 14.9135 33.8596 15.5187L34.3544 13.1125C33.6757 12.8561 32.8024 12.6094 31.7162 12.6094C28.9289 12.6094 26.967 14.1518 26.9504 16.3605C26.9328 17.9938 28.3509 18.9053 29.4196 19.4483C30.5182 20.0045 30.8874 20.3608 30.8825 20.8582C30.8753 21.6199 30.0061 21.9553 29.1953 21.9686C27.7771 21.992 26.9542 21.5703 26.2983 21.2522L25.7872 23.7384C26.4459 24.0534 27.6622 24.327 28.9241 24.341C31.8863 24.341 33.8244 22.8176 33.8341 20.4588ZM22.1529 12.817L17.5838 24.1636H14.6022L12.3539 15.1082C12.2173 14.5505 12.0986 14.3465 11.6835 14.1113C11.0062 13.7288 9.88647 13.3693 8.90137 13.1466L8.96865 12.817H13.7672C14.3786 12.817 14.929 13.2407 15.0677 13.9737L16.2553 20.54L19.19 12.817H22.1529Z" fill="#1434CB"/>
</svg>
